<?xml version="1.0" standalone="no"?> <!DOCTYPE svg PUBLIC "-//W3C//DTD SVG 1.0//EN" "http://www.w3.org/TR/2001/REC-SVG-20010904/DTD/svg10.dtd" > <svg xmlns="http://www.w3.org/2000/svg" width="100%" height="100%">
<defs >
<font id="ibmplexsanssemibold" horiz-adv-x="613" ><font-face
    font-family="IBM Plex Sans SemiBold"
    units-per-em="1000"
    panose-1="2 11 7 3 5 2 3 0 2 3"
    ascent="1025"
    descent="-275"
    alphabetic="0" />
<missing-glyph horiz-adv-x="472" d="M32 0V780H440V0H32ZM120 88H352V692H120V88Z" />
<glyph unicode=" " glyph-name="space" horiz-adv-x="236" />
<glyph unicode="!" glyph-name="exclam" horiz-adv-x="309" d="M184 210H128L87 501V698H223V501L184 210ZM155 -12Q114 -12 94 7T74 59V79Q74 111 94 130T155 150Q195 150 215 131T235 79V59Q235 27 215 8T155 -12Z" />
<glyph unicode="&quot;" glyph-name="quotedbl" horiz-adv-x="471" d="M398 428H284V740H398V428ZM187 428H73V740H187V428Z" />
<glyph unicode="#" glyph-name="numbersign" horiz-adv-x="656" d="M347 0L379 182H221L189 0H104L135 182H26V264H150L178 434H70V516H193L224 698H309L277 516H436L467 698H552L521 516H630V434H506L477 264H586V182H463L431 0H347ZM234 264H392L422 434H264L234 264Z" />
<glyph unicode="$" glyph-name="dollar" horiz-adv-x="600" d="M355 -82H256V7Q123 18 38 116L119 190Q181 118 265 107V310Q157 333 108 380T58 502Q58 581 110 630T256 690V780H355V690Q474 677 543 593L461 522Q418 575 346 590V404Q454 379 503 334T553 212Q553
133 502 79T355 10V-82ZM179 507Q179 473 199 454T265 422V591Q179 576 179 507ZM433 203Q433 269 346 292V108Q388 117 410 142T433 203Z" />
<glyph unicode="%" glyph-name="percent" horiz-adv-x="960" d="M296 0H180L664 698H780L296 0ZM312 314T228 314T99 365T54 512T99 659T228 710T356 660T401 512T357 365ZM166 390T228 390T290 485V539Q290 634 228 634T166 539V485Q166 390 228 390ZM816 -12T732
-12T604 39T559 186T603 333T732 384T861 333T906 186T861 39ZM670 64T732 64T794 159V213Q794 308 732 308T670 213V159Q670 64 732 64Z" />
<glyph unicode="&amp;" glyph-name="ampersand" horiz-adv-x="713" d="M546 0L488 64Q401 -12 287 -12Q178 -12 117 42T56 182Q56 250 92 294T197 377Q119 465 119 543Q119 614 174 662T320 710Q404 710 457 668T511 553Q511 492 473 448T366 364L488 232Q514
297 519 380H676V273H611Q596 205 565 149L703 0H546ZM316 611Q284 611 263 592T242 543V536Q242 500 302 433Q389 484 389 539V545Q389 575 368 593T316 611ZM304 95Q372 95 420 136L261 308Q223 285 205 262T187 204V193Q187 149 218 122T304 95Z" />
<glyph unicode="&apos;" glyph-name="quotesingle" horiz-adv-x="260" d="M187 428H73V740H187V428Z" />
<glyph unicode="(" glyph-name="parenleft" horiz-adv-x="337" d="M51 312Q51 452 100 572T227 760H348Q266 684 219 576T171 348V274Q171 152 218 44T348 -138H227Q150 -72 101 49T51 312Z" />
<glyph unicode=")" glyph-name="parenright" horiz-adv-x="337" d="M287 453T287 312T237 50T110 -138H-11Q71 -63 118 45T166 274V348Q166 470 119 577T-11 760H110Q187 694 237 574Z" />
<glyph unicode="*" glyph-name="asterisk" horiz-adv-x="556" d="M278 433L178 282L88 344L204 486L33 536L67 636L231 570L222 747H334L326 570L489 636L523 536L352 486L468 344L378 283L278 433Z" />
<glyph unicode="+" glyph-name="plus" horiz-adv-x="600" d="M356 63H244V254H67V357H244V549H356V357H533V254H356V63Z" />
<glyph unicode="," glyph-name="comma" horiz-adv-x="299" d="M151 154Q190 154 210 134T231 80V62Q231 7 203 -49T129 -143H38Q110 -73 130 -9Q71 1 71 62V80Q71 114 91 134T151 154Z" />
<glyph unicode="-" glyph-name="hyphen" horiz-adv-x="402" d="M344 241H58V368H344V241Z" />
<glyph unicode="." glyph-name="period" horiz-adv-x="299" d="M149 -11Q110 -11 90 9T69 62V80Q69 114 89 134T149 154Q189 154 209 134T229 80V62Q229 29 209 9T149 -11Z" />
<glyph unicode="/" glyph-name="slash" horiz-adv-x="437" d="M112 -151H5L292 740H399L112 -151Z" />
<glyph unicode="0" glyph-name="zero" horiz-adv-x="600" d="M431 -12T300 -12T105 81T40 349T104 617T300 710T495 617T560 349T496 81ZM180 99T300 99T420 286V412Q420 599 300 599T180 412V286Q180 99 300 99Z" />
<glyph unicode="1" glyph-name="one" horiz-adv-x="600" d="M572 0H91V107H283V603H274L122 423L40 492L213 698H412V107H572V0Z" />
<glyph unicode="2" glyph-name="two" horiz-adv-x="600" d="M546 111V0H62V122L281 314Q338 364 363 404T389 488V501Q389 545 360 570T286 596Q193 596 164 492L50 536Q75 613 136 661T297 710Q405 710 466 652T528 502Q528 447 502 397T443 313T352 232L205 111H546Z" />
<glyph unicode="3" glyph-name="three" horiz-adv-x="600" d="M193 416H262Q320 416 349 440T379 503V510Q379 553 351 577T276 602Q187 602 133 518L49 594Q133 710 280 710Q387 710 452 661T517 528Q517 464 479 423T383 369V363Q448 351 488 308T529 193Q529
101 459 45T272 -12Q108 -12 24 118L121 192Q174 96 272 96Q329 96 360 124T392 201V208Q392 256 359 281T262 306H193V416Z" />
<glyph unicode="4" glyph-name="four" horiz-adv-x="600" d="M473 0H348V135H32V247L310 698H473V237H564V135H473V0ZM340 570L140 237H348V570H340Z" />
<glyph unicode="5" glyph-name="five" horiz-adv-x="600" d="M515 698V584H201L185 350H192Q217 401 249 426T340 451Q433 451 493 392T553 230Q553 122 485 55T295 -12Q135 -12 55 118L151 192Q178 146 210 121T296 96Q354 96 385 128T416 219V227Q416 281 385
312T299 343Q230 343 186 291L78 306L104 698H515Z" />
<glyph unicode="6" glyph-name="six" horiz-adv-x="600" d="M303 -12Q184 -12 117 62T49 262Q49 400 123 514T299 698H477Q344 602 276 524T186 344L194 342Q244 445 352 445Q441 445 498 386T556 229Q556 122 487 55T303 -12ZM303 92Q358 92 389 123T421 210V225Q421
281 390 312T303 343Q247 343 216 313T185 225V210Q185 153 216 123T303 92Z" />
<glyph unicode="7" glyph-name="seven" horiz-adv-x="600" d="M307 0H169L412 591H171V463H59V698H543V585L307 0Z" />
<glyph unicode="8" glyph-name="eight" horiz-adv-x="600" d="M419 -12T300 -12T113 44T45 191Q45 257 82 300T183 361V369Q129 389 98 429T66 529Q66 610 128 660T300 710T472 660T534 529Q534 470 503 430T417 369V361Q481 343 518 300T555 191Q555 101 487
45ZM244 91T300 91T387 117T418 190V211Q418 258 387 284T300 310T213 284T182 211V190Q182 143 213 117ZM248 408T300 408T380 432T409 500V516Q409 559 381 583T300 607T220 583T191 516V500Q191 456 219 432Z" />
<glyph unicode="9" glyph-name="nine" horiz-adv-x="600" d="M551 436Q551 298 477 184T301 0H123Q256 96 324 174T414 354L406 356Q356 253 248 253Q159 253 102 312T44 469Q44 576 113 643T297 710Q416 710 483 636T551 436ZM297 355Q353 355 384 385T415 473V488Q415
545 384 575T297 606Q242 606 211 575T179 488V473Q179 417 210 386T297 355Z" />
<glyph unicode=":" glyph-name="colon" horiz-adv-x="319" d="M159 367Q120 367 100 387T79 440V458Q79 492 99 512T159 532Q199 532 219 512T239 458V440Q239 407 219 387T159 367ZM159 -11Q120 -11 100 9T79 62V80Q79 114 99 134T159 154Q199 154 219 134T239
80V62Q239 29 219 9T159 -11Z" />
<glyph unicode=";" glyph-name="semicolon" horiz-adv-x="319" d="M158 367Q119 367 99 387T78 440V458Q78 492 98 512T158 532Q198 532 218 512T238 458V440Q238 407 218 387T158 367ZM160 154Q199 154 219 134T240 80V62Q240 7 212 -49T138 -143H47Q119 -73
139 -9Q80 1 80 62V80Q80 114 100 134T160 154Z" />
<glyph unicode="&lt;" glyph-name="less" horiz-adv-x="600" d="M501 -4L99 252V337L501 593V463L231 298V291L501 126V-4Z" />
<glyph unicode="=" glyph-name="equal" horiz-adv-x="600" d="M533 365H67V468H533V365ZM533 142H67V246H533V142Z" />
<glyph unicode="&gt;" glyph-name="greater" horiz-adv-x="600" d="M99 -5V126L369 291V298L99 463V593L501 337V253L99 -5Z" />
<glyph unicode="?" glyph-name="question" horiz-adv-x="493" d="M286 226H164V382Q327 388 327 498V512Q327 553 302 576T235 600Q192 600 164 574T124 505L17 549Q36 618 91 664T240 710Q341 710 402 655T463 509Q463 426 412 374T286 308V226ZM226 -12Q186
-12 166 7T146 59V79Q146 111 166 130T226 150Q267 150 287 131T307 79V59Q307 27 287 8T226 -12Z" />
<glyph unicode="@" glyph-name="at" horiz-adv-x="899" d="M674 -41V-121H458Q275 -121 169 -9T62 290T170 592T460 709Q628 709 734 609T840 331Q840 215 792 147T657 78Q606 78 575 103T539 170H534Q506 80 417 80Q347 80 302 134T257 290T301 446T417 501Q457
501 484 480T523 424H528V492H626V213Q626 158 673 158Q711 158 733 199T755 317V350Q755 478 673 554T460 630Q320 630 234 541T148 313V269Q148 130 233 45T458 -41H674ZM450 163Q483 163 505 184T528 235V353Q528 381 506 399T450 418Q409 418 386 393T363 326V255Q363
213 386 188T450 163Z" />
<glyph unicode="A" glyph-name="A" horiz-adv-x="672" d="M651 0H514L458 178H210L155 0H21L255 698H419L651 0ZM426 291L336 578H331L242 291H426Z" />
<glyph unicode="B" glyph-name="B" horiz-adv-x="663" d="M82 0V698H405Q491 698 540 650T590 519Q590 445 555 409T465 369V363Q521 362 568 322T616 200Q616 116 565 58T436 0H82ZM214 299V112H398Q436 112 457 132T478 188V222Q478 259 457 279T398 299H214ZM214
586V407H377Q413 407 433 426T453 481V512Q453 547 433 566T377 586H214Z" />
<glyph unicode="C" glyph-name="C" horiz-adv-x="642" d="M353 -12Q212 -12 132 79T52 344Q52 518 132 614T353 710Q535 710 608 549L495 489Q461 593 353 593Q279 593 236 543T192 403V293Q192 204 235 155T353 105Q463 105 504 216L611 153Q532 -12 353 -12Z" />
<glyph unicode="D" glyph-name="D" horiz-adv-x="689" d="M82 0V698H336Q476 698 556 609T637 349T557 90T336 0H82ZM214 117H336Q411 117 454 162T497 294V404Q497 491 454 536T336 581H214V117Z" />
<glyph unicode="E" glyph-name="E" horiz-adv-x="600" d="M542 0H82V698H542V581H214V412H504V295H214V117H542V0Z" />
<glyph unicode="F" glyph-name="F" horiz-adv-x="577" d="M214 0H82V698H531V581H214V412H490V295H214V0Z" />
<glyph unicode="G" glyph-name="G" horiz-adv-x="712" d="M527 0V108H523Q514 55 465 22T340 -12Q213 -12 133 82T52 347Q52 519 136 614T363 710Q549 710 627 551L520 488Q476 593 363 593Q284 593 238 545T192 405V293Q192 203 238 154T365 105Q430 105 472
136T514 224V269H377V380H641V0H527Z" />
<glyph unicode="H" glyph-name="H" horiz-adv-x="719" d="M505 0V295H214V0H82V698H214V412H505V698H637V0H505Z" />
<glyph unicode="I" glyph-name="I" horiz-adv-x="423" d="M370 0H53V106H145V592H53V698H370V592H277V106H370V0Z" />
<glyph unicode="J" glyph-name="J" horiz-adv-x="545" d="M115 698H467V196Q467 102 408 46T246 -11Q152 -11 97 38T26 174L148 199Q167 105 245 105Q286 105 310 130T335 205V590H115V698Z" />
<glyph unicode="K" glyph-name="K" horiz-adv-x="678" d="M506 0L307 316L214 206V0H82V698H214V354H219L318 485L491 698H643L400 407L663 0H506Z" />
<glyph unicode="L" glyph-name="L" horiz-adv-x="521" d="M489 0H82V698H214V117H489V0Z" />
<glyph unicode="M" glyph-name="M" horiz-adv-x="816" d="M82 0V698H231L410 357H414L591 698H734V0H609V501H605L551 390L408 126L265 390L211 501H207V0H82Z" />
<glyph unicode="N" glyph-name="N" horiz-adv-x="719" d="M492 0L282 358L210 503H207V0H82V698H227L437 340L509 195H512V698H637V0H492Z" />
<glyph unicode="O" glyph-name="O" horiz-adv-x="712" d="M356 -12Q216 -12 134 81T52 349T134 616T356 710Q497 710 578 617T660 349T579 82T356 -12ZM281 105T356 105T475 155T520 295V403Q520 492 476 542T356 593T237 543T192 403V295Q192 206 236 156Z" />
<glyph unicode="P" glyph-name="P" horiz-adv-x="641" d="M214 0H82V698H396Q492 698 547 639T603 482T548 325T396 266H214V0ZM214 583V380H384Q423 380 444 400T466 459V505Q466 543 445 563T384 583H214Z" />
<glyph unicode="Q" glyph-name="Q" horiz-adv-x="712" d="M532 -70V-178H435Q301 -178 301 -50V-8Q185 10 119 102T52 349Q52 523 134 616T356 710Q497 710 578 617T660 349Q660 198 598 107T425 -5V-70H532ZM281 105T356 105T475 155T520 295V403Q520 492 476
542T356 593T237 543T192 403V295Q192 206 236 156Z" />
<glyph unicode="R" glyph-name="R" horiz-adv-x="664" d="M214 269V0H82V698H397Q492 698 547 640T603 482Q603 409 570 357T473 284L616 0H469L339 269H214ZM214 380H384Q423 380 444 400T466 459V505Q466 543 445 563T384 583H214V380Z" />
<glyph unicode="S" glyph-name="S" horiz-adv-x="611" d="M299 -12Q138 -12 39 104L128 190Q202 104 307 104Q367 104 398 130T430 202Q430 239 409 260T335 291L269 301Q60 334 60 504Q60 598 128 654T313 710Q466 710 552 607L462 522Q405 594 306 594Q250 594
221 573T192 512T214 454T289 425L354 413Q460 394 510 345T561 210Q561 109 492 49T299 -12Z" />
<glyph unicode="T" glyph-name="T" horiz-adv-x="580" d="M554 581H356V0H224V581H26V698H554V581Z" />
<glyph unicode="U" glyph-name="U" horiz-adv-x="690" d="M77 698H207V269Q207 185 239 145T345 105T450 145T483 269V698H613V286Q613 130 551 59T344 -12T138 59T77 286V698Z" />
<glyph unicode="V" glyph-name="V" horiz-adv-x="638" d="M394 0H244L16 698H151L258 358L320 126H323L384 358L491 698H622L394 0Z" />
<glyph unicode="W" glyph-name="W" horiz-adv-x="949" d="M338 0H188L26 698H158L227 363L270 149H273L323 363L403 698H549L629 363L678 149H681L725 363L796 698H922L755 0H606L517 369L474 553H472L427 369L338 0Z" />
<glyph unicode="X" glyph-name="X" horiz-adv-x="655" d="M18 0L244 358L28 698H182L330 450H333L483 698H627L409 358L637 0H483L323 268H320L162 0H18Z" />
<glyph unicode="Y" glyph-name="Y" horiz-adv-x="632" d="M382 0H249V274L10 698H158L319 403H321L478 698H622L382 275V0Z" />
<glyph unicode="Z" glyph-name="Z" horiz-adv-x="599" d="M561 116V0H38V118L400 582H56V698H551V580L188 116H561Z" />
<glyph unicode="[" glyph-name="bracketleft" horiz-adv-x="329" d="M276 -138H82V760H276V668H199V-46H276V-138Z" />
<glyph unicode="\" glyph-name="backslash" horiz-adv-x="437" d="M431 -151H324L37 740H144L431 -151Z" />
<glyph unicode="]" glyph-name="bracketright" horiz-adv-x="329" d="M53 760H247V-138H53V-46H130V668H53V760Z" />
<glyph unicode="^" glyph-name="asciicircum" horiz-adv-x="600" d="M556 332L454 283L301 563H295L141 283L44 332L246 698H356L556 332Z" />
<glyph unicode="_" glyph-name="underscore" horiz-adv-x="559" d="M529 -183H30V-75H529V-183Z" />
<glyph unicode="`" glyph-name="grave" horiz-adv-x="600" d="M287 581L161 752L269 805L364 618L287 581Z" />
<glyph unicode="a" glyph-name="a" horiz-adv-x="559" d="M203 -12Q125 -12 81 29T37 142Q37 221 94 261T260 302H349V340Q349 432 252 432Q179 432 133 366L57 434Q120 534 261 534Q366 534 421 486T477 348V102H529V0H458Q418 0 393 24T361 90H355Q342 40 302
14T203 -12ZM246 81Q291 81 320 101T349 156V225H267Q167 225 167 161V144Q167 81 246 81Z" />
<glyph unicode="b" glyph-name="b" horiz-adv-x="600" d="M74 0V740H202V436H206Q220 481 259 507T350 534Q449 534 502 464T555 262Q555 130 502 59T350 -12Q299 -12 260 15T206 87H202V0H74ZM309 94Q359 94 390 127T421 216V306Q421 361 390 395T309 429Q263
429 233 406T202 345V179Q202 139 232 117T309 94Z" />
<glyph unicode="c" glyph-name="c" horiz-adv-x="513" d="M280 -12Q166 -12 103 61T39 262T102 461T280 534Q435 534 485 402L380 355Q359 431 280 431Q228 431 201 398T173 308V213Q173 157 200 124T280 91Q357 91 390 173L488 126Q437 -12 280 -12Z" />
<glyph unicode="d" glyph-name="d" horiz-adv-x="600" d="M398 0V87H393Q379 42 340 15T249 -12Q151 -12 98 59T45 262T98 463T249 534Q301 534 340 508T393 436H398V740H526V0H398ZM290 94Q337 94 367 117T398 179V345Q398 383 368 406T290 429Q240 429 210 395T179
306V216Q179 161 209 128T290 94Z" />
<glyph unicode="e" glyph-name="e" horiz-adv-x="558" d="M285 -12Q170 -12 105 62T39 262Q39 387 103 460T281 534Q397 534 458 460T519 271V229H172V216Q172 158 204 124T299 90Q377 90 432 161L501 84Q431 -12 285 -12ZM283 438Q233 438 203 404T172 316V308H386V317Q386
372 359 405T283 438Z" />
<glyph unicode="f" glyph-name="f" horiz-adv-x="350" d="M100 0V421H23V522H100V597Q100 666 137 703T244 740H335V638H228V522H335V421H228V0H100Z" />
<glyph unicode="g" glyph-name="g" horiz-adv-x="545" d="M545 -44Q545 -128 481 -170T271 -212Q28 -212 28 -89Q28 -3 121 11V22Q89 30 72 53T54 109Q54 180 150 201V205Q55 249 55 357Q55 438 111 486T271 534Q324 534 362 521V538Q362 614 436 614H517V516H406V502Q487
457 487 357Q487 276 431 229T271 182Q226 182 191 191Q154 174 154 144Q154 105 222 105H362Q545 105 545 -44ZM425 -59Q425 -6 336 -6H158Q131 -26 131 -60Q131 -124 241 -124H305Q425 -124 425 -59ZM177 269T271 269T365 349V366Q365 446 271 446T177 366V349Q177
269 271 269Z" />
<glyph unicode="h" glyph-name="h" horiz-adv-x="588" d="M74 0V740H202V435H207Q244 534 353 534Q433 534 476 481T520 330V0H392V317Q392 429 306 429Q263 429 233 407T202 345V0H74Z" />
<glyph unicode="i" glyph-name="i" horiz-adv-x="276" d="M138 598Q63 598 63 662V682Q63 746 138 746Q175 746 194 729T213 682V662Q213 633 194 616T138 598ZM74 0V522H202V0H74Z" />
<glyph unicode="j" glyph-name="j" horiz-adv-x="276" d="M74 -98V522H202V-63Q202 -200 64 -200H-6V-98H74ZM138 598Q63 598 63 662V682Q63 746 138 746Q175 746 194 729T213 682V662Q213 633 194 616T138 598Z" />
<glyph unicode="k" glyph-name="k" horiz-adv-x="562" d="M74 0V740H202V294H207L276 388L393 522H538L358 320L557 0H405L271 234L202 159V0H74Z" />
<glyph unicode="l" glyph-name="l" horiz-adv-x="294" d="M271 0H202Q74 0 74 126V740H202V102H271V0Z" />
<glyph unicode="m" glyph-name="m" horiz-adv-x="888" d="M202 0H74V522H202V435H207Q243 534 347 534Q460 534 498 429H500Q515 475 557 504T660 534Q736 534 778 481T820 330V0H692V317Q692 429 608 429Q568 429 540 407T511 345V0H383V317Q383 429 299 429Q259
429 231 407T202 345V0Z" />
<glyph unicode="n" glyph-name="n" horiz-adv-x="588" d="M202 0H74V522H202V435H207Q244 534 353 534Q433 534 476 481T520 330V0H392V317Q392 429 306 429Q263 429 233 407T202 345V0Z" />
<glyph unicode="o" glyph-name="o" horiz-adv-x="563" d="M393 -12T281 -12T104 62T39 262Q39 387 104 460T281 534T458 461T524 262Q524 136 459 62ZM281 91Q332 91 361 122T390 213V310Q390 368 361 399T281 431Q231 431 202 400T173 310V213Q173 155 202 123T281 91Z" />
<glyph unicode="p" glyph-name="p" horiz-adv-x="600" d="M74 -200V522H202V436H206Q220 481 259 507T350 534Q449 534 502 464T555 262Q555 130 502 59T350 -12Q299 -12 260 15T206 87H202V-200H74ZM309 94Q359 94 390 127T421 216V306Q421 361 390 395T309 429Q263
429 233 406T202 345V179Q202 139 232 117T309 94Z" />
<glyph unicode="q" glyph-name="q" horiz-adv-x="600" d="M398 -200V87H393Q379 42 340 15T249 -12Q151 -12 98 59T45 262T98 463T249 534Q301 534 340 508T393 436H398V522H526V-200H398ZM290 94Q337 94 367 117T398 179V345Q398 383 368 406T290 429Q240 429
210 395T179 306V216Q179 161 209 128T290 94Z" />
<glyph unicode="r" glyph-name="r" horiz-adv-x="393" d="M202 0H74V522H202V414H207Q218 460 252 491T345 522H373V401H333Q202 401 202 320V0Z" />
<glyph unicode="s" glyph-name="s" horiz-adv-x="499" d="M245 -12Q112 -12 29 84L107 160Q168 89 250 89Q337 89 337 149Q337 196 273 204L221 211Q47 233 47 369Q47 444 101 489T245 534Q317 534 362 514T449 452L374 377Q322 433 249 433Q170 433 170 379Q170
353 185 340T238 320L291 313Q460 289 460 159Q460 83 401 36T245 -12Z" />
<glyph unicode="t" glyph-name="t" horiz-adv-x="374" d="M237 0Q171 0 137 34T102 133V420H25V522H65Q93 522 104 535T115 576V665H230V522H337V420H230V102H329V0H237Z" />
<glyph unicode="u" glyph-name="u" horiz-adv-x="588" d="M386 0V87H381Q347 -12 235 -12Q155 -12 112 41T68 192V522H196V205Q196 94 284 94Q326 94 356 115T386 177V522H514V0H386Z" />
<glyph unicode="v" glyph-name="v" horiz-adv-x="524" d="M338 0H186L12 522H138L211 297L262 111H269L320 297L391 522H513L338 0Z" />
<glyph unicode="w" glyph-name="w" horiz-adv-x="819" d="M167 0L23 522H146L199 307L240 128H244L292 307L353 522H469L532 307L581 128H585L626 307L678 522H797L654 0H516L449 230L410 372H407L369 230L303 0H167Z" />
<glyph unicode="x" glyph-name="x" horiz-adv-x="544" d="M19 0L197 265L23 522H169L277 349H281L388 522H524L347 263L525 0H379L269 180H265L155 0H19Z" />
<glyph unicode="y" glyph-name="y" horiz-adv-x="524" d="M303 246L394 522H514L304 -93Q284 -151 251 -175T155 -200H78V-98H172L196 -25L9 522H136L227 246L261 114H267L303 246Z" />
<glyph unicode="z" glyph-name="z" horiz-adv-x="502" d="M465 0H37V102L308 421H46V522H458V423L185 102H465V0Z" />
<glyph unicode="{" glyph-name="braceleft" horiz-adv-x="363" d="M310 -138H209Q168 -138 143 -113T117 -43V171Q117 213 90 236T20 260V363Q63 363 90 386T117 451V665Q117 709 142 734T209 760H310V668H234V443Q234 395 205 359T132 315V307Q175 299 204 263T234
179V-46H310V-138Z" />
<glyph unicode="|" glyph-name="bar" horiz-adv-x="376" d="M242 -138H134V760H242V-138Z" />
<glyph unicode="}" glyph-name="braceright" horiz-adv-x="363" d="M53 760H155Q196 760 221 734T247 665V451Q247 409 273 386T343 363V260Q300 260 274 237T247 171V-43Q247 -86 222 -112T155 -138H53V-46H130V180Q130 227 159 263T231 308V315Q188 323 159
359T130 443V668H53V760Z" />
<glyph unicode="~" glyph-name="asciitilde" horiz-adv-x="600" d="M417 219Q364 219 290 255Q222 289 179 289Q142 289 100 260L55 332Q99 392 183 392Q236 392 310 356Q376 323 421 323Q459 323 500 351L545 279Q501 219 417 219Z" />
</font>
</defs>
</svg>
