<?xml version="1.0" encoding="utf-8"?>
<!-- Generator: Adobe Illustrator 22.1.0, SVG Export Plug-In . SVG Version: 6.00 Build 0)  -->
<svg version="1.1" id="Capa_1" xmlns="http://www.w3.org/2000/svg" xmlns:xlink="http://www.w3.org/1999/xlink" x="0px" y="0px"
	 viewBox="0 0 46.1 45.5" style="enable-background:new 0 0 46.1 45.5;" xml:space="preserve">
<style type="text/css">
	.st0{fill:#F8C13B;}
	.st1{fill:none;}
	.st2{fill:#6D6E71;}
	.st3{fill:#37144E;}
	.st4{fill:#A7A9AC;stroke:#37144E;stroke-width:0.8;stroke-linecap:round;stroke-linejoin:round;}
	.st5{fill:#6D6E71;stroke:#37144E;stroke-width:0.8;stroke-linecap:round;stroke-linejoin:round;}
	.st6{fill:#A7A9AC;}
	.st7{fill:none;stroke:#37144E;stroke-width:0.8;stroke-linecap:round;stroke-linejoin:round;}
</style>
<title>achievements</title>
<g>
	<g id="Capa_2_1_">
		<g id="Layer_1">
			<circle class="st0" cx="23.1" cy="22.8" r="22.5"/>
			<rect x="8.1" y="7.8" class="st1" width="30" height="30"/>
			
				<image style="overflow:visible;opacity:0.75;enable-background:new    ;" width="31" height="31" xlink:href="89014F29A73B635D.png"  transform="matrix(0.9677 0 0 0.9677 8.86 8.93)">
			</image>
			<polygon class="st2" points="21.2,28.9 11.8,28.9 13.4,15.6 20.3,15.6 			"/>
			<rect x="14.3" y="13.8" class="st3" width="4.4" height="1.8"/>
			<rect x="13.3" y="11.7" class="st4" width="6.3" height="2.1"/>
			<rect x="11.8" y="30.7" class="st4" width="9.4" height="3.1"/>
			<path class="st5" d="M23.1,21.8c0.8,0,1.6,0.3,2.3,0.8l0.2-3h-4.9l0.2,3C21.5,22.1,22.3,21.8,23.1,21.8z"/>
			<rect x="13.4" y="28.9" class="st3" width="6.2" height="1.8"/>
			<polygon class="st6" points="16.5,15.6 15,28.9 11.8,28.9 13.4,15.6 			"/>
			<polygon class="st7" points="21.2,28.9 11.8,28.9 13.4,15.6 20.3,15.6 			"/>
			<polygon class="st2" points="25,28.9 34.4,28.9 32.7,15.6 25.8,15.6 			"/>
			<rect x="27.5" y="13.8" class="st3" width="4.3" height="1.8"/>
			<rect x="26.5" y="11.7" class="st4" width="6.3" height="2.1"/>
			<rect x="25" y="30.7" class="st4" width="9.4" height="3.1"/>
			<rect x="26.6" y="28.9" class="st3" width="6.2" height="1.8"/>
			<polygon class="st6" points="29.7,15.6 31.2,28.9 34.4,28.9 32.7,15.6 			"/>
			<polygon class="st7" points="25,28.9 34.4,28.9 32.7,15.6 25.8,15.6 			"/>
		</g>
	</g>
</g>
</svg>
