<svg xmlns="http://www.w3.org/2000/svg" viewBox="0 0 38.19 31.82"><defs><style>.cls-1{fill:none;stroke:#ea6751;stroke-linecap:round;stroke-linejoin:round;stroke-width:1.6px;}.cls-2{fill:#ea6751;}</style></defs><title>archivo-secreto</title><g id="Capa_2" data-name="Capa 2"><g id="Capa_1-2" data-name="Capa 1"><path class="cls-1" d="M19.09,26.36H22a2.67,2.67,0,0,0,2.63-2.8V18.41h-11v5.15a2.66,2.66,0,0,0,2.63,2.8h2.87Z"/><path class="cls-1" d="M22.94,18.33c0-2.57.61-6.39-3.83-6.39h0c-4.44,0-3.84,3.82-3.84,6.39"/><rect class="cls-1" x="0.8" y="0.8" width="36.59" height="30.22"/><line class="cls-1" x1="1.6" y1="7.16" x2="36.59" y2="7.16"/><path class="cls-2" d="M4.33,4a.79.79,0,0,1-.79.8.8.8,0,0,1-.8-.8.79.79,0,0,1,.8-.79A.79.79,0,0,1,4.33,4"/><path class="cls-2" d="M7.51,4a.79.79,0,0,1-.79.8.8.8,0,0,1-.8-.8.79.79,0,0,1,.8-.79A.79.79,0,0,1,7.51,4"/><path class="cls-2" d="M10.7,4A.8.8,0,1,1,9.1,4a.8.8,0,0,1,1.6,0"/></g></g></svg>