<svg xmlns="http://www.w3.org/2000/svg" viewBox="0 0 24 21.84"><defs><style>.cls-1{fill:none;stroke:#5d539e;stroke-linecap:round;stroke-linejoin:round;}</style></defs><title>email</title><g id="Capa_2" data-name="Capa 2"><g id="Layer_1" data-name="Layer 1"><path class="cls-1" d="M.85,1.05,9.76,8.79a3.08,3.08,0,0,0,3.92,0l8.91-7.74"/><polygon class="cls-1" points="17.49 16.51 12.5 11.52 12.5 18.52 17.49 16.51"/><line class="cls-1" x1="14.81" y1="17.51" x2="16.47" y2="21.34"/><path class="cls-1" d="M12,15.5H2.22a1.78,1.78,0,0,1-1.72-2V2.5A1.78,1.78,0,0,1,2.22.5h19a2.27,2.27,0,0,1,2.28,2v11a2.27,2.27,0,0,1-2.28,2H17"/></g></g></svg>