<svg xmlns="http://www.w3.org/2000/svg" viewBox="0 0 56 56"><defs><style>.cls-1,.cls-7{fill:none;}.cls-2,.cls-5{fill:#6d6e71;}.cls-3{fill:#37144e;}.cls-4,.cls-6{fill:#a7a9ac;}.cls-4,.cls-5,.cls-7{stroke:#37144e;stroke-linecap:round;stroke-linejoin:round;stroke-width:2px;}</style></defs><title>explora</title><g id="Capa_2" data-name="Capa 2"><g id="Layer_1" data-name="Layer 1"><rect class="cls-1" width="56" height="56"/><polygon class="cls-2" points="23.83 41.6 2.92 41.6 6.67 12.2 21.95 12.2 23.83 41.6"/><rect class="cls-3" x="8.55" y="8.2" width="9.64" height="4"/><rect class="cls-4" x="6.38" y="3.52" width="14" height="4.68"/><rect class="cls-4" x="2.92" y="45.61" width="20.9" height="6.88"/><path class="cls-5" d="M28,25.85a8.92,8.92,0,0,1,5,1.73L33.46,21H22.56L23,27.58A8.9,8.9,0,0,1,28,25.85Z"/><rect class="cls-3" x="6.51" y="41.61" width="13.72" height="4"/><polygon class="cls-6" points="13.38 12.2 10.03 41.6 2.92 41.6 6.67 12.2 13.38 12.2"/><polygon class="cls-7" points="23.83 41.6 2.92 41.6 6.67 12.2 21.95 12.2 23.83 41.6"/><polygon class="cls-2" points="32.17 41.6 53.08 41.6 49.33 12.2 34.05 12.2 32.17 41.6"/><rect class="cls-3" x="37.8" y="8.2" width="9.64" height="4" transform="translate(85.25 20.4) rotate(180)"/><rect class="cls-4" x="35.63" y="3.52" width="14" height="4.68" transform="translate(85.25 11.72) rotate(180)"/><rect class="cls-4" x="32.17" y="45.61" width="20.9" height="6.88" transform="translate(85.25 98.09) rotate(180)"/><rect class="cls-3" x="35.76" y="41.61" width="13.72" height="4" transform="translate(85.25 87.21) rotate(180)"/><polygon class="cls-6" points="42.63 12.2 45.97 41.6 53.08 41.6 49.33 12.2 42.63 12.2"/><polygon class="cls-7" points="32.17 41.6 53.08 41.6 49.33 12.2 34.05 12.2 32.17 41.6"/></g></g></svg>