<svg xmlns="http://www.w3.org/2000/svg" viewBox="0 0 25 25"><defs><style>.cls-1{fill:none;}.cls-2{fill:#f4832f;}</style></defs><title>flag-new0</title><g id="Layer_2" data-name="Layer 2"><g id="Layer_1-2" data-name="Layer 1"><rect class="cls-1" width="25" height="25"/><path class="cls-2" d="M2.31.58V14.84c9.11,0,16.36,4.78,20.43,4.78V5.29C18.49,5.29,10,.58,2.31.58Zm9.14,10.95-7.2,1.93V2s6.3,2.83,7.2,4.11L5.14,7.83C6.91,8.66,10.75,10.55,11.45,11.52Zm3.15-1.19a1.53,1.53,0,1,1,1.53-1.53A1.53,1.53,0,0,1,14.6,10.34Zm3.94,1.08a1.54,1.54,0,1,1,1.54-1.54A1.54,1.54,0,0,1,18.54,11.41Z"/><rect class="cls-2" x="2.11" y="0.58" width="2.13" height="23.01"/></g></g></svg>