<svg xmlns="http://www.w3.org/2000/svg" viewBox="0 0 38.52 38.6"><defs><style>.cls-1{fill:none;stroke:#bcbec0;stroke-linecap:round;stroke-linejoin:round;stroke-width:1.6px;}</style></defs><title>reto-global</title><g id="Capa_2" data-name="Capa 2"><g id="Capa_1-2" data-name="Capa 1"><path class="cls-1" d="M26.9,21.55,37.72,5,35.56,3.63,33.4,2.21,31.24.8,19.91,18.09A9.87,9.87,0,0,1,26.9,21.55Z"/><path class="cls-1" d="M25.48,28.48a8.19,8.19,0,0,0,0-.85H22.46a4,4,0,0,0-4.13,2.69l-1.4,3.23c.23.09.46.19.7.26"/><circle class="cls-1" cx="19.38" cy="27.93" r="9.87"/><path class="cls-1" d="M16.69,22.4a6.15,6.15,0,1,0,8.22,2.84A6.16,6.16,0,0,0,16.69,22.4Z"/><path class="cls-1" d="M19.38,18.06l.52,0L31.22.8,19.14,12.41,7.27.8,18.61,18.1C18.86,18.08,19.12,18.06,19.38,18.06Z"/><path class="cls-1" d="M18.62,18.1,7.27.8,5.12,2.21,3,3.63.8,5,11.72,21.7A9.87,9.87,0,0,1,18.62,18.1Z"/></g></g></svg>