<svg xmlns="http://www.w3.org/2000/svg" viewBox="0 0 91.04 95.95"><defs><style>.cls-1,.cls-2,.cls-4{fill:none;}.cls-1,.cls-2{stroke:#bcbec0;}.cls-1{stroke-miterlimit:10;}.cls-2,.cls-4{stroke-linecap:round;stroke-linejoin:round;}.cls-3{fill:#ffc31d;}.cls-4{stroke:#fff;stroke-width:3px;}</style></defs><title>Recurso 30</title><g id="Capa_2" data-name="Capa 2"><g id="Layer_1" data-name="Layer 1"><rect class="cls-1" x="0.5" y="29.2" width="66.25" height="66.25" rx="11.75" ry="11.75"/><line class="cls-1" x1="1.94" y1="83.93" x2="65.31" y2="83.93"/><polygon class="cls-2" points="5.57 75.29 59.37 75.29 40.82 42.13 29.07 57.86 21.24 53.84 5.57 75.29"/><path class="cls-1" d="M17.32,43.29a3.92,3.92,0,1,1-3.91-3.91A3.91,3.91,0,0,1,17.32,43.29Z"/><path class="cls-3" d="M66,50A25,25,0,1,1,91,25,25,25,0,0,1,66,50Z"/><line class="cls-4" x1="66.04" y1="35.1" x2="66.04" y2="14.89"/><line class="cls-4" x1="76.14" y1="25" x2="55.93" y2="25"/></g></g></svg>