<svg xmlns="http://www.w3.org/2000/svg" viewBox="0 0 302.6 85.26"><defs><style>.cls-1{fill:#f1f2f2;}.cls-2{fill:#e84949;}.cls-3{fill:#eaa165;}.cls-4{fill:#2e5e62;}.cls-5{fill:#fcead9;}.cls-6{fill:#5bbcc4;}.cls-7{fill:#261944;}.cls-8{fill:none;stroke:#a7a9ac;stroke-linecap:round;stroke-miterlimit:10;stroke-width:3.66px;}</style></defs><title>barco1</title><g id="Capa_2" data-name="Capa 2"><g id="barco1"><path class="cls-1" d="M289.45,51S278,13.21,276.57,5.31s-22.18-6.21-22.18,0V51Z"/><rect class="cls-2" x="39.44" y="51.02" width="53.74" height="14.64"/><rect class="cls-3" x="93.17" y="51.02" width="53.74" height="14.64"/><rect class="cls-4" x="93.17" y="36.38" width="53.74" height="14.64"/><rect class="cls-3" x="39.44" y="36.38" width="53.74" height="14.64"/><rect class="cls-5" x="39.44" y="21.75" width="53.74" height="14.64"/><rect class="cls-6" x="146.91" y="36.38" width="53.74" height="14.64"/><rect class="cls-2" x="146.91" y="21.75" width="53.74" height="14.64"/><rect class="cls-5" x="200.64" y="21.75" width="53.74" height="14.64"/><rect class="cls-7" x="200.64" y="36.38" width="53.74" height="14.64"/><rect class="cls-5" x="146.91" y="51.02" width="53.74" height="14.64"/><rect class="cls-3" x="200.64" y="51.02" width="53.74" height="14.64"/><path class="cls-7" d="M0,46.12H40.53S46.12,65,60.1,65H254.38V51H302.6V85.26H40.53S0,61.5,0,46.12Z"/><line class="cls-8" x1="254.39" y1="13.14" x2="289.45" y2="13.14"/></g></g></svg>