<svg xmlns="http://www.w3.org/2000/svg" viewBox="0 0 302.6 85.26"><defs><style>.cls-1{fill:#f1f2f2;}.cls-2{fill:#e84949;}.cls-3{fill:#eaa165;}.cls-4{fill:#2e5e62;}.cls-5{fill:#fcead9;}.cls-6{fill:#5bbcc4;}.cls-7{fill:#261944;}.cls-8{fill:none;stroke:#a7a9ac;stroke-linecap:round;stroke-miterlimit:10;stroke-width:3.66px;}</style></defs><title>barco3</title><g id="Capa_2" data-name="Capa 2"><g id="barco3"><path class="cls-1" d="M13.14,51S24.59,13.21,26,5.31s22.19-6.21,22.19,0V51Z"/><rect class="cls-2" x="209.43" y="51.02" width="53.74" height="14.64" transform="translate(472.59 116.67) rotate(-180)"/><rect class="cls-3" x="155.69" y="51.02" width="53.74" height="14.64" transform="translate(365.12 116.67) rotate(-180)"/><rect class="cls-4" x="155.69" y="36.38" width="53.74" height="14.64" transform="translate(365.12 87.4) rotate(-180)"/><rect class="cls-3" x="209.43" y="36.38" width="53.74" height="14.64" transform="translate(472.59 87.4) rotate(-180)"/><rect class="cls-5" x="209.43" y="21.75" width="53.74" height="14.64" transform="translate(472.59 58.13) rotate(-180)"/><rect class="cls-6" x="101.96" y="36.38" width="53.74" height="14.64" transform="translate(257.65 87.4) rotate(-180)"/><rect class="cls-2" x="101.96" y="21.75" width="53.74" height="14.64" transform="translate(257.65 58.13) rotate(-180)"/><rect class="cls-5" x="48.22" y="21.75" width="53.74" height="14.64" transform="translate(150.18 58.13) rotate(-180)"/><rect class="cls-7" x="48.22" y="36.38" width="53.74" height="14.64" transform="translate(150.18 87.4) rotate(-180)"/><rect class="cls-5" x="101.96" y="51.02" width="53.74" height="14.64" transform="translate(257.65 116.67) rotate(-180)"/><rect class="cls-3" x="48.22" y="51.02" width="53.74" height="14.64" transform="translate(150.18 116.67) rotate(-180)"/><path class="cls-7" d="M302.6,46.12H262.07S256.48,65,242.5,65H48.22V51H0V85.26H262.07S302.6,61.5,302.6,46.12Z"/><line class="cls-8" x1="48.21" y1="13.14" x2="13.14" y2="13.14"/></g></g></svg>