<svg xmlns="http://www.w3.org/2000/svg" viewBox="0 0 58.71 41.36"><defs><style>.cls-1{fill:#ffc31d;}</style></defs><title>Recurso 10</title><g id="Capa_2" data-name="Capa 2"><g id="Layer_1" data-name="Layer 1"><g id="_Grupo_" data-name="&lt;Grupo&gt;"><path id="_Trazado_compuesto_" data-name="&lt;Trazado compuesto&gt;" class="cls-1" d="M16.28,19.66c5-3,8.24-5.06,7-11.6C22.25,3,17.6,1.38,13,.64,9.7.11,1.94-1.18.39,2.66c-.89,2.23,0,6.54,0,9L.59,21c.05,3.21.12,6.43.15,9.64,0,2.19-.71,5.95.05,8,1.47,4,10,2.61,13.51,2,8-1.49,16.25-13.85,6.26-19C19.22,21,17.71,20.32,16.28,19.66ZM5,8.12c0-2.25,6.23-.81,7.59-.64,3,.38,5.25.7,5.6,4.19.6,5.9-9.09,6.73-13.19,7.22V8.12Zm2.31,28.3c-2.43-.35-1.7.29-2.21-1.83-.24-1-.68-9.51.21-10.72,1.58-2.13,8.63-.59,10.8.54,3,1.59,3.82,5.09,2.12,8.09S10.86,36.94,7.34,36.42Z"/><path id="_Trazado_" data-name="&lt;Trazado&gt;" class="cls-1" d="M43.1,20.18c-2.18-.37-2.72,3-1.1,3.84,2.63,1.41,4.12-3.33,1.1-3.84Z"/><path id="_Trazado_2" data-name="&lt;Trazado&gt;" class="cls-1" d="M54.86,20.16c3.47-.29,1.79-4.61-.45-3.92-1.74.53-1.8,4.1.45,3.92Z"/><path id="_Trazado_3" data-name="&lt;Trazado&gt;" class="cls-1" d="M56.61,29.05c-3.82,4.41-9.45,7.45-15.38,6.59-7.28-1-8.06-7.34-6.43-13.27,1.19-4.32,5.65-8.89,10-4.76a30,30,0,0,1,4.54,7.25c-.9.59-4,1-4.61,2.19a2.24,2.24,0,0,0,.77,2.24c1.07,1,5.76-1,7.67-2,2.69-.94-.87-5.52-2-7.69-2.44-4.74-5.79-9.54-11.85-8.4C26.55,13.64,25.62,30.5,34,38c5.11,4.56,11.13,4,17,1.09a16.57,16.57,0,0,0,6.05-4.55A6.76,6.76,0,0,0,58.71,31c0-.81-.64-3.57-2.1-1.9C54.29,31.73,57.36,28.19,56.61,29.05Z"/></g></g></g></svg>