<svg xmlns="http://www.w3.org/2000/svg" viewBox="0 0 261.03 32.83"><defs><style>.cls-1{fill:#f8c13b;}</style></defs><title>Be-logo-login</title><g id="Capa_2" data-name="Capa 2"><g id="Layer_1" data-name="Layer 1"><g id="_Grupo_" data-name="&lt;Grupo&gt;"><path id="_Trazado_compuesto_" data-name="&lt;Trazado compuesto&gt;" class="cls-1" d="M10.9,13.16c3.35-2,5.51-3.39,4.66-7.77C14.89,2,11.78.92,8.7.43,6.49.07,1.3-.79.26,1.78c-.59,1.49,0,4.38,0,6,0,2.1.07,4.2.11,6.3s.07,4.31.09,6.46c0,1.47-.47,4,0,5.34,1,2.65,6.72,1.75,9,1.32,5.35-1,10.88-9.27,4.19-12.7C12.86,14,11.85,13.6,10.9,13.16ZM3.37,5.43c0-1.5,4.17-.54,5.08-.42,2,.25,3.51.47,3.75,2.8.4,4-6.09,4.51-8.83,4.83V5.43Zm1.54,19c-1.62-.24-1.14.19-1.47-1.23-.17-.69-.46-6.36.14-7.17,1-1.43,5.77-.4,7.22.36a3.77,3.77,0,0,1,1.42,5.41C11.14,23.67,7.27,24.72,4.91,24.38Z"/><path id="_Trazado_" data-name="&lt;Trazado&gt;" class="cls-1" d="M28.85,13.51c-1.46-.25-1.82,2-.74,2.57,1.76.94,2.76-2.23.74-2.57Z"/><path id="_Trazado_2" data-name="&lt;Trazado&gt;" class="cls-1" d="M36.72,13.49c2.32-.19,1.2-3.08-.3-2.62-1.16.36-1.2,2.75.3,2.62Z"/><path id="_Trazado_3" data-name="&lt;Trazado&gt;" class="cls-1" d="M37.89,19.45c-2.56,2.95-6.33,5-10.29,4.41-4.87-.71-5.4-4.92-4.3-8.89.79-2.89,3.77-6,6.66-3.18a20.39,20.39,0,0,1,3,4.85c-.6.4-2.65.69-3.08,1.46a1.5,1.5,0,0,0,.51,1.51c.72.67,3.86-.68,5.14-1.32,1.8-.63-.59-3.7-1.33-5.15C32.6,10,30.35,6.75,26.3,7.52c-8.53,1.61-9.15,12.9-3.53,17.92,3.41,3.06,7.44,2.68,11.4.73a11.08,11.08,0,0,0,4-3.05,4.51,4.51,0,0,0,1.08-2.4c0-.54-.43-2.4-1.41-1.27Z"/></g><path class="cls-1" d="M57.2,26.66A9.34,9.34,0,0,1,53.72,26a7.11,7.11,0,0,1-2.59-1.77,7.79,7.79,0,0,1-1.61-2.78A11.23,11.23,0,0,1,49,17.84a11.19,11.19,0,0,1,.58-3.68,8.44,8.44,0,0,1,1.6-2.8,7,7,0,0,1,2.51-1.79A8.48,8.48,0,0,1,56.93,9a8.14,8.14,0,0,1,3.22.61,6.8,6.8,0,0,1,2.46,1.72,7.62,7.62,0,0,1,1.56,2.65,10.31,10.31,0,0,1,.54,3.42v1.34H52.57v.55a4.43,4.43,0,0,0,1.25,3.25,4.66,4.66,0,0,0,3.44,1.25,5.35,5.35,0,0,0,2.81-.7A5.6,5.6,0,0,0,62,21.17l2.23,2a6.92,6.92,0,0,1-2.61,2.5A8.56,8.56,0,0,1,57.2,26.66Zm-.27-15a4.55,4.55,0,0,0-1.75.33,3.91,3.91,0,0,0-1.38.93,4.57,4.57,0,0,0-.9,1.43,4.8,4.8,0,0,0-.33,1.8v.23h8.5v-.32a4.44,4.44,0,0,0-1.14-3.2A3.92,3.92,0,0,0,56.93,11.67Z"/><path class="cls-1" d="M68.15,26.27l6.3-8.6-6-8.33h4.17l2.23,3.22,1.77,2.56h.2l1.74-2.56,2.22-3.22h3.88l-6.07,8.2,6.36,8.73h-4.2l-2.52-3.64-1.74-2.5h-.2l-1.7,2.5-2.5,3.64Z"/><path class="cls-1" d="M88.94,9.34h3.58v2.89h.2a6.13,6.13,0,0,1,2-2.41A5.31,5.31,0,0,1,97.83,9a5.76,5.76,0,0,1,4.76,2.23q1.77,2.23,1.77,6.62c0,2.94-.59,5.14-1.77,6.63a5.76,5.76,0,0,1-4.76,2.23,5.31,5.31,0,0,1-3.11-.87,6.13,6.13,0,0,1-2-2.41h-.2v9.45H88.94Zm7.42,14.4a3.93,3.93,0,0,0,3.13-1.25,4.83,4.83,0,0,0,1.1-3.31V16.43a4.87,4.87,0,0,0-1.1-3.32,4,4,0,0,0-3.13-1.24,5,5,0,0,0-1.48.2,3.5,3.5,0,0,0-1.21.59,3,3,0,0,0-.84,1A2.81,2.81,0,0,0,92.52,15v5.65A2.81,2.81,0,0,0,92.83,22a3,3,0,0,0,.84,1,3.5,3.5,0,0,0,1.21.59A5,5,0,0,0,96.36,23.74Z"/><path class="cls-1" d="M115.87,26.66a8.75,8.75,0,0,1-3.36-.62A7,7,0,0,1,110,24.27a8.27,8.27,0,0,1-1.59-2.79,11.43,11.43,0,0,1-.55-3.68,11.45,11.45,0,0,1,.55-3.67A8.27,8.27,0,0,1,110,11.34a7,7,0,0,1,2.53-1.77,9.41,9.41,0,0,1,6.72,0,7,7,0,0,1,2.53,1.77,8,8,0,0,1,1.59,2.79,11.45,11.45,0,0,1,.56,3.67,11.42,11.42,0,0,1-.56,3.68,8,8,0,0,1-1.59,2.79A7,7,0,0,1,119.23,26,8.71,8.71,0,0,1,115.87,26.66Zm0-2.82a4.15,4.15,0,0,0,3.13-1.2,4.9,4.9,0,0,0,1.17-3.56V16.53A4.9,4.9,0,0,0,119,13a4.68,4.68,0,0,0-6.26,0,4.89,4.89,0,0,0-1.16,3.56v2.55a4.89,4.89,0,0,0,1.16,3.56A4.17,4.17,0,0,0,115.87,23.84Z"/><path class="cls-1" d="M128.47,26.27V9.34H132v2.89h.16a6.41,6.41,0,0,1,.68-1.26,4,4,0,0,1,1-1.05,4.8,4.8,0,0,1,1.37-.71A6,6,0,0,1,137.09,9a5.42,5.42,0,0,1,4.13,1.67,6.69,6.69,0,0,1,1.58,4.76V26.27h-3.58V15.9q0-4-3.51-4a5,5,0,0,0-1.34.18,3.86,3.86,0,0,0-1.18.54,2.74,2.74,0,0,0-.84.92,2.55,2.55,0,0,0-.31,1.28V26.27Z"/><path class="cls-1" d="M155.59,26.66a9.34,9.34,0,0,1-3.48-.62,7.11,7.11,0,0,1-2.59-1.77,7.94,7.94,0,0,1-1.61-2.78,11.24,11.24,0,0,1-.55-3.65,11.19,11.19,0,0,1,.57-3.68,8.29,8.29,0,0,1,1.61-2.8,6.87,6.87,0,0,1,2.51-1.79A8.41,8.41,0,0,1,155.33,9a8.09,8.09,0,0,1,3.21.61A6.8,6.8,0,0,1,161,11.28a7.62,7.62,0,0,1,1.56,2.65,10.31,10.31,0,0,1,.54,3.42v1.34H151v.55a4.43,4.43,0,0,0,1.25,3.25,4.66,4.66,0,0,0,3.44,1.25,5.33,5.33,0,0,0,2.81-.7,5.63,5.63,0,0,0,1.89-1.87l2.23,2a6.92,6.92,0,0,1-2.61,2.5A8.6,8.6,0,0,1,155.59,26.66Zm-.26-15a4.6,4.6,0,0,0-1.76.33,4.1,4.1,0,0,0-1.38.93,4.57,4.57,0,0,0-.9,1.43,4.8,4.8,0,0,0-.33,1.8v.23h8.5v-.32a4.48,4.48,0,0,0-1.13-3.2A4,4,0,0,0,155.33,11.67Z"/><path class="cls-1" d="M167.82,26.27V9.34h3.58v2.89h.16a6.93,6.93,0,0,1,.67-1.26,4.35,4.35,0,0,1,1-1.05,5,5,0,0,1,1.38-.71A6,6,0,0,1,176.45,9a5.43,5.43,0,0,1,4.13,1.67,6.69,6.69,0,0,1,1.58,4.76V26.27h-3.58V15.9q0-4-3.51-4a5,5,0,0,0-1.34.18,3.86,3.86,0,0,0-1.18.54,2.74,2.74,0,0,0-.84.92,2.55,2.55,0,0,0-.31,1.28V26.27Z"/><path class="cls-1" d="M195.21,26.66a8.88,8.88,0,0,1-3.4-.62,7.1,7.1,0,0,1-2.52-1.77,7.93,7.93,0,0,1-1.58-2.79,11.72,11.72,0,0,1-.54-3.68,11.74,11.74,0,0,1,.54-3.67,7.93,7.93,0,0,1,1.58-2.79,7.1,7.1,0,0,1,2.52-1.77A8.8,8.8,0,0,1,195.18,9a7.28,7.28,0,0,1,4.21,1.1,6.86,6.86,0,0,1,2.38,2.87L199,14.43a4.14,4.14,0,0,0-1.39-1.87,4.59,4.59,0,0,0-5.56.55,4.66,4.66,0,0,0-1.12,3.28v2.83A4.72,4.72,0,0,0,192,22.49a4.08,4.08,0,0,0,3.21,1.25,4.32,4.32,0,0,0,2.58-.72,5.13,5.13,0,0,0,1.59-2L202,22.66a7,7,0,0,1-2.49,2.88A7.63,7.63,0,0,1,195.21,26.66Z"/><path class="cls-1" d="M207.74,23.35h5.77V12.26h-5.77V9.34h9.35v14h5.41v2.92H207.74Zm7.57-17.09a2.62,2.62,0,0,1-1.91-.56,1.87,1.87,0,0,1-.55-1.38V3.64a1.87,1.87,0,0,1,.55-1.38,2.56,2.56,0,0,1,1.88-.56,2.64,2.64,0,0,1,1.92.56,1.9,1.9,0,0,1,.54,1.38v.68a1.9,1.9,0,0,1-.54,1.38A2.59,2.59,0,0,1,215.31,6.26Z"/><path class="cls-1" d="M240.24,26.27a3.11,3.11,0,0,1-2.31-.79,3.47,3.47,0,0,1-.94-2.07h-.16a4.35,4.35,0,0,1-1.79,2.4,5.85,5.85,0,0,1-3.29.85,6,6,0,0,1-4.14-1.36,4.78,4.78,0,0,1-1.54-3.76,4.32,4.32,0,0,1,1.82-3.75,9.67,9.67,0,0,1,5.59-1.3h3.25V15.18q0-3.43-3.64-3.44a4.92,4.92,0,0,0-2.66.64,5.59,5.59,0,0,0-1.7,1.69l-2.13-1.74A6.15,6.15,0,0,1,229,10a8.61,8.61,0,0,1,4.4-1,7.62,7.62,0,0,1,5.05,1.54A5.52,5.52,0,0,1,240.31,15v8.5h2.13v2.82ZM232.76,24a4.83,4.83,0,0,0,2.86-.79,2.37,2.37,0,0,0,1.11-2V18.79h-3.18q-3.87,0-3.87,2.31v.65a1.94,1.94,0,0,0,.82,1.72A3.92,3.92,0,0,0,232.76,24Z"/><path class="cls-1" d="M246.24,23.35h5.61V4.92h-5.61V2h9.19V23.35H261v2.92H246.24Z"/></g></g></svg>