<svg xmlns="http://www.w3.org/2000/svg" xmlns:xlink="http://www.w3.org/1999/xlink" viewBox="0 0 806.08 206.27"><defs><style>.cls-1,.cls-2{opacity:0.2;}.cls-1{fill:url(#linear-gradient);}.cls-2{fill:url(#linear-gradient-2);}</style><linearGradient id="linear-gradient" x1="801.31" y1="84.1" x2="530.91" y2="84.1" gradientTransform="matrix(-1, 0, 0, 1, 803.99, 0)" gradientUnits="userSpaceOnUse"><stop offset="0" stop-color="#5d539c"/><stop offset="1" stop-color="#97d2dd"/></linearGradient><linearGradient id="linear-gradient-2" x1="-2.09" y1="151.85" x2="385.78" y2="151.85" xlink:href="#linear-gradient"/></defs><title>bg-ranking0</title><g id="Capa_2" data-name="Capa 2"><g id="Layer_1" data-name="Layer 1"><path class="cls-1" d="M233.24,0a9.9,9.9,0,1,1,0,19.79H186.77a5,5,0,0,0,0,9.9H317.19a9.9,9.9,0,0,1,0,19.79H137.64a4.95,4.95,0,0,0,0,9.89H378a9.9,9.9,0,0,1,0,19.79H276.8a4.95,4.95,0,0,0-.11,9.89h40.5a9.9,9.9,0,0,1,0,19.79H137.64a4.95,4.95,0,0,0,0,9.89H317.19a9.9,9.9,0,0,1,0,19.79H186.76a5,5,0,0,0,0,9.9h46.47a9.9,9.9,0,1,1,0,19.79H0V0Z"/><path class="cls-2" d="M428.11,186.47H529.27a4.95,4.95,0,0,0,.12-9.89h-40.5a9.9,9.9,0,0,1,0-19.79H668.44a4.94,4.94,0,0,0,0-9.88H488.89a9.9,9.9,0,0,1,0-19.8H619.31a4.95,4.95,0,1,0,0-9.89H572.84a9.9,9.9,0,1,1,0-19.79H806.08V206.27h-378a9.9,9.9,0,0,1,0-19.8Z"/></g></g></svg>