<svg xmlns="http://www.w3.org/2000/svg" viewBox="0 0 14.81 19.68"><defs><style>.cls-1{fill:none;stroke:#e86751;stroke-linecap:round;stroke-linejoin:round;}</style></defs><title>candado.svg0</title><g id="Capa_2" data-name="Capa 2"><g id="Layer_1" data-name="Layer 1"><path class="cls-1" d="M14.31,15.53a3.85,3.85,0,0,1-3.88,3.65H3.93A3.46,3.46,0,0,1,.5,15.53V9.43H14.31Z"/><path class="cls-1" d="M13.5,9V5.78C13.5,2.64,10.72.5,7.58.5H6.77A5.26,5.26,0,0,0,1.2,5.78"/><path class="cls-1" d="M8.92,13.09a1.67,1.67,0,0,0-1.69-1.62,1.55,1.55,0,0,0-1.54,1.62c0,.41-.32.78.5,1.06v1.38c0,.45.13,1.21.58,1.21h.81c.45,0,1-.76,1-1.21V14.15C8.62,13.87,8.92,13.5,8.92,13.09Z"/></g></g></svg>