<svg xmlns="http://www.w3.org/2000/svg" viewBox="0 0 83.85 96.28"><defs><style>.cls-1{fill:#fff;stroke:#cfd1d2;stroke-miterlimit:10;stroke-width:3.66px;}</style></defs><title>eolica</title><g id="Capa_2" data-name="Capa 2"><g id="Capa_1-2" data-name="Capa 1"><path class="cls-1" d="M17.48,92.52,28.05,64.06a.86.86,0,0,0,0-.55l-.81-2.95a.86.86,0,0,1,0-.55L31,49.93a.89.89,0,0,0-.53-1.15l-1.05-.4a.9.9,0,0,0-1.15.53L11.84,93.25A.89.89,0,0,0,13,94.41l4-1.35A.89.89,0,0,0,17.48,92.52Z"/><path class="cls-1" d="M2,7.15,18,32.93a.92.92,0,0,0,.42.36l2.83,1.18a.86.86,0,0,1,.42.36L27.3,44a.9.9,0,0,0,1.25.29l.94-.58a.9.9,0,0,0,.29-1.25L4.87,2.26a.91.91,0,0,0-1.63.18L1.88,6.37A.9.9,0,0,0,2,7.15Z"/><path class="cls-1" d="M78.14,38.66,47.91,41.32a1,1,0,0,0-.52.22l-2.31,2a.93.93,0,0,1-.52.22l-10.68.94a.92.92,0,0,0-.84,1l.1,1.08a.92.92,0,0,0,1,.84l47.05-4.15a.91.91,0,0,0,.58-1.55l-2.88-3A1,1,0,0,0,78.14,38.66Z"/><circle class="cls-1" cx="30.46" cy="46.32" r="4.25"/></g></g></svg>