<svg id="Capa_1" data-name="Capa 1" xmlns="http://www.w3.org/2000/svg" viewBox="0 0 92.96 84.77"><defs><style>.cls-1{fill:#fff;stroke:#cfd1d2;stroke-miterlimit:10;stroke-width:3.66px;}</style></defs><title>eolica2</title><path class="cls-1" d="M21.48,90.35l24.6-17.19a.93.93,0,0,0,.32-.42L47.32,70a.84.84,0,0,1,.31-.42l8.72-6.09a.79.79,0,0,0,.17-1.17l-.7-.84a1,1,0,0,0-1.27-.16L16.23,88.1a.81.81,0,0,0,.34,1.48l4.15.92A.94.94,0,0,0,21.48,90.35Z" transform="translate(-14.04 -7.6)"/><path class="cls-1" d="M56.31,12.93,56,43.28a.87.87,0,0,0,.16.53L58,46.31a.9.9,0,0,1,.17.53L58,57.58a.9.9,0,0,0,.9.91H60a.91.91,0,0,0,.92-.9l.42-47.25a.9.9,0,0,0-1.47-.72l-3.25,2.59A.92.92,0,0,0,56.31,12.93Z" transform="translate(-14.04 -7.6)"/><path class="cls-1" d="M103.82,83.6l-27-16.72a.72.72,0,0,0-.55-.11l-3,.53a.82.82,0,0,1-.55-.11l-9.54-5.91a.84.84,0,0,0-1.23.47l-.5,1.16a1.21,1.21,0,0,0,.39,1.48l42,26c.69.42,1.48-.3,1.32-1.21l-.85-4.86A1.1,1.1,0,0,0,103.82,83.6Z" transform="translate(-14.04 -7.6)"/><circle class="cls-1" cx="45.38" cy="53.67" r="4.25"/></svg>