<svg xmlns="http://www.w3.org/2000/svg" viewBox="0 0 24 22"><defs><style>.cls-1,.cls-2{fill:none;stroke:#5d539e;stroke-miterlimit:10;}.cls-2{stroke-linecap:round;}</style></defs><title>faqs0</title><g id="Capa_2" data-name="Capa 2"><g id="Layer_1" data-name="Layer 1"><ellipse class="cls-1" cx="12" cy="9.02" rx="11.5" ry="6.22"/><circle class="cls-1" cx="12" cy="9.02" r="0.5"/><circle class="cls-1" cx="12" cy="9.02" r="3.5"/><path class="cls-1" d="M9.78,15v1.08a2.68,2.68,0,0,1-2.7,2.42H6A3.39,3.39,0,0,0,2.64,22"/><path class="cls-1" d="M14.78,15v1.08a2.2,2.2,0,0,0,2.14,2.42H18A3.63,3.63,0,0,1,21.64,22"/><path class="cls-2" d="M1.78,6V4A3.28,3.28,0,0,1,5,.5H6.28"/><path class="cls-2" d="M22.78,6V4A3.32,3.32,0,0,0,19.5.5H18.28"/></g></g></svg>