<svg xmlns="http://www.w3.org/2000/svg" viewBox="0 0 40 40"><defs><style>.cls-1{fill:none;}.cls-2{fill:#5e549f;}</style></defs><title>iconos-1</title><g id="RS-FB.svg"><rect class="cls-1" width="40" height="40"/><path id="White" class="cls-2" d="M35.16636,2.95179H4.83364A1.88164,1.88164,0,0,0,2.95179,4.83364V35.16636a1.8818,1.8818,0,0,0,1.88185,1.88185H21.16375V23.8443h-4.4434V18.69846h4.4434v-3.7949c0-4.404,2.68979-6.802,6.61842-6.802a36.45834,36.45834,0,0,1,3.97055.20273v4.6024l-2.72471.00124c-2.13661,0-2.55031,1.01528-2.55031,2.50515v3.28538h5.09562l-.66347,5.14584H26.4777V37.04821h8.68866a1.882,1.882,0,0,0,1.88185-1.88185V4.83364A1.8818,1.8818,0,0,0,35.16636,2.95179Z"/></g></svg>