<?xml version="1.0" encoding="utf-8"?>
<!-- Generator: Adobe Illustrator 22.1.0, SVG Export Plug-In . SVG Version: 6.00 Build 0)  -->
<svg version="1.1" xmlns="http://www.w3.org/2000/svg" xmlns:xlink="http://www.w3.org/1999/xlink" x="0px" y="0px"
	 viewBox="0 0 53 52.5" style="enable-background:new 0 0 53 52.5;" xml:space="preserve">
<style type="text/css">
	.st0{fill:#CE2041;}
	.st1{fill:#CCD3EB;stroke:#37144E;stroke-width:1.93;stroke-miterlimit:10;}
	.st2{fill:none;stroke:#37144E;stroke-width:1.93;stroke-miterlimit:10;}
	.st3{fill:#37144E;stroke:#37144E;stroke-width:1.93;stroke-miterlimit:10;}
	.st4{opacity:0.5;}
</style>
<g id="Capa_1">
	<title>help-dona</title>
	<g id="Capa_2_1_">
		<g id="Layer_1">
			<path class="st0" d="M30.4,36.3l4.8,13.1c-5.1,1.9-10.8,2.1-16,0.4l4.6-13.2C26,37.2,28.3,37.1,30.4,36.3z"/>
			<path class="st0" d="M16.1,24.2c-0.5,2.5-0.1,5.1,1.2,7.3l-12.1,7c-2.9-5-3.9-10.9-2.9-16.5L16.1,24.2z"/>
			<path class="st0" d="M32.8,2.5L29.3,16c-2.5-0.6-5.1-0.4-7.4,0.7l-4-13.4C22.7,1.5,27.8,1.2,32.8,2.5z"/>
			<path class="st0" d="M49.8,18c1.8,4.9,1.9,10.3,0.4,15.4l-13.4-3.7c0.7-2.1,0.7-4.4,0.1-6.5L49.8,18z"/>
			<path class="st1" d="M32.8,2.5L29.3,16c3.6,0.9,6.5,3.7,7.5,7.2l0,0L49.8,18C47,10.3,40.6,4.5,32.8,2.5z M9.2,8.9
				c-3.6,3.6-6,8.1-6.8,13.1l13.8,2.2c0.4-2.1,1.4-4,2.9-5.5c0.8-0.8,1.8-1.5,2.8-2l-4-13.4C14.6,4.5,11.7,6.5,9.2,8.9z M17.3,31.6
				l-12.1,7c3.1,5.3,8.1,9.3,14,11.2l4.6-13.2C21.1,35.8,18.8,34,17.3,31.6L17.3,31.6z M36.8,29.7c-0.5,1.6-1.4,3-2.6,4.2
				c-1.1,1.1-2.3,1.9-3.7,2.4l4.8,13.1c7.2-2.7,12.8-8.6,15-16L36.8,29.7z"/>
			<path class="st2" d="M30.4,36.3l4.8,13.1c-5.1,1.9-10.8,2.1-16,0.4l4.6-13.2C26,37.2,28.3,37.1,30.4,36.3z"/>
			<path class="st2" d="M49.8,18c1.8,4.9,1.9,10.3,0.4,15.4l-13.4-3.7c0.7-2.1,0.7-4.4,0.1-6.5L49.8,18z"/>
			<path class="st2" d="M32.8,2.5L29.3,16c-2.5-0.6-5.1-0.4-7.4,0.7l-4-13.4C22.7,1.5,27.8,1.2,32.8,2.5z"/>
			<path class="st2" d="M16.1,24.2c-0.5,2.5-0.1,5.1,1.2,7.3l-12.1,7c-2.9-5-3.9-10.9-2.9-16.5L16.1,24.2z"/>
			<path class="st3" d="M44.9,6.5l0.7,0.7c0.2,0.2,0.2,0.5,0,0.7L33.2,20.2c-0.2,0.2-0.5,0.2-0.7,0l-0.7-0.7c-0.2-0.2-0.2-0.5,0-0.7
				L44.1,6.5C44.3,6.3,44.7,6.3,44.9,6.5z"/>
			<path class="st3" d="M19.3,32.1l0.7,0.7c0.2,0.2,0.2,0.5,0,0.7L7.7,45.7c-0.2,0.2-0.5,0.2-0.7,0l-0.7-0.7c-0.2-0.2-0.2-0.5,0-0.7
				l12.3-12.3C18.7,31.9,19.1,31.9,19.3,32.1z"/>
			<path class="st3" d="M6.3,7.2l0.7-0.7c0.2-0.2,0.5-0.2,0.7,0l12.3,12.3c0.2,0.2,0.2,0.5,0,0.7l-0.7,0.7c-0.2,0.2-0.5,0.2-0.7,0
				L6.3,7.9C6.1,7.7,6.1,7.4,6.3,7.2z"/>
			<path class="st3" d="M31.8,32.7l0.7-0.7c0.2-0.2,0.5-0.2,0.7,0l12.3,12.3c0.2,0.2,0.2,0.5,0,0.7l-0.7,0.7c-0.2,0.2-0.5,0.2-0.7,0
				L31.8,33.5C31.6,33.3,31.6,32.9,31.8,32.7z"/>
			<g class="st4">
			</g>
		</g>
	</g>
</g>
<g id="Capa_2">
	
		<image style="overflow:visible;enable-background:new    ;" width="54" height="53" xlink:href="DD1E235089594FE4.png"  transform="matrix(1 0 0 1 -0.25 -0.25)">
	</image>
</g>
</svg>
