<svg xmlns="http://www.w3.org/2000/svg" xmlns:xlink="http://www.w3.org/1999/xlink" viewBox="0 0 1003.2 765.49"><defs><style>.cls-1,.cls-2{opacity:0.2;}.cls-1{fill:url(#linear-gradient);}.cls-2{fill:url(#linear-gradient-2);}</style><linearGradient id="linear-gradient" x1="1000.52" y1="681.39" x2="730.11" y2="681.39" gradientUnits="userSpaceOnUse"><stop offset="0" stop-color="#5d539e"/><stop offset="1" stop-color="#99d4df"/></linearGradient><linearGradient id="linear-gradient-2" x1="0" y1="54.42" x2="387.86" y2="54.42" xlink:href="#linear-gradient"/></defs><title>help-bg_1</title><g id="Capa_2" data-name="Capa 2"><g id="Layer_1" data-name="Layer 1"><path class="cls-1" d="M770,597.28a9.9,9.9,0,0,0,0,19.8h46.47a4.95,4.95,0,1,1,0,9.89H686a9.9,9.9,0,0,0,0,19.79H865.56a4.95,4.95,0,0,1,0,9.89H625.23a9.9,9.9,0,0,0,0,19.79H726.39a5,5,0,0,1,.12,9.9H686a9.9,9.9,0,0,0,0,19.79H865.56a4.94,4.94,0,0,1,0,9.88H686a9.9,9.9,0,0,0,0,19.79H816.44a5,5,0,0,1,0,9.9H770a9.9,9.9,0,1,0,0,19.79H1003.2V597.28Z"/><path class="cls-2" d="M378,89.05H276.8a4.95,4.95,0,0,1-.11-9.89h40.5a9.9,9.9,0,0,0,0-19.79H137.64a4.95,4.95,0,0,1,0-9.89H317.19a9.9,9.9,0,0,0,0-19.79H186.76a5,5,0,0,1,0-9.9h46.47a9.9,9.9,0,1,0,0-19.79H0V108.84H378a9.9,9.9,0,0,0,0-19.79Z"/></g></g></svg>