<svg xmlns="http://www.w3.org/2000/svg" xmlns:xlink="http://www.w3.org/1999/xlink" viewBox="0 0 387.86 108.84"><defs><style>.cls-1{opacity:0.2;fill:url(#linear-gradient);}</style><linearGradient id="linear-gradient" y1="54.42" x2="387.86" y2="54.42" gradientUnits="userSpaceOnUse"><stop offset="0" stop-color="#5d539e"/><stop offset="1" stop-color="#99d4df"/></linearGradient></defs><title>help-bg</title><g id="Capa_2" data-name="Capa 2"><g id="Layer_1" data-name="Layer 1"><path class="cls-1" d="M378,89.05H276.8a4.95,4.95,0,0,1-.11-9.89h40.5a9.9,9.9,0,0,0,0-19.79H137.64a4.95,4.95,0,0,1,0-9.89H317.19a9.9,9.9,0,0,0,0-19.79H186.76a5,5,0,0,1,0-9.9h46.47a9.9,9.9,0,1,0,0-19.79H0V108.84H378a9.9,9.9,0,0,0,0-19.79Z"/></g></g></svg>