<svg xmlns="http://www.w3.org/2000/svg" xmlns:xlink="http://www.w3.org/1999/xlink" viewBox="0 0 480.16 683.9"><defs><style>.cls-1,.cls-2{opacity:0.2;}.cls-1{fill:url(#linear-gradient);}.cls-2{fill:url(#linear-gradient-2);}</style><linearGradient id="linear-gradient" y1="54.42" x2="387.86" y2="54.42" gradientUnits="userSpaceOnUse"><stop offset="0" stop-color="#5d539e"/><stop offset="1" stop-color="#99d4df"/></linearGradient><linearGradient id="linear-gradient-2" x1="477.48" y1="599.8" x2="207.08" y2="599.8" xlink:href="#linear-gradient"/></defs><title>help-bg-xs</title><g id="Capa_2" data-name="Capa 2"><g id="Layer_1" data-name="Layer 1"><path class="cls-1" d="M378,89.05H276.8a4.95,4.95,0,0,1-.11-9.89h40.5a9.9,9.9,0,0,0,0-19.79H137.64a4.95,4.95,0,0,1,0-9.89H317.19a9.9,9.9,0,0,0,0-19.79H186.76a5,5,0,0,1,0-9.9h46.47a9.9,9.9,0,1,0,0-19.79H0V108.84H378a9.9,9.9,0,0,0,0-19.79Z"/><path class="cls-2" d="M246.92,515.69a9.9,9.9,0,0,0,0,19.79H293.4a5,5,0,1,1,0,9.9H163a9.9,9.9,0,1,0,0,19.79H342.53a4.95,4.95,0,0,1,0,9.89H102.2a9.9,9.9,0,1,0,0,19.79H203.36a4.95,4.95,0,0,1,.12,9.89H163a9.9,9.9,0,1,0,0,19.79H342.53a4.95,4.95,0,0,1,0,9.89H163a9.9,9.9,0,1,0,0,19.79H293.4a5,5,0,1,1,0,9.9H246.92a9.9,9.9,0,0,0,0,19.79H480.16V515.69Z"/></g></g></svg>