<svg xmlns="http://www.w3.org/2000/svg" viewBox="0 0 40 40"><defs><style>.cls-1{fill:none;}.cls-2{fill:#5e549f;}</style></defs><title>iconos-1</title><g id="RS-insta.svg"><rect class="cls-1" width="40" height="40"/><g id="_Group_" data-name="&lt;Group&gt;"><path id="_Compound_Path_" data-name="&lt;Compound Path&gt;" class="cls-2" d="M2.95179,33.58535V6.4147c.02249-.07335.05058-.14548.06658-.22026a3.87807,3.87807,0,0,1,2.9819-3.137c.13764-.03719.27627-.07057.41443-.10569H33.58535a1.552,1.552,0,0,0,.18632.06238A3.87,3.87,0,0,1,36.942,5.99945c.03745.13789.07092.27683.1062.41525V33.58535a2.00667,2.00667,0,0,0-.06658.22013,3.93807,3.93807,0,0,1-3.04567,3.1563c-.11765.0254-.23382.05748-.35061.08644H6.4147a1.317,1.317,0,0,0-.18624-.06226,3.924,3.924,0,0,1-3.18027-3.01714C3.0185,33.84033,2.984,33.71306,2.95179,33.58535Zm3.94278-16.193c-.00571.11531-.01377.202-.01377.28884q-.001,7.02447.00064,14.04906a1.324,1.324,0,0,0,1.44264,1.38884q11.66862.00182,23.33731.00017A1.3363,1.3363,0,0,0,33.11951,31.645q.001-6.94126.00035-13.88256v-.36471H30.167a10.31523,10.31523,0,0,1-1.7795,8.87857A10.121,10.121,0,0,1,20.356,30.46868a9.93585,9.93585,0,0,1-7.31823-2.64261,10.38848,10.38848,0,0,1-3.22-10.43373ZM26.559,20.01226a6.559,6.559,0,1,0-6.5799,6.54583A6.55775,6.55775,0,0,0,26.559,20.01226ZM29.8597,6.8782c-.6324,0-1.26478-.00378-1.897.0009A1.3078,1.3078,0,0,0,26.55592,8.235q-.02665,1.92981.00035,3.86034a1.28294,1.28294,0,0,0,1.34332,1.348q1.92981.02848,3.86039.001a1.30633,1.30633,0,0,0,1.359-1.40245q.0047-1.88026-.00009-3.76064a1.32314,1.32314,0,0,0-1.3956-1.40188C31.10218,6.87351,30.4809,6.8782,29.8597,6.8782Z"/></g></g></svg>