<svg xmlns="http://www.w3.org/2000/svg" viewBox="0 0 31.68 31.68"><defs><style>.cls-1{fill:#ffc31d;}.cls-2{fill:none;stroke:#ffc31d;stroke-linecap:round;stroke-linejoin:round;}</style></defs><title>monedas0</title><g id="Capa_2" data-name="Capa 2"><g id="Layer_1" data-name="Layer 1"><path class="cls-1" d="M15.84,5A10.88,10.88,0,1,1,5,15.84,10.89,10.89,0,0,1,15.84,5m0-1A11.88,11.88,0,1,0,27.72,15.84,11.88,11.88,0,0,0,15.84,4Z"/><path class="cls-2" d="M18.68,13c0-1.56-1.22-2.37-2.79-2.37s-2.82.81-2.82,2.37.94,1.89,2.82,2.83,2.83,1.27,2.83,2.83S17.46,21,15.89,21s-2.82-.8-2.82-2.36"/><line class="cls-2" x1="15.84" y1="9.24" x2="15.84" y2="10.56"/><line class="cls-2" x1="15.84" y1="21.12" x2="15.84" y2="22.44"/><path class="cls-1" d="M15.84,1A14.84,14.84,0,1,1,1,15.84,14.86,14.86,0,0,1,15.84,1m0-1A15.84,15.84,0,1,0,31.68,15.84,15.84,15.84,0,0,0,15.84,0Z"/></g></g></svg>