<svg xmlns="http://www.w3.org/2000/svg" viewBox="0 0 2746.86 602.48"><defs><style>.cls-1{fill:#d69f68;}.cls-2{fill:#be814b;}</style></defs><title>volcan</title><g id="Capa_2" data-name="Capa 2"><g id="Capa_1-2" data-name="Capa 1"><polygon class="cls-1" points="1741.91 0 1980.95 0 2746.86 602.48 956.49 565.89 1741.91 0"/><polygon class="cls-2" points="2112.67 190.26 2049.25 190.26 1844.36 0 1980.95 0 2746.86 602.48 2478.51 597 2112.67 190.26"/><polygon class="cls-1" points="461.99 285.98 529.19 285.98 936.41 567.83 0 567.83 54.34 451.84 178.25 376.43 221.26 442.45 414.85 303.03 446.94 303.03 461.99 285.98"/><polygon class="cls-2" points="470.01 408.35 518.16 341.15 461.99 285.98 529.19 285.98 936.41 567.83 523.17 567.83 470.01 408.35"/><polygon class="cls-2" points="453.96 567.83 295.9 519.89 251.35 508.65 221.26 442.45 178.25 376.43 121.55 410.93 121.55 567.83 453.96 567.83"/><polygon class="cls-2" points="1662.54 150.93 1146.65 567.83 1424.65 567.83 1508.57 426.9 1457.65 396.07 1662.54 150.93"/><polygon class="cls-2" points="1808.96 583.31 1808.96 359.38 1757.67 333.87 1783.32 257.04 1757.67 99.71 1852.6 315.58 1921.81 341.51 2141.84 590.12 1808.96 583.31"/></g></g></svg>