<svg xmlns="http://www.w3.org/2000/svg" viewBox="0 0 8263.75 931.41"><defs><style>.cls-1{opacity:0.5;}.cls-2{fill:#fff;}.cls-3{opacity:0.17;}</style></defs><title>nubes1</title><g id="Capa_2" data-name="Capa 2"><g id="nubes1"><g class="cls-1"><path class="cls-2" d="M7041.32,300.33c22.11,21.29,44.31,42.48,66.29,63.9,14.14,13.77,28,27.87,41.93,41.82,12.07,12.06,24.08,24.2,36.17,36.25,5.21-1.21,10.29-2.62,15.24-4.17-8.28-7.9-16.58-15.77-24.57-23.94-17.68-18-34.48-36.93-52.14-55-30.1-30.79-60.63-61.17-90.84-91.87A143,143,0,0,0,7018,277.85Z"/><path class="cls-2" d="M6915.85,347.22c37,35.66,74.56,70.66,111.25,106.6,2.58,2.52,5.11,5.09,7.68,7.62,2.95-.47,5.9-.93,8.79-1.44-24.53-24.59-49.15-49.1-73.32-74-26.73-27.57-52.45-56.11-79-83.89-.93-1-1.88-1.92-2.81-2.89-6.51.46-12.9,1-19.21,1.69C6884.89,316.23,6900.09,332,6915.85,347.22Z"/><path class="cls-2" d="M7117.88,407.52c13.18,13,26.19,26.17,39.21,39.34,5.2-.5,10.33-1.11,15.34-1.94-2.81-3-5.57-6.06-8.42-9-37-38.59-75-76.27-112.54-114.36q-19.4-19.66-38.78-39.36a113.14,113.14,0,0,0-11.58,11.72c5.6,5.39,11.24,10.74,16.83,16.14Q7068.15,358.53,7117.88,407.52Z"/><path class="cls-2" d="M6844.22,310.78c22.62,22.42,45,45,67.78,67.33,16.35,16,33.18,31.52,49.66,47.4q20.73,20,41.35,40.12c3.25-.34,6.42-.73,9.62-1.11l-8.49-8.91c-31.9-33.38-63.66-66.89-95.73-100.09q-25.78-26.68-51.73-53.22-9.45,1.17-18.52,2.62C6840.17,306.88,6842.23,308.8,6844.22,310.78Z"/><path class="cls-2" d="M7083.82,407.93c13.61,13.14,27,26.54,40.6,39.65,3.64.18,7.26.41,11,.41.52,0,1-.06,1.53-.06-16.16-16.54-32-33.41-48-50.07-16.49-17.14-33.1-34.15-49.58-51.3-14.84-15.43-29.54-31-44.33-46.49-8.29-.73-16.77-1.29-25.37-1.71q29.77,28.8,59.69,57.46C7047.43,373.22,7065.73,390.47,7083.82,407.93Z"/><path class="cls-2" d="M8065.48,325.67c-3.52,1.17-6.95,2.47-10.32,3.85,7.05,6.88,14.08,13.79,21.25,20.56,9.27,8.74,19.81,16.13,29.77,24.13l-.35-.44,0,0c-7.61-9.71-14.79-19.79-23-29C8077.17,338.35,8071.33,332,8065.48,325.67Z"/><path class="cls-2" d="M7091.08,448.9c3.18-.94,6.4-1.88,9.44-2.89-8.38-8.94-16.78-17.86-25.31-26.66-28.78-29.66-58.35-58.54-87.17-88.16-10.75-11-21.4-22.16-32.08-33.26-6.5-.19-13-.44-19.6-.44-1.06,0-2.11,0-3.17,0,6.44,6.25,12.84,12.55,19.31,18.77C6998.55,360.65,7045,404.64,7091.08,448.9Z"/><path class="cls-2" d="M7971,446.72c-.45-.42-1.85.17-3,.5q17.31,19,34.57,38l4.45-4.41C7995,469.44,7983.07,458,7971,446.72Z"/><path class="cls-2" d="M6932.62,429.64c12.9,12.31,24.88,25.56,37.23,38.43,4.08-.2,8.18-.37,12.19-.64-17.71-18.11-36.16-35.49-53.81-53.66-27.75-28.55-55-57.56-82.6-86.27-6.58-6.85-13.21-13.65-19.82-20.47q-9.81,1.8-19.07,3.9c10.8,10.5,21.55,21.06,32.42,31.48C6869.9,371.92,6901.8,400.22,6932.62,429.64Z"/><path class="cls-2" d="M6713.05,350.75q21.6,21,43.21,41.94c22.94,22.21,46.16,44.14,68.83,66.63,2.32.43,4.63.86,7,1.26-5.28-5.08-10.53-10.19-15.68-15.4q-48.9-49.35-97-99.45C6717.1,347.37,6715,349.05,6713.05,350.75Z"/><path class="cls-2" d="M6751,354.9c21,20.28,42.38,40.23,63.14,60.77Q6839,440.23,6863.58,465c2.82.31,5.68.6,8.55.88-1.33-1.36-2.69-2.69-4-4.05-18.52-18.95-36-38.88-54.48-57.89-18.92-19.48-38.84-38-57.62-57.62-4.5-4.7-8.95-9.46-13.44-14.17-3.45,1.65-6.7,3.35-9.81,5.09Q6741.87,346.09,6751,354.9Z"/><path class="cls-2" d="M6896.36,417.71c-22.46-23.44-44.17-47.6-66.78-70.91-10.9-11.25-22-22.32-33.06-33.42-5.26,1.34-10.38,2.74-15.32,4.21,9.35,9.43,18.68,18.87,28.18,28.13,31.23,30.46,62.95,60.4,94.26,90.78q16.65,16.15,33.15,32.48c3,0,6-.11,9-.15Q6921,443.36,6896.36,417.71Z"/><path class="cls-2" d="M6816,384.93c22.34,21.73,45,43.09,67.28,64.92,6.14,6,12.18,12.15,18.26,18.24,3.27.16,6.55.32,9.86.44q-14-14.34-28-28.7c-21.76-22.35-43.55-44.69-65.13-67.23q-24.48-25.56-48.85-51.24-7,2.37-13.41,4.94Q6786,355.63,6816,384.93Z"/><path class="cls-2" d="M7140.58,363.84c15.16,15,30.19,30.07,45.53,44.84,14.47,13.94,29.06,27.75,43.61,41.6a249,249,0,0,0,27.38,9.17c-4.41-6.23-8.65-12.63-13.84-18.12-9.79-10.32-21.79-18.53-31.88-28.6-18.23-18.21-35.68-37.2-53.63-55.7-12.15-12.52-24.66-24.69-36.87-37.15q-31.48-32.14-62.86-64.42a173.91,173.91,0,0,0-18.65,8.54Q7090,313.89,7140.58,363.84Z"/><path class="cls-2" d="M6723.7,422.86c-4.29-4.47-9.89-7.67-14.92-11.42a.86.86,0,0,1,.1.16l4,3.94a105.47,105.47,0,0,0,12.85,9.49C6725,424.32,6724.38,423.57,6723.7,422.86Z"/><path class="cls-2" d="M6725,386.46c-7.65-7.8-15.48-15.43-23.3-23.07a42,42,0,0,0-3.5,6.21q37,35.75,73.48,72c2.08,2.06,4.09,4.19,6.15,6.28q4.71,1.46,9.64,2.84C6766.63,429.24,6745.88,407.77,6725,386.46Z"/><path class="cls-2" d="M8135.9,403.66c-7.46-12.52-16.44-23.52-30-29.87l.05.06Z"/><path class="cls-2" d="M6697.16,394.34a47.25,47.25,0,0,0,10.2,15.91l1.54,1.39-.34-.37.22.17c-3.41-5.35-6.14-11.33-10.42-15.86C6698,395.16,6697.55,394.76,6697.16,394.34Z"/><path class="cls-2" d="M6974.38,370.78c26,25.59,52.55,50.68,78.6,76.26,3.12,3.07,6.18,6.18,9.28,9.26,3.74-.81,7.37-1.67,11-2.56-25.78-26.81-51.39-53.79-77.28-80.5-24.05-24.8-48.78-48.94-72.82-73.75-.58-.6-1.15-1.22-1.74-1.82q-10,.22-19.7.72C6926.14,322.29,6950,346.8,6974.38,370.78Z"/><path class="cls-2" d="M8088.4,426.16c-1.76-2.82-3-6.17-5.37-8.36-11.36-10.62-23-20.93-34.53-31.35,0,0,0,0,0,.05Z"/><path class="cls-2" d="M8164.42,398.08l1.46-1.43L8092.74,319q-5.07.83-10,1.9Z"/><path class="cls-2" d="M8011,384c5.79,6.47,11.27,13.25,17.46,19.31,12.26,12,24.93,23.62,37.44,35.39-.65-1.83-.79-4.15-2-5.41q-22.26-22.62-44.87-44.88c-2.13-2.09-5.34-3.07-8.08-4.55.09.1.17.21.26.32Z"/><path class="cls-2" d="M8010.77,220.2a162.4,162.4,0,0,0-16.91-15.9Z"/><path class="cls-2" d="M7135.5,326.72c22.84,22.18,46.87,43.13,69.73,65.29,15,14.53,28.34,30.73,43.31,45.28,9.45,9.18,19.17,18.08,28.91,27,6.84,1.29,13.87,2.24,21,3a105.88,105.88,0,0,0-16.26-14.59c-8.21-5.76-12.84-16.36-20.05-23.85-32.24-33.5-64.9-66.61-97.26-100-21.17-21.83-42.1-43.89-61.52-67.45l214.52,207.27c3.58.14,7.13.34,10.75.34,2.82,0,5.6-.13,8.39-.22-5.59-5.59-11.21-11.17-16.73-16.84q-37.71-38.68-75.24-77.54c-17.25-17.86-34.31-35.89-51.57-53.75-4-4.14-8.43-7.88-12.66-11.81l2.66-3c9.37,8.94,18.67,17.95,28.13,26.79,13,12.15,26.42,23.86,39.06,36.35,9.54,9.43,17.64,20.33,27.29,29.62,19.8,19.07,40.52,37.18,60.28,56.27,4.46,4.31,8.8,8.74,13.2,13.11,5.62-.47,11.19-1.07,16.66-1.86-3.83-4-7.71-8-11.51-12.08-16.3-17.37-31.74-35.55-48.12-52.83-13.73-14.5-28.34-28.16-42.41-42.35a15.25,15.25,0,0,1-4.6-10.45c10.7,10,21.52,19.85,32.07,30,16.36,15.75,32.46,31.78,48.83,47.52,8.87,8.53,18.1,16.68,27.1,25.07q6.75,6.3,13.52,12.58c.27-.06.55-.09.81-.15,7.72,3.6,16.27,7.05,25.37,10.37-10.09-10.25-20.19-20.51-30-31-15.16-16.14-29.12-33.42-44.66-49.17-15.27-15.47-31.86-29.64-47.87-44.38l2.95-4.08c2.39,1,5.38,1.48,7.07,3.2,11.06,11.28,21.57,23.1,32.82,34.18,6.31,6.21,14.06,10.94,20.51,17,13.35,12.56,26.06,25.78,39.39,38.36,16.12,15.19,32.45,30.16,48.67,45.24q9.4,2.74,19.46,5.3c-3.51-3.57-7.07-7.1-10.53-10.72-19-19.89-37.36-40.38-56.18-60.43-17.51-18.64-35.28-37-52.86-55.61-.9-.95-1-2.62.32-5.48,2.94,2.63,5.93,5.21,8.79,7.91,24.75,23.39,49.31,47,74.28,70.13,19.18,17.79,39.06,34.81,58.25,52.57,3.11,2.87,6.08,5.89,9.11,8.84q7.19,1.49,14.61,2.89c-6.2-5.91-12.44-11.78-18.62-17.71-13.86-13.27-28.55-25.77-41.47-39.89-13.7-15-25.64-31.54-38.58-47.21-6.74-8.17-13.95-15.94-21-23.88-.29-.05-.59-.08-.86-.15l0,0c0-.17.08-.38.12-.56-10.11-7.95-19.37-16.6-27.49-29.29,10.84,9.29,19.58,16.61,28,24.28.74.67-.14,3.12-.51,5l.25.21.47.52c2.66.46,5.75.45,7.47,2,23.7,21.09,47.45,42.13,70.53,63.88,11,10.35,20.28,22.47,30.88,33.26,9.4,9.56,19.63,18.29,29.31,27.59,2.12,2,4.13,4.18,6.16,6.32,6,1,12.23,1.87,18.46,2.75-22.12-22.6-45-44.42-66.9-67.28-28.22-29.54-55.72-59.78-83.52-89.72l2.64-3c7.28,6.38,14.73,12.58,21.82,19.17,15.85,14.7,31.72,29.39,47.21,44.47,18.11,17.64,35.53,36,53.79,53.49,16.17,15.49,32.62,30.69,49,46,5.65.68,11.41,1.3,17.18,1.9-2.68-2.88-5.34-5.79-8.08-8.61-17.24-17.79-36.05-34.07-53.2-51.94-15.81-16.47-30.07-34.43-45.53-51.25-10.38-11.28-21.72-21.66-32.51-32.57-2.65-2.68-4.91-5.74-7.32-8.65-.24-.07-.49-.12-.72-.2l0,0c-.06-.29-.18-.54-.26-.83l-28.27-28.4c12.58,6.43,24.55,13.46,28.27,28.4l.54.53.42.53c2.68.76,5.72,1.09,7.67,2.72,12.77,10.7,25.75,21.21,37.68,32.79,24,23.31,47.08,47.56,71.12,70.82,14,13.54,29.57,25.44,43.59,38.95q5.05,4.89,9.93,10c5,.43,9.91.87,15,1.24-6.63-7.15-13.21-14.34-20-21.35-13.61-14.09-28.77-26.67-42.53-40.63-9.26-9.38-16.9-20.34-25.95-29.95-12.85-13.64-26.42-26.6-39.51-40-9.95-10.19-19.63-20.63-29.43-31l2.91-2.95c10.71,10.2,21.36,20.47,32.15,30.59,17.81,16.69,36.12,32.88,53.45,50.06,11.56,11.46,21.24,24.79,32.76,36.29s24.12,21.43,36.13,32.2c6.61,5.92,13.09,12,19.6,18,6,.36,12.1.65,18.2.93-7.26-8.46-14.35-17.08-21.93-25.24-6.6-7.11-14.49-13-21.55-19.72s-14-13.9-21-20.85c-6.28-6.24-12.92-12.15-18.78-18.76-5.62-6.34-9.83-14-15.76-20-7.31-7.39-16.22-13.19-23.59-20.53a86.86,86.86,0,0,1-17.66-24.92l158,150.72q9.12.3,18.34.51c-1.18-1.21-2.37-2.41-3.55-3.63q-14-14.53-28-29.18-20.39-21.52-40.61-43.21a26.31,26.31,0,0,1-7-12.72c10,8.65,20.14,17.19,30,26,10.32,9.18,20.54,18.47,30.56,28q18.36,17.43,36.57,35c4.44,0,8.85.13,13.33.13l3.42,0c-5.08-5.39-10.09-10.85-15.18-16.23-10.6-11.21-22.35-21.35-32.67-32.81-14.43-16-28-32.82-41.37-50.15,7.29,5.89,14.82,11.52,21.84,17.73,17.1,15.15,34.24,30.3,50.84,46,10,9.5,18.67,20.5,28.7,30,1.89,1.79,3.84,3.53,5.78,5.29q7.21-.11,14.36-.27-12.3-13-24.44-26.14c-11.57-12.55-22.21-26-33.78-38.5-13.1-14.21-26.79-27.89-40.23-41.8l2.29-2.63c8.1,6.89,16.54,13.43,24.23,20.76,15.66,14.93,30.45,30.8,46.46,45.34s32.55,28.09,48.76,42.21q5.4-.22,10.75-.48l-9-9.62q-48.13-51.82-96.18-103.73c-8.7-9.35-17.81-18.32-26.73-27.47l2.64-2.65c22.86,21.94,44.55,45.31,68.93,65.42,23.33,19.27,43.53,41.49,65.5,62q7.95,7.42,15.89,14.9c3.41-.22,6.78-.47,10.15-.71q-68.3-72.83-136.58-145.66c1-1.08,2.11-2.15,3.17-3.23,4,3.88,7.81,7.89,11.92,11.6,19.32,17.49,39,34.6,58,52.41,20.57,19.26,40.37,39.36,60.86,58.71,8.67,8.2,17.48,16.26,26.3,24.3,3.15-.28,6.25-.59,9.36-.89q-17.43-18.68-35.11-37.11c-15.85-16.47-32.66-32-48.77-48.2-5.54-5.58-10-12.2-15.37-18-16.13-17.46-32.51-34.7-48.7-52.11-7.05-7.59-13.89-15.39-20.82-23.09l2.42-2.16,189.59,178.19,6.21-.74L7701.57,303.72l.85-1.58c3.19,2.16,6.71,3.95,9.51,6.53,33.64,31.08,67.34,62.09,100.66,93.52,17.68,16.67,34.43,34.33,51.95,51.18,18.12,17.42,36.44,34.62,54.77,51.81l6-.88c-1.39-1.81-2.82-3.57-4.37-5.23-15.54-16.63-31.6-32.77-47.52-49s-32.26-32.18-47.82-48.79c-10.43-11.13-19.71-23.34-29.74-34.84-6.13-7-12.58-13.77-19.13-20.41-17.24-17.46-34.63-34.79-51.89-52.23-.72-.73-.71-2.17,1.3-5.61l215.73,202.57,1.58-1.55L7741,273.86l1.84-2.12c7.61,6.19,15.59,12,22.77,18.64q45.38,42.12,90.35,84.67c21.89,20.67,43.52,41.62,65.37,62.35,19,18,38.09,35.84,57.14,53.75-2.13-3.32-3.76-7.13-6.47-9.88-19.43-19.74-39.54-38.82-58.55-58.95-23.16-24.52-45.18-50.11-68.19-74.77-23.85-25.54-48.3-50.51-72.45-75.77-.78-.82-1.1-2.08-.41-5.41,3.39,1.82,7.3,3.06,10.08,5.56,12.95,11.63,25.64,23.55,38.3,35.49,17.16,16.2,34.14,32.6,51.33,48.76,24.51,23,49.21,45.87,73.71,68.93,7.09,6.67,13.83,13.72,20.73,20.61-3.41-5.72-6.33-11.88-10.77-16.64-16.92-18.14-34.5-35.67-51.8-53.46-15.9-16.35-32-32.51-47.6-49.14-26-27.68-51.64-55.61-77.32-83.54-6.38-6.94-12.33-14.28-18.48-21.43l2.95-2.79L8050.2,492.09,7789.72,219.83l3.33-3.32C7874.41,286,7949.71,362,8028.43,434.57L7827.28,222.23l2.8-3.33c5.78,4.24,11.87,8.12,17.3,12.78,18.36,15.74,37.11,31.11,54.52,47.86,15.08,14.52,27.93,31.34,42.89,46,13.15,12.86,28,24,41.87,36.1,8.3,7.24,16.25,14.87,24.35,22.33l-.17-.19.1.05c-8.21-9.93-16.1-20.15-24.76-29.68-10.82-11.91-22.38-23.15-33.45-34.85-9.36-9.9-18.38-20.12-27.71-30-15.65-16.65-31.5-33.11-47.12-49.79-11.81-12.61-23.42-25.41-35-38.23-1.49-1.65-2.3-3.92-1.69-7.58,11.67,11.09,23.13,22.4,35.06,33.2,11.18,10.12,23.33,19.18,34.17,29.63,18.26,17.6,35.7,36,53.73,53.89,8.23,8.15,17,15.74,25.64,23.5q29.39,26.46,58.84,52.84l-.34-.43.2.17c-2-3.31-3.6-7-6.17-9.81q-38.55-42-77.47-83.62c-5.61-6-12.46-10.85-17.87-17-18.37-20.9-36.38-42.11-54.52-63.22-.53-.36-1.07-.71-1.6-1.09l.36-.35-.35.35c-.09-.34-.25-.61-.36-.94l-25.38-21.34,3.62-3.7c6.3,9.31,18.09,13.08,21.76,25l.71.59,1.24,1.44c10,6.94,20.5,13.24,29.49,21.27,14.2,12.69,27,26.89,40.73,40.17,12.49,12.11,25.39,23.82,38,35.79,18.57,17.6,37,35.35,55.61,52.92q30.93,29.21,62.05,58.22c-5.89-6.92-11.5-14.1-17.72-20.72-25.61-27.25-51.49-54.24-77.11-81.48q-44.34-47.13-88.43-94.48c-5.72-6.1-11.56-12.08-17.34-18.12l3.06-3.49c8.34,6.68,17.08,12.92,24.88,20.17,7.64,7.1,14.18,15.38,21.48,22.87,11.3,11.61,22.69,23.14,34.34,34.38,3.57,3.43,8.6,5.34,12.17,8.78,11.88,11.45,23.64,23,35.43,34.6.11-2.31.19-4.62.19-6.95,0-2.93-.15-5.82-.34-8.71-3.49-3.69-6.95-7.41-10.45-11.08-15.38-16.11-31.35-31.66-46.65-47.85-14.75-15.61-28.93-31.76-43.44-47.6-8-8.77-16.23-17.39-24.34-26.08l2.19-2.27,119.55,112.92a139.78,139.78,0,0,0-8.91-26.28l-68.51-72.72c-2.92-1.61-5.89-3.17-8.92-4.63C7951.78,80.8,7827.59,0,7675.52,0c-146.86,0-267.69,75.36-282.76,172.06a272.85,272.85,0,0,0-64.16-7.56c-77,0-144.06,31.21-179.43,77.43-4.55-.27-9.14-.44-13.79-.44a216.29,216.29,0,0,0-73.14,12.35C7086.58,278.21,7110.79,302.72,7135.5,326.72Zm421,36.65,53.28,52.16-4.11,4.13L7553.1,366.8Z"/><path class="cls-2" d="M8208.21,339.81c3.5,3.48,7,7,10.52,10.43,9.38,9.16,19.72,17.33,29.62,25.95-.57-.76-1.11-1.56-1.67-2.33A131.05,131.05,0,0,0,8208.21,339.81Z"/><path class="cls-2" d="M8176.14,371.69l-51.37-54.81c-1.17,0-2.3-.14-3.48-.14-2.57,0-5.12.1-7.66.21l60.43,56.83Z"/><path class="cls-2" d="M8226.12,456.08l-2.52,2.52,27.66,27.18c.6-.94,1.15-1.9,1.72-2.86Z"/><path class="cls-2" d="M8213.36,376.19c-1.82-3-3.15-6.54-5.54-9q-22.06-22.79-44.25-45.43-5.77-1.39-11.73-2.41c6.33,6.26,12.62,12.57,19.05,18.73C8184.61,351.23,8199.17,363.52,8213.36,376.19Z"/><path class="cls-2" d="M8247.13,449.91l14.53,14.56c.75-2.15,1.49-4.3,2.09-6.49l-12.35-12.32Z"/></g><g class="cls-3"><path class="cls-2" d="M236.27,874.37c-13.18-23.61-33.3-40.28-55.18-55.19Z"/><path class="cls-2" d="M336.81,785.48c22.85,22.44,45.37,45.22,68,67.85,2.88-1.16,5.61-2.42,8.39-3.65Q375.09,810.61,337,771.52c-30.33-31.15-60.69-62.28-90.76-93.67q-33.78-35.28-67.4-70.71-10.91,1.86-21.36,4.24,42.78,41.83,85.61,83.65C274.19,725.3,305.83,755.06,336.81,785.48Z"/><path class="cls-2" d="M244.68,829.26q-64-66.27-128.51-132.11C99.54,680.21,82.34,663.79,65.53,647c-3,1.83-6,3.7-8.79,5.62,5.88,5.54,11.82,11,17.62,16.64q53.79,51.94,106.85,104.65c19,18.83,37.16,38.48,56.08,57.37C242,836,248.18,839.16,253.68,843,250.71,838.4,248.42,833.13,244.68,829.26Z"/><path class="cls-2" d="M472.3,861.3C432.78,821.53,393.81,781.19,355,740.7,323.71,708,293.45,674.36,262,641.89c-14.51-15-29.26-29.69-44-44.44.29,1.57.42,3.18.75,4.74-7.12.55-14.12,1.28-21,2.14,12,12.08,23.94,24.18,36.12,36.06,43.51,42.44,87.72,84.16,131.34,126.49,32.06,31.11,63.78,62.59,95.67,93.89q7.73,2.46,15.85,4.87C475.22,864.19,473.75,862.76,472.3,861.3Z"/><path class="cls-2" d="M91.1,773.79c-15.77-16.34-31.4-32.81-47.34-49-9.86-10-21.63-18.64-30-29.6-1.53,2.44-3,4.9-4.25,7.4l78.93,73.61Z"/><path class="cls-2" d="M1720.39,474.75C1736,488.85,1752.9,501.48,1768,516c25.45,24.52,49.74,50.24,74.86,75.09,11.48,11.36,23.73,21.93,35.74,32.74q29.79,26.83,59.65,53.58c.09-2.23.22-4.46.22-6.71,0-.57,0-1.13-.06-1.7Q1891.3,617.85,1843.84,567c-7.81-8.35-17.36-15.12-24.9-23.68-20.79-23.65-41.25-47.58-61.74-71.49a323.64,323.64,0,0,0-49.62-9C1711.84,466.77,1716.05,470.83,1720.39,474.75Z"/><path class="cls-2" d="M1784.06,484.82c19.79,17.69,37.69,37.47,56.76,56,17.41,16.88,35.38,33.19,53,49.87q19.59,18.57,39.1,37.21a174.62,174.62,0,0,0-9.73-27.36q-46.07-49-91.9-98.2a290.12,290.12,0,0,0-57.08-25.54C1777.58,479.34,1780.9,482,1784.06,484.82Z"/><path class="cls-2" d="M282.36,591.7c31.52,31.24,62.74,62.76,94.44,93.81C399.57,707.83,423,729.44,446,751.57c32.1,30.95,64,62.12,96,93.15q24.91,24.13,50,48.12,5.61,1,11.32,2.08c-9.24-9.26-18.5-18.49-27.65-27.84-23.75-24.27-47-49-70.48-73.58C460.73,747,416.49,700.3,371.79,654,323,603.55,273.86,553.44,225,503.07a190.58,190.58,0,0,0-7,27q14.79,14,29.58,28Q265.11,574.67,282.36,591.7Z"/><path class="cls-2" d="M152.43,653.17c29.29,28.26,59,56.06,88,84.68,42.88,42.4,85.33,85.22,128.09,127.73,2.63-.73,5.19-1.53,7.77-2.31C356,843,335.68,822.7,315.64,802.18c-25.8-26.4-50.2-54.16-75.91-80.65-26.36-27.15-54.12-53-80.29-80.3-7.75-8.1-15.42-16.29-23.15-24.42q-8.26,2.38-16.16,5.09Q136.27,637.55,152.43,653.17Z"/><path class="cls-2" d="M243.58,779Q173.33,708.05,104.16,636c-1.87-1.95-3.69-3.95-5.55-5.9-3.93,1.68-7.79,3.4-11.53,5.19q36.36,35.24,72.71,70.5c34.1,33,68.71,65.52,102.28,99.07,22.78,22.76,45,46.11,67.33,69.32,3.29-.56,6.55-1.14,9.78-1.78-5.71-5.76-11.37-11.56-17.08-17.31C296.39,829.28,269.24,804.87,243.58,779Z"/><path class="cls-2" d="M458,696.47c-37.24-38.41-73.08-78.18-110-116.89-32.17-33.7-65.09-66.67-97.49-100.14q-5.08-5.26-10-10.72a205.53,205.53,0,0,0-11.83,24.42q39.59,37.41,78.92,75.1c25.28,24.32,49.37,49.87,74.61,74.23,51.5,49.7,103.9,98.46,155,148.54,37.66,36.89,74.87,74.23,112.09,111.57,4.68.72,9.39,1.43,14.16,2.13q-36.63-37.59-73.38-75.06C546.11,785.16,501.48,741.36,458,696.47Z"/><path class="cls-2" d="M37.67,667.43Q33.62,671,30,674.8l63.84,57.43-.49-.5a3.62,3.62,0,0,0,.32.22c-4.75-7.44-8.57-15.77-14.52-22.08C65.55,695.48,51.63,681.44,37.67,667.43Z"/><path class="cls-2" d="M156.17,794.26c-13.86-15.52-27.36-31.38-41.75-46.39-6-6.22-13.77-10.69-20.78-15.92l.13.23Z"/><path class="cls-2" d="M405.53,757.32c22.48,21.46,42.93,45,65,67,18.69,18.6,37.92,36.65,57,54.87q8.38,2,17,3.94c-22.57-23.72-45.11-47.46-67.95-70.93-25.33-26-51.86-50.9-77.17-76.95C360.75,695.43,322.76,655,284.32,615c-22.72-23.64-45.61-47.13-68.43-70.68a187.16,187.16,0,0,0-1.13,19.75c0,4.58.38,9.09.72,13.6,19.9,19.41,39.77,38.86,59.82,58.11C318.14,676.89,362.58,716.33,405.53,757.32Z"/><path class="cls-2" d="M772.62,874.71c1.67,4.6,2.17,10.38,5.32,13.48,11.47,11.29,23.23,22.27,35,33.27q7,.57,14.07,1.1c-11.43-11.45-22.86-22.9-34.58-34.06-5.68-5.41-12.88-9.22-19.43-13.71a2,2,0,0,0,0,.24Z"/><path class="cls-2" d="M354.52,566.57c36.87,35.75,72.58,72.71,109.2,108.73C500,711,537,745.93,573.23,781.57c32.09,31.51,63.46,63.76,95.55,95.27,11.36,11.17,22.85,22.2,34.31,33.27q9,1.14,18.15,2.21c-30.38-30.62-61.18-60.85-91.27-91.75-45.72-47-90.57-94.78-136.2-141.83-33.51-34.56-68-68.2-101.46-102.77-30.32-31.29-60.09-63.13-89.73-95.06C291.29,468.75,281,455.67,271.11,444c1.34.78,4.76,2,7.11,4.26,51.72,50.33,103,101.07,155,151.12,71.64,69,143.95,137.32,215.6,206.32q49.63,47.79,97.76,97.12c4.39,4.5,8.61,9.17,12.94,13.73,4.47.45,8.91.92,13.43,1.36q-32.61-32.6-65-65.4c-35.2-35.92-68.75-73.43-103.77-109.52-40.1-41.33-81.31-81.58-121.46-122.85-49-50.33-97.38-101.22-146-151.94-1.4-1.46-2-3.67.08-8.67,14,12.83,28.35,25.37,42.06,38.55,22.84,21.95,45.17,44.43,67.91,66.48q46.55,45.11,93.38,89.9c25.29,24.25,50.78,48.28,76,72.61,22.17,21.4,43.74,43.45,66.18,64.57,29.77,28,60.12,55.41,90.23,83.07l-.06-.2.43.28c0-3,1.07-7-.42-8.56-27-27.7-54.51-54.92-81.56-82.58-22.81-23.32-45.13-47.12-67.75-70.62-23-23.87-46.13-47.58-69.09-71.47-42-43.7-83.24-88.17-126.21-130.91-19-18.91-41.45-34.36-62.33-51.39l8.28-9c2.57,1.25,5.66,2,7.64,3.85q71.57,68.15,142.86,136.57,70,67.56,139.26,135.84c34.27,33.8,67.65,68.51,102,102.21,25.39,24.88,52.17,48.37,77.59,73.23,7.92,7.75,15.72,15.61,23.59,23.41,3.73.24,7.5.45,11.25.67-17.6-17.23-35.29-34.38-52.15-52.3C792.71,838.38,761.54,801,728,766c-51.59-53.77-104.5-106.27-156.82-159.35-29.53-30-59.18-59.8-88.43-90-18.28-18.9-35.92-38.43-53.84-57.67l3-3c11.46,11.28,22.83,22.66,34.39,33.83q45.3,43.74,90.74,87.33c30.81,29.66,61.74,59.19,92.37,89,19.7,19.2,39,38.84,58.42,58.28,25.41,25.39,50.39,51.21,76.3,76.06,35.83,34.37,72.74,67.61,108.49,102.06,8.73,8.41,17.28,17,25.9,25.55,5.58.25,11.18.5,16.81.72-2.3-2.39-4.54-4.86-6.88-7.22-17.82-18-36.73-35-54.28-53.2-22.18-23.06-43-47.43-65.26-70.38-20.67-21.3-42.92-41-63.68-62.25-24.63-25.13-48-51.46-72.64-76.62-42.85-43.82-86.32-87-129.29-130.75-15.4-15.66-30.1-32-42.78-50.85,5.94,4.42,12.49,8.22,17.72,13.36q88.74,87.16,177.11,174.7c21.12,20.85,42.06,41.9,63.44,62.49,33.31,32.07,67.17,63.59,100.33,95.82,18.2,17.7,35,36.81,53.25,54.49S949.5,912.65,967.9,930q8.18.24,16.41.44Q963,907.67,941.4,885.19c-23-23.81-47.91-45.83-70.71-69.84-12.06-12.7-20.28-29-32.32-41.74C824.73,759.22,808,747.79,794,733.75c-25.41-25.37-49.72-51.83-74.72-77.61-16.93-17.44-34.37-34.39-51.38-51.76q-56.24-57.4-112.25-115c-4.09-4.2-8-8.59-9.54-15.4,7.46,6.88,15.17,13.53,22.36,20.68,40,39.74,79.38,80,119.8,119.29,31.83,30.91,65.3,60.1,97.16,91,20.88,20.24,39.49,42.82,60.35,63.08,26.91,26.15,55.37,50.71,82.57,76.56,24.3,23.1,47.61,47.23,71.69,70.56,5.52,5.34,11.08,10.63,16.6,16q9.36.13,18.78.22c-15.79-17.13-31.63-34.19-47.74-51C975,867,960.37,855.7,946.77,843.37c-18.87-17.11-32.75-38.91-54.2-54-11.44-8-17.89-22.79-27.93-33.23-44.93-46.68-90.43-92.81-135.53-139.32-29.49-30.42-58.65-61.16-85.72-94l422.84,408.54c5.52,0,11-.07,16.46-.1-14-15.61-27.89-31.22-42.1-46.59-15.89-17.19-32.67-33.58-49.13-50.25-15.22-15.4-30.68-30.58-45.8-46.09q-52.54-53.89-104.83-108c-24-24.88-47.82-50-71.86-74.89-5.58-5.77-11.74-11-17.64-16.45l3.7-4.19c13.06,12.46,26,25,39.2,37.33,18.11,16.93,36.81,33.24,54.43,50.65,13.29,13.14,24.57,28.33,38,41.28,27.59,26.57,56.46,51.79,84,78.4,30.4,29.37,59.62,60,89.92,89.43,15,14.58,31.86,27.2,46.77,41.83,2.44,2.39,4.76,4.88,7.17,7.29,5.56-.08,11.08-.19,16.61-.3q-26-26.52-52-53.1c-27.81-28.61-55.64-57.21-82.94-86.31-22.7-24.2-44.22-49.53-67-73.61-19.13-20.2-39.48-39.24-59.09-59a21.31,21.31,0,0,1-6.41-14.57c14.91,13.92,30,27.66,44.68,41.8,22.81,22,45.24,44.28,68,66.22,12.36,11.89,25.23,23.24,37.77,34.94,34.61,32.27,69.43,64.31,103.63,97,15.53,14.84,30.3,30.46,45.32,45.83,3.91-.12,7.83-.23,11.72-.36-8.88-9-17.78-18.06-26.55-27.2-17.56-18.28-34.22-37.43-51.73-55.76-22.78-23.84-46.36-46.91-68.93-70.93-21.12-22.49-40.58-46.57-62.24-68.51-21.27-21.56-44.39-41.3-66.69-61.85l4.11-5.68c3.33,1.44,7.5,2.06,9.85,4.46,15.41,15.71,30.05,32.19,45.73,47.63,8.79,8.65,19.58,15.23,28.58,23.7,18.59,17.51,36.31,35.94,54.89,53.46,29.57,27.89,59.79,55.1,89.3,83,26.62,25.2,52.9,50.76,79.26,76.23,4.08-.18,8.2-.33,12.25-.53-9.48-10.18-19-20.35-28.65-30.34-23.77-24.5-48.34-48.24-71.91-72.93-26.46-27.71-52-56.26-78.28-84.19-24.39-26-49.16-51.61-73.65-77.49-1.25-1.33-1.44-3.66.45-7.64,4.08,3.67,8.25,7.26,12.24,11,34.49,32.58,68.71,65.46,103.5,97.72,26.72,24.77,54.43,48.49,81.17,73.25,17.53,16.21,34,33.58,51.17,50.18,13.34,12.9,26.84,25.63,40.29,38.41,3.21-.19,6.4-.4,9.59-.6-12.31-13.74-24.21-27.88-37-41.14-18.36-19-37.86-36.9-56.94-55.19-19.3-18.5-39.77-35.91-57.78-55.59-19.09-20.85-35.72-43.93-53.75-65.78-9.4-11.38-19.45-22.21-29.22-33.28-.39-.06-.81-.11-1.19-.2l0,0c0-.24.11-.53.16-.79-14.09-11.07-27-23.13-38.3-40.81,15.1,12.95,27.28,23.14,39,33.83,1,.94-.19,4.35-.71,7l.36.29.64.72c3.71.66,8,.64,10.41,2.77,33,29.38,66.12,58.71,98.28,89,15.31,14.42,28.26,31.31,43,46.34,13.09,13.32,27.35,25.49,40.83,38.44,8.12,7.8,15.44,16.42,23.62,24.15q25.47,24,51,48c5.42-.41,10.71-.88,16.08-1.32q-28-29.07-56.15-57.93c-30.9-31.59-63-62.07-93.48-94-39.33-41.17-77.64-83.3-116.39-125l3.68-4.1c10.16,8.88,20.53,17.53,30.41,26.7,22.08,20.49,44.2,41,65.78,62,25.24,24.58,49.51,50.16,75,74.53,34.55,33.09,70.23,65,104.6,98.26,5.72,5.54,11.3,11.23,16.81,17,4.54-.42,9-.86,13.53-1.3-17.92-19.84-35.41-40.08-54-59.26-24-24.79-50.22-47.47-74.12-72.37-22-22.95-41.9-48-63.45-71.41-14.45-15.72-30.26-30.19-45.29-45.38-3.7-3.73-6.85-8-10.2-12.06-.33-.1-.68-.17-1-.28l0,0c-.1-.42-.26-.76-.37-1.17L1073.12,616c17.54,9,34.21,18.75,39.4,39.57l.75.75.59.73c3.73,1.06,8,1.52,10.69,3.8,17.78,14.9,35.88,29.55,52.5,45.69,33.45,32.47,65.6,66.26,99.1,98.67,19.49,18.87,41.2,35.45,60.73,54.28,18.24,17.58,34.94,36.75,52.47,55.07,5.68-.62,11.45-1.22,17.06-1.88-20.75-22.59-41.37-45.3-62.68-67.34-19-19.63-40.09-37.17-59.27-56.61-12.89-13.07-23.55-28.34-36.16-41.73-17.9-19-36.8-37.07-55-55.76-13.85-14.2-27.35-28.74-41-43.14q2-2,4.06-4.1c14.93,14.21,29.76,28.52,44.8,42.62,24.82,23.26,50.32,45.82,74.47,69.75,16.11,16,29.61,34.55,45.66,50.57,15.88,15.85,33.6,29.86,50.34,44.86q19.89,17.84,39.35,36.15c7.49,7.07,14.88,14.26,22.32,21.39,5.85-.76,11.62-1.54,17.36-2.33-4.06-4.3-8.2-8.53-12.22-12.87-15.4-16.57-29.3-34.55-44.7-51.13-9.2-9.91-20.19-18.14-30-27.48s-19.51-19.36-29.26-29c-8.75-8.69-18-16.94-26.17-26.15-7.83-8.83-13.7-19.48-22-27.81-10.19-10.29-22.6-18.37-32.86-28.6a121.28,121.28,0,0,1-24.62-34.72l245.78,234.4c6.78-1,13.37-2.09,20-3.16-8.32-8.53-16.69-17-25-25.58q-19.57-20.26-39-40.66-28.41-30-56.59-60.21c-4.43-4.77-8.13-10.21-9.74-17.73,14,12.06,28.06,24,41.84,36.23,14.37,12.8,28.62,25.74,42.58,39,22.82,21.66,45.48,43.5,68.24,65.22,6.12-1.06,12.31-2.11,18.28-3.22-11.16-11.87-22.18-23.87-33.38-35.71-14.77-15.61-31.15-29.76-45.52-45.72-20.11-22.33-39-45.73-57.65-69.87,10.16,8.2,20.66,16,30.43,24.69,23.84,21.12,47.72,42.23,70.84,64.12,14,13.24,26,28.56,40,41.82,5.85,5.55,11.86,10.92,17.92,16.25,5.35-1.07,10.57-2.18,15.78-3.29q-20-21.06-39.69-42.38c-16.11-17.49-30.94-36.17-47.06-53.65-18.27-19.8-37.34-38.86-56.06-58.24l3.18-3.67c11.29,9.61,23,18.72,33.76,28.93,21.83,20.81,42.44,42.92,64.75,63.18s46,39.65,68.81,59.59c4.23-1,8.51-2,12.63-3-3.67-3.94-7.36-7.88-11-11.83q-67.08-72.2-134-144.53c-12.12-13-24.81-25.53-37.24-38.27l3.68-3.7c31.85,30.58,62.08,63.13,96,91.16,32.52,26.85,60.67,57.81,91.27,86.39q12.75,11.89,25.46,23.86,7.64.55,15.38.77L1468.59,672.53,1473,668c5.53,5.4,10.89,11,16.61,16.17,26.92,24.36,54.32,48.2,80.81,73,28.67,26.84,56.25,54.84,84.8,81.81,14.47,13.67,29.18,27.1,43.91,40.49q6.06-.48,12-1.18Q1683.79,849,1656,819.93c-22.08-22.93-45.51-44.56-68-67.16-7.72-7.78-14-17-21.41-25.06-22.49-24.33-45.3-48.35-67.86-72.61-9.84-10.58-19.36-21.44-29-32.17l3.38-3,269.46,253.28c2.49-.54,5-1.08,7.45-1.67L1477,581.86l1.18-2.19c4.44,3,9.36,5.5,13.25,9.09,46.87,43.31,93.84,86.52,140.26,130.31,24.63,23.24,48,47.84,72.39,71.32,25.24,24.27,50.78,48.23,76.31,72.2,2.44-.86,4.89-1.7,7.29-2.61-1.61-2-3.25-4-5-5.91-21.66-23.18-44-45.67-66.23-68.34s-44.94-44.84-66.63-68c-14.53-15.52-27.45-32.52-41.44-48.56-8.53-9.78-17.52-19.18-26.65-28.42-24-24.34-48.25-48.48-72.3-72.79-1-1-1-3,1.81-7.81L1811.8,842.42l2.21-2.15q-141.08-150-282.17-300l2.58-3c10.6,8.63,21.72,16.7,31.72,26q63.22,58.68,125.89,118c30.5,28.8,60.64,58,91.08,86.88q32.09,30.42,64.42,60.6c1.11-.77,2.26-1.52,3.36-2.31-26.2-26.48-53.18-52.22-78.76-79.3-32.26-34.16-62.94-69.82-95-104.18-33.23-35.59-67.3-70.38-100.95-105.58-1.09-1.14-1.52-2.9-.57-7.54,4.72,2.54,10.17,4.27,14.05,7.75,18,16.21,35.72,32.81,53.36,49.46,23.91,22.56,47.57,45.41,71.53,67.93,34.15,32.1,68.56,63.92,102.7,96,9.88,9.31,19.28,19.13,28.89,28.72-4.75-8-8.83-16.55-15-23.18-23.58-25.28-48.07-49.71-72.18-74.5-22.16-22.77-44.59-45.29-66.33-68.47-36.17-38.55-71.94-77.48-107.73-116.4-5.75-6.25-11.25-12.73-16.73-19.23-3.2,1.09-6.41,2.17-9.55,3.35.49-4.45.8-8.93,1-13.43l-.47-.55.5-.46c.07-2,.19-3.94.19-5.92,0-128.18-131.93-233-298.64-241C1190.21,131.07,1064.52,72,921.2,72,725.89,72,563.26,181.64,527.38,326.85c-2.48-.05-5-.15-7.44-.15C398.38,326.7,293.45,382,244.37,462,281.23,496.69,318.17,531.33,354.52,566.57ZM1274.86,665l74.24,72.68-5.72,5.75q-36.64-36.82-73.28-73.64C1271.69,668.17,1273.27,666.57,1274.86,665Z"/><path class="cls-2" d="M1.1,742.22l31.07,27.3C23.78,753.35,5.39,741.59,1.92,723.7a77,77,0,0,0,1.5,39.78C2.7,756.89,2,750,1.1,742.22Z"/><path class="cls-2" d="M1877.26,804.7c-8.29-7.87-16.53-15.78-24.89-23.57-.63-.59-2.58.23-4.19.68q12.3,13.49,24.55,27C1874.25,807.46,1875.79,806.1,1877.26,804.7Z"/><path class="cls-2" d="M1897.73,782.35c.86-1.09,1.76-2.15,2.6-3.25L1603,468.33q-13.9,3-27.16,7.11C1682.51,577.15,1789.35,679,1897.73,782.35Z"/><path class="cls-2" d="M1918.28,751c.2-.38.38-.77.58-1.15L1652.13,468.32l3.91-4.65c8.06,5.91,16.54,11.32,24.1,17.81,25.59,21.94,51.72,43.35,76,66.7,21,20.22,38.9,43.67,59.76,64.07,18.32,17.92,39,33.44,58.33,50.31,11.57,10.08,22.64,20.71,33.93,31.1-.08-.08-.15-.17-.22-.25l.13.06c-11.45-13.83-22.44-28.07-34.5-41.35-15.08-16.6-31.19-32.26-46.61-48.56-13-13.79-25.61-28-38.61-41.87-21.81-23.19-43.9-46.12-65.66-69.36-9.46-10.11-18.73-20.41-28.06-30.65-7.18-.46-14.43-.75-21.76-.75a333.1,333.1,0,0,0-61.26,5.65C1717.33,557.5,1816,656,1918.28,751Z"/><path class="cls-2" d="M1908.14,693.66c7.67,8.57,15,17.49,23.11,25.61.58-1.93,1.18-3.86,1.7-5.82-4.57-4.52-9-9.14-13.64-13.64-3-2.91-7.45-4.28-11.26-6.34l.36.45Z"/></g></g></g></svg>