<svg xmlns="http://www.w3.org/2000/svg" viewBox="0 0 9830.43 1605.31"><defs><style>.cls-1{opacity:0.64;}.cls-2{fill:#fff;}</style></defs><title>nubes4</title><g id="Capa_2" data-name="Capa 2"><g id="nubes_4" data-name="nubes 4"><g class="cls-1"><path class="cls-2" d="M404.34,284.24c13.48,13,27,25.92,40.44,39,8.62,8.4,17.06,17,25.57,25.51,7.37,7.36,14.69,14.77,22.07,22.11,3.18-.73,6.27-1.59,9.29-2.54-5-4.82-10.11-9.62-15-14.6-10.78-11-21-22.53-31.8-33.55-18.37-18.78-37-37.31-55.42-56a86.34,86.34,0,0,0-9.41,6.42Z"/><path class="cls-2" d="M327.79,312.84c22.55,21.76,45.49,43.11,67.87,65,1.57,1.54,3.12,3.11,4.68,4.66,1.8-.29,3.61-.57,5.37-.89-15-15-30-29.95-44.73-45.16-16.31-16.81-32-34.22-48.17-51.17-.57-.59-1.15-1.17-1.71-1.77q-6,.43-11.72,1C308.91,293.94,318.18,303.57,327.79,312.84Z"/><path class="cls-2" d="M451,349.63c8,7.93,16,16,23.92,24,3.17-.3,6.3-.68,9.36-1.18-1.72-1.84-3.4-3.7-5.14-5.51-22.59-23.54-45.75-46.53-68.65-69.77q-11.83-12-23.66-24a68.9,68.9,0,0,0-7.06,7.15c3.41,3.29,6.85,6.56,10.26,9.85Q420.7,319.74,451,349.63Z"/><path class="cls-2" d="M284.1,290.62c13.8,13.67,27.47,27.47,41.34,41.07,10,9.77,20.25,19.23,30.3,28.92q12.64,12.19,25.22,24.47c2-.2,3.92-.45,5.87-.68-1.73-1.81-3.45-3.63-5.18-5.43-19.46-20.36-38.83-40.81-58.4-61.06q-15.72-16.29-31.55-32.47-5.76.72-11.3,1.6C281.63,288.24,282.88,289.41,284.1,290.62Z"/><path class="cls-2" d="M430.26,349.88c8.3,8,16.45,16.19,24.77,24.19,2.22.11,4.43.25,6.69.25.31,0,.62,0,.93,0-9.86-10.09-19.52-20.38-29.3-30.54-10.06-10.46-20.2-20.84-30.25-31.3-9.05-9.41-18-18.91-27-28.36-5.05-.45-10.23-.78-15.48-1q18.17,17.56,36.41,35C408.06,328.71,419.23,339.23,430.26,349.88Z"/><path class="cls-2" d="M1029.11,299.7c-2.15.71-4.24,1.51-6.3,2.35,4.31,4.2,8.59,8.41,13,12.54,5.65,5.33,12.08,9.84,18.16,14.72l-.22-.27h0c-4.64-5.92-9-12.07-14-17.69C1036.24,307.43,1032.68,303.56,1029.11,299.7Z"/><path class="cls-2" d="M434.69,374.88c1.94-.58,3.9-1.15,5.76-1.77-5.11-5.45-10.24-10.9-15.44-16.26-17.56-18.09-35.6-35.71-53.18-53.78-6.55-6.74-13.05-13.52-19.57-20.29-4-.12-7.9-.27-11.95-.27l-1.94,0c3.93,3.81,7.84,7.65,11.78,11.45C378.24,321,406.55,347.87,434.69,374.88Z"/><path class="cls-2" d="M971.46,373.55c-.27-.26-1.13.1-1.83.3q10.56,11.58,21.09,23.21l2.72-2.7C986.13,387.4,978.84,380.43,971.46,373.55Z"/><path class="cls-2" d="M338,363.13c7.86,7.5,15.17,15.59,22.71,23.44,2.48-.13,5-.23,7.43-.39-10.8-11.05-22.06-21.65-32.83-32.74C318.42,336,301.79,318.33,285,300.82q-6-6.27-12.1-12.49-6,1.1-11.62,2.38c6.58,6.4,13.14,12.84,19.77,19.2C299.76,327.91,319.22,345.18,338,363.13Z"/><path class="cls-2" d="M204.08,315q13.17,12.79,26.36,25.58c14,13.55,28.16,26.93,42,40.65,1.42.26,2.83.53,4.27.77-3.22-3.1-6.42-6.22-9.57-9.4q-29.82-30.11-59.19-60.67C206.55,312.94,205.28,314,204.08,315Z"/><path class="cls-2" d="M227.21,317.53c12.83,12.37,25.85,24.54,38.52,37.07q15.15,15,30.18,30.1c1.72.19,3.46.37,5.21.54-.81-.83-1.64-1.64-2.45-2.47-11.29-11.56-22-23.72-33.24-35.31-11.54-11.89-23.69-23.19-35.14-35.16-2.75-2.87-5.46-5.77-8.2-8.64-2.11,1-4.09,2-6,3.11C219.8,310.35,223.5,314,227.21,317.53Z"/><path class="cls-2" d="M315.91,355.85c-13.71-14.3-27-29-40.74-43.26-6.66-6.86-13.42-13.62-20.17-20.38q-4.81,1.21-9.35,2.56c5.71,5.75,11.4,11.51,17.19,17.16,19.05,18.58,38.41,36.85,57.5,55.38,6.78,6.57,13.5,13.19,20.23,19.81,1.84,0,3.64-.07,5.47-.09Q330.91,371.51,315.91,355.85Z"/><path class="cls-2" d="M266.89,335.85c13.63,13.26,27.48,26.28,41.05,39.6,3.74,3.68,7.43,7.42,11.13,11.13,2,.1,4,.2,6,.27q-8.54-8.75-17.08-17.51c-13.28-13.64-26.57-27.26-39.74-41q-14.92-15.6-29.8-31.26c-2.83,1-5.57,2-8.18,3Q248.59,318,266.89,335.85Z"/><path class="cls-2" d="M464.89,323c9.25,9.13,18.41,18.35,27.77,27.36,8.83,8.5,17.73,16.93,26.61,25.37a148,148,0,0,0,16.7,5.6,97.75,97.75,0,0,0-8.45-11.05c-6-6.3-13.28-11.31-19.44-17.45-11.13-11.11-21.77-22.69-32.72-34-7.41-7.64-15-15.06-22.49-22.66q-19.22-19.62-38.34-39.3a105.81,105.81,0,0,0-11.38,5.21Q434,292.52,464.89,323Z"/><path class="cls-2" d="M210.57,359c-2.61-2.73-6-4.68-9.09-7l.05.1,2.42,2.4a65.36,65.36,0,0,0,7.84,5.8C211.38,359.88,211,359.42,210.57,359Z"/><path class="cls-2" d="M211.34,336.78c-4.67-4.75-9.45-9.41-14.22-14.07A27.12,27.12,0,0,0,195,326.5q22.55,21.79,44.83,43.9c1.26,1.25,2.49,2.55,3.75,3.82q2.87.9,5.88,1.74Q230.43,356.34,211.34,336.78Z"/><path class="cls-2" d="M1072.06,347.28c-4.55-7.64-10-14.35-18.32-18.23l0,0Z"/><path class="cls-2" d="M194.38,341.59a29,29,0,0,0,6.23,9.71l.94.84-.21-.22.14.1c-2.08-3.26-3.75-6.91-6.36-9.67C194.88,342.09,194.62,341.85,194.38,341.59Z"/><path class="cls-2" d="M363.5,327.22c15.88,15.61,32.06,30.92,47.95,46.52,1.9,1.87,3.77,3.77,5.66,5.65,2.28-.5,4.5-1,6.69-1.56-15.73-16.36-31.35-32.82-47.15-49.11-14.67-15.13-29.75-29.86-44.42-45l-1.05-1.11q-6.09.13-12,.44C334.07,297.64,348.63,312.59,363.5,327.22Z"/><path class="cls-2" d="M1043.09,361c-1.07-1.72-1.85-3.76-3.28-5.1-6.92-6.48-14-12.76-21.06-19.12v0Z"/><path class="cls-2" d="M1089.47,343.87l.88-.87-44.61-47.36c-2.07.33-4.1.71-6.11,1.16Z"/><path class="cls-2" d="M995.88,335.26c3.53,3.94,6.87,8.08,10.65,11.78,7.48,7.33,15.21,14.4,22.84,21.59-.4-1.12-.48-2.54-1.23-3.3q-13.58-13.8-27.37-27.38c-1.3-1.28-3.26-1.88-4.93-2.78l.16.2Z"/><path class="cls-2" d="M995.73,235.36a98.76,98.76,0,0,0-10.31-9.7Z"/><path class="cls-2" d="M461.79,300.34c13.93,13.53,28.59,26.31,42.53,39.83,9.15,8.86,17.3,18.75,26.43,27.62,5.76,5.6,11.69,11,17.63,16.45,4.18.79,8.46,1.36,12.79,1.83a64,64,0,0,0-9.92-8.9c-5-3.51-7.83-10-12.23-14.54-19.66-20.44-39.59-40.64-59.33-61-12.91-13.32-25.68-26.77-37.53-41.15L573,386.92c2.18.09,4.35.21,6.55.21,1.73,0,3.42-.08,5.12-.13-3.41-3.42-6.83-6.82-10.2-10.27q-23-23.61-45.9-47.31c-10.52-10.89-20.93-21.9-31.46-32.79-2.44-2.53-5.14-4.81-7.72-7.2L491,287.6c5.71,5.45,11.39,10.94,17.16,16.34,7.93,7.41,16.11,14.55,23.83,22.17,5.82,5.75,10.76,12.41,16.65,18.08,12.07,11.63,24.71,22.67,36.77,34.32,2.72,2.63,5.37,5.33,8,8,3.43-.28,6.82-.64,10.16-1.13-2.33-2.46-4.7-4.89-7-7.37-9.94-10.6-19.36-21.68-29.35-32.23-8.38-8.84-17.29-17.18-25.87-25.83a9.31,9.31,0,0,1-2.81-6.37c6.53,6.09,13.13,12.11,19.56,18.3,10,9.6,19.81,19.38,29.79,29,5.41,5.2,11,10.17,16.53,15.29l8.25,7.67.5-.09c4.7,2.2,9.92,4.3,15.47,6.33-6.16-6.26-12.31-12.51-18.32-18.91-9.25-9.84-17.77-20.39-27.25-30-9.31-9.44-19.43-18.08-29.2-27.08l1.8-2.49c1.46.63,3.28.91,4.31,2,6.75,6.88,13.16,14.09,20,20.85,3.85,3.79,8.58,6.67,12.52,10.38,8.14,7.66,15.89,15.73,24,23.4,9.83,9.27,19.79,18.4,29.68,27.6q5.75,1.67,11.88,3.24c-2.14-2.19-4.32-4.34-6.43-6.55-11.58-12.13-22.79-24.63-34.27-36.86C606.8,344.24,596,333,585.23,321.68c-.54-.57-.62-1.59.2-3.34,1.79,1.61,3.61,3.18,5.36,4.83,15.1,14.26,30.08,28.66,45.31,42.78,11.7,10.85,23.83,21.23,35.54,32.07,1.9,1.75,3.71,3.59,5.56,5.39q4.38.9,8.91,1.77c-3.78-3.61-7.59-7.19-11.36-10.81-8.45-8.1-17.41-15.72-25.3-24.33-8.35-9.13-15.64-19.24-23.53-28.8-4.11-5-8.51-9.73-12.79-14.57-.17,0-.36-.05-.52-.09h0c0-.11,0-.23.07-.35a70.26,70.26,0,0,1-16.77-17.87c6.62,5.67,12,10.14,17.08,14.81.45.42-.08,1.91-.31,3.06l.16.13.28.32c1.62.28,3.51.27,4.56,1.21,14.46,12.86,28.94,25.7,43,39,6.7,6.31,12.37,13.7,18.83,20.28,5.73,5.84,12,11.16,17.88,16.83,1.29,1.25,2.52,2.56,3.76,3.86,3.68.59,7.46,1.14,11.26,1.68-13.49-13.79-27.48-27.1-40.81-41-17.22-18-34-36.47-50.95-54.74.53-.6,1.07-1.2,1.61-1.79,4.44,3.89,9,7.67,13.31,11.69,9.67,9,19.35,17.93,28.8,27.13,11.05,10.76,21.68,22,32.81,32.63,9.87,9.45,19.9,18.72,29.89,28,3.45.41,7,.79,10.48,1.16-1.63-1.76-3.26-3.53-4.93-5.26-10.52-10.85-22-20.78-32.45-31.68-9.65-10.05-18.34-21-27.78-31.27-6.33-6.88-13.25-13.21-19.83-19.87-1.62-1.63-3-3.5-4.46-5.28l-.44-.11v0c0-.18-.11-.33-.16-.51L630.3,301.25c7.68,3.93,15,8.21,17.25,17.33l.33.33.26.31c1.63.47,3.48.67,4.67,1.67,7.79,6.52,15.71,12.94,23,20,14.64,14.22,28.72,29,43.39,43.2,8.53,8.26,18,15.52,26.59,23.77q3.09,3,6.05,6.07c3,.26,6,.53,9.14.76-4.05-4.37-8.06-8.75-12.2-13-8.3-8.59-17.55-16.27-25.94-24.78-5.65-5.73-10.31-12.41-15.83-18.27-7.84-8.33-16.12-16.23-24.11-24.42-6.06-6.21-12-12.58-17.95-18.88l1.78-1.8c6.53,6.23,13,12.49,19.61,18.66,10.87,10.18,22,20.06,32.61,30.54,7,7,13,15.13,20,22.14s14.71,13.07,22,19.64c4,3.61,8,7.3,12,11,3.66.22,7.38.4,11.1.57-4.43-5.16-8.75-10.42-13.38-15.4-4-4.34-8.83-7.94-13.15-12s-8.53-8.48-12.8-12.72c-3.83-3.8-7.89-7.41-11.46-11.44-3.43-3.87-6-8.53-9.61-12.18-4.47-4.5-9.9-8-14.39-12.52a53,53,0,0,1-10.78-15.2l96.4,91.94c3.71.12,7.43.23,11.19.31l-2.17-2.21q-8.57-8.88-17.07-17.8Q774.37,383.65,762,370.43a16.08,16.08,0,0,1-4.27-7.76c6.11,5.28,12.29,10.49,18.32,15.86,6.29,5.6,12.53,11.26,18.64,17.06,7.47,7.09,14.88,14.23,22.31,21.35,2.71,0,5.4.08,8.13.08h2.09c-3.1-3.29-6.16-6.62-9.26-9.9-6.47-6.84-13.64-13-19.93-20-8.8-9.78-17.08-20-25.24-30.59,4.45,3.59,9,7,13.32,10.81,10.44,9.24,20.89,18.48,31,28.07,6.12,5.79,11.39,12.5,17.5,18.31,1.16,1.1,2.35,2.15,3.53,3.23,2.93,0,5.86-.1,8.76-.17q-7.5-7.94-14.91-15.94c-7-7.66-13.54-15.84-20.6-23.49-8-8.67-16.35-17-24.54-25.5.46-.54.92-1.07,1.39-1.6,4.94,4.2,10.09,8.19,14.78,12.66,9.55,9.11,18.58,18.79,28.34,27.66s19.86,17.14,29.75,25.75l6.56-.29c-1.83-2-3.66-3.91-5.48-5.87q-29.37-31.62-58.67-63.28c-5.31-5.71-10.87-11.18-16.31-16.76l1.61-1.62c14,13.39,27.18,27.64,42,39.92,14.23,11.75,26.56,25.3,40,37.81l9.7,9.09c2.08-.13,4.13-.28,6.19-.43Q845.11,370.43,803.44,326l1.94-2c2.42,2.37,4.77,4.81,7.27,7.08,11.79,10.67,23.78,21.11,35.38,32,12.55,11.75,24.63,24,37.13,35.82,5.29,5,10.66,9.92,16,14.82,1.92-.17,3.81-.36,5.71-.54q-10.63-11.4-21.42-22.64c-9.66-10.05-19.92-19.51-29.75-29.41-3.38-3.4-6.11-7.44-9.37-11-9.85-10.65-19.83-21.17-29.71-31.79-4.3-4.63-8.47-9.39-12.7-14.08l1.47-1.32,115.66,108.7c1.27-.14,2.53-.3,3.79-.45Q866,348.76,807.11,286.31c.18-.32.35-.64.52-1a46.82,46.82,0,0,1,5.8,4c20.52,19,41.08,37.88,61.41,57.05,10.78,10.17,21,20.94,31.69,31.22,11.05,10.63,22.23,21.12,33.41,31.61l3.66-.54c-.85-1.1-1.72-2.18-2.66-3.19-9.48-10.14-19.28-20-29-29.92s-19.67-19.63-29.17-29.76c-6.36-6.79-12-14.24-18.14-21.26-3.74-4.28-7.67-8.4-11.67-12.44-10.52-10.66-21.13-21.22-31.66-31.87-.43-.44-.43-1.32.8-3.42L953.7,400.38l1-.94L831.13,268.09l1.13-1.29c4.64,3.78,9.51,7.31,13.89,11.37q27.68,25.69,55.11,51.65c13.36,12.61,26.55,25.4,39.88,38,11.57,11,23.23,21.86,34.86,32.79-1.3-2-2.3-4.35-4-6-11.85-12-24.12-23.68-35.72-36-14.12-15-27.56-30.57-41.6-45.61-14.54-15.58-29.46-30.82-44.19-46.23-.48-.49-.67-1.26-.25-3.29,2.07,1.11,4.45,1.86,6.15,3.39,7.89,7.09,15.64,14.36,23.36,21.65,10.47,9.88,20.83,19.88,31.32,29.74,15,14.05,30,28,45,42.05,4.33,4.07,8.44,8.37,12.65,12.57-2.08-3.48-3.87-7.24-6.57-10.15-10.33-11.06-21-21.76-31.6-32.61-9.7-10-19.53-19.83-29-30-15.84-16.88-31.5-33.92-47.17-51-3.89-4.23-7.52-8.71-11.27-13.07l1.8-1.7,174.9,166.76L860.88,235.14l2-2c49.64,42.38,95.58,88.74,143.6,133Q945.15,301.38,883.8,236.6l1.71-2c3.52,2.59,7.24,5,10.55,7.8,11.2,9.6,22.64,19,33.26,29.2,9.2,8.85,17,19.12,26.17,28.05,8,7.85,17.06,14.64,25.53,22,5.07,4.41,9.92,9.07,14.86,13.62l-.1-.12.06,0c-5-6.05-9.83-12.29-15.11-18.1-6.6-7.27-13.65-14.13-20.4-21.26-5.71-6-11.22-12.27-16.91-18.33-9.54-10.16-19.22-20.2-28.74-30.37-7.21-7.7-14.29-15.5-21.36-23.32-.91-1-1.4-2.39-1-4.63,7.12,6.77,14.11,13.67,21.39,20.25,6.82,6.18,14.23,11.71,20.84,18.08,11.14,10.74,21.78,22,32.78,32.88,5,5,10.39,9.6,15.64,14.33q17.92,16.14,35.9,32.24l-.21-.27.12.11c-1.23-2-2.2-4.28-3.76-6q-23.52-25.6-47.26-51c-3.42-3.65-7.61-6.61-10.9-10.36-11.21-12.75-22.2-25.69-33.27-38.57l-1-.66.22-.22-.22.22c-.05-.21-.15-.38-.21-.58l-15.48-13,2.2-2.25c3.85,5.68,11,8,13.28,15.27l.43.36.75.88c6.08,4.23,12.51,8.08,18,13,8.67,7.74,16.5,16.4,24.85,24.5,7.63,7.39,15.49,14.53,23.2,21.84,11.33,10.73,22.58,21.56,33.93,32.28q18.87,17.82,37.85,35.52c-3.59-4.23-7-8.61-10.81-12.64-15.62-16.63-31.41-33.1-47-49.71q-27-28.75-53.95-57.64c-3.48-3.72-7.05-7.37-10.57-11l1.87-2.13c5.08,4.08,10.41,7.88,15.17,12.3s8.65,9.38,13.11,14c6.89,7.08,13.83,14.11,20.94,21,2.18,2.09,5.25,3.26,7.43,5.35,7.25,7,14.42,14.06,21.61,21.11.07-1.4.12-2.82.12-4.24,0-1.78-.1-3.55-.21-5.31-2.13-2.25-4.24-4.52-6.38-6.76-9.38-9.83-19.12-19.31-28.45-29.19-9-9.52-17.65-19.38-26.51-29-4.9-5.35-9.89-10.61-14.84-15.91l1.33-1.38,72.93,68.88a85.25,85.25,0,0,0-5.43-16l-41.8-44.36c-1.78-1-3.59-1.94-5.44-2.83C959.75,150.32,884,101,791.22,101c-89.59,0-163.3,46-172.5,105a166.6,166.6,0,0,0-39.14-4.61c-47,0-87.88,19-109.45,47.23-2.78-.16-5.58-.26-8.41-.26a131.92,131.92,0,0,0-44.63,7.53C432,270.75,446.72,285.7,461.79,300.34ZM718.62,322.7q16.26,15.9,32.5,31.82c-.83.84-1.66,1.68-2.5,2.51l-32.08-32.24Z"/><path class="cls-2" d="M1116.18,308.33c2.13,2.12,4.26,4.25,6.42,6.36,5.72,5.59,12,10.57,18.07,15.83-.35-.46-.68-.95-1-1.43A79.93,79.93,0,0,0,1116.18,308.33Z"/><path class="cls-2" d="M1096.62,327.77l-31.34-33.43c-.72,0-1.41-.09-2.12-.09-1.57,0-3.13.06-4.68.13l36.87,34.67Z"/><path class="cls-2" d="M1127.11,379.26l-1.54,1.53,16.87,16.58c.37-.57.7-1.16,1-1.74Z"/><path class="cls-2" d="M1119.32,330.52c-1.11-1.85-1.92-4-3.38-5.5q-13.45-13.9-27-27.71c-2.34-.57-4.73-1.06-7.15-1.47,3.86,3.82,7.7,7.67,11.62,11.43C1101.78,315.29,1110.67,322.79,1119.32,330.52Z"/><path class="cls-2" d="M1139.92,375.49l8.87,8.88c.45-1.31.91-2.62,1.27-4l-7.54-7.51Z"/></g><g class="cls-1"><path class="cls-2" d="M4149.15,291.22q6.66,6.31,13.19,12.75c11.91,11.82,23.72,23.74,35.71,35.48,8.61,8.44,17.49,16.61,26.17,25l.66.65c2.15-.24,4.28-.52,6.37-.88q-17.51-18.36-35.09-36.65c-19.43-20.11-39-40.06-58.49-60.14A59.67,59.67,0,0,0,4133,276Q4141.08,283.59,4149.15,291.22Z"/><path class="cls-2" d="M4912.51,255.59a26.72,26.72,0,0,0-.37-4.18c-10.86-11.58-21.91-23-33-34.39a144.81,144.81,0,0,0-21.75-8.35Q4885.06,234,4912.1,260A26,26,0,0,0,4912.51,255.59Z"/><path class="cls-2" d="M4166.16,354.61c-5.84-6-11.7-12-17.5-18.06q-8.27-8.62-16.49-17.3C4138.16,333.86,4150.29,346.28,4166.16,354.61Z"/><path class="cls-2" d="M4207.9,365.66c1.73.08,3.47.13,5.23.13.34,0,.66,0,1,0-2.52-2.5-5.06-5-7.53-7.51-14.62-15.05-29-30.34-43.52-45.46-10.56-11-21.22-21.87-31.79-32.84a55.4,55.4,0,0,0-2.62,10.59q15.45,15.1,31,30.1C4175.53,335.87,4192,350.5,4207.9,365.66Z"/><path class="cls-2" d="M4171.86,295.1c9.56,9.2,18.67,18.86,28.22,28.07,13.5,13,27.11,25.93,40.67,38.91,1.35-.37,2.72-.7,4-1.12a67,67,0,0,0,20.39,19.43c-12.2-12.21-24.42-24.4-36.43-36.79-14.09-14.53-27.64-29.57-41.61-44.21-12.17-12.75-24.62-25.21-36.87-37.87q-2.12-2.19-4.15-4.47a69.18,69.18,0,0,0-6.41,7.47Q4155.84,279.76,4171.86,295.1Z"/><path class="cls-2" d="M4189.62,294.47c13.95,13.52,27.46,27.5,41.31,41.12s27.69,26.71,41.41,40.19c4.74,4.65,9.42,9.36,14.1,14.06,2.82.81,5.72,1.47,8.68,2l-1.32-1.33c-17.29-17.76-34.25-35.85-51.51-53.64-12.68-13.07-25.71-25.79-38.37-38.87-11.47-11.83-22.73-23.87-33.94-35.95-4.27-4.59-8.16-9.54-11.9-14a11.06,11.06,0,0,1,2.69,1.62c19.56,19,39,38.22,58.62,57.15,27.1,26.1,54.44,51.93,81.54,78,2.91,2.8,5.78,5.65,8.67,8.47.95,0,1.9.08,2.87.08.67,0,1.32,0,2,0-10.17-10.71-20.12-21.63-30.4-32.22-15.17-15.63-30.75-30.85-45.94-46.46-18.52-19-36.83-38.28-55.2-57.46-.53-.55-.75-1.39,0-3.28,5.31,4.85,10.72,9.59,15.91,14.58,8.63,8.3,17.08,16.8,25.68,25.14q17.6,17.06,35.32,34c9.56,9.17,19.2,18.26,28.73,27.46,8.39,8.09,16.55,16.43,25,24.42,4.52,4.25,9.09,8.45,13.66,12.65,1.23-.2,2.46-.4,3.66-.64l1.2.41q-7.65-7.71-15.26-15.44c-8.62-8.82-17.06-17.82-25.62-26.71s-17.44-18-26.13-27c-15.88-16.53-31.48-33.35-47.73-49.51-7.19-7.15-15.68-13-23.57-19.43l3.13-3.42a11.53,11.53,0,0,1,2.89,1.46q27.06,25.77,54,51.65,26.46,25.55,52.66,51.37c13,12.79,25.59,25.91,38.59,38.66,1.13,1.1,2.31,2.16,3.45,3.26,2.74.66,5.54,1.26,8.42,1.82-8.66-9.66-17.18-19.44-26.15-28.79-19.51-20.33-39.52-40.19-59.3-60.26-11.17-11.33-22.39-22.62-33.45-34.05-6.91-7.15-13.58-14.54-20.36-21.82l1.14-1.13c4.33,4.27,8.63,8.58,13,12.8q17.13,16.55,34.32,33c11.65,11.21,23.35,22.38,34.93,33.67,7.45,7.26,14.74,14.68,22.1,22,9.6,9.6,19.05,19.37,28.85,28.76,6.33,6.07,12.75,12,19.16,18q4.23.51,8.6.87c-6.1-6.63-12.11-13.35-18.39-19.81-7.81-8.06-16.23-15.52-24.08-23.54-9.31-9.51-18.17-19.46-27.47-29-16.21-16.57-32.65-32.92-48.9-49.45a135.84,135.84,0,0,1-16.18-19.23,62.25,62.25,0,0,1,6.71,5.05q33.55,33,67,66.07c8,7.89,15.9,15.85,24,23.63,12.6,12.13,25.4,24.05,37.94,36.24,3.57,3.48,7,7.09,10.45,10.7q4.05.15,8.19.16c-4.83-4.63-9.65-9.26-14.24-14.11s-7.67-11-12.23-15.78c-5.15-5.44-11.48-9.77-16.79-15.08-9.61-9.59-18.81-19.6-28.27-29.35-6.4-6.59-13-13-19.43-19.57q-21.26-21.72-42.45-43.51a12,12,0,0,1-3.61-5.82c2.83,2.6,5.74,5.11,8.46,7.82,15.11,15,30,30.27,45.31,45.11,12,11.69,24.7,22.73,36.74,34.41,7.9,7.65,14.94,16.19,22.83,23.86,10.18,9.89,20.94,19.17,31.23,28.95,1,1,2,1.94,3,2.9,2.48-.09,4.95-.21,7.38-.38-1.13-1-2.26-2-3.36-3-7.14-6.47-12.39-14.71-20.5-20.4-4.32-3-6.76-8.63-10.56-12.57-17-17.66-34.2-35.1-51.26-52.69-11.15-11.51-22.18-23.13-32.42-35.55l127.64,123.33c2.84-.32,5.62-.69,8.36-1.09-1.45-1.46-2.91-2.92-4.36-4.39-5.75-5.83-11.6-11.57-17.32-17.43q-19.87-20.39-39.65-40.87c-9.09-9.41-18.08-18.91-27.17-28.32-2.11-2.18-4.44-4.15-6.67-6.22l1.39-1.59c4.94,4.71,9.85,9.46,14.83,14.12,6.85,6.4,13.92,12.57,20.58,19.16,5,5,9.3,10.71,14.39,15.61,10.43,10,21.35,19.59,31.76,29.65,6.51,6.28,12.88,12.7,19.25,19.12,2.59-.48,5.11-1,7.59-1.56-5.76-6-11.5-11.95-17.17-18-8.59-9.15-16.73-18.73-25.36-27.84-7.24-7.64-14.93-14.84-22.35-22.31a8.09,8.09,0,0,1-2.42-5.51c5.64,5.26,11.34,10.46,16.9,15.81,8.62,8.3,17.1,16.74,25.73,25,4.67,4.49,9.54,8.79,14.28,13.21l18.79,17.48c2-.55,3.91-1.12,5.79-1.72-6.53-6.66-13.1-13.28-19.49-20.08-8-8.5-15.34-17.61-23.53-25.91-8.05-8.15-16.79-15.62-25.23-23.38l1.56-2.16c1.26.55,2.83.78,3.72,1.69,5.83,5.94,11.37,12.18,17.3,18,3.32,3.28,7.4,5.77,10.81,9,7,6.62,13.73,13.59,20.75,20.22s14.34,13.36,21.54,20c2-.76,3.86-1.56,5.69-2.38-8.9-9.43-17.6-19-26.48-28.49-9.23-9.83-18.59-19.52-27.85-29.31-.48-.5-.55-1.38.17-2.89,1.54,1.39,3.12,2.75,4.63,4.17,13,12.33,26,24.76,39.14,37,5.81,5.39,11.74,10.66,17.66,15.94,1.37-.76,2.71-1.54,4-2.34-3.48-3.26-6.9-6.57-10.11-10.07-7.22-7.89-13.51-16.62-20.33-24.88-3.55-4.3-7.35-8.4-11-12.59l-.45-.07h0c0-.09,0-.2.06-.3a60.81,60.81,0,0,1-14.48-15.43c5.71,4.89,10.32,8.75,14.75,12.79.39.35-.07,1.65-.27,2.64l.14.11.24.27c1.4.25,3,.24,3.94,1.05,12.49,11.11,25,22.2,37.17,33.66,2.58,2.44,5,5.06,7.34,7.72a45.11,45.11,0,0,0,4.25-4.12c-.72-.74-1.44-1.46-2.15-2.21-14.88-15.56-29.37-31.5-44-47.28l1.39-1.55c3.84,3.36,7.76,6.63,11.5,10.1,8.35,7.75,16.72,15.49,24.88,23.44,4.14,4,8.2,8.14,12.27,12.25a22.88,22.88,0,0,0,3-8.35c-2.74-3.17-5.49-6.33-8.32-9.41-5.47-5.94-11.45-11.42-17.13-17.16-1.4-1.41-2.59-3-3.86-4.56l-.38-.11h0c0-.16-.1-.29-.13-.44l-14.9-15c6.63,3.39,12.93,7.09,14.9,15,.09.09.18.19.28.28l.22.28c1.41.4,3,.57,4,1.43,6.73,5.64,13.57,11.18,19.86,17.28,2.69,2.61,5.3,5.29,8,7.93q6.33.63,12.86,1.11c-4.89-4.95-9.83-9.85-14.69-14.82-5.24-5.37-10.35-10.87-15.51-16.32l1.53-1.55c5.65,5.38,11.26,10.79,16.94,16.12,6.07,5.69,12.2,11.31,18.28,17,4.68.29,9.41.51,14.21.69-.1-.1-.18-.22-.28-.32-3.85-3.89-8.55-7-12.43-10.81a45.91,45.91,0,0,1-9.31-13.14l25.58,24.4q7.11.21,14.36.24l-24.31-24.42,1.8-1.82,26.82,26.26c11,0,21.81-.36,32.27-1l-.11-.12,1.2-1.38,1.59,1.32c4.9-.31,9.75-.68,14.5-1.12-1-1-1.93-2.08-2.89-3.11-4.59-4.93-9.39-9.66-14.09-14.48.47-.46.93-.93,1.39-1.4,6.39,6.14,12.62,12.47,19,18.65,4-.39,8-.82,11.88-1.3L4611,334.54c.56-.56,1.11-1.13,1.67-1.7,2.09,2,4.12,4.16,6.28,6.12,5.3,4.79,10.65,9.54,16,14.31,3.32-.45,6.61-.92,9.82-1.44-7.42-8-14.9-15.9-22.32-23.88-3.72-4-7.32-8.11-11-12.17l1.28-1.14,38.42,36.12c3.07-.54,6.09-1.11,9-1.7l-46-48.81.45-.83a41.85,41.85,0,0,1,5,3.44q24.08,22.25,48,44.61c2.29-.51,4.55-1,6.76-1.59-3.55-4.18-7-8.47-10.58-12.6-3.22-3.7-6.63-7.26-10.08-10.75-9.08-9.2-18.25-18.33-27.34-27.53-.38-.38-.38-1.14.68-2.95l55.15,51.78q3.39-.94,6.63-1.93l-54-57.38,1-1.12c4,3.26,8.22,6.32,12,9.82q23.91,22.2,47.61,44.62l1.51,1.44c1.9-.66,3.74-1.34,5.54-2-4.2-4.66-8.41-9.31-12.69-13.9-12.57-13.46-25.45-26.62-38.18-39.93-.41-.43-.57-1.09-.21-2.85,1.78,1,3.84,1.61,5.31,2.93,6.82,6.13,13.51,12.41,20.18,18.71,9.05,8.53,18,17.17,27.05,25.69l6.48,6.05c1.47-.65,2.89-1.32,4.27-2-6.39-6.53-12.79-13-19-19.71-13.68-14.59-27.21-29.31-40.74-44-3.36-3.65-6.5-7.52-9.74-11.29l1.56-1.47,75.79,72.27c1.44-.86,2.8-1.74,4.1-2.62l-66.07-69.06c.58-.59,1.17-1.17,1.75-1.75,24.53,20.94,48,43,71.37,65.22a38.66,38.66,0,0,0,2.83-2.93l-56.16-59.28,1.48-1.76c3,2.24,6.25,4.29,9.11,6.74,9.68,8.29,19.56,16.39,28.74,25.22,7.42,7.15,13.85,15.32,21.09,22.66a21,21,0,0,0,1.46-3.95c.85.18,1.76.31,2.61.49-4.35-4.67-8.61-9.43-13-14.09-8.25-8.77-16.6-17.44-24.83-26.23-6.23-6.65-12.35-13.39-18.45-20.15a4.41,4.41,0,0,1-.89-4c6.15,5.84,12.19,11.8,18.47,17.49,5.89,5.34,12.3,10.11,18,15.62,9.62,9.27,18.81,19,28.31,28.4,1.8,1.77,3.66,3.48,5.53,5.18,3,.43,6.07.85,9.19,1.17-4.79-5.16-9.54-10.36-14.35-15.49-2.95-3.16-6.56-5.72-9.41-9-9.69-11-19.18-22.19-28.74-33.31-.27-.2-.56-.38-.83-.58l.18-.18-.18.18c-.05-.18-.14-.32-.19-.5L4700.32,240l1.91-1.95c3.32,4.91,9.53,6.89,11.47,13.19l.37.32c.22.25.44.5.65.76,5.26,3.65,10.81,7,15.54,11.2,7.49,6.69,14.26,14.17,21.47,21.17,6.58,6.39,13.38,12.55,20,18.86l7.85,7.47c2.28.12,4.63.13,7,.18-.93-1-1.86-2-2.78-2.94q-23.37-24.82-46.6-49.78c-3-3.22-6.09-6.37-9.14-9.55l1.62-1.84c4.39,3.52,9,6.81,13.11,10.63s7.47,8.1,11.32,12.05c6,6.12,12,12.19,18.09,18.11,1.88,1.82,4.54,2.82,6.41,4.63,6.46,6.22,12.84,12.51,19.24,18.78q3.72-.06,7.37-.24-6.71-7.24-13.52-14.39c-8.11-8.49-16.52-16.69-24.58-25.22-7.77-8.23-15.25-16.74-22.9-25.08-4.23-4.62-8.54-9.17-12.82-13.75l1.15-1.19,83.5,78.86q2.79-.26,5.55-.57-34.18-36.28-68.36-72.56l1.68-1.77,77.43,72.83c1.67-.28,3.32-.57,5-.87l-75.47-80.52c1.36-.09,2.56-.54,3-.14,5.9,5.16,11.77,10.36,17.49,15.72,2.73,2.56,5,5.65,7.71,8.19,11.83,10.93,23.95,21.57,35.63,32.66,7.53,7.15,14.89,14.49,22.26,21.81,1.38-.34,2.74-.69,4.09-1q-10.87-11.15-21.68-22.37c-7.19-7.51-13.74-15.62-20.79-23.27-8.11-8.8-16.45-17.39-24.68-26.07-1.31-1.38-2.61-2.77-3.92-4.16l1.29-1.45c3.54,3.22,7.07,6.46,10.62,9.66,7.15,6.43,14.35,12.81,21.47,19.28,11.79,10.71,23.74,21.24,35.23,32.26,4.44,4.25,8.79,8.58,13.13,12.92,1-.33,2-.67,3-1l-1.32-1.33c-5.77-5.85-11.57-11.69-17-17.86-7.09-8.05-13.56-16.64-20.74-24.59-9.53-10.53-19.44-20.72-29.3-30.94-3.51-3.64-7.37-6.95-11.06-10.41l1.14-1.42c3.42,2.57,7.11,4.86,10.2,7.78,6.53,6.16,11.73,13.51,19.16,19,7,5.18,12.69,12.17,19.1,18.21,12.92,12.17,26,24.12,38.88,36.38.38.36.74.73,1.12,1.1q2.21-1,4.3-2c-2.19-2.26-4.35-4.55-6.54-6.8-6.51-6.67-13.48-12.88-20-19.54-4.7-4.82-8.8-10.21-13.49-15-7.66-7.86-15.66-15.37-23.32-23.22-2.18-2.23-3.69-5.11-5.51-7.69l-15.63-16.1,1.68-1.66,15.46,16.23c6.58,6.29,13.06,12.7,19.77,18.85,17.4,15.94,34.93,31.74,52.34,47.68,1,1,2,2,3,3,1.16-.71,2.28-1.42,3.36-2.15-.33-.35-.68-.69-1-1-14.59-15.4-28.76-31.2-43.36-46.58-7.76-8.18-16.15-15.75-24-23.79-2.1-2.13-3.46-5-6.14-9,2.52,1.24,4.17,1.62,5.19,2.63,7.74,7.74,15.25,15.73,23.07,23.39,5.64,5.53,11.71,10.61,17.48,16,10.68,10,21.27,20.08,31.93,30.08l3.52,3.28c1.31-1.11,2.51-2.26,3.66-3.41l-1.72-1.75q-8.86-9-17.56-18.26-15.64-16.53-31.18-33.15c-4.48-4.77-9-9.51-13.35-14.39-1.24-1.4-1.94-3.27-2.89-4.93l1.53-1.17,70.38,67.42a34.18,34.18,0,0,0,2.57-4.35q-9.8-10.08-19.47-20.28-16.35-17.28-32.6-34.66-3-3.21-6-6.44a234,234,0,0,0-58.6-7.13,253.82,253.82,0,0,0-25.8,1.31c-6.64-25.07-31.34-43.73-60.89-43.73a65.6,65.6,0,0,0-44.72,17.13,55.66,55.66,0,0,0,.46-7c0-28.81-21.67-53.12-51.37-60.95a77.24,77.24,0,0,0-145.17,51c-1.14-.08-2.26-.2-3.41-.2a50.93,50.93,0,0,0-32.21,11.78,87.43,87.43,0,0,0-157.75-1.57c-.39,0-.77-.06-1.16-.06a67.14,67.14,0,0,0-67,64.06c-22.18,2-41.73,10.71-55.4,23.5C4162,268.16,4175.94,281.2,4189.62,294.47Z"/><path class="cls-2" d="M4185.15,362.05q4,1.09,8.14,1.89c-1.15-1.21-2.32-2.41-3.48-3.62C4178,348,4166.53,335.24,4154.62,323c-8.73-9-17.61-17.87-26.47-26.76,0,.77-.13,1.52-.13,2.29a54.74,54.74,0,0,0,.73,8.71c5.05,5.09,10.09,10.19,15.22,15.2C4157.62,335.69,4171.42,348.83,4185.15,362.05Z"/></g><g class="cls-1"><polygon class="cls-2" points="8583.39 536.43 8583.39 536.43 8583.39 536.43 8583.39 536.43"/><path class="cls-2" d="M8594.19,569.39q-15.75-16-31.77-31.79a15.22,15.22,0,0,0-4.3-2.52c.13.52.33,1,.48,1.52,3.43,3.92,6.79,7.92,10.51,11.56,8.68,8.51,17.66,16.72,26.51,25.06C8595.17,571.92,8595.07,570.28,8594.19,569.39Z"/><path class="cls-2" d="M8558.61,507.37a54.46,54.46,0,0,0-1.27,5.66l26,23.4-.12-.15-.12-.16.14.13c-1.42-2.35-2.54-5-4.36-7C8572.19,522,8565.37,514.69,8558.61,507.37Z"/><path class="cls-2" d="M8607.75,558.44c-8-7.51-16.29-14.82-24.46-22.19l0,0,28.25,28.09C8610.31,562.37,8609.41,560,8607.75,558.44Z"/><path class="cls-2" d="M9826.86,441.54c-7.52-20.5-26.32-37.17-50.7-45.66,9.1,8.19,18.26,16.32,27.32,24.55C9811.25,427.49,9819.08,434.49,9826.86,441.54Z"/><path class="cls-2" d="M8844.28,569.58l2.09,0c-1.5-1.63-3-3.3-4.49-4.89-3-3.17-7-5.44-10.56-8.09l.07.11Z"/><path class="cls-2" d="M8701.53,459.07c4.43,4.06,8.26,8.77,12.64,12.89,15.88,14.94,31.88,29.76,47.83,44.63l24.78,23.61,0-.11,30.69,28.63,3.8.17c-5.1-5.31-10.18-10.64-15.35-15.88-5.47-5.55-12.19-10.2-16.43-16.55-3.42-5.12-28.44-24.32-30.26-30.51.93-.56-31.75-38.08-30.82-38.64,15,13.46,88,76,103,89.47l-.25-.26.16.12c-2.41-3.79-4.35-8-7.38-11.23-10.14-10.75-20.67-21.15-31.09-31.64-8.48-8.56-58.78-54.46-56.93-68,12,11.22,74.09,67.93,85.6,79q23,22.26,45.78,44.83c1.74,0,3.52,0,5.25-.05-9.92-10.2-19.8-20.45-29.77-30.61-14.58-14.84-30.11-28.83-43.77-44.46-6-6.87-62.31-52.26-57.58-65.6,7,6.13,58.78,51.88,65.36,58.18,19.49,18.65,38.77,37.53,58.15,56.29,8.86,8.57,17.77,17.08,26.66,25.62l4.37-.2q-29.83-30.27-59.3-60.89c-15.75-16.41-31.14-33.18-46.42-50-2.69-3-4-7.16-6-10.79l1.87-1.32c6.53,5.72,13.27,11.21,19.54,17.2,18.61,17.78,37,35.78,55.54,53.66,14.89,14.36,30,28.49,44.72,43,2.71,2.69,5.4,5.41,8.11,8.1q3.27-.22,6.49-.48c-4.94-5.34-9.88-10.69-15-15.91-13.4-13.8-27.5-26.92-40.8-40.81-26-27.2-51.76-54.71-77.52-82.17-1.2-1.27-1.53-3.36-.91-5.95,14.69,13.48,29.64,26.67,44,40.48,25.82,24.8,51.25,50,76.92,75q14.43,14,29,28c2.47-.25,4.94-.51,7.37-.78-11.62-11.94-23.26-23.87-34.78-35.9-23.13-24.16-46.09-48.48-69.23-72.62-14.54-15.17-29.28-30.15-42.69-46.77a28.5,28.5,0,0,1,4.35,2.78c17.41,16.14,35,32.11,52.07,48.59,16.65,16.06,32.63,32.82,49.2,49,18.29,17.85,36.8,35.47,55.21,53.19,2.53-.34,5-.71,7.47-1.08l-1.08-1.13c-15.91-16.6-31.29-33.71-47.3-50.22-19.63-20.24-39.9-39.87-59.45-60.19a497,497,0,0,1-38.6-44.94c4.43,4.25,8.9,8.45,13.29,12.74,30.5,29.78,60.79,59.77,91.54,89.29,18.39,17.64,37.33,34.71,55.94,52.13,2.49-.44,5-.89,7.39-1.35-.08-.09-.17-.16-.25-.25-19.65-20.22-39-40.76-58.49-61.09-15.58-16.21-31.35-32.24-46.91-48.47-13.15-13.71-26.13-27.59-39.18-41.39l1.47-1.59c7.15,6.82,14.27,13.67,21.45,20.46q22.22,21,44.46,42,8.94,8.47,17.71,17.14c16,15.87,31.89,31.89,48,47.67,7.91,7.76,16,15.36,24,23,3-.66,6-1.34,8.85-2q-17.67-18.51-35.41-36.93c-26.76-27.7-53.75-55.15-80.54-82.81a254.65,254.65,0,0,1-24-28.09,31,31,0,0,1,3.84,2.69c22.73,21.5,45.53,42.92,68.08,64.6,12.85,12.36,25.09,25.35,37.92,37.73,13.82,13.33,27.75,26.54,41.66,39.78,2.39-.67,4.75-1.35,7-2.05-3.37-3.44-6.8-6.83-10.15-10.29-18.93-19.52-37.14-39.73-55.92-59.41-16.35-17.12-33.08-33.88-49.55-50.89a129.78,129.78,0,0,1-16.52-20.2,13.69,13.69,0,0,1,3.2,1.68c22.12,20.89,44.37,41.63,66.21,62.8,18.75,18.17,36.9,37,55.51,55.26,6,5.86,12,11.66,18,17.47,3.15-1.13,6.14-2.3,9-3.49-3.91-4.07-7.8-8.17-11.73-12.23-17-17.56-34.55-34.66-51.57-52.23-15.41-15.9-30.54-32.09-45.6-48.32-5.74-6.17-11-12.82-16-18.76a15,15,0,0,1,3.62,2.17c26.28,25.58,52.36,51.37,78.78,76.81q26.3,25.32,52.74,50.47,6.72,1.2,13.71,1.82c-13.79-13.88-27.64-27.72-41.28-41.74-24.9-25.58-49.5-51.45-74.19-77.23-.7-.74-1-1.86,0-4.4,7.14,6.52,14.42,12.89,21.38,19.59,11.61,11.16,23,22.58,34.52,33.79q23.66,22.92,47.46,45.69,13,12.48,26.06,24.9c3.72,0,7.38-.18,11-.45-10-10.34-20-20.64-30-31-21.35-22.21-42.31-44.81-64.15-66.53-9.66-9.61-21.07-17.47-31.68-26.12l4.21-4.58c1.31.63,2.88,1,3.88,2Q9014,450,9050.26,484.83q28.6,27.62,56.92,55.52,5.88-.9,11.52-2.21Q9096.36,515.54,9074,493c-15-15.23-30.08-30.4-45-45.77-9.29-9.6-18.25-19.53-27.36-29.31l1.53-1.52c5.82,5.74,11.6,11.52,17.47,17.2q23,22.23,46.12,44.39c15.66,15.07,31.38,30.08,47,45.24,4.35,4.24,8.64,8.53,12.93,12.82,3.72-1.1,7.36-2.31,10.88-3.67-4-4.26-8-8.53-12-12.7-21.78-22.28-43.87-44.24-65.71-66.46a182.1,182.1,0,0,1-21.75-25.84c3,2.24,6.35,4.17,9,6.79q45.1,44.3,90,88.79l6.79,6.73c3.58-1.61,7.07-3.31,10.38-5.18.47.15,1,.26,1.47.41-2.16-2.26-4.3-4.54-6.48-6.78-8.6-8.87-17.47-17.48-26.11-26.31q-28.59-29.18-57-58.47c-2.08-2.13-4.06-4.37-4.85-7.83,3.79,3.5,7.7,6.88,11.36,10.51,20.31,20.2,40.35,40.68,60.89,60.63,10.88,10.57,22.14,20.76,33.28,31.07a125,125,0,0,0,18.65,2.39q-15.59-16-31.15-32c-15-15.46-29.81-31.08-43.57-47.77l82.76,80a128.55,128.55,0,0,0,16.38-1.2c-11.8-12.23-23.5-24.57-35.31-36.79-2.83-2.94-6-5.59-9-8.37l1.87-2.12c6.64,6.33,13.23,12.71,19.93,19,9.2,8.6,18.71,16.9,27.66,25.74,1.68,1.67,3.3,3.39,4.89,5.15,7.37,2.08,15.38,3.88,23.88,5.39-6-5.9-12-11.75-17.87-17.7a10.8,10.8,0,0,1-3.26-7.4c7.58,7.07,15.24,14.06,22.71,21.24,1.71,1.64,3.39,3.31,5.09,5,6.56,1,13.39,1.82,20.43,2.46-9.84-9.65-20.28-18.71-30.43-28l2.09-2.89c1.69.73,3.81,1.05,5,2.27,7.83,8,15.27,16.36,23.24,24.2a67.86,67.86,0,0,0,5.84,5c6.43.47,13,.74,19.77.88q-9.83-10.31-19.62-20.62c-.64-.67-.73-1.85.23-3.88,2.08,1.87,4.19,3.69,6.22,5.6q10,9.5,20,19l.87,0q9.07,0,17.82-.43c-4.18-4.91-8.52-9.7-12.8-14.53-.2,0-.41-.06-.6-.11h0c0-.12.06-.27.08-.4-7.16-5.63-13.71-11.76-19.46-20.74,7.67,6.58,13.86,11.76,19.82,17.19.53.48-.09,2.21-.36,3.55l.18.15.33.37c1.89.33,4.08.32,5.29,1.4,4.78,4.25,9.53,8.51,14.3,12.76q7.65-.5,15-1.29-12.9-14-25.79-27.9l1.87-2.09c5.16,4.52,10.43,8.91,15.45,13.58q8.3,7.7,16.57,15.42c5.26-.7,10.35-1.53,15.28-2.45-4-4-8.14-7.91-12.13-11.94-1.87-1.9-3.48-4.07-5.18-6.13l-.51-.14.09-.1-.07.08c-.05-.21-.14-.39-.19-.59l-20-20.12c8.91,4.56,17.38,9.54,20,20.12.13.12.26.25.38.38l.3.37c1.9.54,4,.77,5.43,1.93,5.93,5,11.9,9.89,17.71,15,4.75-1,9.3-2.1,13.66-3.29-5.8-6-11.53-12.11-17.29-18.18l2.06-2.08c6.64,6.31,13.25,12.65,19.91,18.94a160.17,160.17,0,0,0,17-6.07l0-.06.06,0c1.16-.49,2.33-1,3.44-1.5q7.84-.59,15.44-1.37c-.06.68-.12,1.36-.12,2.05,0,14.25,14.24,27.06,36.92,36L9429.26,525l2.42-2.43,37.73,36.94-1.76,1.77a184.46,184.46,0,0,0,33.11,8.29c-2.05-2.6-4.13-5.13-6.16-7.77,3.48,2.82,7,5.59,10.47,8.41,6.84,1,14,1.65,21.29,2-5.14-5.29-10.3-10.56-15.42-15.86l1.61-1.87c5.74,4.89,11.72,9.52,17.16,14.71,1.14,1.08,2.25,2.2,3.38,3.29,2.36.07,4.73.11,7.13.11,3.47,0,6.91-.07,10.3-.2q-10.11-10.92-20.23-21.82c-6.16-6.62-12.61-13-18.93-19.45.63-.62,1.25-1.25,1.87-1.88,14.87,14.27,29.1,29.31,44.68,42.71,4.68-.31,9.29-.73,13.76-1.29l-41.52-44.28,2.25-2.29c2.81,2.75,5.53,5.58,8.44,8.22,13.59,12.3,27.43,24.35,40.82,36.88q4.82-.82,9.41-1.83l-.21-.2c-3.92-4-7.09-8.64-10.88-12.74-11.43-12.36-23-24.57-34.49-36.91-5-5.37-9.84-10.89-14.75-16.35l1.72-1.53,69.24,65.08q4.93-1.38,9.5-3l-76.79-81.46.6-1.11c2.25,1.53,4.75,2.79,6.73,4.62,23.82,22,47.69,44,71.29,66.23,4.26,4,8.39,8.17,12.54,12.3,2.7.23,5.42.43,8.2.43.48,0,.95,0,1.42,0-4.35-4.42-8.71-8.84-13-13.36-7.39-7.89-13.95-16.53-21.06-24.68-4.34-5-8.91-9.75-13.55-14.45-12.21-12.37-24.52-24.63-36.75-37-.5-.52-.5-1.54.92-4L9650,561.51q3.65-.59,7.19-1.43l-94.88-100.87,1.31-1.5c5.39,4.38,11,8.48,16.12,13.2q32.15,29.82,64,60,13.24,12.51,26.38,25.13c1.61-.63,3.18-1.31,4.73-2-13-14.13-25.6-28.56-38.68-42.57-16.89-18.09-34.21-35.78-51.31-53.67-.55-.57-.77-1.47-.29-3.82,2.4,1.28,5.17,2.16,7.14,3.93,9.17,8.24,18.16,16.68,27.12,25.14,12.16,11.47,24.18,23.08,36.36,34.53q15.81,14.85,31.69,29.63c1.28-.88,2.53-1.78,3.75-2.72q-6.45-6.57-12.88-13.15c-11.26-11.58-22.66-23-33.71-34.8-18.38-19.6-36.56-39.38-54.75-59.16-4.52-4.92-8.73-10.11-13.09-15.17l2.09-2L9699.76,536c1.18-1.29,2.31-2.6,3.37-4L9596.83,421l2.36-2.36c42.42,36.23,82.52,75,123,113.38,1.78.28,3.61.44,5.44.64l-104.17-110,2-2.37c4.09,3,8.4,5.76,12.24,9.05,13,11.15,26.29,22,38.62,33.9,10.68,10.28,19.77,22.2,30.37,32.57,9.32,9.1,19.81,17,29.65,25.57,4.32,3.76,8.5,7.67,12.69,11.58.35,0,.69-.1,1-.13-4.6-5.66-9.17-11.36-14.07-16.76-7.66-8.43-15.85-16.39-23.69-24.68-6.63-7-13-14.25-19.62-21.28-11.08-11.79-22.31-23.44-33.37-35.25-8.36-8.94-16.59-18-24.79-27.08-1.06-1.17-1.63-2.77-1.2-5.36,8.26,7.85,16.38,15.86,24.83,23.5,7.91,7.17,16.52,13.59,24.2,21,12.93,12.46,25.28,25.53,38.05,38.17,5.83,5.77,12.06,11.14,18.16,16.64q15.36,13.83,30.76,27.62c1-.28,2.1-.58,3.13-.9q-25.67-27.93-51.56-55.65c-4-4.25-8.82-7.68-12.65-12-13-14.79-25.77-29.82-38.61-44.76-.38-.26-.76-.51-1.13-.78l.25-.25-.25.25c-.06-.24-.18-.43-.25-.67l-18-15.11,2.56-2.62c4.46,6.59,12.81,9.26,15.41,17.73l.5.42.88,1c7.06,4.91,14.52,9.37,20.88,15,10.06,9,19.15,19.05,28.85,28.45,8.85,8.58,18,16.87,26.93,25.35,13.15,12.47,26.21,25,39.38,37.48l.75.69c1.42-.67,2.86-1.32,4.23-2q-14.12-14.88-28.19-29.79-31.41-33.37-62.63-66.91c-4-4.32-8.18-8.55-12.28-12.83.73-.82,1.45-1.65,2.17-2.47,5.9,4.73,12.09,9.15,17.62,14.28s10.05,10.89,15.21,16.2c8,8.22,16.07,16.38,24.32,24.34,2.53,2.44,6.09,3.79,8.62,6.22,14.87,14.33,29.39,29,44.4,43.19.4.38.83.73,1.24,1.1,1.54-1.12,3-2.27,4.47-3.47-.39-.45-.73-.93-1.12-1.37-10.22-11.51-20.78-22.74-31.41-33.88-10.89-11.41-22.2-22.42-33-33.89-10.45-11.05-20.49-22.49-30.77-33.71-5.69-6.21-11.49-12.31-17.24-18.47.52-.53,1-1.07,1.55-1.61l121,114.25c1.18-1.35,2.24-2.76,3.3-4.18l-96.44-102.36,2.25-2.38,100.5,94.52a59.19,59.19,0,0,0,2.6-6l-93.8-100.07c1.83-.12,3.45-.72,4.07-.18,7.93,6.93,15.81,13.92,23.49,21.12,3.67,3.43,6.67,7.59,10.37,11,15.9,14.69,32.19,29,47.89,43.9,3.8,3.61,7.5,7.34,11.25,11a56.14,56.14,0,0,0,.45-7c0-.21,0-.4,0-.61-1.8-1.86-3.61-3.7-5.4-5.56-9.66-10.09-18.47-21-27.94-31.28s-19.32-20.5-29-30.69a110.73,110.73,0,0,0-18.13-3.18,71.59,71.59,0,0,0-71.49-68.3c-.41,0-.82.05-1.23.06a93.23,93.23,0,0,0-168.2,1.68,54.24,54.24,0,0,0-34.34-12.56c-1.23,0-2.43.13-3.64.22a82.37,82.37,0,0,0-154.77-54.39c-31.67,8.35-54.78,34.27-54.78,65a61,61,0,0,0,.49,7.44,69.93,69.93,0,0,0-47.68-18.26c-31.5,0-57.84,19.89-64.92,46.63a269.47,269.47,0,0,0-27.5-1.4c-28.32,0-54.47,4.29-75.65,11.55-13.23-50.7-78.59-89.22-157.28-89.22-85.45,0-155.22,45.4-159.56,102.5-24.83,11.91-43.06,33.38-48.65,58.92Q8691.11,449.57,8701.53,459.07Z"/><path class="cls-2" d="M8645.19,548.43c-5.29-8.87-11.64-16.66-21.27-21.15l0,0Z"/><path class="cls-2" d="M8672.21,527.27c.5-.49,1-1,1.48-1.48l-61.55-65.66c-2.89.78-5.69,1.7-8.42,2.72Z"/><path class="cls-2" d="M8620.24,546.17c-17.67-18.8-35.51-37.43-53.2-56.21a64,64,0,0,0-3.5,5.57q12.63,12.06,25.3,24.08,21.9,20.68,43.94,41.23C8628.61,555.94,8624.64,550.85,8620.24,546.17Z"/><path class="cls-2" d="M8686.33,459.71c-2.38-2.43-4.86-4.77-7.3-7.14-.07,1.35-.16,2.7-.16,4.06,0,1.8.18,3.56.3,5.33,2.89,2.72,5.8,5.4,8.67,8.14,14.36,13.71,28.32,27.86,42.54,41.72,1.37,1.33,3.37,2,5.07,3-2-3.36-3.58-7.18-6.2-10Q8708,482,8686.33,459.71Z"/><path class="cls-2" d="M8665.39,544.48l1-1L8594.34,467c-2.38,1.21-4.68,2.51-6.88,3.91Z"/><path class="cls-2" d="M8654,461.09c16.9,16.2,33.08,33.15,49.82,49.51,6.64,6.49,14,12.27,21,18.38-2.64-3.5-4.94-7.33-8-10.44-14.22-14.52-28.7-28.78-43-43.25q-8.19-8.3-16.17-16.78c-2.55-.5-5.13-.92-7.77-1.22C8651.29,458.57,8652.69,459.8,8654,461.09Z"/><path class="cls-2" d="M8607.65,506.74c-9.12-10.27-18.52-20.29-28-30.25a74.87,74.87,0,0,0-6,5.52c9.73,9.56,19.45,19.12,29.36,28.48,6.56,6.19,14,11.42,21.08,17.08l-.25-.3h0C8618.53,520.4,8613.44,513.26,8607.65,506.74Z"/><path class="cls-2" d="M8700.05,529c-1.29-2.14-2.23-4.63-3.93-6.38-21.24-22-42.68-43.71-63.85-65.72-2.54.15-5.05.4-7.52.73,15.24,14.62,30,29.76,45.22,44.37C8679.69,511.3,8690,520,8700.05,529Z"/></g><g class="cls-1"><polygon class="cls-2" points="7894.26 327.57 7894.26 327.57 7894.26 327.57 7894.26 327.57"/><path class="cls-2" d="M7883.46,360.53q15.75-16,31.77-31.79a15.22,15.22,0,0,1,4.3-2.52c-.13.52-.33,1-.47,1.52-3.44,3.93-6.8,7.92-10.52,11.56-8.68,8.51-17.66,16.72-26.51,25.06C7882.49,363.06,7882.59,361.42,7883.46,360.53Z"/><path class="cls-2" d="M7919,298.51a54.46,54.46,0,0,1,1.27,5.66l-26.05,23.4.12-.15.12-.16-.14.13c1.42-2.35,2.55-5,4.37-6.95C7905.47,313.1,7912.28,305.83,7919,298.51Z"/><path class="cls-2" d="M7869.91,349.59c8-7.52,16.28-14.83,24.45-22.2l0,0-28.24,28.09C7867.35,353.51,7868.24,351.14,7869.91,349.59Z"/><path class="cls-2" d="M6650.8,232.68c7.51-20.5,26.31-37.17,50.69-45.66-9.1,8.19-18.26,16.32-27.32,24.55C6666.4,218.63,6658.57,225.63,6650.8,232.68Z"/><path class="cls-2" d="M7633.37,360.72l-2.09,0c1.5-1.63,3-3.3,4.49-4.89,3-3.17,7-5.44,10.56-8.09l-.07.11Z"/><path class="cls-2" d="M7776.12,250.21c-4.43,4.06-8.26,8.77-12.64,12.89-15.88,14.94-31.88,29.76-47.83,44.63l-24.78,23.61-.05-.11-30.69,28.63-3.8.17c5.1-5.31,10.18-10.64,15.35-15.88,5.47-5.55,12.19-10.2,16.43-16.54,3.42-5.13,28.44-24.33,30.26-30.52-.93-.56,31.75-38.08,30.82-38.64-14.95,13.46-88,76-102.95,89.47l.25-.26-.16.12c2.41-3.79,4.35-8,7.38-11.23,10.14-10.75,20.67-21.14,31.09-31.64,8.48-8.55,58.78-54.46,56.93-68-12,11.22-74.09,67.93-85.6,79q-23,22.26-45.77,44.83c-1.75,0-3.52,0-5.26-.05,9.92-10.2,19.8-20.45,29.78-30.61,14.57-14.84,30.1-28.83,43.76-44.46,6-6.87,62.31-52.26,57.58-65.59-7,6.12-58.77,51.87-65.36,58.17-19.49,18.65-38.77,37.53-58.15,56.29-8.86,8.57-17.77,17.08-26.66,25.62l-4.37-.2q29.83-30.27,59.3-60.89c15.76-16.41,31.14-33.18,46.42-50,2.69-3,4-7.16,6-10.79l-1.87-1.32c-6.53,5.72-13.27,11.21-19.54,17.2-18.61,17.78-37,35.78-55.54,53.66-14.89,14.36-30,28.49-44.72,43-2.71,2.69-5.4,5.41-8.11,8.1q-3.27-.22-6.49-.48c4.95-5.34,9.88-10.69,14.95-15.91,13.4-13.8,27.5-26.92,40.8-40.81,26-27.2,51.76-54.71,77.52-82.17,1.2-1.27,1.53-3.36.92-5.95-14.7,13.48-29.65,26.67-44,40.48-25.82,24.81-51.25,50-76.91,75q-14.45,14-29,27.95c-2.47-.25-4.94-.5-7.37-.78,11.62-11.94,23.26-23.87,34.78-35.9,23.13-24.15,46.09-48.48,69.23-72.62,14.54-15.17,29.28-30.15,42.69-46.77a29,29,0,0,0-4.35,2.78c-17.41,16.14-35,32.11-52.07,48.59-16.65,16.07-32.63,32.82-49.19,49-18.3,17.85-36.81,35.47-55.22,53.19-2.53-.34-5-.71-7.47-1.08l1.08-1.13c15.91-16.6,31.29-33.71,47.3-50.22,19.63-20.24,39.9-39.87,59.46-60.18a500,500,0,0,0,38.59-44.95c-4.43,4.25-8.9,8.45-13.29,12.74-30.5,29.78-60.79,59.77-91.54,89.29-18.39,17.64-37.33,34.71-55.94,52.13-2.49-.44-5-.89-7.39-1.35.08-.08.17-.16.25-.25,19.65-20.21,39-40.76,58.49-61.09,15.58-16.21,31.35-32.24,46.91-48.47,13.15-13.71,26.13-27.59,39.18-41.39l-1.47-1.59c-7.15,6.82-14.27,13.67-21.45,20.46q-22.21,21-44.46,42-8.94,8.47-17.71,17.14c-16,15.87-31.89,31.9-48,47.68-7.91,7.75-16,15.35-24,23-3-.66-6-1.34-8.85-2q17.67-18.51,35.41-36.93c26.76-27.7,53.76-55.15,80.54-82.81a254.65,254.65,0,0,0,24-28.09,31,31,0,0,0-3.84,2.69c-22.73,21.5-45.53,42.92-68.08,64.6-12.85,12.36-25.09,25.35-37.92,37.73-13.82,13.33-27.75,26.54-41.66,39.78-2.39-.67-4.75-1.35-7-2.05,3.37-3.44,6.8-6.83,10.15-10.29,18.93-19.52,37.14-39.73,55.92-59.4,16.35-17.13,33.08-33.89,49.55-50.9a129.21,129.21,0,0,0,16.52-20.2,13.69,13.69,0,0,0-3.2,1.68c-22.12,20.89-44.37,41.63-66.21,62.8-18.75,18.17-36.9,37-55.51,55.26-6,5.86-12,11.66-18,17.47-3.15-1.13-6.14-2.3-9-3.49,3.91-4.07,7.8-8.17,11.73-12.23,17-17.56,34.55-34.66,51.57-52.23,15.41-15.9,30.54-32.09,45.6-48.32,5.74-6.17,11-12.82,16-18.76a15.18,15.18,0,0,0-3.62,2.17c-26.28,25.58-52.36,51.37-78.78,76.81q-26.3,25.32-52.74,50.47-6.72,1.2-13.71,1.82c13.8-13.88,27.64-27.71,41.28-41.74,24.9-25.58,49.5-51.45,74.19-77.22.7-.74,1-1.87,0-4.41-7.14,6.52-14.42,12.89-21.38,19.59-11.61,11.16-23,22.58-34.52,33.79q-23.66,22.94-47.46,45.69-13,12.48-26.06,24.9c-3.72,0-7.38-.18-11-.45,10-10.34,20-20.64,30-31,21.35-22.22,42.31-44.82,64.15-66.54,9.66-9.61,21.07-17.46,31.68-26.12l-4.21-4.58c-1.31.63-2.88,1-3.88,2q-36.37,34.63-72.61,69.42-28.61,27.61-56.92,55.52-5.88-.9-11.52-2.21,22.34-22.59,44.69-45.17c15-15.23,30.08-30.4,44.95-45.76,9.29-9.61,18.25-19.54,27.36-29.32l-1.53-1.51c-5.82,5.73-11.6,11.51-17.47,17.19q-23,22.23-46.12,44.39c-15.66,15.07-31.38,30.08-46.95,45.25-4.35,4.23-8.64,8.52-12.93,12.81-3.72-1.1-7.36-2.3-10.88-3.67,4-4.26,8-8.53,12-12.7,21.78-22.28,43.88-44.24,65.71-66.46a182.1,182.1,0,0,0,21.75-25.84c-3,2.25-6.35,4.17-9,6.79q-45.11,44.29-90,88.79l-6.79,6.73c-3.58-1.61-7.07-3.31-10.38-5.18-.47.15-1,.26-1.47.41,2.16-2.26,4.31-4.54,6.48-6.78,8.61-8.87,17.47-17.48,26.12-26.31q28.58-29.17,57-58.47c2.08-2.13,4.06-4.37,4.86-7.83-3.8,3.5-7.71,6.88-11.37,10.51-20.31,20.2-40.34,40.68-60.89,60.63-10.88,10.57-22.14,20.76-33.28,31.07a125,125,0,0,1-18.65,2.39q15.59-16,31.15-32c15-15.46,29.81-31.08,43.57-47.77l-82.76,80a128.55,128.55,0,0,1-16.38-1.2c11.81-12.23,23.5-24.57,35.31-36.79,2.83-2.94,6-5.58,9-8.36l-1.88-2.13c-6.64,6.33-13.23,12.71-19.93,19-9.2,8.61-18.71,16.9-27.66,25.75-1.68,1.66-3.3,3.38-4.89,5.14-7.37,2.08-15.38,3.88-23.88,5.39,6-5.89,12-11.75,17.87-17.7a10.8,10.8,0,0,0,3.26-7.4c-7.58,7.07-15.24,14.06-22.71,21.24-1.71,1.64-3.39,3.31-5.09,4.95-6.56,1-13.39,1.83-20.43,2.46,9.84-9.65,20.28-18.7,30.43-28.05l-2.09-2.89c-1.69.73-3.81,1-5,2.27-7.83,8-15.27,16.36-23.24,24.2a67.86,67.86,0,0,1-5.84,5c-6.43.47-13.05.74-19.77.88q9.82-10.31,19.62-20.62c.64-.67.73-1.85-.23-3.88-2.07,1.87-4.19,3.69-6.22,5.61q-10,9.48-20,19l-.87,0q-9.06,0-17.82-.43c4.18-4.91,8.52-9.69,12.8-14.53.2,0,.41-.06.6-.11h0c0-.12-.06-.27-.08-.4,7.16-5.63,13.71-11.76,19.46-20.74-7.67,6.58-13.86,11.76-19.82,17.19-.53.48.09,2.21.36,3.55l-.18.15-.33.37c-1.89.33-4.08.32-5.29,1.4l-14.3,12.76q-7.65-.5-15-1.29,12.9-14,25.79-27.9l-1.87-2.09c-5.16,4.52-10.43,8.92-15.45,13.58q-8.3,7.69-16.57,15.42-7.89-1.05-15.28-2.45c4.05-4,8.14-7.91,12.13-11.94,1.87-1.9,3.48-4.07,5.18-6.13l.51-.14-.09-.1.07.08c.05-.21.14-.39.19-.59l20-20.12c-8.91,4.56-17.38,9.54-20,20.12l-.38.38-.3.37c-1.9.54-4.05.77-5.43,1.93-5.93,5-11.9,9.89-17.71,15q-7.12-1.49-13.66-3.28c5.8-6,11.53-12.12,17.29-18.19l-2.06-2.08c-6.64,6.31-13.25,12.65-19.91,18.94a160.17,160.17,0,0,1-17-6.07l0-.06-.06.05c-1.16-.49-2.33-1-3.44-1.5q-7.85-.58-15.44-1.37c.06.68.12,1.36.12,2.05,0,14.25-14.24,27.07-36.92,36l34.74-34.92-2.42-2.43-37.73,36.94,1.76,1.77a184.46,184.46,0,0,1-33.11,8.29c2-2.59,4.13-5.13,6.16-7.77-3.48,2.82-7,5.59-10.47,8.41-6.83,1-13.95,1.65-21.29,2,5.14-5.29,10.3-10.56,15.42-15.86l-1.61-1.87c-5.74,4.89-11.72,9.52-17.16,14.71-1.14,1.08-2.25,2.2-3.38,3.29-2.36.07-4.73.11-7.13.11-3.47,0-6.91-.07-10.3-.2q10.11-10.92,20.23-21.82c6.16-6.62,12.61-13,18.93-19.44l-1.87-1.89c-14.87,14.27-29.1,29.31-44.68,42.71-4.68-.31-9.29-.73-13.76-1.29l41.53-44.28c-.76-.76-1.51-1.53-2.26-2.29-2.8,2.75-5.53,5.59-8.44,8.22-13.59,12.3-27.43,24.35-40.82,36.88q-4.82-.83-9.41-1.82l.21-.21c3.92-3.95,7.09-8.64,10.88-12.74,11.43-12.36,23-24.57,34.49-36.9,5-5.38,9.84-10.9,14.75-16.36l-1.72-1.53L6876,355.92q-4.94-1.38-9.5-3l76.79-81.46-.6-1.11c-2.25,1.53-4.75,2.79-6.73,4.62-23.82,22-47.69,44-71.29,66.23-4.26,4-8.39,8.17-12.54,12.3-2.7.23-5.42.43-8.2.43-.48,0-.94,0-1.42,0,4.35-4.42,8.71-8.84,12.95-13.36,7.39-7.89,13.95-16.53,21.06-24.68,4.34-5,8.91-9.75,13.55-14.45,12.21-12.37,24.52-24.63,36.75-37,.51-.51.5-1.53-.92-4l-98.18,92.18q-3.65-.58-7.19-1.43l94.88-100.87-1.31-1.5c-5.39,4.38-11,8.48-16.12,13.2q-32.15,29.82-64,60-13.24,12.51-26.38,25.13c-1.61-.63-3.18-1.31-4.73-2,13-14.13,25.6-28.56,38.68-42.57,16.89-18.09,34.21-35.78,51.31-53.67.55-.57.78-1.47.29-3.82-2.4,1.28-5.17,2.16-7.14,3.93-9.17,8.24-18.16,16.68-27.12,25.14-12.16,11.47-24.18,23.08-36.35,34.53q-15.81,14.85-31.7,29.63-1.92-1.3-3.75-2.72,6.45-6.57,12.88-13.15c11.26-11.57,22.66-23,33.71-34.8,18.38-19.6,36.56-39.38,54.75-59.16,4.52-4.91,8.73-10.11,13.09-15.17l-2.09-2L6777.89,327.15c-1.18-1.28-2.31-2.6-3.37-4l106.3-111.1-2.36-2.35c-42.42,36.22-82.52,74.94-123,113.37-1.78.28-3.61.44-5.44.64l104.17-110-2-2.37c-4.1,3-8.41,5.76-12.25,9.05-13,11.15-26.29,22-38.62,33.9-10.68,10.28-19.77,22.2-30.37,32.57-9.31,9.1-19.81,17-29.65,25.57-4.32,3.76-8.5,7.67-12.69,11.58-.35,0-.69-.1-1-.13,4.61-5.66,9.17-11.36,14.07-16.76,7.66-8.43,15.85-16.39,23.69-24.68,6.63-7,13-14.24,19.62-21.28,11.08-11.79,22.31-23.44,33.37-35.25,8.36-8.93,16.59-18,24.79-27.08,1.06-1.17,1.63-2.77,1.2-5.36-8.26,7.85-16.38,15.86-24.83,23.51-7.91,7.16-16.52,13.58-24.2,21-12.93,12.46-25.28,25.53-38.05,38.17-5.83,5.77-12.06,11.14-18.16,16.64q-15.36,13.83-30.76,27.63c-1-.29-2.1-.59-3.13-.91q25.67-27.93,51.56-55.65c4-4.25,8.82-7.68,12.65-12,13-14.79,25.77-29.82,38.61-44.76.38-.26.76-.51,1.13-.78l-.25-.25.25.25c.06-.24.18-.43.25-.67l18-15.11-2.57-2.62c-4.46,6.59-12.81,9.27-15.41,17.73l-.5.42c-.29.34-.58.69-.88,1-7.05,4.91-14.52,9.37-20.88,15-10.06,9-19.15,19.05-28.85,28.45-8.85,8.59-18,16.87-26.93,25.35-13.15,12.47-26.21,25-39.38,37.48l-.74.69c-1.43-.67-2.87-1.32-4.24-2.05q14.11-14.88,28.2-29.79,31.4-33.37,62.62-66.91c4-4.32,8.18-8.55,12.28-12.83-.73-.82-1.45-1.65-2.17-2.47-5.9,4.73-12.09,9.15-17.62,14.28s-10,10.89-15.21,16.2c-8,8.22-16.07,16.38-24.32,24.34-2.53,2.44-6.09,3.79-8.62,6.22-14.86,14.33-29.39,29-44.4,43.2-.4.37-.83.72-1.24,1.09-1.54-1.12-3-2.27-4.47-3.47.39-.45.73-.93,1.12-1.37,10.22-11.51,20.78-22.74,31.41-33.88,10.89-11.41,22.2-22.42,33-33.88,10.45-11.06,20.49-22.5,30.77-33.72,5.69-6.21,11.49-12.31,17.24-18.47l-1.55-1.6-121,114.24c-1.18-1.35-2.24-2.76-3.3-4.18l96.44-102.36-2.25-2.38-100.5,94.52a59.19,59.19,0,0,1-2.6-5.95l93.8-100.07c-1.83-.11-3.45-.72-4.07-.18-7.92,6.93-15.81,13.92-23.49,21.12-3.67,3.43-6.67,7.59-10.37,11-15.9,14.69-32.19,29-47.89,43.9-3.8,3.61-7.5,7.34-11.25,11a56.14,56.14,0,0,1-.45-7c0-.21,0-.4,0-.61,1.79-1.86,3.6-3.7,5.39-5.56,9.66-10.09,18.47-21,27.94-31.28s19.32-20.5,29-30.69a110.72,110.72,0,0,1,18.13-3.17,71.6,71.6,0,0,1,71.49-68.31c.41,0,.82.06,1.23.06a93.23,93.23,0,0,1,168.2,1.68A54.29,54.29,0,0,1,7003,102.25c1.23,0,2.43.13,3.64.22a82.37,82.37,0,0,1,154.78-54.39c31.66,8.35,54.77,34.27,54.77,65a60.89,60.89,0,0,1-.49,7.44,69.93,69.93,0,0,1,47.68-18.26c31.5,0,57.84,19.89,64.92,46.63a269.47,269.47,0,0,1,27.5-1.4c28.32,0,54.47,4.29,75.65,11.55,13.23-50.7,78.59-89.22,157.29-89.22,85.44,0,155.21,45.4,159.55,102.5,24.83,11.91,43.06,33.38,48.65,58.92Q7786.54,240.71,7776.12,250.21Z"/><path class="cls-2" d="M7832.46,339.58c5.29-8.87,11.64-16.67,21.27-21.16l0,0Z"/><path class="cls-2" d="M7805.44,318.41c-.5-.49-1-1-1.48-1.48l61.55-65.66c2.89.78,5.69,1.7,8.42,2.72Z"/><path class="cls-2" d="M7857.42,337.31c17.66-18.8,35.5-37.43,53.19-56.21a64,64,0,0,1,3.5,5.57q-12.63,12.06-25.3,24.08-21.9,20.69-43.94,41.23C7849,347.08,7853,342,7857.42,337.31Z"/><path class="cls-2" d="M7791.32,250.86c2.38-2.44,4.86-4.78,7.3-7.15.07,1.35.16,2.7.16,4.06,0,1.8-.18,3.56-.3,5.33-2.89,2.72-5.8,5.4-8.67,8.14-14.36,13.71-28.32,27.86-42.54,41.72-1.37,1.33-3.37,2-5.07,3,2-3.36,3.58-7.18,6.2-10Q7769.61,273.18,7791.32,250.86Z"/><path class="cls-2" d="M7812.26,335.62l-1-1,72.08-76.51c2.38,1.21,4.68,2.51,6.88,3.91Z"/><path class="cls-2" d="M7823.62,252.23c-16.9,16.2-33.08,33.15-49.82,49.51-6.64,6.49-14,12.28-21,18.38,2.64-3.5,4.94-7.33,8-10.44,14.22-14.52,28.7-28.78,43-43.25q8.18-8.3,16.16-16.78c2.55-.5,5.13-.92,7.77-1.22C7826.36,249.71,7825,250.94,7823.62,252.23Z"/><path class="cls-2" d="M7870,297.88c9.12-10.27,18.52-20.29,28-30.25a74.87,74.87,0,0,1,6,5.52c-9.73,9.56-19.45,19.12-29.36,28.48-6.56,6.19-14,11.42-21.08,17.09l.25-.31h0C7859.12,311.54,7864.21,304.4,7870,297.88Z"/><path class="cls-2" d="M7777.6,320.12c1.29-2.14,2.23-4.63,3.93-6.38,21.24-21.95,42.68-43.7,63.85-65.72,2.55.15,5.05.4,7.52.73-15.24,14.62-30,29.76-45.22,44.38C7798,302.44,7787.65,311.14,7777.6,320.12Z"/></g><g class="cls-1"><polygon class="cls-2" points="26.05 1568.52 26.05 1568.52 26.05 1568.52 26.05 1568.52"/><path class="cls-2" d="M36.85,1601.48q-15.75-16-31.77-31.79a15.22,15.22,0,0,0-4.3-2.52c.13.51.33,1,.48,1.52,3.43,3.92,6.79,7.92,10.51,11.56,8.69,8.51,17.66,16.72,26.51,25.06C37.83,1604,37.73,1602.37,36.85,1601.48Z"/><path class="cls-2" d="M1.27,1539.46A54.46,54.46,0,0,0,0,1545.12l26.05,23.4-.12-.15-.12-.16.14.13c-1.42-2.35-2.54-5-4.36-6.95C14.85,1554.05,8,1546.78,1.27,1539.46Z"/><path class="cls-2" d="M50.41,1590.53c-8-7.51-16.29-14.82-24.46-22.19l0,0,28.25,28.09C53,1594.46,52.07,1592.09,50.41,1590.53Z"/><path class="cls-2" d="M1269.52,1473.63c-7.52-20.5-26.32-37.18-50.7-45.66,9.11,8.19,18.26,16.31,27.32,24.55C1253.91,1459.58,1261.74,1466.58,1269.52,1473.63Z"/><path class="cls-2" d="M286.94,1601.67l2.09,0c-1.5-1.63-2.95-3.3-4.49-4.89-3-3.17-7-5.44-10.56-8.09a.41.41,0,0,1,.07.11Z"/><path class="cls-2" d="M144.19,1491.16c4.43,4.06,8.26,8.77,12.64,12.89,15.88,14.94,31.88,29.76,47.83,44.63l24.78,23.61.05-.11,30.69,28.63,3.8.17c-5.1-5.31-10.18-10.64-15.34-15.88-5.48-5.56-12.2-10.2-16.44-16.55-3.42-5.12-28.44-24.32-30.26-30.51.93-.56-31.75-38.08-30.82-38.64,14.95,13.46,88,76,103,89.47l-.25-.26.16.12c-2.41-3.79-4.35-8-7.37-11.23-10.15-10.75-20.68-21.15-31.1-31.64-8.48-8.56-58.78-54.46-56.93-68,12,11.22,74.09,67.93,85.6,79q23,22.26,45.78,44.83c1.75,0,3.52,0,5.25,0-9.92-10.2-19.8-20.45-29.77-30.61-14.58-14.85-30.11-28.83-43.76-44.46-6-6.87-62.32-52.26-57.59-65.6,7,6.13,58.78,51.88,65.36,58.17,19.49,18.66,38.77,37.53,58.15,56.3,8.86,8.57,17.77,17.08,26.66,25.62l4.37-.2q-29.83-30.27-59.3-60.89c-15.75-16.41-31.14-33.18-46.42-50-2.69-3-4-7.16-6-10.79l1.87-1.32c6.53,5.72,13.27,11.21,19.54,17.2,18.61,17.78,37,35.78,55.54,53.66,14.89,14.36,30,28.49,44.72,43,2.71,2.69,5.4,5.41,8.11,8.1q3.27-.22,6.49-.48c-4.94-5.34-9.88-10.69-14.95-15.91-13.4-13.8-27.5-26.92-40.8-40.81-26-27.2-51.76-54.71-77.52-82.17-1.2-1.27-1.53-3.36-.91-6,14.69,13.47,29.64,26.67,44,40.48,25.82,24.8,51.25,50,76.92,75q14.43,14,29,28c2.47-.25,4.94-.51,7.37-.78-11.62-11.94-23.26-23.87-34.78-35.9-23.13-24.16-46.09-48.48-69.23-72.62-14.54-15.17-29.28-30.15-42.69-46.77a28.5,28.5,0,0,1,4.35,2.78c17.41,16.14,35,32.11,52.07,48.59,16.65,16.06,32.63,32.82,49.2,49,18.29,17.85,36.8,35.47,55.22,53.19,2.53-.34,5-.71,7.46-1.08l-1.08-1.13c-15.91-16.6-31.29-33.71-47.3-50.22-19.63-20.24-39.89-39.87-59.45-60.19a497,497,0,0,1-38.6-44.94c4.43,4.25,8.9,8.45,13.29,12.74,30.5,29.77,60.79,59.77,91.54,89.29,18.39,17.64,37.34,34.71,55.94,52.13,2.49-.44,5-.89,7.39-1.35-.08-.09-.17-.16-.25-.25-19.65-20.22-38.95-40.76-58.49-61.09-15.58-16.21-31.35-32.24-46.91-48.47-13.15-13.71-26.13-27.59-39.18-41.39l1.48-1.59c7.14,6.82,14.27,13.67,21.44,20.46q22.22,21,44.46,42,8.94,8.48,17.71,17.14c16,15.87,31.89,31.89,48,47.67,7.91,7.76,16,15.36,24,23,3-.67,6-1.34,8.85-2q-17.67-18.51-35.41-36.93c-26.76-27.7-53.75-55.15-80.54-82.81a254.65,254.65,0,0,1-24-28.09,31,31,0,0,1,3.84,2.69c22.73,21.5,45.54,42.92,68.08,64.6,12.85,12.36,25.09,25.35,37.92,37.73,13.82,13.33,27.75,26.54,41.66,39.78,2.39-.67,4.75-1.35,7-2-3.37-3.44-6.8-6.83-10.15-10.29-18.93-19.52-37.14-39.73-55.92-59.41-16.35-17.12-33.08-33.88-49.55-50.89a129.78,129.78,0,0,1-16.52-20.2,13.14,13.14,0,0,1,3.2,1.68c22.12,20.89,44.37,41.63,66.22,62.8,18.74,18.17,36.89,37,55.5,55.26,6,5.86,12,11.66,18,17.47,3.15-1.13,6.14-2.3,9-3.49-3.91-4.07-7.8-8.17-11.73-12.23-17-17.56-34.54-34.66-51.57-52.23-15.41-15.91-30.54-32.09-45.6-48.32-5.74-6.17-11-12.83-16-18.76a15,15,0,0,1,3.62,2.17c26.28,25.58,52.37,51.37,78.78,76.81q26.3,25.32,52.74,50.47,6.72,1.2,13.71,1.82c-13.79-13.88-27.64-27.72-41.28-41.74-24.9-25.58-49.49-51.45-74.19-77.23-.7-.74-1-1.86.05-4.4,7.13,6.52,14.41,12.89,21.37,19.59,11.61,11.16,23,22.58,34.52,33.79q23.65,22.92,47.46,45.69,13,12.48,26.06,24.9c3.72,0,7.38-.18,11-.45-10-10.34-20-20.64-30-31-21.35-22.21-42.31-44.81-64.15-66.53-9.66-9.61-21.06-17.47-31.68-26.12l4.21-4.58c1.31.63,2.88,1,3.89,2,24.24,23.09,48.52,46.16,72.6,69.41q28.6,27.63,56.93,55.53,5.86-.9,11.51-2.21-22.33-22.61-44.69-45.17c-15-15.23-30.08-30.4-44.95-45.77-9.29-9.6-18.25-19.53-27.36-29.31l1.53-1.52c5.82,5.74,11.6,11.52,17.48,17.2q23,22.23,46.11,44.39c15.66,15.07,31.38,30.08,46.95,45.24,4.35,4.24,8.64,8.53,12.93,12.82,3.72-1.1,7.37-2.31,10.88-3.67-4-4.26-8-8.53-12-12.7-21.78-22.28-43.87-44.24-65.71-66.46a182.1,182.1,0,0,1-21.75-25.84c3,2.24,6.35,4.17,9,6.79q45.11,44.3,90,88.79l6.79,6.73c3.58-1.61,7.07-3.31,10.38-5.18.47.15,1,.26,1.47.41-2.16-2.26-4.3-4.54-6.48-6.78-8.6-8.87-17.47-17.48-26.11-26.31q-28.59-29.19-57.05-58.47c-2.08-2.13-4.06-4.37-4.85-7.83,3.79,3.5,7.71,6.88,11.36,10.51,20.31,20.2,40.35,40.68,60.89,60.63,10.89,10.57,22.14,20.76,33.28,31.07a125,125,0,0,0,18.65,2.39q-15.58-16-31.15-32c-15-15.46-29.81-31.08-43.56-47.77l82.75,80a128.41,128.41,0,0,0,16.38-1.2c-11.8-12.23-23.5-24.57-35.31-36.79-2.83-2.94-6-5.59-9-8.37l1.88-2.12c6.63,6.33,13.22,12.71,19.92,19,9.2,8.6,18.71,16.9,27.66,25.74,1.68,1.66,3.3,3.39,4.89,5.15,7.37,2.08,15.38,3.88,23.88,5.39-6-5.9-12-11.75-17.87-17.7a10.8,10.8,0,0,1-3.25-7.4c7.57,7.07,15.24,14.05,22.7,21.24,1.71,1.64,3.39,3.31,5.09,5,6.56,1,13.39,1.82,20.43,2.46-9.84-9.65-20.28-18.71-30.43-28l2.09-2.89c1.69.73,3.81,1,5,2.27,7.83,8,15.27,16.36,23.24,24.2a66,66,0,0,0,5.84,5c6.43.48,13,.75,19.78.88q-9.82-10.29-19.63-20.61c-.64-.67-.73-1.85.23-3.88,2.08,1.87,4.19,3.69,6.22,5.6q10,9.49,20,19l.87,0c6,0,12-.16,17.82-.43-4.18-4.91-8.52-9.7-12.8-14.53-.2,0-.41-.06-.6-.11h0c0-.12.06-.27.09-.4-7.17-5.63-13.72-11.76-19.47-20.74,7.67,6.58,13.86,11.76,19.83,17.19.52.48-.1,2.21-.36,3.55l.17.15.33.37c1.89.33,4.08.32,5.29,1.4,4.78,4.24,9.53,8.51,14.3,12.76q7.65-.49,15-1.29-12.9-14-25.79-27.9l1.87-2.09c5.16,4.52,10.43,8.91,15.45,13.58q8.29,7.7,16.57,15.42c5.26-.7,10.36-1.53,15.28-2.45-4.05-4-8.14-7.91-12.13-11.94-1.87-1.9-3.48-4.07-5.18-6.13l-.51-.14.09-.1-.07.08c0-.21-.13-.39-.19-.59l-20-20.12c8.91,4.56,17.38,9.53,20,20.12l.38.38.3.37c1.9.54,4,.77,5.43,1.93,5.93,5,11.9,9.89,17.71,15,4.75-1,9.3-2.1,13.66-3.29-5.8-6-11.53-12.11-17.29-18.18l2.06-2.08c6.64,6.31,13.25,12.65,19.91,18.94a160.17,160.17,0,0,0,17-6.07l0-.06.06.05c1.16-.49,2.33-1,3.44-1.5q7.85-.59,15.44-1.37c-.06.68-.12,1.36-.12,2,0,14.25,14.24,27.06,36.92,36l-34.74-34.92,2.42-2.43,37.73,36.94-1.76,1.77a184.68,184.68,0,0,0,33.11,8.29c-2-2.6-4.13-5.13-6.16-7.77,3.48,2.82,7,5.58,10.47,8.41,6.84,1,13.95,1.65,21.29,2-5.13-5.29-10.3-10.56-15.42-15.86l1.61-1.87c5.74,4.89,11.72,9.52,17.16,14.71,1.14,1.08,2.25,2.19,3.38,3.29,2.36.07,4.73.11,7.13.11,3.47,0,6.91-.07,10.3-.2q-10.11-10.92-20.23-21.82c-6.16-6.62-12.61-13-18.93-19.45.63-.62,1.25-1.25,1.87-1.88,14.87,14.27,29.1,29.31,44.68,42.71,4.68-.31,9.29-.73,13.76-1.29l-41.52-44.28,2.25-2.29c2.81,2.74,5.53,5.58,8.44,8.22,13.59,12.3,27.43,24.35,40.82,36.88q4.82-.83,9.42-1.83l-.22-.2c-3.92-4-7.09-8.64-10.88-12.74-11.43-12.36-23-24.57-34.49-36.91-5-5.37-9.84-10.89-14.75-16.35l1.72-1.53,69.24,65.08q4.94-1.38,9.5-3l-76.79-81.46.6-1.11c2.26,1.53,4.75,2.79,6.73,4.62,23.82,22,47.7,44,71.29,66.23,4.26,4,8.39,8.17,12.54,12.3,2.71.23,5.42.43,8.2.43.48,0,1,0,1.42,0-4.35-4.42-8.71-8.84-12.95-13.36-7.38-7.89-14-16.53-21.06-24.68-4.34-5-8.91-9.75-13.55-14.45-12.21-12.37-24.52-24.63-36.75-37-.5-.52-.5-1.54.93-4l98.17,92.18c2.44-.39,4.83-.87,7.19-1.43L1005,1491.3l1.31-1.5c5.39,4.38,11,8.48,16.12,13.2q32.14,29.82,64,60,13.26,12.51,26.38,25.13c1.61-.63,3.18-1.31,4.73-2-13-14.13-25.6-28.56-38.68-42.57-16.89-18.09-34.21-35.78-51.31-53.67-.55-.58-.77-1.47-.29-3.83,2.4,1.29,5.17,2.17,7.14,3.94,9.17,8.24,18.16,16.68,27.12,25.14,12.16,11.47,24.18,23.08,36.36,34.52q15.81,14.87,31.69,29.64c1.28-.88,2.53-1.78,3.75-2.72q-6.45-6.57-12.87-13.15c-11.27-11.58-22.67-23-33.72-34.8-18.38-19.6-36.56-39.38-54.75-59.16-4.52-4.92-8.73-10.11-13.09-15.18l2.09-2,121.51,115.85c1.18-1.29,2.31-2.6,3.37-4L1039.49,1453l2.36-2.36c42.42,36.23,82.52,75,123,113.38,1.78.28,3.62.44,5.44.63q-52.1-55-104.17-110l2-2.36c4.09,3,8.4,5.76,12.24,9.05,13,11.15,26.29,22,38.62,33.9,10.68,10.28,19.77,22.2,30.37,32.57,9.32,9.1,19.81,17,29.65,25.57,4.32,3.76,8.5,7.67,12.69,11.58.35,0,.69-.1,1-.13-4.6-5.66-9.17-11.36-14.06-16.76-7.67-8.44-15.86-16.39-23.69-24.68-6.63-7-13-14.25-19.63-21.28-11.08-11.79-22.31-23.44-33.37-35.25-8.36-8.94-16.59-18-24.79-27.08-1.06-1.17-1.63-2.77-1.2-5.36,8.26,7.85,16.38,15.86,24.83,23.5,7.91,7.17,16.52,13.59,24.2,21,12.93,12.46,25.28,25.53,38,38.17,5.83,5.77,12.06,11.14,18.16,16.64q15.36,13.83,30.76,27.62c1.06-.28,2.1-.58,3.13-.9q-25.66-27.93-51.55-55.65c-4-4.25-8.83-7.68-12.66-12-13-14.79-25.77-29.82-38.61-44.76-.38-.27-.76-.51-1.13-.78l.25-.25-.25.25c-.06-.24-.18-.43-.25-.67l-18-15.11,2.56-2.62c4.46,6.59,12.81,9.26,15.41,17.73l.5.42c.29.34.59.68.88,1,7.06,4.91,14.52,9.37,20.88,15,10.06,9,19.16,19.05,28.85,28.45,8.85,8.58,18,16.87,26.93,25.35,13.15,12.47,26.21,25,39.38,37.48l.75.69c1.42-.67,2.86-1.32,4.23-2q-14.12-14.88-28.19-29.79-31.41-33.37-62.63-66.91c-4-4.32-8.18-8.55-12.28-12.83.73-.82,1.45-1.65,2.17-2.47,5.9,4.73,12.09,9.15,17.62,14.28s10,10.89,15.21,16.2c8,8.22,16.07,16.38,24.32,24.34,2.53,2.44,6.09,3.79,8.62,6.22,14.87,14.33,29.39,29,44.41,43.19.39.38.82.73,1.23,1.1,1.54-1.12,3-2.27,4.47-3.48-.38-.44-.73-.92-1.12-1.36-10.22-11.51-20.77-22.74-31.41-33.88-10.89-11.41-22.2-22.42-33-33.89-10.45-11-20.49-22.49-30.77-33.71-5.69-6.21-11.49-12.31-17.24-18.47.52-.53,1-1.07,1.55-1.61l121,114.25c1.18-1.35,2.24-2.77,3.3-4.18L1164,1427.68l2.25-2.38,100.5,94.52a59.19,59.19,0,0,0,2.6-6l-93.8-100.07c1.83-.12,3.45-.72,4.07-.19,7.93,6.93,15.81,13.93,23.49,21.13,3.67,3.43,6.67,7.59,10.37,11,15.9,14.69,32.19,29,47.89,43.9,3.8,3.61,7.51,7.34,11.25,11a56.3,56.3,0,0,0,.45-7c0-.2,0-.39,0-.6-1.79-1.86-3.61-3.7-5.4-5.56-9.66-10.09-18.47-21-27.94-31.28s-19.32-20.5-29-30.69a110.54,110.54,0,0,0-18.13-3.18,71.59,71.59,0,0,0-71.49-68.3c-.41,0-.82,0-1.23.06a93.23,93.23,0,0,0-168.2,1.68,54.22,54.22,0,0,0-34.34-12.56c-1.22,0-2.42.13-3.63.22A82.37,82.37,0,0,0,758.88,1289c-31.67,8.35-54.77,34.27-54.77,65a61,61,0,0,0,.48,7.44,69.93,69.93,0,0,0-47.68-18.26c-31.5,0-57.84,19.89-64.92,46.63a269.47,269.47,0,0,0-27.5-1.4c-28.31,0-54.47,4.29-75.65,11.55-13.23-50.7-78.59-89.22-157.28-89.22-85.45,0-155.22,45.4-159.56,102.5-24.83,11.91-43.06,33.38-48.65,58.92Q133.78,1481.66,144.19,1491.16Z"/><path class="cls-2" d="M87.85,1580.52c-5.28-8.87-11.64-16.66-21.27-21.15l0,0Z"/><path class="cls-2" d="M114.88,1559.36l1.47-1.48L54.8,1492.22c-2.88.78-5.69,1.7-8.42,2.72Z"/><path class="cls-2" d="M62.9,1578.26c-17.67-18.8-35.51-37.43-53.2-56.21a64,64,0,0,0-3.5,5.57q12.63,12.06,25.3,24.08,21.9,20.68,43.94,41.23C71.27,1588,67.3,1582.94,62.9,1578.26Z"/><path class="cls-2" d="M129,1491.8c-2.38-2.43-4.86-4.77-7.3-7.14-.07,1.35-.16,2.69-.16,4.06,0,1.8.18,3.56.3,5.33,2.89,2.72,5.8,5.4,8.67,8.14,14.37,13.71,28.32,27.86,42.54,41.72,1.37,1.33,3.37,2,5.07,3-2-3.36-3.58-7.18-6.2-10Q150.7,1514.14,129,1491.8Z"/><path class="cls-2" d="M108.05,1576.57l1-1q-36-38.26-72.08-76.51c-2.38,1.21-4.68,2.51-6.88,3.91Z"/><path class="cls-2" d="M96.69,1493.17c16.9,16.21,33.08,33.16,49.82,49.52,6.64,6.49,14,12.27,21,18.38-2.64-3.5-4.94-7.33-8-10.44-14.22-14.52-28.7-28.78-43-43.25q-8.19-8.3-16.17-16.78c-2.55-.5-5.13-.92-7.77-1.22C94,1490.66,95.35,1491.89,96.69,1493.17Z"/><path class="cls-2" d="M50.31,1538.83c-9.12-10.27-18.52-20.29-28-30.25a73,73,0,0,0-6,5.52c9.72,9.56,19.44,19.12,29.35,28.48,6.56,6.19,14,11.42,21.08,17.08l-.25-.3h0C61.19,1552.49,56.1,1545.35,50.31,1538.83Z"/><path class="cls-2" d="M142.71,1561.07c-1.29-2.15-2.23-4.63-3.93-6.38-21.24-22-42.68-43.71-63.85-65.72-2.54.15-5.05.4-7.52.73,15.24,14.62,30,29.76,45.22,44.37C122.35,1543.39,132.66,1552.09,142.71,1561.07Z"/></g></g></g></svg>