<svg xmlns="http://www.w3.org/2000/svg" viewBox="0 0 4685.7 2425.24"><defs><style>.cls-1{opacity:0.34;}.cls-2{fill:#fff;}.cls-3{opacity:0.64;}.cls-4{opacity:0.5;}</style></defs><title>nubes</title><g id="Capa_2" data-name="Capa 2"><g id="nubes"><g class="cls-1"><path class="cls-2" d="M344.17,2103.52c22.11,21.28,44.3,42.48,66.29,63.89,14.14,13.78,28,27.87,41.93,41.83,12.07,12.06,24.07,24.19,36.16,36.24q7.83-1.82,15.24-4.17c-8.27-7.9-16.57-15.77-24.57-23.93-17.67-18-34.48-36.93-52.13-55-30.11-30.8-60.64-61.18-90.85-91.88A141.66,141.66,0,0,0,320.81,2081Z"/><path class="cls-2" d="M218.69,2150.4c37,35.67,74.57,70.66,111.26,106.6,2.57,2.53,5.1,5.1,7.67,7.63,2.95-.47,5.91-.93,8.79-1.45-24.52-24.59-49.14-49.09-73.32-74-26.73-27.56-52.45-56.1-79-83.88-.93-1-1.88-1.93-2.81-2.9q-9.75.71-19.2,1.69C187.73,2119.42,202.93,2135.2,218.69,2150.4Z"/><path class="cls-2" d="M420.73,2210.71c13.18,13,26.19,26.17,39.21,39.33,5.19-.49,10.32-1.1,15.33-1.93-2.8-3-5.56-6.06-8.41-9-37-38.59-75-76.27-112.55-114.36q-19.4-19.68-38.77-39.36A111.3,111.3,0,0,0,304,2097.08c5.61,5.38,11.24,10.74,16.83,16.14Q371,2161.7,420.73,2210.71Z"/><path class="cls-2" d="M147.07,2114c22.62,22.41,45,45,67.77,67.32,16.35,16,33.19,31.52,49.66,47.41q20.75,20,41.35,40.11c3.26-.33,6.42-.73,9.62-1.11-2.83-3-5.65-5.94-8.49-8.91-31.9-33.37-63.65-66.88-95.73-100.09q-25.77-26.68-51.72-53.21-9.45,1.17-18.52,2.61C143,2110.07,145.07,2112,147.07,2114Z"/><path class="cls-2" d="M386.66,2211.11c13.61,13.14,27,26.55,40.6,39.66,3.64.17,7.26.4,11,.4.52,0,1-.05,1.53-.06-16.16-16.54-32-33.4-48-50.07-16.5-17.13-33.11-34.15-49.59-51.29-14.84-15.44-29.54-31-44.32-46.49-8.29-.74-16.77-1.29-25.38-1.72q29.78,28.82,59.69,57.47C350.28,2176.41,368.57,2193.65,386.66,2211.11Z"/><path class="cls-2" d="M1368.32,2128.85c-3.51,1.18-6.94,2.47-10.32,3.85,7.06,6.89,14.09,13.8,21.26,20.56,9.26,8.74,19.8,16.13,29.76,24.13l-.35-.43,0,0c-7.6-9.71-14.79-19.8-23-29C1380,2141.53,1374.17,2135.19,1368.32,2128.85Z"/><path class="cls-2" d="M393.92,2252.09c3.19-1,6.4-1.89,9.44-2.89-8.38-8.94-16.78-17.87-25.31-26.66-28.77-29.66-58.35-58.55-87.17-88.16-10.74-11-21.4-22.17-32.08-33.27-6.5-.18-13-.43-19.59-.43-1.06,0-2.11,0-3.17,0,6.44,6.25,12.84,12.54,19.3,18.77C301.39,2163.83,347.79,2207.82,393.92,2252.09Z"/><path class="cls-2" d="M1273.83,2249.91c-.46-.42-1.86.17-3,.49q17.33,19,34.57,38l4.46-4.42C1297.87,2272.63,1285.92,2261.19,1273.83,2249.91Z"/><path class="cls-2" d="M235.47,2232.83c12.89,12.3,24.87,25.55,37.23,38.42,4.07-.2,8.18-.36,12.18-.63-17.71-18.11-36.16-35.5-53.81-53.66-27.74-28.55-55-57.57-82.59-86.27q-9.87-10.28-19.83-20.47-9.8,1.8-19.06,3.9c10.8,10.5,21.55,21.05,32.41,31.48C172.74,2175.11,204.64,2203.41,235.47,2232.83Z"/><path class="cls-2" d="M15.89,2153.94q21.62,21,43.21,41.93c22.95,22.21,46.16,44.15,68.83,66.63,2.32.43,4.63.87,7,1.27-5.27-5.08-10.52-10.2-15.68-15.4q-48.9-49.36-97-99.46C19.94,2150.56,17.86,2152.24,15.89,2153.94Z"/><path class="cls-2" d="M53.82,2158.08c21,20.28,42.37,40.23,63.14,60.77q24.84,24.57,49.46,49.34c2.83.32,5.69.61,8.55.89-1.33-1.36-2.69-2.7-4-4.06-18.51-18.95-36-38.87-54.48-57.88-18.92-19.49-38.83-38-57.61-57.63-4.51-4.7-9-9.45-13.44-14.17-3.46,1.65-6.7,3.36-9.82,5.1Q44.71,2149.26,53.82,2158.08Z"/><path class="cls-2" d="M199.21,2220.9c-22.47-23.44-44.18-47.61-66.78-70.92-10.91-11.24-22-22.32-33.07-33.41-5.26,1.33-10.38,2.73-15.31,4.21,9.34,9.42,18.68,18.86,28.18,28.13,31.22,30.46,63,60.4,94.25,90.77q16.67,16.17,33.15,32.49c3,0,6-.12,9-.16Q223.81,2246.55,199.21,2220.9Z"/><path class="cls-2" d="M118.86,2188.12c22.34,21.73,45.05,43.08,67.28,64.92,6.14,6,12.18,12.15,18.26,18.23,3.27.17,6.55.33,9.87.45q-14-14.34-28-28.7-32.65-33.54-65.13-67.23-24.5-25.58-48.85-51.25c-4.65,1.59-9.14,3.23-13.42,4.94Q88.85,2158.82,118.86,2188.12Z"/><path class="cls-2" d="M443.43,2167c15.16,15,30.18,30.07,45.53,44.85q21.71,20.9,43.61,41.59a244.71,244.71,0,0,0,27.37,9.17c-4.4-6.23-8.64-12.63-13.84-18.11-9.79-10.33-21.78-18.54-31.87-28.61-18.24-18.2-35.69-37.2-53.63-55.7-12.15-12.52-24.67-24.68-36.88-37.14q-31.49-32.16-62.85-64.42a171.1,171.1,0,0,0-18.65,8.54Q392.86,2117.07,443.43,2167Z"/><path class="cls-2" d="M26.54,2226c-4.28-4.46-9.88-7.67-14.91-11.42l.09.16,4,3.95a104.7,104.7,0,0,0,12.85,9.49C27.86,2227.5,27.22,2226.75,26.54,2226Z"/><path class="cls-2" d="M27.8,2189.64c-7.65-7.79-15.49-15.42-23.31-23.06a42.73,42.73,0,0,0-3.49,6.2q37,35.74,73.48,72c2.08,2.07,4.09,4.2,6.14,6.28q4.72,1.47,9.65,2.84Q59.09,2221.7,27.8,2189.64Z"/><path class="cls-2" d="M1438.74,2206.85c-7.46-12.53-16.43-23.53-30-29.87l0,.06Z"/><path class="cls-2" d="M0,2197.52a47.24,47.24,0,0,0,10.21,15.91l1.54,1.39-.35-.36a1.88,1.88,0,0,0,.23.16c-3.41-5.34-6.15-11.32-10.42-15.85Z"/><path class="cls-2" d="M277.23,2174c26,25.6,52.55,50.69,78.59,76.27,3.12,3.06,6.19,6.18,9.29,9.26,3.73-.82,7.37-1.68,11-2.56-25.79-26.81-51.39-53.8-77.29-80.5-24.05-24.8-48.78-48.94-72.82-73.75-.58-.6-1.15-1.22-1.73-1.82q-10,.21-19.7.71C229,2125.48,252.85,2150,277.23,2174Z"/><path class="cls-2" d="M1391.25,2229.35c-1.77-2.82-3-6.17-5.38-8.37-11.35-10.61-23-20.92-34.53-31.34l0,0Z"/><path class="cls-2" d="M1467.27,2201.27l1.45-1.44-73.14-77.63q-5.07.81-10,1.9Z"/><path class="cls-2" d="M1313.85,2187.14c5.79,6.47,11.27,13.26,17.46,19.32,12.27,12,24.94,23.61,37.44,35.38-.64-1.82-.79-4.15-2-5.4q-22.24-22.62-44.86-44.89c-2.13-2.09-5.35-3.07-8.08-4.54l.25.31Z"/><path class="cls-2" d="M1313.61,2023.39a160.51,160.51,0,0,0-16.91-15.91Z"/><path class="cls-2" d="M438.35,2129.91c22.84,22.17,46.86,43.13,69.72,65.29,15,14.52,28.35,30.73,43.32,45.27,9.44,9.18,19.16,18.09,28.9,27,6.85,1.3,13.87,2.24,21,3A104.9,104.9,0,0,0,585,2255.86c-8.21-5.76-12.84-16.36-20-23.85-32.24-33.51-64.89-66.61-97.26-100-21.17-21.83-42.09-43.89-61.52-67.45L620.7,2271.84c3.57.14,7.12.33,10.74.33,2.82,0,5.6-.13,8.4-.21-5.6-5.6-11.21-11.17-16.74-16.84q-37.71-38.68-75.23-77.54c-17.25-17.86-34.32-35.9-51.57-53.75-4-4.15-8.43-7.89-12.66-11.81l2.65-3c9.37,8.93,18.68,17.94,28.14,26.79,13,12.15,26.41,23.85,39.06,36.35,9.54,9.42,17.63,20.32,27.29,29.62,19.79,19.06,40.51,37.17,60.28,56.27,4.46,4.3,8.8,8.74,13.2,13.1,5.62-.46,11.18-1.06,16.65-1.85-3.83-4-7.7-8-11.51-12.09-16.29-17.37-31.73-35.54-48.11-52.83-13.74-14.49-28.34-28.16-42.41-42.34a15.27,15.27,0,0,1-4.6-10.45c10.7,10,21.52,19.85,32.06,30,16.37,15.75,32.46,31.77,48.83,47.52,8.87,8.53,18.11,16.68,27.11,25.07q6.75,6.3,13.51,12.57l.82-.14c7.71,3.6,16.26,7,25.36,10.37-10.09-10.26-20.18-20.51-30-31-15.16-16.13-29.13-33.42-44.67-49.16-15.27-15.47-31.86-29.64-47.87-44.38l3-4.09c2.39,1,5.39,1.48,7.08,3.21,11.06,11.27,21.56,23.1,32.81,34.18,6.31,6.21,14.06,10.93,20.52,17,13.34,12.56,26.06,25.79,39.39,38.36,16.11,15.2,32.44,30.17,48.66,45.25q9.41,2.73,19.47,5.3c-3.51-3.58-7.08-7.1-10.54-10.73-19-19.89-37.35-40.37-56.18-60.42-17.5-18.65-35.28-37-52.85-55.61-.9-1-1-2.63.32-5.48,2.93,2.63,5.92,5.2,8.78,7.91,24.76,23.38,49.32,47,74.28,70.13,19.18,17.78,39.06,34.8,58.26,52.57,3.1,2.87,6.07,5.88,9.1,8.83q7.18,1.48,14.62,2.9c-6.2-5.91-12.45-11.79-18.63-17.71-13.85-13.28-28.54-25.78-41.47-39.9-13.7-15-25.63-31.53-38.57-47.21-6.74-8.16-13.95-15.94-21-23.88-.28,0-.58-.08-.85-.14l0,0c0-.17.08-.38.11-.57-10.11-7.94-19.36-16.6-27.48-29.29,10.84,9.3,19.57,16.61,28,24.28.74.67-.13,3.12-.51,5l.26.21c.15.18.31.35.46.52,2.66.47,5.75.46,7.47,2,23.7,21.08,47.45,42.13,70.54,63.88,11,10.35,20.28,22.46,30.87,33.25,9.4,9.56,19.64,18.3,29.31,27.59,2.12,2,4.13,4.19,6.16,6.33,6,1,12.23,1.86,18.46,2.75-22.12-22.61-45-44.42-66.89-67.28-28.23-29.55-55.72-59.79-83.53-89.73l2.64-2.94c7.29,6.37,14.73,12.58,21.82,19.16,15.85,14.71,31.72,29.4,47.21,44.48,18.12,17.64,35.54,36,53.79,53.49,16.18,15.48,32.62,30.69,49,46,5.65.67,11.4,1.29,17.18,1.9-2.68-2.89-5.35-5.79-8.09-8.62-17.24-17.79-36-34.06-53.2-51.93-15.81-16.47-30.06-34.43-45.53-51.25-10.37-11.28-21.72-21.67-32.51-32.57-2.65-2.68-4.91-5.74-7.32-8.66l-.72-.19,0,0c-.07-.3-.19-.54-.26-.84q-14.15-14.19-28.28-28.4c12.59,6.43,24.55,13.46,28.28,28.4l.53.54c.15.17.28.35.42.52,2.68.77,5.72,1.1,7.67,2.73,12.77,10.69,25.76,21.21,37.69,32.79,24,23.3,47.08,47.56,71.12,70.82,14,13.54,29.56,25.44,43.58,39q5.07,4.88,9.93,10c5,.42,9.92.86,15,1.24-6.62-7.16-13.21-14.35-20-21.36-13.62-14.08-28.77-26.67-42.54-40.62-9.25-9.38-16.9-20.34-26-29.95-12.85-13.64-26.41-26.6-39.51-40-9.94-10.19-19.63-20.63-29.43-31l2.92-2.94c10.71,10.2,21.35,20.47,32.14,30.58,17.82,16.7,36.12,32.89,53.45,50.07,11.56,11.45,21.25,24.79,32.77,36.29s24.11,21.43,36.13,32.19c6.6,5.92,13.09,12,19.59,18,6,.36,12.1.66,18.21.94-7.27-8.46-14.35-17.08-21.93-25.24-6.61-7.12-14.49-13-21.56-19.73s-14-13.89-21-20.84c-6.28-6.24-12.93-12.16-18.79-18.77-5.62-6.33-9.83-14-15.75-20-7.32-7.38-16.23-13.18-23.59-20.52a87.16,87.16,0,0,1-17.67-24.92l158,150.71q9.1.32,18.34.51c-1.18-1.21-2.38-2.41-3.55-3.62q-14.05-14.55-28-29.19-20.39-21.52-40.61-43.2a26.28,26.28,0,0,1-7-12.73c10,8.66,20.14,17.2,30,26,10.31,9.19,20.54,18.47,30.56,28q18.36,17.41,36.56,35c4.45,0,8.85.12,13.33.12l3.42,0c-5.08-5.39-10.08-10.85-15.17-16.23-10.61-11.21-22.36-21.36-32.68-32.81-14.42-16-28-32.82-41.37-50.15,7.3,5.89,14.83,11.51,21.84,17.72,17.11,15.16,34.25,30.31,50.84,46,10,9.51,18.67,20.51,28.7,30,1.9,1.8,3.85,3.54,5.78,5.29q7.22-.09,14.36-.27-12.29-13-24.44-26.14c-11.56-12.55-22.2-26-33.77-38.49-13.11-14.22-26.8-27.9-40.23-41.81l2.28-2.63c8.1,6.9,16.54,13.44,24.23,20.77,15.66,14.93,30.46,30.79,46.47,45.33s32.54,28.1,48.76,42.22q5.4-.22,10.75-.48-4.5-4.82-9-9.63-48.15-51.81-96.18-103.73c-8.71-9.35-17.81-18.32-26.73-27.46l2.64-2.66c22.86,21.95,44.55,45.31,68.92,65.43,23.34,19.26,43.54,41.48,65.5,62q8,7.44,15.9,14.9c3.41-.21,6.77-.46,10.15-.7L998.4,2172l3.18-3.23c4,3.87,7.81,7.88,11.92,11.6,19.31,17.49,39,34.59,58,52.4,20.57,19.27,40.37,39.36,60.86,58.72,8.68,8.2,17.48,16.26,26.3,24.29,3.15-.28,6.25-.59,9.37-.89q-17.44-18.66-35.12-37.11c-15.84-16.46-32.66-32-48.76-48.2-5.54-5.58-10-12.2-15.37-18-16.14-17.45-32.51-34.7-48.7-52.11-7.06-7.59-13.89-15.38-20.83-23.09l2.43-2.16,189.58,178.2c2.09-.24,4.15-.49,6.21-.75l-193-204.76c.28-.52.56-1.05.85-1.57,3.18,2.16,6.71,3.94,9.5,6.53,33.64,31.07,67.35,62.08,100.66,93.51,17.68,16.68,34.44,34.34,52,51.19,18.11,17.42,36.44,34.61,54.76,51.81l6-.89c-1.38-1.8-2.82-3.56-4.36-5.22-15.54-16.63-31.6-32.78-47.53-49.05s-32.25-32.17-47.82-48.79c-10.43-11.13-19.7-23.33-29.74-34.84-6.12-7-12.58-13.77-19.13-20.4-17.24-17.47-34.63-34.79-51.89-52.24-.71-.72-.71-2.16,1.3-5.6l215.73,202.56,1.59-1.55-202.51-215.3,1.85-2.13c7.61,6.2,15.59,12,22.76,18.65q45.39,42.1,90.35,84.66c21.9,20.67,43.52,41.63,65.37,62.35,19,18,38.09,35.85,57.14,53.76-2.13-3.32-3.76-7.14-6.47-9.89-19.43-19.73-39.54-38.82-58.55-58.94-23.15-24.52-45.17-50.11-68.19-74.77-23.84-25.54-48.3-50.52-72.44-75.78-.79-.81-1.1-2.07-.42-5.4,3.39,1.82,7.31,3.06,10.09,5.56,12.94,11.63,25.63,23.55,38.29,35.49,17.17,16.2,34.14,32.59,51.34,48.75,24.51,23,49.21,45.88,73.7,68.93,7.09,6.68,13.84,13.73,20.74,20.61-3.41-5.71-6.34-11.88-10.77-16.63-16.93-18.14-34.5-35.68-51.81-53.47-15.9-16.34-32-32.5-47.6-49.14-26-27.67-51.63-55.61-77.31-83.54-6.38-6.94-12.33-14.27-18.48-21.42l2.95-2.79L1353,2295.28,1092.56,2023l3.33-3.32c81.36,69.47,156.67,145.47,235.38,218.06l-201.15-212.34,2.81-3.34c5.78,4.24,11.86,8.13,17.29,12.78,18.36,15.75,37.12,31.12,54.53,47.87,15.08,14.51,27.92,31.34,42.89,46,13.15,12.86,28,24,41.86,36.11,8.3,7.23,16.25,14.87,24.35,22.32l-.16-.18.1.05c-8.22-9.93-16.11-20.15-24.76-29.68-10.82-11.92-22.39-23.15-33.45-34.85-9.37-9.9-18.39-20.12-27.72-30.05-15.64-16.65-31.5-33.1-47.12-49.78-11.8-12.62-23.42-25.42-35-38.23-1.49-1.65-2.3-3.92-1.69-7.58,11.67,11.08,23.14,22.39,35.07,33.19,11.17,10.12,23.33,19.19,34.17,29.64,18.26,17.6,35.69,36,53.72,53.89,8.24,8.15,17,15.74,25.65,23.49q29.38,26.47,58.83,52.85l-.33-.44.19.18c-2-3.32-3.6-7-6.17-9.81q-38.55-42-77.47-83.62c-5.6-6-12.46-10.85-17.86-17-18.38-20.89-36.39-42.11-54.53-63.21-.53-.37-1.07-.72-1.59-1.09l.35-.35-.35.35c-.09-.35-.25-.62-.35-1L1168,1992.62l3.62-3.7c6.3,9.31,18.08,13.08,21.76,25l.7.6,1.24,1.44c10,6.94,20.5,13.23,29.49,21.26,14.2,12.69,27,26.89,40.74,40.17,12.49,12.12,25.39,23.82,38,35.8,18.57,17.6,37,35.34,55.62,52.91q30.93,29.22,62,58.23c-5.89-6.92-11.5-14.11-17.71-20.72-25.62-27.25-51.49-54.25-77.12-81.48Q1282,2075,1238,2027.68c-5.71-6.1-11.55-12.08-17.34-18.11,1-1.16,2.05-2.33,3.07-3.49,8.33,6.68,17.07,12.92,24.87,20.17,7.65,7.1,14.19,15.37,21.49,22.87,11.29,11.6,22.68,23.13,34.34,34.37,3.56,3.44,8.6,5.35,12.16,8.78,11.89,11.46,23.64,23.05,35.43,34.61.12-2.31.2-4.62.2-7,0-2.93-.16-5.83-.34-8.72-3.49-3.68-6.95-7.4-10.46-11.07-15.38-16.11-31.34-31.66-46.64-47.85-14.75-15.61-28.94-31.76-43.45-47.61-8-8.76-16.22-17.39-24.34-26.08l2.19-2.27,119.55,112.93a140.22,140.22,0,0,0-8.9-26.28l-68.52-72.72c-2.92-1.62-5.88-3.18-8.92-4.63-7.72-101.64-131.91-182.44-284-182.44-146.86,0-267.69,75.35-282.77,172.06a272.85,272.85,0,0,0-64.16-7.57c-77,0-144.06,31.22-179.43,77.43-4.54-.27-9.13-.43-13.78-.43A216.06,216.06,0,0,0,365.08,2057C389.43,2081.4,413.64,2105.91,438.35,2129.91Zm421,36.64,53.28,52.17-4.1,4.12L856,2170C857.08,2168.84,858.22,2167.7,859.36,2166.55Z"/><path class="cls-2" d="M1511.05,2143c3.51,3.48,7,7,10.53,10.43,9.37,9.16,19.71,17.33,29.62,26-.58-.76-1.12-1.56-1.67-2.34A131.08,131.08,0,0,0,1511.05,2143Z"/><path class="cls-2" d="M1479,2174.88q-25.66-27.39-51.38-54.81c-1.16,0-2.3-.14-3.47-.14-2.58,0-5.12.1-7.66.2L1476.9,2177Z"/><path class="cls-2" d="M1529,2259.27l-2.52,2.52L1554.1,2289c.6-.94,1.16-1.9,1.73-2.86Z"/><path class="cls-2" d="M1516.2,2179.38c-1.82-3-3.14-6.54-5.54-9q-22-22.79-44.25-45.43c-3.84-.92-7.75-1.73-11.72-2.4,6.33,6.26,12.62,12.57,19,18.73C1487.46,2154.42,1502,2166.7,1516.2,2179.38Z"/><path class="cls-2" d="M1550,2253.09l14.54,14.56c.75-2.14,1.49-4.29,2.09-6.49l-12.36-12.31Z"/></g><g class="cls-3"><path class="cls-2" d="M4475.75,183.21c-13.49,13-27,25.92-40.44,39-8.63,8.4-17.06,17-25.58,25.51-7.36,7.36-14.68,14.77-22.06,22.12-3.18-.74-6.28-1.6-9.3-2.55,5.05-4.82,10.11-9.62,15-14.6,10.78-11,21-22.53,31.8-33.54,18.37-18.79,37-37.32,55.42-56a85.52,85.52,0,0,1,9.42,6.42Z"/><path class="cls-2" d="M4552.29,211.81c-22.54,21.76-45.49,43.11-67.87,65-1.57,1.54-3.11,3.11-4.68,4.66-1.8-.29-3.6-.57-5.36-.89,15-15,30-29.94,44.73-45.16,16.3-16.81,32-34.22,48.17-51.17.56-.59,1.14-1.17,1.71-1.77q6,.44,11.71,1C4571.18,192.91,4561.91,202.54,4552.29,211.81Z"/><path class="cls-2" d="M4429.05,248.6c-8,7.93-16,16-23.93,24-3.16-.3-6.29-.68-9.35-1.18,1.71-1.84,3.4-3.7,5.13-5.51,22.59-23.54,45.76-46.53,68.66-69.76q11.83-12,23.65-24a68,68,0,0,1,7.07,7.15c-3.42,3.29-6.85,6.56-10.26,9.85Q4459.38,218.71,4429.05,248.6Z"/><path class="cls-2" d="M4596,189.59c-13.8,13.67-27.47,27.47-41.35,41.07-10,9.77-20.24,19.23-30.29,28.92q-12.66,12.19-25.23,24.47c-2-.2-3.91-.45-5.86-.68,1.72-1.81,3.44-3.63,5.17-5.43,19.46-20.36,38.83-40.81,58.4-61.06q15.73-16.29,31.56-32.47,5.76.72,11.29,1.6C4598.46,187.21,4597.2,188.38,4596,189.59Z"/><path class="cls-2" d="M4449.83,248.85c-8.31,8-16.45,16.19-24.77,24.19-2.22.11-4.43.25-6.69.25-.32,0-.62,0-.93,0,9.86-10.09,19.51-20.38,29.3-30.54,10.06-10.46,20.19-20.84,30.25-31.3,9.05-9.41,18-18.91,27-28.36,5.06-.44,10.24-.78,15.48-1q-18.16,17.56-36.41,35.05C4472,227.68,4460.86,238.2,4449.83,248.85Z"/><path class="cls-2" d="M3851,198.67c2.14.71,4.24,1.51,6.29,2.35-4.3,4.2-8.59,8.41-13,12.54-5.65,5.33-12.08,9.84-18.16,14.72l.21-.26h0c4.65-5.93,9-12.08,14-17.7C3843.85,206.4,3847.41,202.53,3851,198.67Z"/><path class="cls-2" d="M4445.4,273.85c-1.95-.58-3.91-1.15-5.76-1.77,5.11-5.45,10.23-10.89,15.44-16.26,17.55-18.09,35.59-35.71,53.18-53.78,6.55-6.74,13.05-13.52,19.57-20.29,4-.12,7.9-.27,11.95-.27l1.93,0c-3.93,3.81-7.83,7.65-11.78,11.45C4501.84,220,4473.54,246.84,4445.4,273.85Z"/><path class="cls-2" d="M3908.62,272.52c.28-.26,1.14.1,1.84.3q-10.58,11.58-21.09,23.21l-2.72-2.7C3894,286.38,3901.25,279.4,3908.62,272.52Z"/><path class="cls-2" d="M4542.06,262.1c-7.86,7.5-15.17,15.59-22.71,23.44-2.49-.13-5-.22-7.43-.39,10.8-11,22.05-21.65,32.82-32.73,16.93-17.42,33.56-35.12,50.39-52.63,4-4.18,8.06-8.33,12.09-12.49q6,1.09,11.63,2.38c-6.59,6.4-13.14,12.84-19.77,19.2C4580.32,226.88,4560.87,244.15,4542.06,262.1Z"/><path class="cls-2" d="M4676,214q-13.18,12.79-26.36,25.58c-14,13.55-28.16,26.93-42,40.65-1.41.26-2.82.53-4.27.77q4.84-4.65,9.57-9.39,29.84-30.12,59.2-60.68C4673.54,211.91,4674.81,212.93,4676,214Z"/><path class="cls-2" d="M4652.87,216.5c-12.82,12.37-25.85,24.54-38.52,37.07q-15.15,15-30.17,30.1c-1.72.19-3.47.37-5.22.54.82-.83,1.65-1.64,2.46-2.47,11.29-11.56,22-23.72,33.23-35.31,11.54-11.89,23.69-23.19,35.15-35.16,2.75-2.87,5.46-5.77,8.2-8.64,2.1,1,4.08,2.05,6,3.11Z"/><path class="cls-2" d="M4564.18,254.82c13.7-14.3,26.95-29,40.74-43.26,6.65-6.86,13.42-13.62,20.17-20.38,3.21.81,6.33,1.66,9.34,2.56-5.7,5.75-11.39,11.51-17.19,17.16-19.05,18.58-38.4,36.85-57.5,55.38q-10.15,9.86-20.22,19.81c-1.85,0-3.64-.07-5.47-.09Q4549.17,270.47,4564.18,254.82Z"/><path class="cls-2" d="M4613.19,234.82c-13.63,13.26-27.48,26.28-41,39.61-3.74,3.67-7.43,7.41-11.14,11.12-2,.1-4,.2-6,.27q8.55-8.74,17.09-17.51c13.28-13.63,26.57-27.26,39.73-41q14.94-15.6,29.8-31.26,4.26,1.46,8.18,3Q4631.51,216.95,4613.19,234.82Z"/><path class="cls-2" d="M4415.2,222c-9.25,9.13-18.42,18.35-27.78,27.36-8.82,8.5-17.72,16.93-26.6,25.37a148.68,148.68,0,0,1-16.7,5.6,97.67,97.67,0,0,1,8.44-11c6-6.3,13.29-11.31,19.45-17.45,11.12-11.11,21.77-22.69,32.71-34,7.41-7.64,15.05-15.06,22.5-22.66q19.2-19.62,38.34-39.3a105.81,105.81,0,0,1,11.38,5.21Q4446,191.49,4415.2,222Z"/><path class="cls-2" d="M4669.51,258c2.62-2.73,6-4.68,9.1-7l-.06.1-2.42,2.4a64.43,64.43,0,0,1-7.83,5.8C4668.71,258.85,4669.1,258.39,4669.51,258Z"/><path class="cls-2" d="M4668.74,235.75c4.67-4.75,9.45-9.41,14.22-14.07a26.22,26.22,0,0,1,2.14,3.79q-22.56,21.79-44.83,43.9c-1.27,1.25-2.5,2.55-3.75,3.83q-2.88.89-5.88,1.73Q4649.66,255.31,4668.74,235.75Z"/><path class="cls-2" d="M3808,246.25c4.55-7.64,10-14.35,18.32-18.22l0,0Z"/><path class="cls-2" d="M4685.7,240.56a28.82,28.82,0,0,1-6.22,9.71l-.94.84.21-.22-.14.1c2.08-3.26,3.75-6.91,6.36-9.67C4685.21,241.06,4685.46,240.82,4685.7,240.56Z"/><path class="cls-2" d="M4516.58,226.19c-15.87,15.61-32.05,30.92-47.94,46.52-1.9,1.87-3.77,3.77-5.67,5.65-2.27-.5-4.49-1-6.69-1.56,15.73-16.36,31.35-32.82,47.15-49.11,14.67-15.13,29.76-29.85,44.42-45l1.06-1.11q6.08.14,12,.44C4546,196.61,4531.46,211.56,4516.58,226.19Z"/><path class="cls-2" d="M3837,260c1.08-1.72,1.85-3.76,3.28-5.1,6.93-6.48,14-12.76,21.07-19.12l0,0Z"/><path class="cls-2" d="M3790.62,242.85l-.89-.88,44.62-47.36c2.06.33,4.1.71,6.11,1.16Z"/><path class="cls-2" d="M3884.21,234.23c-3.53,3.94-6.88,8.08-10.65,11.78-7.49,7.33-15.22,14.41-22.84,21.59.39-1.12.48-2.54,1.23-3.3q13.58-13.8,27.37-27.38c1.3-1.28,3.26-1.88,4.93-2.78l-.16.2Z"/><path class="cls-2" d="M3884.35,134.33a97.88,97.88,0,0,1,10.32-9.7Z"/><path class="cls-2" d="M4463,154.85a131.82,131.82,0,0,0-44.62-7.53c-2.84,0-5.64.1-8.41.26-21.58-28.19-62.5-47.23-109.46-47.23a166.6,166.6,0,0,0-39.14,4.61c-9.19-59-82.91-105-172.49-105-92.77,0-168.53,49.29-173.25,111.29-1.85.89-3.66,1.84-5.44,2.83l-41.79,44.36a84.54,84.54,0,0,0-5.43,16l72.92-68.88,1.34,1.38c-4.95,5.3-9.95,10.56-14.85,15.91-8.85,9.67-17.5,19.52-26.5,29-9.33,9.88-19.08,19.36-28.46,29.19-2.13,2.24-4.25,4.51-6.38,6.76-.11,1.76-.2,3.53-.2,5.31,0,1.43.05,2.84.12,4.24,7.19-7.05,14.36-14.12,21.61-21.11,2.17-2.09,5.25-3.26,7.42-5.35,7.11-6.86,14.06-13.89,20.95-21,4.45-4.57,8.44-9.62,13.11-14s10.09-8.22,15.17-12.3l1.87,2.13c-3.53,3.68-7.09,7.33-10.58,11q-27,28.82-53.94,57.64c-15.63,16.61-31.42,33.08-47,49.71-3.8,4-7.22,8.41-10.81,12.64q18.93-17.76,37.85-35.52c11.35-10.72,22.6-21.55,33.93-32.28,7.7-7.31,15.57-14.45,23.19-21.84,8.35-8.1,16.19-16.76,24.85-24.5,5.48-4.9,11.91-8.75,18-13l.76-.88.43-.36c2.24-7.29,9.43-9.59,13.27-15.27l2.21,2.25-15.48,13c-.07.2-.16.37-.22.58l-.21-.22.21.22c-.32.23-.65.44-1,.66-11.06,12.88-22.05,25.82-33.26,38.57-3.3,3.75-7.48,6.71-10.9,10.36q-23.76,25.4-47.26,51c-1.57,1.71-2.54,4-3.76,6l.12-.11-.21.27q18-16.12,35.89-32.24c5.26-4.73,10.62-9.36,15.65-14.33,11-10.88,21.63-22.14,32.77-32.88,6.61-6.37,14-11.9,20.85-18.08,7.27-6.58,14.27-13.48,21.39-20.24.37,2.23-.12,3.61-1,4.62-7.07,7.82-14.16,15.62-21.36,23.32-9.53,10.17-19.2,20.21-28.75,30.37-5.69,6.06-11.19,12.29-16.9,18.33-6.75,7.14-13.81,14-20.41,21.26-5.28,5.81-10.09,12.05-15.1,18.1l.06,0-.1.12c4.94-4.55,9.79-9.21,14.85-13.62,8.48-7.39,17.52-14.18,25.54-22,9.13-8.93,17-19.19,26.17-28.05,10.62-10.22,22.06-19.6,33.26-29.2,3.31-2.84,7-5.21,10.55-7.8l1.71,2L3873.58,265.1c48-44.28,94-90.64,143.59-133l2,2L3860.3,300.19l174.91-166.76,1.8,1.7c-3.76,4.36-7.39,8.84-11.28,13.07q-23.49,25.56-47.16,51c-9.52,10.15-19.34,20-29,30-10.56,10.85-21.28,21.55-31.6,32.62-2.71,2.9-4.49,6.66-6.57,10.14,4.21-4.2,8.32-8.5,12.65-12.57,14.94-14.06,30-28,45-42,10.49-9.86,20.84-19.86,31.31-29.74,7.73-7.29,15.47-14.56,23.37-21.65,1.69-1.53,4.08-2.28,6.15-3.39.42,2,.22,2.8-.25,3.29-14.73,15.41-29.65,30.65-44.2,46.23-14,15-27.47,30.65-41.6,45.61-11.59,12.28-23.86,23.92-35.71,36-1.66,1.68-2.65,4-3.95,6,11.62-10.93,23.28-21.81,34.86-32.79,13.32-12.64,26.52-25.43,39.87-38q27.46-25.92,55.12-51.65c4.38-4.06,9.25-7.59,13.89-11.37.37.43.75.86,1.12,1.3L3925.42,298.41l1,.95q65.79-61.8,131.6-123.58c1.23,2.1,1.23,3,.79,3.42-10.53,10.65-21.14,21.21-31.65,31.87-4,4-7.94,8.16-11.67,12.44-6.13,7-11.78,14.47-18.15,21.26-9.49,10.13-19.45,19.83-29.17,29.76s-19.51,19.78-29,29.92c-.94,1-1.82,2.09-2.66,3.19l3.66.54c11.18-10.49,22.36-21,33.41-31.61,10.68-10.28,20.91-21,31.69-31.22,20.32-19.17,40.89-38.09,61.41-57a46.42,46.42,0,0,1,5.8-4l.51,1L3955.21,310.19c1.26.15,2.52.31,3.79.45l115.65-108.7,1.48,1.32c-4.23,4.7-8.4,9.45-12.7,14.08-9.88,10.62-19.87,21.14-29.71,31.79-3.27,3.53-6,7.57-9.38,11-9.82,9.9-20.08,19.37-29.75,29.41q-10.8,11.22-21.42,22.64c1.9.18,3.79.37,5.71.54,5.39-4.9,10.76-9.82,16-14.82,12.5-11.81,24.58-24.07,37.13-35.82,11.59-10.86,23.59-21.3,35.37-32,2.51-2.26,4.86-4.71,7.28-7.07l1.93,2-83.32,88.85c2.06.15,4.11.3,6.19.43,3.24-3,6.46-6.06,9.7-9.09,13.4-12.51,25.72-26.06,40-37.81,14.87-12.28,28.1-26.53,42-39.92l1.61,1.62c-5.44,5.58-11,11.06-16.3,16.76q-29.4,31.57-58.68,63.28l-5.47,5.87,6.56.29c9.89-8.61,20-16.94,29.74-25.75S4067.46,271,4077,261.85c4.69-4.47,9.84-8.46,14.78-12.66l1.39,1.6c-8.2,8.49-16.55,16.83-24.54,25.5-7.06,7.65-13.55,15.83-20.61,23.49q-7.39,8-14.91,15.94,4.36.11,8.77.17c1.18-1.07,2.37-2.13,3.52-3.23,6.12-5.81,11.38-12.52,17.51-18.31,10.12-9.59,20.58-18.83,31-28.07,4.27-3.79,8.87-7.22,13.32-10.81-8.16,10.57-16.44,20.81-25.24,30.59-6.29,7-13.46,13.18-19.93,20-3.11,3.28-6.16,6.61-9.26,9.9h2.09c2.73,0,5.42-.05,8.13-.08q11.13-10.68,22.3-21.35c6.12-5.79,12.36-11.46,18.65-17.06,6-5.37,12.2-10.58,18.32-15.86a16.08,16.08,0,0,1-4.27,7.76q-12.31,13.26-24.78,26.36c-5.65,6-11.36,11.89-17.07,17.8-.71.74-1.44,1.47-2.16,2.21,3.75-.08,7.48-.19,11.18-.31l96.41-91.94a53.19,53.19,0,0,1-10.78,15.2c-4.49,4.48-9.93,8-14.39,12.52-3.62,3.65-6.18,8.31-9.61,12.18-3.58,4-7.63,7.64-11.46,11.45-4.27,4.23-8.45,8.57-12.81,12.71s-9.12,7.69-13.15,12c-4.62,5-8.95,10.24-13.38,15.4,3.73-.17,7.44-.35,11.11-.57,4-3.68,7.92-7.37,11.95-11,7.33-6.57,15.09-12.7,22-19.64s12.94-15.15,20-22.14c10.57-10.48,21.74-20.36,32.61-30.54,6.58-6.17,13.07-12.43,19.61-18.66l1.78,1.8c-6,6.3-11.89,12.67-18,18.88-8,8.19-16.26,16.1-24.1,24.42-5.52,5.86-10.19,12.54-15.83,18.27-8.4,8.51-17.64,16.19-25.95,24.78-4.13,4.28-8.15,8.66-12.19,13,3.08-.23,6.1-.5,9.13-.76,2-2.06,4-4.09,6.06-6.07,8.55-8.25,18-15.51,26.59-23.77,14.66-14.19,28.74-29,43.38-43.2,7.28-7.06,15.2-13.48,23-20,1.19-1,3-1.2,4.68-1.66.09-.11.17-.22.26-.32l.32-.33c2.28-9.12,9.58-13.4,17.25-17.33l-17.25,17.33c0,.18-.11.33-.15.51v0l-.44.12c-1.47,1.78-2.85,3.64-4.46,5.28-6.59,6.65-13.51,13-19.84,19.87-9.43,10.26-18.12,21.21-27.77,31.26-10.46,10.9-21.94,20.83-32.45,31.68-1.68,1.73-3.3,3.5-4.94,5.26,3.53-.37,7-.75,10.48-1.16,10-9.32,20-18.59,29.89-28,11.14-10.67,21.77-21.87,32.82-32.63,9.44-9.2,19.13-18.16,28.79-27.13,4.33-4,8.87-7.8,13.32-11.69.53.6,1.07,1.19,1.61,1.79-17,18.27-33.74,36.72-51,54.74-13.32,13.94-27.31,27.25-40.8,41,3.8-.54,7.58-1.09,11.26-1.68,1.23-1.3,2.46-2.61,3.76-3.86,5.9-5.67,12.14-11,17.87-16.83,6.47-6.58,12.14-14,18.84-20.28,14.08-13.27,28.57-26.11,43-39,1.05-.94,2.93-.93,4.56-1.21l.28-.32.15-.13c-.22-1.15-.76-2.64-.31-3.05,5.14-4.68,10.47-9.15,17.08-14.82a69.92,69.92,0,0,1-16.77,17.87,2.41,2.41,0,0,1,.07.35h0c-.17,0-.35.06-.52.09-4.28,4.84-8.68,9.59-12.79,14.57-7.9,9.56-15.18,19.67-23.54,28.8-7.88,8.61-16.84,16.23-25.29,24.33-3.78,3.62-7.58,7.2-11.37,10.81,3-.58,6-1.16,8.92-1.77,1.85-1.8,3.66-3.64,5.55-5.39,11.71-10.84,23.84-21.22,35.54-32.07,15.23-14.12,30.21-28.52,45.31-42.78,1.75-1.65,3.57-3.22,5.36-4.83.83,1.75.75,2.77.2,3.35-10.72,11.33-21.56,22.55-32.24,33.92-11.49,12.23-22.69,24.73-34.28,36.86-2.11,2.21-4.28,4.36-6.42,6.55,4.09-1.05,8.05-2.12,11.87-3.24,9.9-9.2,19.86-18.33,29.69-27.6,8.13-7.67,15.89-15.74,24-23.4,3.94-3.71,8.67-6.59,12.51-10.38,6.87-6.76,13.27-14,20-20.85,1-1.05,2.86-1.32,4.32-2l1.8,2.49c-9.77,9-19.89,17.64-29.2,27.08-9.48,9.61-18,20.15-27.25,30-6,6.4-12.17,12.65-18.33,18.91,5.56-2,10.77-4.13,15.48-6.33.16,0,.33.06.5.09l8.24-7.67c5.49-5.12,11.13-10.09,16.54-15.29,10-9.61,19.8-19.39,29.78-29,6.44-6.19,13-12.21,19.56-18.3a9.3,9.3,0,0,1-2.8,6.37c-8.58,8.65-17.49,17-25.87,25.83-10,10.55-19.42,21.64-29.36,32.23-2.32,2.48-4.68,4.91-7,7.37,3.34.49,6.73.85,10.16,1.14,2.69-2.67,5.33-5.37,8.06-8,12-11.65,24.69-22.69,36.77-34.32,5.89-5.67,10.83-12.32,16.65-18.08,7.71-7.62,15.9-14.76,23.82-22.17,5.78-5.39,11.45-10.89,17.17-16.34l1.62,1.83c-2.58,2.39-5.28,4.67-7.73,7.2-10.52,10.9-20.93,21.9-31.46,32.79q-22.89,23.7-45.89,47.31c-3.37,3.45-6.8,6.86-10.21,10.27,1.71,0,3.4.13,5.12.13,2.21,0,4.38-.12,6.56-.2l130.87-126.45c-11.85,14.38-24.62,27.83-37.53,41.15-19.75,20.36-39.67,40.56-59.34,61-4.39,4.57-7.22,11-12.23,14.55a64.31,64.31,0,0,0-9.92,8.89c4.33-.47,8.62-1,12.79-1.83,5.95-5.42,11.87-10.85,17.64-16.45,9.13-8.87,17.28-18.76,26.42-27.62,13.95-13.52,28.6-26.3,42.54-39.83C4433.37,184.67,4448.14,169.72,4463,154.85Zm-299.44,68.91L4131.46,256l-2.5-2.52,32.5-31.82Z"/><path class="cls-2" d="M3763.91,207.3c-2.14,2.12-4.27,4.25-6.42,6.36-5.72,5.59-12,10.57-18.07,15.83.35-.46.68-1,1-1.42A79.83,79.83,0,0,1,3763.91,207.3Z"/><path class="cls-2" d="M3783.47,226.74l31.34-33.43c.71,0,1.4-.09,2.12-.09,1.57,0,3.12.06,4.67.13L3784.74,228Z"/><path class="cls-2" d="M3753,278.23l1.54,1.53-16.87,16.59c-.37-.58-.71-1.17-1.06-1.75Z"/><path class="cls-2" d="M3760.77,229.49c1.11-1.85,1.92-4,3.38-5.5q13.45-13.89,27-27.71,3.53-.85,7.15-1.47c-3.86,3.82-7.7,7.67-11.62,11.43C3778.3,214.26,3769.42,221.76,3760.77,229.49Z"/><path class="cls-2" d="M3740.17,274.46l-8.87,8.88c-.46-1.31-.91-2.62-1.28-4l7.54-7.51Z"/></g><g class="cls-4"><polygon class="cls-2" points="1738.27 2370.32 1738.27 2370.32 1738.27 2370.32 1738.27 2370.32"/><path class="cls-2" d="M1754.39,2419.53q-23.52-23.91-47.43-47.45c-1.72-1.69-4.1-2.69-6.42-3.77.19.77.49,1.5.71,2.27,5.12,5.86,10.14,11.82,15.69,17.25,13,12.71,26.37,25,39.59,37.41C1755.84,2423.31,1755.69,2420.85,1754.39,2419.53Z"/><path class="cls-2" d="M1701.27,2327a83.08,83.08,0,0,0-1.9,8.44l38.9,34.93-.18-.22-.18-.23.21.18c-2.12-3.5-3.8-7.41-6.52-10.37C1721.54,2348.72,1711.37,2337.87,1701.27,2327Z"/><path class="cls-2" d="M1774.62,2403.19c-12-11.22-24.3-22.13-36.5-33.14l0,0,42.17,41.93C1778.44,2409.05,1777.1,2405.51,1774.62,2403.19Z"/><path class="cls-2" d="M3594.61,2228.67c-11.22-30.62-39.28-55.5-75.69-68.17,13.6,12.22,27.26,24.36,40.79,36.65C3571.31,2207.68,3583,2218.14,3594.61,2228.67Z"/><path class="cls-2" d="M2127.75,2419.81c1,0,2.06.05,3.11.06-2.24-2.43-4.41-4.92-6.7-7.3-4.53-4.72-10.44-8.11-15.76-12.08a1,1,0,0,0,.1.17Z"/><path class="cls-2" d="M1914.64,2254.83c6.61,6.06,12.33,13.09,18.86,19.25,23.71,22.31,47.59,44.43,71.41,66.62l37,35.25s0-.1.07-.16l45.83,42.74,5.66.25c-7.61-7.93-15.19-15.88-22.9-23.71-8.18-8.29-18.22-15.23-24.54-24.69-5.11-7.66-42.45-36.31-45.17-45.56,1.39-.84-47.4-56.85-46-57.68,22.33,20.09,131.37,113.48,153.7,133.57l-.37-.39.24.17c-3.61-5.65-6.5-12-11-16.76-15.14-16.05-30.86-31.57-46.41-47.24-12.67-12.77-87.76-81.3-85-101.55,17.9,16.74,110.61,101.4,127.8,118q34.39,33.21,68.33,66.92c2.61,0,5.25,0,7.85-.07-14.82-15.24-29.57-30.54-44.46-45.7-21.75-22.16-44.94-43-65.33-66.38-8.95-10.25-93-78-86-97.92,10.44,9.14,87.74,77.44,97.57,86.84,29.1,27.85,57.88,56,86.82,84,13.22,12.8,26.53,25.5,39.79,38.25,2.19-.09,4.36-.2,6.53-.3q-44.53-45.2-88.53-90.9c-23.52-24.5-46.49-49.54-69.3-74.7-4-4.43-6-10.7-8.95-16.11l2.79-2c9.74,8.54,19.8,16.73,29.16,25.67,27.79,26.55,55.27,53.42,82.92,80.11,22.23,21.44,44.8,42.53,66.76,64.25,4,4,8.07,8.06,12.11,12.08,3.25-.23,6.48-.46,9.69-.72-7.38-8-14.75-15.95-22.32-23.75-20-20.6-41.06-40.18-60.91-60.92-38.88-40.6-77.27-81.67-115.73-122.67-1.79-1.9-2.28-5-1.36-8.88,21.93,20.11,44.25,39.82,65.7,60.43,38.55,37,76.51,74.66,114.83,111.93,14.37,14,28.85,27.84,43.31,41.73,3.69-.38,7.38-.75,11-1.16-17.35-17.83-34.72-35.64-51.93-53.6-34.53-36.06-68.8-72.37-103.34-108.41-21.71-22.65-43.72-45-63.74-69.82,2.18,1.37,4.64,2.43,6.49,4.15,26,24.09,52.23,47.94,77.74,72.54,24.86,24,48.72,49,73.44,73.12,27.32,26.64,54.95,52.95,82.44,79.41,3.78-.51,7.45-1.07,11.14-1.62l-1.61-1.68c-23.75-24.78-46.71-50.33-70.61-75-29.3-30.22-59.56-59.52-88.76-89.85a742.18,742.18,0,0,1-57.62-67.09c6.62,6.33,13.29,12.61,19.84,19,45.54,44.46,90.76,89.24,136.67,133.3,27.44,26.34,55.73,51.82,83.5,77.83,3.72-.66,7.41-1.33,11-2-.12-.12-.25-.24-.37-.37-29.33-30.18-58.15-60.86-87.32-91.21-23.26-24.2-46.8-48.12-70-72.35-19.63-20.47-39-41.19-58.49-61.79l2.2-2.38q16,15.29,32,30.56,33.15,31.38,66.37,62.71,13.35,12.64,26.44,25.58c23.91,23.7,47.61,47.62,71.66,71.18,11.81,11.57,23.84,22.92,35.86,34.29,4.48-1,8.91-2,13.2-3q-26.36-27.63-52.86-55.14c-39.94-41.34-80.24-82.33-120.23-123.62-12.74-13.15-25-26.79-35.88-41.93a46.63,46.63,0,0,1,5.73,4c33.93,32.09,68,64.06,101.63,96.43,19.18,18.45,37.46,37.84,56.61,56.33,20.63,19.9,41.43,39.62,62.19,59.38,3.56-1,7.09-2,10.49-3.06-5-5.13-10.16-10.19-15.16-15.35-28.26-29.15-55.45-59.32-83.48-88.69-24.4-25.57-49.39-50.58-74-76-8.92-9.22-17.43-18.85-24.67-30.16,1.61.82,3.52,1.33,4.78,2.51,33,31.18,66.24,62.15,98.85,93.76,28,27.12,55.08,55.17,82.86,82.5,8.9,8.75,17.89,17.4,26.86,26.07,4.71-1.69,9.17-3.43,13.45-5.21-5.84-6.08-11.64-12.2-17.51-18.25-25.43-26.22-51.57-51.75-77-78-23-23.74-45.58-47.9-68.08-72.13-8.56-9.22-16.36-19.15-23.87-28,1,.6,3.61,1.5,5.39,3.24,39.24,38.18,78.18,76.68,117.61,114.67q39.26,37.78,78.74,75.34,10,1.8,20.47,2.71c-20.6-20.72-41.26-41.37-61.63-62.3-37.17-38.19-73.89-76.81-110.75-115.29-1.06-1.11-1.52-2.79.06-6.58,10.65,9.73,21.52,19.25,31.91,29.25,17.33,16.66,34.28,33.71,51.53,50.44q35.31,34.23,70.86,68.21,19.41,18.63,38.9,37.18c5.55,0,11-.27,16.43-.67-14.91-15.44-29.88-30.82-44.75-46.29-31.87-33.16-63.16-66.91-95.76-99.33-14.43-14.35-31.46-26.08-47.3-39l6.29-6.85c2,1,4.29,1.49,5.79,2.92q54.3,51.71,108.4,103.63,42.69,41.22,85,82.88,8.78-1.32,17.2-3.29-33.35-33.74-66.72-67.44c-22.41-22.73-44.91-45.38-67.1-68.32-13.87-14.34-27.25-29.16-40.85-43.76l2.28-2.26c8.69,8.56,17.31,17.19,26.09,25.67Q2425.5,2250,2460,2283c23.38,22.5,46.84,44.91,70.09,67.55,6.49,6.32,12.9,12.72,19.3,19.13,5.56-1.64,11-3.44,16.25-5.48-6-6.35-11.88-12.74-18-19-32.51-33.25-65.5-66-98.1-99.21-11.68-11.88-22.83-24.29-32.46-38.58,4.51,3.35,9.48,6.23,13.45,10.13q67.32,66.15,134.38,132.56,5.09,5,10.15,10c5.33-2.41,10.55-4.94,15.48-7.74.71.23,1.48.4,2.2.62-3.23-3.37-6.42-6.78-9.67-10.13-12.85-13.24-26.08-26.1-39-39.27q-42.66-43.57-85.16-87.29c-3.11-3.19-6.06-6.52-7.25-11.69,5.67,5.22,11.51,10.27,17,15.7,30.32,30.15,60.23,60.72,90.9,90.51,16.25,15.78,33.05,31,49.68,46.37a185.36,185.36,0,0,0,27.85,3.58q-23.28-23.84-46.5-47.72c-22.38-23.08-44.51-46.4-65.05-71.31l123.55,119.37a192.77,192.77,0,0,0,24.45-1.79c-17.62-18.26-35.08-36.68-52.71-54.93-4.23-4.38-8.91-8.33-13.38-12.48l2.8-3.18c9.91,9.45,19.75,19,29.75,28.33,13.73,12.84,27.92,25.22,41.29,38.43,2.51,2.48,4.93,5.05,7.3,7.68,11,3.1,23,5.79,35.64,8-8.9-8.8-17.85-17.54-26.66-26.42a16.16,16.16,0,0,1-4.87-11.05c11.31,10.56,22.75,21,33.9,31.72,2.55,2.45,5.06,4.93,7.6,7.39,9.79,1.5,20,2.72,30.5,3.66-14.69-14.4-30.28-27.92-45.43-41.87l3.12-4.32c2.52,1.1,5.69,1.57,7.47,3.39,11.7,11.92,22.8,24.42,34.7,36.13a97.2,97.2,0,0,0,8.73,7.43c9.59.7,19.47,1.11,29.51,1.31q-14.67-15.36-29.3-30.77c-.94-1-1.09-2.77.35-5.79,3.1,2.78,6.26,5.5,9.28,8.36q15,14.16,29.92,28.38l1.3,0c9,0,17.89-.23,26.6-.63-6.24-7.34-12.72-14.48-19.1-21.71-.3-.05-.62-.08-.91-.15l0,0c0-.18.08-.4.12-.6-10.69-8.4-20.48-17.55-29.06-31,11.46,9.82,20.7,17.56,29.6,25.66.78.72-.15,3.31-.54,5.3l.27.23.49.54c2.81.5,6.08.48,7.9,2.1q10.68,9.51,21.34,19,11.41-.73,22.36-1.93-19.24-20.82-38.5-41.65l2.79-3.11c7.7,6.74,15.57,13.3,23.07,20.26q12.39,11.49,24.74,23,11.78-1.58,22.81-3.66c-6.05-5.93-12.15-11.81-18.11-17.83-2.8-2.83-5.19-6.07-7.73-9.15-.26-.08-.52-.13-.77-.21l.14-.15-.11.12c-.07-.31-.2-.57-.28-.88l-29.89-30c13.3,6.8,25.95,14.23,29.89,30l.57.56.45.56c2.83.8,6,1.15,8.11,2.88,8.84,7.41,17.76,14.77,26.43,22.39q10.64-2.23,20.39-4.91c-8.65-9-17.21-18.09-25.81-27.15l3.08-3.11c9.9,9.43,19.78,18.89,29.72,28.27a237.94,237.94,0,0,0,25.33-9.05.31.31,0,0,1-.05-.1l.08.09c1.74-.74,3.48-1.48,5.13-2.25q11.73-.87,23.06-2c-.1,1-.18,2-.18,3.06,0,21.27,21.26,40.4,55.12,53.69l-51.86-52.12c1.2-1.21,2.4-2.43,3.61-3.64l56.33,55.15-2.63,2.65a274.94,274.94,0,0,0,49.43,12.37c-3.06-3.87-6.17-7.66-9.21-11.59,5.2,4.2,10.46,8.33,15.64,12.55,10.2,1.43,20.83,2.46,31.78,3-7.66-7.9-15.37-15.77-23-23.68l2.41-2.78c8.57,7.29,17.49,14.2,25.62,22,1.7,1.62,3.36,3.28,5,4.92,3.52.09,7.07.15,10.65.15q7.77,0,15.37-.3-15.11-16.28-30.2-32.56c-9.2-9.89-18.83-19.37-28.26-29l2.79-2.81c22.2,21.3,43.44,43.75,66.7,63.77,7-.48,13.87-1.1,20.55-1.93q-31-33.06-62-66.11L3155,2352c4.2,4.1,8.26,8.34,12.61,12.27,20.29,18.37,41,36.36,60.93,55.06q7.22-1.23,14.06-2.72c-.1-.11-.21-.21-.31-.31-5.86-5.9-10.59-12.9-16.25-19-17.06-18.46-34.37-36.68-51.49-55.09-7.46-8-14.68-16.27-22-24.41l2.56-2.29,103.37,97.16q7.36-2.05,14.18-4.43L3158,2286.61l.89-1.66c3.37,2.28,7.1,4.17,10.05,6.89,35.57,32.86,71.21,65.65,106.43,98.87,6.35,6,12.52,12.2,18.73,18.37,4,.34,8.08.64,12.23.64.72,0,1.41,0,2.13-.06-6.5-6.6-13-13.19-19.34-19.95-11-11.77-20.83-24.67-31.44-36.84-6.48-7.42-13.3-14.55-20.22-21.57-18.23-18.46-36.62-36.77-54.87-55.22-.75-.77-.75-2.29,1.38-5.93l146.56,137.62q5.46-.89,10.73-2.13L3199.65,2255l1.95-2.24c8,6.54,16.48,12.67,24.07,19.71q48,44.52,95.51,89.51,19.79,18.67,39.38,37.53,3.6-1.44,7.06-3c-19.34-21.1-38.22-42.63-57.75-63.56-25.21-27-51.06-53.4-76.59-80.11-.83-.86-1.16-2.19-.44-5.71,3.59,1.92,7.73,3.23,10.67,5.87,13.68,12.3,27.1,24.9,40.48,37.53,18.15,17.12,36.09,34.46,54.27,51.54q23.61,22.18,47.32,44.25c1.91-1.31,3.78-2.67,5.59-4.07q-9.61-9.8-19.21-19.63c-16.81-17.28-33.84-34.36-50.33-51.95-27.44-29.26-54.59-58.79-81.74-88.32-6.75-7.34-13-15.09-19.54-22.65l3.12-2.95,181.4,172.95c1.76-1.92,3.44-3.89,5-5.91l-158.68-165.87,3.52-3.51c63.33,54.08,123.19,111.89,183.57,169.25,2.67.42,5.4.67,8.12,1l-155.5-164.15c1-1.18,2-2.35,3-3.53,6.12,4.48,12.55,8.59,18.29,13.51,19.41,16.65,39.24,32.9,57.64,50.61,16,15.35,29.52,33.14,45.35,48.62,13.9,13.59,29.57,25.37,44.26,38.17,6.44,5.62,12.69,11.45,18.95,17.28.52,0,1-.14,1.54-.18-6.87-8.46-13.68-17-21-25-11.44-12.6-23.67-24.48-35.37-36.85-9.9-10.46-19.43-21.27-29.3-31.76-16.54-17.6-33.3-35-49.81-52.64-12.49-13.33-24.77-26.86-37-40.42-1.57-1.74-2.43-4.14-1.78-8,12.33,11.73,24.45,23.68,37.06,35.1,11.82,10.7,24.67,20.28,36.13,31.33,19.31,18.6,37.74,38.11,56.8,57,8.71,8.62,18,16.64,27.12,24.85q22.93,20.66,45.92,41.24,2.35-.64,4.67-1.35-38.33-41.68-77-83.08c-5.92-6.34-13.17-11.47-18.89-18-19.42-22.09-38.47-44.52-57.64-66.83l-1.69-1.15.38-.38-.37.38c-.1-.37-.27-.65-.38-1L3331,2165.78l3.83-3.9c6.66,9.84,19.12,13.83,23,26.47l.75.62,1.31,1.53c10.54,7.33,21.67,14,31.18,22.48,15,13.42,28.59,28.43,43.06,42.47,13.21,12.81,26.85,25.18,40.2,37.84,19.64,18.61,39.13,37.37,58.8,55.95l1.11,1c2.12-1,4.28-2,6.32-3.07q-21.08-22.2-42.09-44.47-46.87-49.81-93.49-99.88c-6-6.45-12.22-12.78-18.33-19.16l3.24-3.69c8.81,7.06,18,13.66,26.3,21.32,8.08,7.51,15,16.26,22.71,24.19,12,12.27,24,24.45,36.31,36.34,3.76,3.63,9.09,5.65,12.86,9.28,22.19,21.4,43.87,43.33,66.29,64.48.6.57,1.24,1.08,1.85,1.63,2.29-1.67,4.52-3.39,6.67-5.18-.58-.66-1.09-1.38-1.67-2-15.26-17.18-31-33.94-46.89-50.57-16.26-17-33.14-33.48-49.31-50.59-15.6-16.51-30.6-33.58-45.94-50.33-8.49-9.27-17.15-18.39-25.73-27.57l2.31-2.41,180.56,170.56c1.76-2,3.34-4.13,4.92-6.24l-144-152.82,3.36-3.54q75,70.55,150,141.11a92,92,0,0,0,3.88-8.89l-140-149.39c2.74-.18,5.15-1.08,6.07-.28,11.83,10.35,23.6,20.78,35.08,31.53,5.47,5.13,9.95,11.33,15.47,16.43,23.74,21.93,48.06,43.27,71.49,65.53,5.68,5.4,11.21,11,16.81,16.45a86.6,86.6,0,0,0,.66-10.48c0-.3-.05-.59-.05-.9-2.67-2.78-5.38-5.52-8-8.31-14.43-15.06-27.58-31.34-41.72-46.69s-28.84-30.6-43.35-45.82a165.25,165.25,0,0,0-27.07-4.74,106.87,106.87,0,0,0-106.71-102c-.63,0-1.23.08-1.85.09a139.17,139.17,0,0,0-251.1,2.51c-14.51-11.77-32.16-18.74-51.26-18.74-1.83,0-3.62.18-5.43.31a123,123,0,0,0-231.07-81.19c-47.27,12.47-81.76,51.16-81.76,97a90.66,90.66,0,0,0,.72,11.11c-18.11-16.81-43.3-27.25-71.18-27.25-47,0-86.35,29.68-96.92,69.6a404.65,404.65,0,0,0-41-2.08c-42.27,0-81.31,6.4-112.94,17.23-19.75-75.69-117.33-133.19-234.8-133.19-127.56,0-231.72,67.77-238.21,153-37.06,17.79-64.27,49.84-72.61,88Q1899.09,2240.66,1914.64,2254.83Z"/><path class="cls-2" d="M1830.52,2388.25c-7.89-13.25-17.38-24.88-31.76-31.59l0,.07Z"/><path class="cls-2" d="M1870.87,2356.65l2.2-2.2-91.88-98c-4.31,1.16-8.5,2.53-12.58,4.06Z"/><path class="cls-2" d="M1793.27,2384.86c-26.38-28.06-53-55.87-79.41-83.91a89.68,89.68,0,0,0-5.23,8.32q18.86,18,37.77,35.94,32.7,30.89,65.6,61.56C1805.77,2399.45,1799.84,2391.86,1793.27,2384.86Z"/><path class="cls-2" d="M1891.94,2255.8c-3.55-3.64-7.25-7.13-10.9-10.67-.11,2-.24,4-.24,6.06,0,2.69.27,5.32.45,8,4.31,4.06,8.66,8.07,12.94,12.15,21.45,20.47,42.28,41.59,63.52,62.29,2,2,5,3,7.56,4.47-3-5-5.34-10.71-9.25-14.92Q1924.34,2289.13,1891.94,2255.8Z"/><path class="cls-2" d="M1860.68,2382.35l1.54-1.52-107.61-114.22c-3.55,1.82-7,3.75-10.27,5.84Z"/><path class="cls-2" d="M1843.72,2257.84c25.23,24.19,49.38,49.5,74.38,73.92,9.91,9.69,20.85,18.33,31.31,27.44-3.94-5.22-7.37-10.95-11.91-15.58-21.23-21.68-42.85-43-64.15-64.57-8.14-8.26-16.22-16.59-24.13-25.05-3.81-.74-7.67-1.37-11.6-1.82C1839.63,2254.09,1841.72,2255.92,1843.72,2257.84Z"/><path class="cls-2" d="M1774.48,2326c-13.61-15.33-27.64-30.3-41.77-45.16a109.21,109.21,0,0,0-8.91,8.23c14.52,14.27,29,28.55,43.83,42.51,9.8,9.24,20.94,17.06,31.47,25.51l-.37-.45h0C1790.72,2346.4,1783.12,2335.74,1774.48,2326Z"/><path class="cls-2" d="M1912.42,2359.2c-1.93-3.2-3.33-6.91-5.86-9.53-31.72-32.76-63.73-65.24-95.33-98.11q-5.68.34-11.22,1.1c22.75,21.82,44.75,44.42,67.51,66.24C1882,2332.81,1897.42,2345.8,1912.42,2359.2Z"/></g></g></g></svg>