<svg xmlns="http://www.w3.org/2000/svg" viewBox="0 0 6760.37 2684.69"><defs><style>.cls-1{opacity:0.64;}.cls-2{fill:#fff;}.cls-3{opacity:0.45;}.cls-4{opacity:0.34;}</style></defs><title>nubes2</title><g id="Capa_2" data-name="Capa 2"><g id="nubes2"><g class="cls-1"><path class="cls-2" d="M2588.33,300.33c22.12,21.29,44.31,42.48,66.3,63.9,14.14,13.77,28,27.87,41.92,41.82,12.07,12.06,24.08,24.2,36.17,36.25,5.22-1.21,10.29-2.62,15.24-4.17-8.27-7.9-16.57-15.77-24.57-23.94-17.67-18-34.48-36.93-52.13-55-30.11-30.79-60.64-61.17-90.85-91.87A143,143,0,0,0,2565,277.85Z"/><path class="cls-2" d="M2462.86,347.22c37,35.66,74.57,70.66,111.26,106.6,2.57,2.52,5.1,5.09,7.67,7.62,2.95-.47,5.91-.93,8.79-1.44-24.53-24.59-49.15-49.1-73.32-74-26.73-27.57-52.45-56.11-79-83.89-.93-1-1.88-1.92-2.81-2.89-6.51.46-12.9,1-19.2,1.69C2431.9,316.23,2447.1,332,2462.86,347.22Z"/><path class="cls-2" d="M2664.89,407.52c13.18,13,26.2,26.17,39.22,39.34,5.19-.5,10.32-1.11,15.33-1.94-2.81-3-5.57-6.06-8.42-9-37-38.59-75-76.27-112.54-114.36q-19.39-19.66-38.77-39.36a112.26,112.26,0,0,0-11.59,11.72c5.61,5.39,11.24,10.74,16.83,16.14Q2615.17,358.53,2664.89,407.52Z"/><path class="cls-2" d="M2391.24,310.78c22.61,22.42,45,45,67.77,67.33,16.35,16,33.19,31.52,49.66,47.4q20.74,20,41.35,40.12c3.26-.34,6.42-.73,9.62-1.11l-8.49-8.91c-31.9-33.38-63.65-66.89-95.73-100.09q-25.78-26.68-51.72-53.22-9.45,1.17-18.52,2.62C2387.18,306.88,2389.24,308.8,2391.24,310.78Z"/><path class="cls-2" d="M2630.83,407.93c13.61,13.14,27,26.54,40.6,39.65,3.64.18,7.26.41,11,.41.51,0,1-.06,1.53-.06-16.17-16.54-32-33.41-48-50.07-16.49-17.14-33.1-34.15-49.58-51.3-14.84-15.43-29.54-31-44.32-46.49-8.29-.73-16.78-1.29-25.38-1.71q29.78,28.8,59.69,57.46C2594.44,373.22,2612.74,390.47,2630.83,407.93Z"/><path class="cls-2" d="M3612.49,325.67c-3.52,1.17-6.95,2.47-10.32,3.85,7.06,6.88,14.08,13.79,21.25,20.56,9.27,8.74,19.81,16.13,29.77,24.13l-.35-.44,0,0c-7.61-9.71-14.79-19.79-23-29C3624.18,338.35,3618.34,332,3612.49,325.67Z"/><path class="cls-2" d="M2638.09,448.9c3.19-.94,6.4-1.88,9.44-2.89-8.38-8.94-16.78-17.86-25.31-26.66-28.78-29.66-58.35-58.54-87.17-88.16q-16.11-16.56-32.08-33.26c-6.5-.19-13-.44-19.59-.44-1.07,0-2.11,0-3.17,0,6.44,6.25,12.84,12.55,19.3,18.77C2545.56,360.65,2592,404.64,2638.09,448.9Z"/><path class="cls-2" d="M3518,446.72c-.45-.42-1.85.17-3,.5q17.33,19,34.57,38l4.46-4.41C3542,469.44,3530.09,458,3518,446.72Z"/><path class="cls-2" d="M2479.63,429.64c12.9,12.31,24.88,25.56,37.24,38.43,4.07-.2,8.18-.37,12.18-.64-17.71-18.11-36.16-35.49-53.81-53.66-27.75-28.55-55-57.56-82.6-86.27-6.58-6.85-13.21-13.65-19.82-20.47q-9.81,1.8-19.06,3.9c10.8,10.5,21.54,21.06,32.41,31.48C2416.91,371.92,2448.81,400.22,2479.63,429.64Z"/><path class="cls-2" d="M2260.06,350.75q21.6,21,43.21,41.94c22.94,22.21,46.16,44.14,68.83,66.63,2.32.43,4.63.86,7,1.26-5.28-5.08-10.52-10.19-15.68-15.4q-48.9-49.35-97-99.45C2264.11,347.37,2262,349.05,2260.06,350.75Z"/><path class="cls-2" d="M2298,354.9c21,20.28,42.37,40.23,63.14,60.77Q2386,440.23,2410.59,465c2.82.31,5.68.6,8.55.88-1.33-1.36-2.69-2.69-4-4.05-18.51-18.95-36-38.88-54.48-57.89-18.92-19.48-38.84-38-57.62-57.62-4.5-4.7-8.95-9.46-13.44-14.17-3.45,1.65-6.69,3.35-9.81,5.09Q2288.88,346.09,2298,354.9Z"/><path class="cls-2" d="M2443.38,417.71c-22.47-23.44-44.18-47.6-66.78-70.91-10.91-11.25-22-22.32-33.07-33.42-5.26,1.34-10.38,2.74-15.32,4.21,9.35,9.43,18.68,18.87,28.18,28.13,31.23,30.46,63,60.4,94.26,90.78q16.65,16.15,33.15,32.48c3,0,6-.11,9-.15Q2468,443.36,2443.38,417.71Z"/><path class="cls-2" d="M2363,384.93c22.34,21.73,45,43.09,67.28,64.92,6.14,6,12.18,12.15,18.26,18.24,3.27.16,6.55.32,9.87.44q-14-14.34-28-28.7-32.66-33.52-65.14-67.23-24.48-25.56-48.85-51.24-7,2.37-13.41,4.94Q2333,355.63,2363,384.93Z"/><path class="cls-2" d="M2687.6,363.84c15.15,15,30.18,30.07,45.52,44.84,14.47,13.94,29.06,27.75,43.62,41.6a248.16,248.16,0,0,0,27.37,9.17c-4.41-6.23-8.64-12.63-13.84-18.12-9.79-10.32-21.78-18.53-31.87-28.6-18.24-18.21-35.69-37.2-53.64-55.7-12.14-12.52-24.66-24.69-36.87-37.15q-31.48-32.14-62.85-64.42a173,173,0,0,0-18.65,8.54Q2637,313.89,2687.6,363.84Z"/><path class="cls-2" d="M2270.71,422.86c-4.29-4.47-9.88-7.67-14.91-11.42l.09.16,4,3.94A104.56,104.56,0,0,0,2272.7,425C2272,424.32,2271.39,423.57,2270.71,422.86Z"/><path class="cls-2" d="M2272,386.46c-7.66-7.8-15.49-15.43-23.31-23.07a43.87,43.87,0,0,0-3.5,6.21q37,35.75,73.49,72c2.07,2.06,4.09,4.19,6.14,6.28q4.71,1.46,9.64,2.84Q2303.26,418.52,2272,386.46Z"/><path class="cls-2" d="M3682.91,403.66c-7.46-12.52-16.44-23.52-30-29.87l.05.06Z"/><path class="cls-2" d="M2244.17,394.34a47.4,47.4,0,0,0,10.2,15.91l1.55,1.39-.35-.37.23.17c-3.41-5.35-6.15-11.33-10.42-15.86C2245,395.16,2244.57,394.76,2244.17,394.34Z"/><path class="cls-2" d="M2521.4,370.78c26,25.59,52.55,50.68,78.59,76.26,3.12,3.07,6.18,6.18,9.29,9.26,3.73-.81,7.37-1.67,11-2.56-25.78-26.81-51.39-53.79-77.28-80.5-24.05-24.8-48.78-48.94-72.82-73.75-.58-.6-1.15-1.22-1.73-1.82q-10,.22-19.7.72C2473.15,322.29,2497,346.8,2521.4,370.78Z"/><path class="cls-2" d="M3635.42,426.16c-1.77-2.82-3-6.17-5.38-8.36-11.35-10.62-23-20.93-34.53-31.35l0,.05Z"/><path class="cls-2" d="M3711.44,398.08l1.45-1.43L3639.75,319q-5.07.83-10,1.9Z"/><path class="cls-2" d="M3558,384c5.79,6.47,11.27,13.25,17.46,19.31,12.27,12,24.94,23.62,37.44,35.39-.65-1.83-.79-4.15-2-5.41q-22.24-22.62-44.86-44.88c-2.14-2.09-5.35-3.07-8.09-4.55a4,4,0,0,1,.26.32Z"/><path class="cls-2" d="M3557.78,220.2a160.42,160.42,0,0,0-16.91-15.9Z"/><path class="cls-2" d="M2682.52,326.72c22.83,22.18,46.86,43.13,69.72,65.29,15,14.53,28.34,30.73,43.31,45.28,9.45,9.18,19.17,18.08,28.91,27,6.85,1.29,13.87,2.24,21,3a105.42,105.42,0,0,0-16.26-14.59c-8.21-5.76-12.84-16.36-20.05-23.85-32.24-33.5-64.89-66.61-97.26-100-21.17-21.83-42.1-43.89-61.52-67.45l214.53,207.27c3.57.14,7.12.34,10.74.34,2.82,0,5.6-.13,8.39-.22-5.59-5.59-11.21-11.17-16.73-16.84q-37.71-38.68-75.23-77.54c-17.25-17.86-34.32-35.89-51.57-53.75-4-4.14-8.43-7.88-12.67-11.81l2.66-3c9.37,8.94,18.68,17.95,28.14,26.79,13,12.15,26.41,23.86,39.05,36.35,9.55,9.43,17.64,20.33,27.3,29.62,19.79,19.07,40.51,37.18,60.28,56.27,4.46,4.31,8.79,8.74,13.2,13.11,5.62-.47,11.18-1.07,16.65-1.86-3.83-4-7.7-8-11.51-12.08-16.29-17.37-31.74-35.55-48.12-52.83-13.73-14.5-28.34-28.16-42.4-42.35a15.21,15.21,0,0,1-4.6-10.45c10.69,10,21.52,19.85,32.06,30,16.37,15.75,32.46,31.78,48.83,47.52,8.87,8.53,18.1,16.68,27.1,25.07L2930,463.57c.27-.06.55-.09.82-.15,7.71,3.6,16.26,7.05,25.36,10.37-10.09-10.25-20.18-20.51-30-31-15.16-16.14-29.13-33.42-44.67-49.17-15.27-15.47-31.86-29.64-47.87-44.38l2.95-4.08c2.39,1,5.39,1.48,7.08,3.2,11.06,11.28,21.56,23.1,32.81,34.18,6.31,6.21,14.06,10.94,20.52,17,13.34,12.56,26.05,25.78,39.39,38.36,16.11,15.19,32.44,30.16,48.66,45.24q9.41,2.74,19.46,5.3c-3.5-3.57-7.07-7.1-10.53-10.72-19-19.89-37.35-40.38-56.18-60.43-17.51-18.64-35.28-37-52.86-55.61-.89-.95-1-2.62.33-5.48,2.93,2.63,5.92,5.21,8.78,7.91,24.76,23.39,49.31,47,74.28,70.13,19.18,17.79,39.06,34.81,58.26,52.57,3.1,2.87,6.07,5.89,9.1,8.84q7.18,1.49,14.62,2.89c-6.21-5.91-12.45-11.78-18.63-17.71-13.85-13.27-28.54-25.77-41.47-39.89-13.7-15-25.63-31.54-38.57-47.21-6.74-8.17-14-15.94-21-23.88-.28-.05-.58-.08-.86-.15l0,0c0-.17.08-.38.11-.56-10.11-7.95-19.37-16.6-27.49-29.29,10.84,9.29,19.58,16.61,28,24.28.74.67-.14,3.12-.51,5l.26.21c.15.17.31.34.46.52,2.66.46,5.75.45,7.47,2,23.7,21.09,47.45,42.13,70.54,63.88,11,10.35,20.28,22.47,30.87,33.26,9.4,9.56,19.63,18.29,29.31,27.59,2.12,2,4.13,4.18,6.16,6.32,6,1,12.23,1.87,18.46,2.75-22.12-22.6-45-44.42-66.89-67.28-28.23-29.54-55.72-59.78-83.53-89.72l2.64-3c7.28,6.38,14.73,12.58,21.82,19.17,15.85,14.7,31.72,29.39,47.21,44.47,18.11,17.64,35.53,36,53.79,53.49,16.17,15.49,32.62,30.69,49,46,5.65.68,11.4,1.3,17.18,1.9-2.69-2.88-5.35-5.79-8.09-8.61-17.24-17.79-36.05-34.07-53.2-51.94-15.81-16.47-30.06-34.43-45.53-51.25-10.37-11.28-21.72-21.66-32.51-32.57-2.65-2.68-4.91-5.74-7.32-8.65-.24-.07-.49-.12-.72-.2l0,0c-.07-.29-.19-.54-.26-.83l-28.28-28.4c12.58,6.43,24.55,13.46,28.28,28.4.17.18.35.36.53.53l.42.53c2.68.76,5.72,1.09,7.67,2.72,12.77,10.7,25.75,21.21,37.69,32.79,24,23.31,47.07,47.56,71.11,70.82,14,13.54,29.57,25.44,43.59,38.95q5.07,4.89,9.93,10c5,.43,9.92.87,15,1.24-6.62-7.15-13.21-14.34-20-21.35-13.61-14.09-28.77-26.67-42.53-40.63-9.25-9.38-16.9-20.34-26-29.95-12.85-13.64-26.42-26.6-39.51-40-9.94-10.19-19.63-20.63-29.43-31l2.91-2.95c10.71,10.2,21.36,20.47,32.15,30.59,17.82,16.69,36.12,32.88,53.45,50.06,11.56,11.46,21.25,24.79,32.77,36.29s24.11,21.43,36.12,32.2c6.61,5.92,13.1,12,19.6,18,6,.36,12.1.65,18.2.93-7.26-8.46-14.34-17.08-21.92-25.24-6.61-7.11-14.49-13-21.56-19.72s-14-13.9-21-20.85c-6.29-6.24-12.93-12.15-18.79-18.76-5.62-6.34-9.83-14-15.76-20-7.31-7.39-16.22-13.19-23.59-20.53a86.86,86.86,0,0,1-17.66-24.92l158,150.72q9.11.3,18.34.51c-1.19-1.21-2.38-2.41-3.56-3.63q-14-14.53-28-29.18-20.39-21.52-40.61-43.21a26.22,26.22,0,0,1-7-12.72c10,8.65,20.14,17.19,30,26,10.32,9.18,20.55,18.47,30.56,28q18.36,17.43,36.57,35c4.45,0,8.85.13,13.33.13,1.15,0,2.27,0,3.42,0-5.08-5.39-10.08-10.85-15.17-16.23-10.61-11.21-22.36-21.35-32.68-32.81-14.43-16-28-32.82-41.37-50.15,7.29,5.89,14.83,11.52,21.84,17.73,17.11,15.15,34.24,30.3,50.84,46,10,9.5,18.67,20.5,28.7,30,1.89,1.79,3.85,3.53,5.78,5.29q7.21-.11,14.36-.27-12.29-13-24.44-26.14c-11.56-12.55-22.2-26-33.77-38.5-13.11-14.21-26.8-27.89-40.23-41.8l2.28-2.63c8.1,6.89,16.54,13.43,24.23,20.76,15.66,14.93,30.46,30.8,46.46,45.34s32.55,28.09,48.76,42.21q5.4-.22,10.76-.48-4.5-4.81-9-9.62-48.15-51.82-96.19-103.73c-8.7-9.35-17.8-18.32-26.73-27.47l2.64-2.65c22.87,21.94,44.56,45.31,68.93,65.42,23.33,19.27,43.53,41.49,65.5,62,5.31,4.95,10.59,9.93,15.9,14.9,3.41-.22,6.77-.47,10.14-.71L3242.57,368.79l3.18-3.23c4,3.88,7.81,7.89,11.92,11.6,19.31,17.49,39,34.6,58,52.41,20.57,19.26,40.37,39.36,60.86,58.71,8.68,8.2,17.48,16.26,26.3,24.3,3.15-.28,6.25-.59,9.37-.89q-17.45-18.68-35.12-37.11c-15.84-16.47-32.66-32-48.77-48.2-5.54-5.58-10-12.2-15.36-18-16.14-17.46-32.51-34.7-48.7-52.11-7.06-7.59-13.89-15.39-20.83-23.09l2.42-2.16,189.59,178.19,6.21-.74-193-204.76.84-1.58c3.19,2.16,6.72,3.95,9.51,6.53,33.64,31.08,67.35,62.09,100.66,93.52,17.68,16.67,34.44,34.33,52,51.18,18.11,17.42,36.43,34.62,54.76,51.81l6-.88c-1.38-1.81-2.82-3.57-4.36-5.23-15.54-16.63-31.61-32.77-47.53-49s-32.26-32.18-47.82-48.79c-10.43-11.13-19.7-23.34-29.74-34.84-6.12-7-12.58-13.77-19.13-20.41-17.24-17.46-34.63-34.79-51.89-52.23-.72-.73-.71-2.17,1.3-5.61l215.73,202.57,1.58-1.55L3288,273.86l1.85-2.12c7.61,6.19,15.58,12,22.76,18.64q45.39,42.12,90.35,84.67c21.89,20.67,43.52,41.62,65.37,62.35,19,18,38.09,35.84,57.14,53.75-2.13-3.32-3.76-7.13-6.47-9.88-19.43-19.74-39.54-38.82-58.55-58.95-23.16-24.52-45.17-50.11-68.19-74.77-23.84-25.54-48.3-50.51-72.45-75.77-.78-.82-1.09-2.08-.41-5.41,3.39,1.82,7.31,3.06,10.09,5.56,12.94,11.63,25.63,23.55,38.29,35.49,17.16,16.2,34.14,32.6,51.33,48.76,24.52,23,49.21,45.87,73.71,68.93,7.09,6.67,13.84,13.72,20.74,20.61-3.41-5.72-6.34-11.88-10.78-16.64-16.92-18.14-34.49-35.67-51.8-53.46-15.9-16.35-32-32.51-47.6-49.14-26-27.68-51.63-55.61-77.31-83.54-6.39-6.94-12.34-14.28-18.48-21.43l2.95-2.79,286.71,273.37L3336.73,219.83l3.33-3.32C3421.42,286,3496.73,362,3575.44,434.57L3374.29,222.23l2.8-3.33c5.79,4.24,11.87,8.12,17.3,12.78,18.36,15.74,37.11,31.11,54.52,47.86,15.08,14.52,27.93,31.34,42.9,46,13.14,12.86,28,24,41.86,36.1,8.3,7.24,16.25,14.87,24.35,22.33-.06-.06-.11-.13-.16-.19l.09.05c-8.21-9.93-16.1-20.15-24.76-29.68-10.82-11.91-22.38-23.15-33.45-34.85-9.36-9.9-18.38-20.12-27.71-30-15.65-16.65-31.5-33.11-47.12-49.79-11.81-12.61-23.42-25.41-35-38.23-1.49-1.65-2.3-3.92-1.69-7.58,11.67,11.09,23.14,22.4,35.06,33.2,11.18,10.12,23.34,19.18,34.18,29.63,18.26,17.6,35.69,36,53.72,53.89,8.24,8.15,17,15.74,25.65,23.5q29.37,26.46,58.83,52.84l-.34-.43.2.17c-2-3.31-3.6-7-6.17-9.81q-38.55-42-77.47-83.62c-5.6-6-12.46-10.85-17.87-17-18.37-20.9-36.38-42.11-54.52-63.22-.53-.36-1.07-.71-1.59-1.09l.35-.35-.35.35c-.09-.34-.25-.61-.35-.94l-25.39-21.34,3.63-3.7c6.29,9.31,18.08,13.08,21.76,25l.7.59,1.24,1.44c10,6.94,20.5,13.24,29.49,21.27,14.2,12.69,27.05,26.89,40.74,40.17,12.49,12.11,25.38,23.82,38,35.79,18.57,17.6,37,35.35,55.61,52.92q30.93,29.21,62,58.22c-5.89-6.92-11.5-14.1-17.72-20.72-25.61-27.25-51.49-54.24-77.11-81.48q-44.34-47.13-88.43-94.48c-5.71-6.1-11.56-12.08-17.34-18.12,1-1.16,2.05-2.32,3.07-3.49,8.33,6.68,17.07,12.92,24.87,20.17,7.65,7.1,14.19,15.38,21.48,22.87,11.3,11.61,22.69,23.14,34.34,34.38,3.57,3.43,8.61,5.34,12.17,8.78,11.89,11.45,23.64,23,35.43,34.6.11-2.31.2-4.62.2-6.95,0-2.93-.16-5.82-.34-8.71-3.49-3.69-7-7.41-10.46-11.08-15.38-16.11-31.35-31.66-46.64-47.85-14.76-15.61-28.94-31.76-43.45-47.6-8-8.77-16.22-17.39-24.34-26.08l2.19-2.27,119.55,112.92a140.47,140.47,0,0,0-8.9-26.28l-68.52-72.72c-2.92-1.61-5.88-3.17-8.92-4.63C3498.79,80.8,3374.61,0,3222.53,0c-146.85,0-267.68,75.36-282.76,172.06a272.85,272.85,0,0,0-64.16-7.56c-77,0-144.06,31.21-179.43,77.43-4.54-.27-9.13-.44-13.78-.44a216.31,216.31,0,0,0-73.15,12.35C2633.6,278.21,2657.81,302.72,2682.52,326.72Zm421,36.65,53.28,52.16c-1.37,1.38-2.74,2.75-4.1,4.13l-52.59-52.86Z"/><path class="cls-2" d="M3755.22,339.81c3.5,3.48,7,7,10.52,10.43,9.38,9.16,19.72,17.33,29.63,25.95-.58-.76-1.12-1.56-1.68-2.33A130.8,130.8,0,0,0,3755.22,339.81Z"/><path class="cls-2" d="M3723.16,371.69l-51.38-54.81c-1.17,0-2.3-.14-3.47-.14-2.58,0-5.12.1-7.66.21l60.42,56.83Z"/><path class="cls-2" d="M3773.14,456.08l-2.53,2.52,27.66,27.18c.6-.94,1.16-1.9,1.73-2.86Z"/><path class="cls-2" d="M3760.37,376.19c-1.82-3-3.15-6.54-5.54-9q-22.07-22.79-44.25-45.43-5.77-1.39-11.73-2.41c6.34,6.26,12.62,12.57,19.05,18.73C3731.63,351.23,3746.19,363.52,3760.37,376.19Z"/><path class="cls-2" d="M3794.14,449.91q7.28,7.27,14.53,14.56c.76-2.15,1.5-4.3,2.1-6.49l-12.36-12.32Z"/></g><g class="cls-3"><path class="cls-2" d="M236.27,2627.65c-13.18-23.61-33.3-40.28-55.18-55.19Z"/><path class="cls-2" d="M336.81,2538.77c22.85,22.44,45.37,45.21,68,67.85,2.88-1.17,5.61-2.43,8.39-3.66q-38.13-39.08-76.25-78.16c-30.33-31.15-60.69-62.27-90.76-93.67q-33.78-35.28-67.4-70.71-10.91,1.86-21.36,4.24,42.78,41.84,85.61,83.65C274.19,2478.58,305.83,2508.34,336.81,2538.77Z"/><path class="cls-2" d="M244.68,2582.54q-64-66.27-128.51-132.11c-16.63-16.94-33.83-33.36-50.64-50.13-3,1.84-6,3.7-8.79,5.62,5.88,5.54,11.82,11,17.62,16.64q53.79,51.95,106.85,104.65c19,18.83,37.16,38.48,56.08,57.38,4.69,4.68,10.89,7.85,16.39,11.72C250.71,2591.69,248.42,2586.41,244.68,2582.54Z"/><path class="cls-2" d="M472.3,2614.59C432.78,2574.81,393.81,2534.47,355,2494c-31.3-32.66-61.56-66.33-93.05-98.81-14.51-15-29.26-29.68-44-44.44.29,1.57.42,3.18.75,4.74-7.12.55-14.12,1.28-21,2.14,12,12.08,23.94,24.18,36.12,36.06,43.51,42.44,87.72,84.16,131.34,126.49,32.06,31.11,63.78,62.59,95.67,93.89q7.73,2.46,15.85,4.87C475.22,2617.47,473.75,2616,472.3,2614.59Z"/><path class="cls-2" d="M91.1,2527.07c-15.77-16.34-31.4-32.81-47.34-49-9.86-10-21.63-18.64-30-29.6-1.53,2.44-3,4.9-4.25,7.4l78.93,73.62Z"/><path class="cls-2" d="M1720.39,2228c15.57,14.1,32.51,26.73,47.61,41.29,25.45,24.53,49.74,50.24,74.86,75.1,11.48,11.35,23.73,21.92,35.74,32.73q29.79,26.83,59.65,53.58c.09-2.23.22-4.46.22-6.71,0-.57,0-1.13-.06-1.7q-47.12-51.2-94.57-102.08c-7.81-8.35-17.36-15.12-24.9-23.68-20.79-23.64-41.25-47.58-61.74-71.49a324.86,324.86,0,0,0-49.62-9C1711.84,2220.05,1716.05,2224.11,1720.39,2228Z"/><path class="cls-2" d="M1784.06,2238.11c19.79,17.68,37.69,37.46,56.76,56,17.41,16.88,35.38,33.19,53,49.87q19.59,18.57,39.1,37.21a175,175,0,0,0-9.73-27.36q-46.07-49-91.9-98.19a290.15,290.15,0,0,0-57.08-25.55C1777.58,2232.63,1780.9,2235.28,1784.06,2238.11Z"/><path class="cls-2" d="M282.36,2345c31.52,31.23,62.74,62.76,94.44,93.8,22.77,22.32,46.24,43.93,69.19,66.06,32.1,31,64,62.12,96,93.15q24.91,24.14,50,48.12,5.61,1.05,11.32,2.09c-9.24-9.26-18.5-18.5-27.65-27.85-23.75-24.27-47-49-70.48-73.58-44.45-46.5-88.69-93.2-133.39-139.46-48.77-50.49-97.93-100.59-146.81-151a190.58,190.58,0,0,0-7,27q14.79,14,29.58,27.95Q265.11,2328,282.36,2345Z"/><path class="cls-2" d="M152.43,2406.45c29.29,28.26,59,56.06,88,84.68,42.88,42.4,85.33,85.22,128.09,127.74,2.63-.74,5.19-1.54,7.77-2.32-20.3-20.27-40.58-40.57-60.62-61.09-25.8-26.4-50.2-54.16-75.91-80.65-26.36-27.15-54.12-53-80.29-80.3-7.75-8.1-15.42-16.29-23.15-24.42q-8.26,2.38-16.16,5.09Q136.27,2390.83,152.43,2406.45Z"/><path class="cls-2" d="M243.58,2532.25q-70.25-70.92-139.42-142.93c-1.87-1.94-3.69-3.94-5.55-5.9-3.93,1.68-7.79,3.4-11.53,5.19q36.36,35.23,72.71,70.5c34.1,33,68.71,65.52,102.28,99.07,22.78,22.76,45,46.11,67.33,69.32,3.29-.56,6.55-1.14,9.78-1.77-5.71-5.77-11.37-11.57-17.08-17.32C296.39,2582.56,269.24,2558.15,243.58,2532.25Z"/><path class="cls-2" d="M458,2449.75c-37.24-38.41-73.08-78.18-110-116.89-32.17-33.7-65.09-66.66-97.49-100.14q-5.08-5.25-10-10.72a206.28,206.28,0,0,0-11.83,24.42q39.59,37.42,78.92,75.1c25.28,24.32,49.37,49.87,74.61,74.23,51.5,49.7,103.9,98.46,155,148.54,37.66,36.89,74.87,74.24,112.09,111.57,4.68.72,9.39,1.43,14.16,2.13q-36.63-37.59-73.38-75.06C546.11,2538.44,501.48,2494.64,458,2449.75Z"/><path class="cls-2" d="M37.67,2420.71q-4.05,3.61-7.7,7.37l63.84,57.44-.49-.51.32.23c-4.75-7.45-8.57-15.78-14.52-22.09C65.55,2448.77,51.63,2434.72,37.67,2420.71Z"/><path class="cls-2" d="M156.17,2547.55c-13.86-15.52-27.36-31.39-41.75-46.4-6-6.22-13.77-10.69-20.78-15.91l.13.22Z"/><path class="cls-2" d="M405.53,2510.6c22.48,21.46,42.93,45,65,67,18.69,18.6,37.92,36.65,57,54.87q8.38,2,17,3.94c-22.57-23.72-45.11-47.46-67.95-70.93-25.33-26-51.86-50.9-77.17-77-38.66-39.78-76.65-80.21-115.09-120.21-22.72-23.64-45.61-47.13-68.43-70.68a187.32,187.32,0,0,0-1.13,19.75c0,4.58.38,9.09.72,13.61,19.9,19.4,39.77,38.85,59.82,58.1C318.14,2430.18,362.58,2469.61,405.53,2510.6Z"/><path class="cls-2" d="M772.62,2628c1.67,4.6,2.17,10.38,5.32,13.48,11.47,11.29,23.23,22.27,35,33.27q7,.57,14.07,1.11c-11.43-11.45-22.86-22.91-34.58-34.07-5.68-5.41-12.88-9.22-19.43-13.71a2.09,2.09,0,0,0,0,.25Z"/><path class="cls-2" d="M354.52,2319.85c36.87,35.76,72.58,72.71,109.2,108.73,36.27,35.67,73.23,70.63,109.51,106.27,32.09,31.51,63.46,63.76,95.55,95.27,11.36,11.17,22.85,22.21,34.31,33.27q9,1.14,18.15,2.22c-30.38-30.63-61.18-60.86-91.27-91.76-45.72-47-90.57-94.78-136.2-141.83-33.51-34.56-68-68.2-101.46-102.77-30.32-31.29-60.09-63.13-89.73-95.06C291.29,2222,281,2209,271.11,2197.28c1.34.78,4.76,2,7.11,4.27,51.72,50.32,103,101.06,155,151.12,71.64,69,143.95,137.32,215.6,206.31q49.63,47.79,97.76,97.12c4.39,4.5,8.61,9.17,12.94,13.73,4.47.45,8.91.92,13.43,1.36q-32.61-32.58-65-65.4c-35.2-35.91-68.75-73.43-103.77-109.52-40.1-41.33-81.31-81.58-121.46-122.84-49-50.34-97.38-101.23-146-151.95-1.4-1.45-2-3.67.08-8.67,14,12.83,28.35,25.37,42.06,38.55,22.84,22,45.17,44.43,67.91,66.48q46.55,45.1,93.38,89.9c25.29,24.25,50.78,48.28,76,72.61,22.17,21.4,43.74,43.45,66.18,64.57,29.77,28,60.12,55.41,90.23,83.07l-.06-.2.43.28c0-3,1.07-7-.42-8.56-27-27.7-54.51-54.92-81.56-82.58-22.81-23.32-45.13-47.11-67.75-70.61-23-23.88-46.13-47.59-69.09-71.48-42-43.7-83.24-88.17-126.21-130.91-19-18.91-41.45-34.36-62.33-51.39l8.28-9c2.57,1.26,5.66,2,7.64,3.85q71.57,68.15,142.86,136.57,70,67.57,139.26,135.84c34.27,33.8,67.65,68.51,102,102.21,25.39,24.89,52.17,48.37,77.59,73.23,7.92,7.75,15.72,15.61,23.59,23.41,3.73.24,7.5.45,11.25.67-17.6-17.23-35.29-34.38-52.15-52.3-33.27-35.34-64.44-72.67-98-107.69C676.36,2465.54,623.45,2413,571.13,2360c-29.53-30-59.18-59.8-88.43-90-18.28-18.9-35.92-38.43-53.84-57.67l3-3c11.46,11.29,22.83,22.66,34.39,33.83q45.3,43.74,90.74,87.34c30.81,29.65,61.74,59.19,92.37,89,19.7,19.19,39,38.83,58.42,58.27,25.41,25.39,50.39,51.21,76.3,76.07,35.83,34.36,72.74,67.61,108.49,102,8.73,8.42,17.28,17,25.9,25.55,5.58.25,11.18.5,16.81.72-2.3-2.39-4.54-4.85-6.88-7.22-17.82-18-36.73-35-54.28-53.2-22.18-23.06-43-47.43-65.26-70.38-20.67-21.29-42.92-41-63.68-62.25-24.63-25.13-48-51.45-72.64-76.62-42.85-43.82-86.32-87-129.29-130.75-15.4-15.66-30.1-32-42.78-50.85,5.94,4.42,12.49,8.22,17.72,13.36q88.74,87.16,177.11,174.7c21.12,20.85,42.06,41.9,63.44,62.49,33.31,32.07,67.17,63.59,100.33,95.82,18.2,17.7,35,36.81,53.25,54.49s37.18,34.22,55.58,51.54q8.18.24,16.41.45-21.31-22.75-42.91-45.23c-23-23.81-47.91-45.83-70.71-69.84-12.06-12.7-20.28-29-32.32-41.74C824.73,2512.5,808,2501.07,794,2487c-25.41-25.36-49.72-51.83-74.72-77.6-16.93-17.45-34.37-34.4-51.38-51.77q-56.24-57.4-112.25-115c-4.09-4.19-8-8.59-9.54-15.4,7.46,6.88,15.17,13.53,22.36,20.68,40,39.74,79.38,80,119.8,119.29,31.83,30.91,65.3,60.11,97.16,91,20.88,20.24,39.49,42.82,60.35,63.09,26.91,26.14,55.37,50.7,82.57,76.56,24.3,23.09,47.61,47.22,71.69,70.55,5.52,5.34,11.08,10.63,16.6,16q9.36.14,18.78.22c-15.79-17.12-31.63-34.19-47.74-51-12.66-13.22-27.26-24.56-40.86-36.89-18.87-17.11-32.75-38.91-54.2-54-11.44-8-17.89-22.79-27.93-33.23-44.93-46.68-90.43-92.81-135.53-139.32-29.49-30.42-58.65-61.16-85.72-94l422.84,408.54c5.52,0,11-.07,16.46-.1-14-15.6-27.89-31.22-42.1-46.58-15.89-17.2-32.67-33.59-49.13-50.25-15.22-15.41-30.68-30.58-45.8-46.09q-52.54-53.91-104.83-108.05c-24-24.89-47.82-50-71.86-74.9-5.58-5.77-11.74-11-17.64-16.45,1.23-1.4,2.47-2.79,3.7-4.18,13.06,12.45,26,25,39.2,37.33,18.11,16.92,36.81,33.24,54.43,50.65,13.29,13.13,24.57,28.32,38,41.27,27.59,26.57,56.46,51.8,84,78.4,30.4,29.37,59.62,60,89.92,89.44,15,14.57,31.86,27.19,46.77,41.82,2.44,2.39,4.76,4.88,7.17,7.29,5.56-.08,11.08-.19,16.61-.3q-26-26.52-52-53.1c-27.81-28.61-55.64-57.21-82.94-86.31-22.7-24.2-44.22-49.52-67-73.61-19.13-20.2-39.48-39.24-59.09-59a21.31,21.31,0,0,1-6.41-14.57c14.91,13.92,30,27.66,44.68,41.8,22.81,22,45.24,44.28,68,66.22,12.36,11.89,25.23,23.24,37.77,34.94,34.61,32.27,69.43,64.31,103.63,97,15.53,14.84,30.3,30.46,45.32,45.83,3.91-.11,7.83-.23,11.72-.36-8.88-9-17.78-18.06-26.55-27.2-17.56-18.28-34.22-37.43-51.73-55.76-22.78-23.84-46.36-46.91-68.93-70.93-21.12-22.49-40.58-46.57-62.24-68.51-21.27-21.56-44.39-41.3-66.69-61.84l4.11-5.69c3.33,1.44,7.5,2.06,9.85,4.46,15.41,15.71,30.05,32.19,45.73,47.63,8.79,8.65,19.58,15.24,28.58,23.71,18.59,17.5,36.31,35.93,54.89,53.45,29.57,27.89,59.79,55.1,89.3,83,26.62,25.21,52.9,50.76,79.26,76.24,4.08-.19,8.2-.34,12.25-.53-9.48-10.19-19-20.36-28.65-30.35-23.77-24.5-48.34-48.24-71.91-72.93-26.46-27.71-52-56.26-78.28-84.19-24.39-26-49.16-51.61-73.65-77.49-1.25-1.32-1.44-3.65.45-7.64,4.08,3.67,8.25,7.26,12.24,11,34.49,32.58,68.71,65.46,103.5,97.72,26.72,24.78,54.43,48.49,81.17,73.25,17.53,16.22,34,33.58,51.17,50.18,13.34,12.9,26.84,25.63,40.29,38.42l9.59-.61c-12.31-13.74-24.21-27.88-37-41.14-18.36-19-37.86-36.9-56.94-55.19-19.3-18.5-39.77-35.91-57.78-55.58-19.09-20.85-35.72-43.94-53.75-65.78-9.4-11.38-19.45-22.22-29.22-33.28-.39-.07-.81-.11-1.19-.2l0,0c0-.24.11-.53.16-.79-14.09-11.07-27-23.13-38.3-40.81,15.1,12.95,27.28,23.14,39,33.83,1,.94-.19,4.35-.71,7l.36.29c.21.25.43.48.64.73,3.71.65,8,.63,10.41,2.76,33,29.38,66.12,58.71,98.28,89,15.31,14.42,28.26,31.3,43,46.33,13.09,13.32,27.35,25.49,40.83,38.44,8.12,7.8,15.44,16.42,23.62,24.15q25.47,24,51,48c5.42-.41,10.71-.88,16.08-1.32q-28-29.07-56.15-57.93c-30.9-31.59-63-62.07-93.48-94-39.33-41.17-77.64-83.3-116.39-125l3.68-4.1c10.16,8.88,20.53,17.53,30.41,26.7,22.08,20.49,44.2,41,65.78,62,25.24,24.58,49.51,50.16,75,74.53,34.55,33.09,70.23,65,104.6,98.26,5.72,5.54,11.3,11.23,16.81,17,4.54-.42,9-.86,13.53-1.3-17.92-19.84-35.41-40.08-54-59.26-24-24.79-50.22-47.47-74.12-72.37-22-22.95-41.9-48-63.45-71.41-14.45-15.72-30.26-30.19-45.29-45.38-3.7-3.73-6.85-8-10.2-12.06-.33-.1-.68-.17-1-.27l0,0c-.1-.42-.26-.76-.37-1.17l-39.4-39.57c17.54,9,34.21,18.75,39.4,39.57l.75.75.59.73c3.73,1.06,8,1.52,10.69,3.8,17.78,14.9,35.88,29.55,52.5,45.69,33.45,32.47,65.6,66.26,99.1,98.67,19.49,18.87,41.2,35.45,60.73,54.28,18.24,17.58,34.94,36.75,52.47,55.07,5.68-.62,11.45-1.22,17.06-1.88-20.75-22.59-41.37-45.3-62.68-67.34-19-19.63-40.09-37.17-59.27-56.6-12.89-13.08-23.55-28.35-36.16-41.74-17.9-19-36.8-37.07-55-55.76-13.85-14.2-27.35-28.74-41-43.13l4.06-4.11c14.93,14.21,29.76,28.52,44.8,42.62,24.82,23.26,50.32,45.82,74.47,69.75,16.11,16,29.61,34.55,45.66,50.57,15.88,15.86,33.6,29.86,50.34,44.87q19.89,17.82,39.35,36.14c7.49,7.07,14.88,14.26,22.32,21.39,5.85-.76,11.62-1.54,17.36-2.33-4.06-4.3-8.2-8.53-12.22-12.87-15.4-16.57-29.3-34.55-44.7-51.13-9.2-9.91-20.19-18.14-30-27.48s-19.51-19.36-29.26-29c-8.75-8.69-18-16.94-26.17-26.15-7.83-8.83-13.7-19.48-22-27.81-10.19-10.29-22.6-18.37-32.86-28.6a121.28,121.28,0,0,1-24.62-34.72l245.78,234.4c6.78-1,13.37-2.09,20-3.15-8.32-8.54-16.69-17-25-25.59q-19.57-20.27-39-40.66-28.41-30-56.59-60.2c-4.43-4.77-8.13-10.22-9.74-17.73,14,12.06,28.06,24,41.84,36.22,14.37,12.8,28.62,25.74,42.58,39,22.82,21.66,45.48,43.5,68.24,65.23,6.12-1.07,12.31-2.12,18.28-3.23-11.16-11.87-22.18-23.87-33.38-35.7-14.77-15.62-31.15-29.76-45.52-45.73-20.11-22.33-39-45.73-57.65-69.87,10.16,8.21,20.66,16,30.43,24.7,23.84,21.12,47.72,42.22,70.84,64.11,14,13.24,26,28.56,40,41.83,5.85,5.54,11.86,10.92,17.92,16.25,5.35-1.08,10.57-2.19,15.78-3.3q-20-21.06-39.69-42.38c-16.11-17.49-30.94-36.17-47.06-53.65-18.27-19.8-37.34-38.86-56.06-58.24l3.18-3.66c11.29,9.6,23,18.71,33.76,28.93,21.83,20.8,42.44,42.91,64.75,63.17s46,39.65,68.81,59.59c4.23-1,8.51-2,12.63-3-3.67-3.94-7.36-7.87-11-11.82q-67.08-72.21-134-144.54c-12.12-13-24.81-25.53-37.24-38.27l3.68-3.7c31.85,30.58,62.08,63.14,96,91.17,32.52,26.84,60.67,57.8,91.27,86.38q12.75,11.91,25.46,23.86,7.64.57,15.38.77l-194.87-207.81q2.22-2.25,4.43-4.51c5.53,5.41,10.89,11,16.61,16.17,26.92,24.37,54.32,48.21,80.81,73,28.67,26.85,56.25,54.85,84.8,81.82,14.47,13.67,29.18,27.09,43.91,40.48,4-.31,8-.72,12-1.17q-27.39-29.4-55.17-58.42c-22.08-22.93-45.51-44.56-68-67.16-7.72-7.77-14-17-21.41-25.06-22.49-24.33-45.3-48.35-67.86-72.61-9.84-10.58-19.36-21.44-29-32.17l3.38-3,269.46,253.27c2.49-.54,5-1.08,7.45-1.67L1477,2335.14l1.18-2.19c4.44,3,9.36,5.5,13.25,9.09,46.87,43.31,93.84,86.52,140.26,130.31,24.63,23.24,48,47.84,72.39,71.32,25.24,24.27,50.78,48.23,76.31,72.2,2.44-.86,4.89-1.69,7.29-2.6-1.61-2-3.25-4-5-5.92-21.66-23.17-44-45.67-66.23-68.34s-44.94-44.83-66.63-68c-14.53-15.51-27.45-32.52-41.44-48.55-8.53-9.79-17.52-19.19-26.65-28.43-24-24.34-48.25-48.47-72.3-72.79-1-1-1-3,1.81-7.8l300.59,282.25,2.21-2.16-282.17-300,2.58-3c10.6,8.63,21.72,16.7,31.72,26q63.22,58.68,125.89,118c30.5,28.81,60.64,58,91.08,86.88,21.39,20.29,42.92,40.42,64.42,60.6,1.11-.77,2.26-1.52,3.36-2.31-26.2-26.48-53.18-52.22-78.76-79.3-32.26-34.16-62.94-69.82-95-104.18-33.23-35.59-67.3-70.38-100.95-105.58-1.09-1.14-1.52-2.9-.57-7.54,4.72,2.54,10.17,4.27,14.05,7.75,18,16.21,35.72,32.81,53.36,49.46,23.91,22.56,47.57,45.41,71.53,67.93,34.15,32.1,68.56,63.92,102.7,96.05,9.88,9.3,19.28,19.12,28.89,28.71-4.75-8-8.83-16.55-15-23.18-23.58-25.27-48.07-49.71-72.18-74.49-22.16-22.78-44.59-45.3-66.33-68.47-36.17-38.56-71.94-77.49-107.73-116.41-5.75-6.25-11.25-12.73-16.73-19.23-3.2,1.09-6.41,2.17-9.55,3.35.49-4.44.8-8.93,1-13.43l-.47-.54.5-.47c.07-2,.19-3.94.19-5.92,0-128.18-131.93-233-298.64-241-71-88.81-196.66-147.89-340-147.89-195.31,0-357.94,109.65-393.82,254.86-2.48,0-5-.15-7.44-.15-121.56,0-226.49,55.29-275.57,135.29C281.23,2250,318.17,2284.62,354.52,2319.85Zm920.34,98.41,74.24,72.68c-1.91,1.92-3.81,3.84-5.72,5.75l-73.28-73.64C1271.69,2421.45,1273.27,2419.85,1274.86,2418.26Z"/><path class="cls-2" d="M1.1,2495.51c12.69,11.14,21.88,19.22,31.07,27.3-8.39-16.18-26.78-27.94-30.25-45.83A78.58,78.58,0,0,0,0,2494a79.38,79.38,0,0,0,3.42,22.81C2.7,2510.17,2,2503.27,1.1,2495.51Z"/><path class="cls-2" d="M1877.26,2558c-8.29-7.86-16.53-15.78-24.89-23.57-.63-.59-2.58.23-4.19.68q12.3,13.5,24.55,27C1874.25,2560.74,1875.79,2559.38,1877.26,2558Z"/><path class="cls-2" d="M1897.73,2535.63c.86-1.08,1.76-2.15,2.6-3.25L1603,2221.61q-13.9,3-27.16,7.11C1682.51,2330.43,1789.35,2432.29,1897.73,2535.63Z"/><path class="cls-2" d="M1918.28,2504.31c.2-.38.38-.77.58-1.15L1652.13,2221.6,1656,2217c8.06,5.91,16.54,11.33,24.1,17.81,25.59,21.94,51.72,43.35,76,66.7,21,20.22,38.9,43.67,59.76,64.07,18.32,17.92,39,33.44,58.33,50.31,11.57,10.08,22.64,20.71,33.93,31.1-.08-.08-.15-.17-.22-.25l.13.07c-11.45-13.84-22.44-28.08-34.5-41.35-15.08-16.61-31.19-32.27-46.61-48.57-13-13.79-25.61-28-38.61-41.86-21.81-23.2-43.9-46.13-65.66-69.37-9.46-10.11-18.73-20.41-28.06-30.64-7.18-.47-14.43-.76-21.76-.76a334,334,0,0,0-61.26,5.65C1717.33,2310.79,1816,2409.31,1918.28,2504.31Z"/><path class="cls-2" d="M1908.14,2446.94c7.67,8.58,15,17.49,23.11,25.61.58-1.93,1.18-3.86,1.7-5.81-4.57-4.53-9-9.15-13.64-13.64-3-2.92-7.45-4.29-11.26-6.34l.36.44Z"/></g><g class="cls-4"><polygon class="cls-2" points="4898.69 2338.05 4898.69 2338.05 4898.69 2338.06 4898.69 2338.05"/><path class="cls-2" d="M4914.82,2387.26q-23.53-23.91-47.44-47.45c-1.72-1.68-4.1-2.69-6.42-3.77.2.77.49,1.51.71,2.27,5.13,5.86,10.15,11.83,15.7,17.26,13,12.7,26.36,25,39.58,37.41C4916.27,2391.05,4916.12,2388.59,4914.82,2387.26Z"/><path class="cls-2" d="M4861.7,2294.68a78,78,0,0,0-1.9,8.44l38.89,34.93-.18-.22-.17-.23.2.19c-2.12-3.51-3.8-7.42-6.52-10.38C4882,2316.46,4871.79,2305.6,4861.7,2294.68Z"/><path class="cls-2" d="M4935.05,2370.92c-12-11.22-24.31-22.12-36.51-33.13l0,0,42.17,41.93C4938.87,2376.78,4937.53,2373.24,4935.05,2370.92Z"/><path class="cls-2" d="M6755,2196.4c-11.21-30.61-39.28-55.5-75.68-68.16,13.59,12.22,27.26,24.35,40.79,36.64C6731.74,2175.42,6743.42,2185.87,6755,2196.4Z"/><path class="cls-2" d="M5288.17,2387.55c1,0,2.07,0,3.11.06-2.23-2.44-4.41-4.93-6.69-7.31-4.53-4.72-10.45-8.11-15.77-12.07a1,1,0,0,1,.1.17Z"/><path class="cls-2" d="M5075.06,2222.57c6.62,6,12.33,13.09,18.87,19.24,23.71,22.31,47.59,44.43,71.4,66.63l37,35.25c0-.06,0-.11.07-.17l45.82,42.74,5.67.25c-7.61-7.92-15.2-15.88-22.91-23.7-8.17-8.29-18.21-15.23-24.53-24.7-5.11-7.65-42.46-36.31-45.17-45.56,1.38-.83-47.41-56.84-46-57.67,22.32,20.08,131.37,113.47,153.69,133.56l-.37-.38.24.17c-3.6-5.65-6.5-12-11-16.76-15.15-16.06-30.87-31.57-46.42-47.25-12.67-12.76-87.75-81.3-85-101.55,17.9,16.74,110.62,101.41,127.8,118q34.4,33.23,68.33,66.92c2.62,0,5.26,0,7.86-.07-14.82-15.23-29.57-30.54-44.46-45.7-21.76-22.16-44.94-43-65.33-66.38-9-10.25-93-78-86-97.92,10.44,9.15,87.75,77.44,97.57,86.84,29.1,27.85,57.88,56,86.82,84,13.22,12.8,26.53,25.5,39.79,38.25,2.2-.09,4.36-.2,6.54-.3q-44.55-45.18-88.53-90.9c-23.53-24.5-46.5-49.53-69.31-74.7-4-4.43-6-10.69-8.95-16.11l2.79-2c9.74,8.54,19.81,16.73,29.17,25.67,27.78,26.55,55.26,53.42,82.92,80.11,22.22,21.44,44.79,42.54,66.75,64.25,4.06,4,8.07,8.06,12.12,12.08,3.24-.22,6.48-.46,9.69-.71-7.39-8-14.76-16-22.32-23.75-20-20.61-41.06-40.19-60.92-60.93-38.88-40.6-77.27-81.67-115.73-122.67-1.78-1.9-2.27-5-1.36-8.87,21.93,20.11,44.26,39.81,65.71,60.42,38.54,37,76.51,74.67,114.83,111.94q21.55,21,43.31,41.72c3.69-.37,7.38-.75,11-1.16-17.35-17.83-34.73-35.63-51.93-53.6-34.53-36.06-68.8-72.37-103.35-108.41-21.7-22.65-43.71-45-63.74-69.82,2.18,1.37,4.64,2.43,6.5,4.15,26,24.1,52.23,47.94,77.73,72.54,24.87,24,48.72,49,73.45,73.12,27.31,26.64,54.95,52.95,82.43,79.41,3.78-.51,7.45-1.07,11.15-1.62l-1.62-1.68c-23.75-24.78-46.71-50.33-70.6-75-29.31-30.22-59.57-59.53-88.76-89.85a742.09,742.09,0,0,1-57.62-67.1c6.61,6.34,13.28,12.62,19.84,19,45.53,44.46,90.75,89.24,136.66,133.3,27.45,26.35,55.73,51.82,83.5,77.83,3.73-.66,7.41-1.32,11-2l-.36-.36c-29.34-30.19-58.16-60.86-87.33-91.21-23.25-24.2-46.8-48.13-70-72.36-19.63-20.47-39-41.18-58.48-61.79l2.2-2.37c10.67,10.18,21.3,20.41,32,30.55q33.17,31.38,66.37,62.71,13.35,12.66,26.45,25.58c23.91,23.7,47.6,47.62,71.65,71.18,11.82,11.57,23.85,22.92,35.86,34.29,4.48-1,8.92-2,13.21-3q-26.37-27.64-52.86-55.14c-39.94-41.35-80.25-82.33-120.24-123.63-12.73-13.15-25-26.79-35.88-41.93a45.88,45.88,0,0,1,5.73,4c33.93,32.09,68,64.07,101.64,96.44,19.18,18.45,37.46,37.84,56.61,56.32,20.62,19.9,41.42,39.63,62.19,59.39,3.56-1,7.09-2,10.48-3.06-5-5.13-10.15-10.19-15.16-15.36-28.25-29.14-55.45-59.32-83.48-88.69-24.4-25.57-49.38-50.58-74-76-8.92-9.22-17.43-18.84-24.66-30.16,1.6.83,3.51,1.33,4.77,2.52,33,31.18,66.25,62.14,98.86,93.75,28,27.13,55.07,55.17,82.86,82.5,8.89,8.75,17.88,17.4,26.85,26.07,4.71-1.69,9.18-3.43,13.46-5.2-5.84-6.08-11.65-12.21-17.52-18.26-25.42-26.22-51.57-51.75-77-78-23-23.74-45.59-47.9-68.08-72.13-8.57-9.22-16.37-19.15-23.88-28,1,.59,3.61,1.5,5.4,3.23,39.24,38.19,78.17,76.69,117.61,114.67q39.24,37.8,78.73,75.34,10,1.8,20.47,2.72c-20.59-20.72-41.26-41.37-61.63-62.31-37.16-38.19-73.89-76.81-110.75-115.29-1.05-1.1-1.51-2.78.06-6.58,10.66,9.73,21.52,19.25,31.92,29.25,17.33,16.66,34.27,33.71,51.53,50.44q35.31,34.23,70.85,68.22,19.42,18.62,38.9,37.17c5.55,0,11-.27,16.43-.67q-22.36-23.16-44.75-46.29c-31.87-33.16-63.16-66.9-95.76-99.33-14.42-14.35-31.45-26.07-47.3-39q3.15-3.42,6.29-6.85c2,1,4.3,1.49,5.8,2.92q54.3,51.71,108.39,103.63,42.7,41.22,85,82.89,8.76-1.34,17.19-3.3-33.33-33.74-66.72-67.43c-22.41-22.74-44.9-45.38-67.1-68.32-13.87-14.34-27.25-29.16-40.84-43.77l2.27-2.26c8.7,8.56,17.32,17.19,26.1,25.67q34.36,33.18,68.85,66.26c23.37,22.5,46.84,44.91,70.08,67.55,6.49,6.33,12.9,12.73,19.31,19.14,5.55-1.64,11-3.45,16.24-5.49-6-6.35-11.88-12.73-18-19-32.51-33.25-65.49-66-98.09-99.21-11.69-11.88-22.84-24.28-32.46-38.58,4.5,3.36,9.48,6.24,13.45,10.14q67.32,66.14,134.38,132.55,5.08,5,10.14,10c5.34-2.4,10.55-4.94,15.49-7.74.71.24,1.48.4,2.2.62-3.23-3.37-6.43-6.77-9.68-10.12-12.84-13.24-26.08-26.1-39-39.28q-42.67-43.56-85.17-87.29c-3.1-3.18-6.06-6.52-7.24-11.69,5.66,5.22,11.51,10.27,17,15.7,30.32,30.15,60.23,60.72,90.9,90.51,16.25,15.78,33.05,31,49.67,46.37a185.5,185.5,0,0,0,27.86,3.58q-23.28-23.84-46.51-47.72c-22.38-23.07-44.5-46.4-65-71.31L5809.49,2329a190.83,190.83,0,0,0,24.45-1.78c-17.62-18.27-35.07-36.69-52.7-54.93-4.24-4.39-8.92-8.34-13.39-12.49.94-1.06,1.87-2.12,2.81-3.17,9.91,9.44,19.74,19,29.74,28.32,13.74,12.84,27.93,25.22,41.3,38.43,2.51,2.48,4.92,5.06,7.29,7.68,11,3.11,23,5.79,35.65,8-8.9-8.79-17.86-17.53-26.67-26.42a16.11,16.11,0,0,1-4.86-11.05c11.31,10.56,22.75,21,33.9,31.72,2.54,2.45,5.06,4.93,7.59,7.39,9.79,1.51,20,2.72,30.51,3.67-14.7-14.41-30.29-27.93-45.44-41.88l3.12-4.32c2.53,1.1,5.69,1.57,7.48,3.39,11.69,11.92,22.8,24.43,34.69,36.14a100,100,0,0,0,8.73,7.42c9.6.71,19.48,1.11,29.52,1.32q-14.67-15.37-29.3-30.78c-.95-1-1.09-2.77.34-5.79,3.1,2.79,6.26,5.5,9.29,8.36q15,14.16,29.92,28.38c.44,0,.86,0,1.3,0,9,0,17.89-.23,26.6-.64-6.24-7.34-12.73-14.48-19.11-21.7-.3-.06-.61-.09-.9-.15l0,0c0-.18.09-.4.12-.59-10.69-8.4-20.47-17.55-29.06-31,11.46,9.83,20.7,17.56,29.6,25.67.78.71-.14,3.3-.54,5.3.1.07.18.15.27.22s.33.36.49.55c2.82.49,6.09.48,7.9,2.09q10.69,9.51,21.34,19c7.61-.49,15.08-1.13,22.36-1.93q-19.24-20.82-38.5-41.65l2.79-3.11c7.71,6.74,15.58,13.3,23.08,20.26q12.38,11.51,24.73,23,11.79-1.58,22.81-3.65c-6-5.94-12.14-11.82-18.1-17.84-2.8-2.83-5.2-6.06-7.74-9.15-.25-.07-.52-.13-.76-.21l.14-.15-.12.12c-.07-.31-.19-.57-.27-.88l-29.9-30c13.31,6.8,26,14.23,29.9,30l.56.57c.16.18.3.37.45.55,2.83.81,6.05,1.16,8.11,2.88,8.85,7.41,17.77,14.77,26.43,22.39q10.64-2.23,20.39-4.91c-8.65-9-17.21-18.09-25.8-27.15l3.08-3.11c9.9,9.43,19.77,18.89,29.72,28.28a242.23,242.23,0,0,0,25.32-9.05.31.31,0,0,0-.05-.1l.09.08c1.73-.74,3.48-1.48,5.13-2.24q11.73-.89,23.06-2.05c-.1,1-.18,2-.18,3.06,0,21.27,21.25,40.41,55.12,53.69L6161.47,2321l3.61-3.63,56.33,55.14-2.63,2.65a276,276,0,0,0,49.43,12.38c-3.06-3.88-6.17-7.67-9.2-11.6,5.2,4.2,10.46,8.34,15.64,12.55,10.2,1.44,20.82,2.46,31.78,3-7.67-7.91-15.38-15.77-23-23.69l2.41-2.78c8.56,7.29,17.49,14.2,25.61,22,1.7,1.62,3.36,3.28,5,4.92,3.52.09,7.06.16,10.64.16,5.18,0,10.31-.11,15.37-.3q-15.09-16.29-30.19-32.57c-9.2-9.88-18.83-19.37-28.26-29l2.79-2.81c22.19,21.3,43.44,43.75,66.69,63.76,7-.47,13.87-1.1,20.55-1.93l-62-66.11,3.36-3.42c4.19,4.1,8.26,8.34,12.6,12.27,20.3,18.37,40.95,36.36,60.94,55.06,4.8-.81,9.48-1.73,14.06-2.72-.1-.11-.21-.21-.32-.31-5.85-5.9-10.59-12.9-16.24-19-17.07-18.45-34.38-36.68-51.49-55.09-7.46-8-14.69-16.27-22-24.41l2.56-2.29,103.37,97.16q7.37-2.05,14.19-4.42l-114.65-121.61.9-1.66c3.37,2.28,7.1,4.17,10.05,6.9,35.56,32.86,71.2,65.64,106.42,98.87,6.36,6,12.53,12.2,18.73,18.36,4,.34,8.09.64,12.24.64.71,0,1.41,0,2.12-.06-6.5-6.6-13-13.19-19.34-19.95-11-11.76-20.82-24.67-31.44-36.83-6.47-7.43-13.3-14.56-20.22-21.57-18.23-18.47-36.61-36.78-54.86-55.23-.76-.77-.75-2.29,1.37-5.92L6491,2375.5q5.46-.87,10.74-2.13l-141.64-150.59,2-2.25c8,6.55,16.48,12.67,24.07,19.71q48,44.52,95.52,89.52,19.77,18.66,39.38,37.52c2.4-1,4.75-2,7.05-3-19.33-21.1-38.21-42.63-57.74-63.55-25.21-27-51.07-53.41-76.6-80.12-.82-.86-1.15-2.19-.43-5.71,3.58,1.92,7.72,3.23,10.66,5.87,13.68,12.31,27.1,24.9,40.49,37.53,18.14,17.12,36.09,34.46,54.27,51.55q23.6,22.17,47.31,44.24,2.88-2,5.6-4.06-9.62-9.81-19.22-19.63c-16.81-17.29-33.83-34.37-50.33-52-27.44-29.26-54.58-58.8-81.74-88.33-6.74-7.33-13-15.09-19.53-22.65l3.12-2.95,181.39,173c1.76-1.93,3.45-3.89,5-5.92l-158.69-165.86c1.18-1.17,2.35-2.35,3.52-3.52,63.33,54.08,123.19,111.89,183.58,169.26,2.66.41,5.4.66,8.12.95l-155.51-164.16,3-3.52c6.11,4.48,12.54,8.59,18.28,13.51,19.42,16.64,39.24,32.89,57.65,50.61,15.94,15.34,29.52,33.13,45.35,48.61,13.9,13.59,29.56,25.37,44.25,38.17,6.45,5.62,12.7,11.46,18.95,17.29.52-.05,1-.14,1.55-.19-6.87-8.45-13.68-17-21-25-11.44-12.59-23.67-24.47-35.36-36.84-9.9-10.47-19.44-21.27-29.3-31.77-16.54-17.6-33.31-35-49.82-52.63-12.48-13.34-24.76-26.87-37-40.42-1.58-1.75-2.43-4.15-1.79-8,12.34,11.72,24.46,23.67,37.07,35.09,11.81,10.7,24.67,20.28,36.13,31.33,19.3,18.61,37.73,38.12,56.8,57,8.71,8.61,18,16.63,27.11,24.84q22.93,20.66,45.93,41.25c1.57-.43,3.12-.88,4.67-1.36q-38.33-41.68-77-83.08c-5.93-6.33-13.18-11.47-18.89-18-19.43-22.09-38.47-44.52-57.65-66.84-.55-.38-1.13-.76-1.68-1.15l.37-.37-.37.37c-.09-.36-.26-.65-.37-1l-26.84-22.56,3.83-3.91c6.66,9.84,19.12,13.83,23,26.47l.74.63,1.31,1.52c10.54,7.34,21.68,14,31.18,22.48,15,13.42,28.6,28.43,43.07,42.47,13.21,12.82,26.84,25.19,40.2,37.85,19.63,18.61,39.13,37.37,58.8,55.94l1.1,1c2.12-1,4.28-2,6.33-3.07q-21.09-22.2-42.09-44.46-46.89-49.83-93.5-99.89c-6-6.45-12.21-12.77-18.33-19.15l3.25-3.7c8.8,7.07,18,13.66,26.29,21.33,8.09,7.51,15,16.26,22.72,24.18,11.94,12.27,24,24.46,36.3,36.34,3.77,3.64,9.1,5.65,12.86,9.28,22.2,21.4,43.88,43.33,66.3,64.49.59.56,1.23,1.07,1.84,1.63,2.3-1.68,4.53-3.39,6.67-5.19-.57-.66-1.08-1.38-1.66-2-15.27-17.19-31-33.95-46.89-50.58-16.26-17-33.15-33.48-49.32-50.59-15.59-16.51-30.59-33.58-45.93-50.33-8.49-9.27-17.15-18.38-25.74-27.57l2.32-2.4,180.56,170.56c1.75-2,3.34-4.14,4.92-6.25l-144-152.82,3.36-3.54,150,141.11a93,93,0,0,0,3.89-8.88l-140-149.39c2.74-.18,5.15-1.09,6.07-.29,11.84,10.35,23.61,20.79,35.08,31.53,5.48,5.14,10,11.34,15.47,16.43,23.75,21.94,48.06,43.27,71.5,65.53,5.68,5.4,11.2,11,16.8,16.45a86.59,86.59,0,0,0,.67-10.48c0-.3-.05-.59-.05-.89-2.68-2.78-5.39-5.53-8-8.31-14.43-15.06-27.58-31.35-41.72-46.69s-28.85-30.61-43.35-45.83a164.5,164.5,0,0,0-27.08-4.73,106.87,106.87,0,0,0-106.71-102c-.62,0-1.23.09-1.85.1a139.16,139.16,0,0,0-251.09,2.5c-14.51-11.77-32.17-18.74-51.26-18.74-1.84,0-3.63.19-5.44.31a123,123,0,0,0-231.06-81.19c-47.28,12.47-81.77,51.17-81.77,97a90.66,90.66,0,0,0,.72,11.11c-18.11-16.8-43.29-27.25-71.17-27.25-47,0-86.35,29.69-96.92,69.6a404.84,404.84,0,0,0-41.06-2.08c-42.27,0-81.31,6.41-112.93,17.23-19.76-75.68-117.33-133.19-234.81-133.19-127.55,0-231.72,67.78-238.2,153-37.06,17.78-64.28,49.83-72.62,87.95Q5059.52,2208.39,5075.06,2222.57Z"/><path class="cls-2" d="M4991,2356c-7.89-13.24-17.38-24.87-31.76-31.58l.05.06Z"/><path class="cls-2" d="M5031.29,2324.39l2.21-2.21-91.89-98c-4.31,1.17-8.49,2.53-12.57,4.06Z"/><path class="cls-2" d="M4953.69,2352.6c-26.37-28.06-53-55.88-79.41-83.91a94,94,0,0,0-5.23,8.31q18.87,18,37.78,35.94,32.7,30.89,65.59,61.56C4966.2,2367.18,4960.27,2359.59,4953.69,2352.6Z"/><path class="cls-2" d="M5052.36,2223.53c-3.54-3.64-7.25-7.12-10.9-10.66-.1,2-.23,4-.23,6.05,0,2.69.27,5.32.45,8,4.3,4.05,8.66,8.06,12.94,12.14,21.44,20.48,42.27,41.59,63.51,62.29,2,2,5,3,7.57,4.48-3.05-5-5.35-10.72-9.26-14.92Q5084.76,2256.86,5052.36,2223.53Z"/><path class="cls-2" d="M5021.11,2350.08l1.53-1.52L4915,2234.35c-3.55,1.81-7,3.75-10.28,5.83Z"/><path class="cls-2" d="M5004.15,2225.58c25.22,24.18,49.37,49.49,74.37,73.92,9.91,9.68,20.85,18.32,31.32,27.44-3.94-5.23-7.38-11-11.92-15.59-21.23-21.68-42.84-43-64.15-64.57q-12.21-12.37-24.13-25.05c-3.8-.74-7.66-1.37-11.6-1.82C5000.06,2221.82,5002.14,2223.66,5004.15,2225.58Z"/><path class="cls-2" d="M4934.91,2293.74c-13.62-15.33-27.65-30.3-41.78-45.16a109.17,109.17,0,0,0-8.9,8.24c14.52,14.26,29,28.54,43.83,42.51,9.79,9.24,20.94,17.05,31.47,25.51l-.37-.46,0,0C4951.15,2314.13,4943.55,2303.47,4934.91,2293.74Z"/><path class="cls-2" d="M5072.84,2326.94c-1.92-3.21-3.33-6.92-5.86-9.53-31.71-32.77-63.72-65.24-95.32-98.11-3.8.22-7.53.6-11.23,1.09,22.75,21.82,44.76,44.43,67.51,66.25C5042.45,2300.55,5057.85,2313.53,5072.84,2326.94Z"/></g></g></g></svg>