<svg xmlns="http://www.w3.org/2000/svg" viewBox="0 0 9513.02 1813.39"><defs><style>.cls-1{opacity:0.64;}.cls-2{fill:#fff;}</style></defs><title>nubes3</title><g id="Capa_2" data-name="Capa 2"><g id="nubes_3" data-name="nubes 3"><g class="cls-1"><path class="cls-2" d="M3447.59,441.18c13.49,13,27,25.92,40.44,39,8.63,8.4,17.06,17,25.58,25.51,7.36,7.36,14.68,14.77,22.06,22.11,3.18-.73,6.28-1.59,9.3-2.54-5-4.82-10.11-9.62-15-14.6-10.78-11-21-22.53-31.8-33.55-18.37-18.78-37-37.31-55.42-56a85.52,85.52,0,0,0-9.42,6.42Z"/><path class="cls-2" d="M3371.05,469.78c22.54,21.76,45.48,43.11,67.87,65,1.57,1.54,3.11,3.11,4.68,4.66,1.8-.29,3.6-.57,5.36-.89-15-15-30-30-44.73-45.16-16.3-16.81-32-34.22-48.17-51.17-.56-.59-1.14-1.17-1.71-1.77q-6,.43-11.71,1C3352.16,450.88,3361.43,460.51,3371.05,469.78Z"/><path class="cls-2" d="M3494.29,506.57c8,7.93,16,16,23.93,24,3.16-.3,6.29-.68,9.35-1.18-1.71-1.84-3.4-3.7-5.13-5.51-22.59-23.54-45.76-46.53-68.66-69.77q-11.84-12-23.65-24a68,68,0,0,0-7.07,7.15c3.42,3.29,6.85,6.56,10.26,9.85Q3464,476.68,3494.29,506.57Z"/><path class="cls-2" d="M3327.35,447.56c13.8,13.67,27.47,27.47,41.35,41.07,10,9.76,20.24,19.23,30.29,28.92q12.66,12.19,25.23,24.47c2-.21,3.91-.45,5.86-.68-1.72-1.81-3.44-3.63-5.17-5.44-19.46-20.35-38.83-40.8-58.4-61q-15.74-16.29-31.56-32.47-5.76.72-11.29,1.6C3324.88,445.18,3326.14,446.35,3327.35,447.56Z"/><path class="cls-2" d="M3473.51,506.82c8.31,8,16.45,16.19,24.77,24.19,2.22.11,4.43.25,6.69.25.32,0,.62,0,.93,0-9.86-10.09-19.51-20.38-29.3-30.55-10.06-10.45-20.19-20.83-30.25-31.29-9-9.41-18-18.91-27-28.36-5.06-.45-10.24-.79-15.48-1q18.16,17.56,36.41,35C3451.32,485.65,3462.48,496.17,3473.51,506.82Z"/><path class="cls-2" d="M4072.36,456.64c-2.14.71-4.24,1.5-6.29,2.34,4.3,4.2,8.59,8.42,13,12.55,5.65,5.33,12.08,9.84,18.16,14.72L4097,486h0c-4.64-5.92-9-12.07-14-17.69C4079.49,464.37,4075.93,460.5,4072.36,456.64Z"/><path class="cls-2" d="M3477.94,531.82c1.95-.58,3.91-1.15,5.76-1.77-5.11-5.45-10.23-10.9-15.44-16.26-17.55-18.1-35.59-35.72-53.18-53.78-6.55-6.74-13-13.52-19.57-20.29-4-.12-7.9-.27-12-.27l-1.93,0c3.93,3.81,7.83,7.65,11.78,11.45C3421.5,478,3449.8,504.81,3477.94,531.82Z"/><path class="cls-2" d="M4014.72,530.49c-.28-.26-1.14.1-1.84.3Q4023.46,542.37,4034,554l2.72-2.7C4029.38,544.34,4022.09,537.37,4014.72,530.49Z"/><path class="cls-2" d="M3381.28,520.06c7.86,7.51,15.17,15.59,22.71,23.45,2.49-.13,5-.23,7.43-.39-10.8-11-22.05-21.66-32.82-32.74-16.93-17.41-33.56-35.11-50.39-52.62-4-4.18-8.06-8.33-12.09-12.49q-6,1.1-11.63,2.38c6.59,6.4,13.14,12.84,19.77,19.2C3343,484.85,3362.47,502.12,3381.28,520.06Z"/><path class="cls-2" d="M3247.33,471.94q13.18,12.8,26.36,25.58c14,13.55,28.16,26.93,42,40.65,1.41.26,2.82.52,4.27.77-3.23-3.1-6.43-6.22-9.57-9.4q-29.84-30.1-59.2-60.67C3249.8,469.88,3248.53,470.9,3247.33,471.94Z"/><path class="cls-2" d="M3270.47,474.47c12.82,12.37,25.85,24.54,38.52,37.07q15.15,15,30.17,30.1c1.72.19,3.47.37,5.22.54-.82-.83-1.65-1.64-2.46-2.48-11.29-11.55-22-23.71-33.23-35.31-11.54-11.88-23.69-23.18-35.15-35.15-2.75-2.87-5.46-5.77-8.2-8.65-2.1,1-4.08,2.05-6,3.11Q3264.92,469.09,3270.47,474.47Z"/><path class="cls-2" d="M3359.16,512.79c-13.7-14.3-26.95-29-40.74-43.26-6.65-6.86-13.42-13.62-20.17-20.39-3.21.82-6.33,1.67-9.34,2.57,5.7,5.75,11.39,11.51,17.19,17.16,19.05,18.58,38.4,36.85,57.5,55.38q10.16,9.86,20.22,19.81c1.85,0,3.64-.07,5.47-.09Q3374.17,528.44,3359.16,512.79Z"/><path class="cls-2" d="M3310.15,492.79c13.63,13.26,27.48,26.28,41,39.6,3.74,3.68,7.43,7.41,11.14,11.13,2,.1,4,.2,6,.27q-8.55-8.74-17.09-17.51c-13.28-13.64-26.57-27.26-39.73-41q-14.94-15.6-29.8-31.26-4.26,1.46-8.18,3Q3291.83,474.92,3310.15,492.79Z"/><path class="cls-2" d="M3508.14,479.92c9.25,9.13,18.42,18.35,27.78,27.36,8.82,8.5,17.72,16.93,26.6,25.37a148.68,148.68,0,0,0,16.7,5.6,97.67,97.67,0,0,0-8.44-11c-6-6.3-13.29-11.31-19.45-17.45-11.12-11.11-21.77-22.7-32.71-34-7.41-7.64-15-15.06-22.5-22.66q-19.2-19.62-38.34-39.3A103.9,103.9,0,0,0,3446.4,419Q3477.3,449.44,3508.14,479.92Z"/><path class="cls-2" d="M3253.83,515.93c-2.62-2.73-6-4.68-9.1-7l.06.1,2.42,2.4a63.37,63.37,0,0,0,7.83,5.79C3254.63,516.82,3254.24,516.36,3253.83,515.93Z"/><path class="cls-2" d="M3254.6,493.72c-4.67-4.75-9.45-9.41-14.22-14.07a26.67,26.67,0,0,0-2.14,3.78q22.56,21.81,44.83,43.9c1.27,1.26,2.5,2.56,3.75,3.83q2.88.9,5.88,1.74Q3273.68,513.28,3254.6,493.72Z"/><path class="cls-2" d="M4115.32,504.22c-4.55-7.64-10-14.36-18.33-18.23l0,0Z"/><path class="cls-2" d="M3237.64,498.53a28.69,28.69,0,0,0,6.22,9.7l.94.85-.21-.22.14.1c-2.08-3.26-3.75-6.91-6.36-9.67C3238.13,499,3237.88,498.78,3237.64,498.53Z"/><path class="cls-2" d="M3406.76,484.16c15.87,15.61,32,30.92,47.94,46.52,1.9,1.87,3.77,3.77,5.67,5.65,2.27-.5,4.49-1,6.69-1.56-15.73-16.36-31.35-32.82-47.15-49.11-14.67-15.13-29.76-29.86-44.42-45l-1.06-1.11q-6.07.13-12,.43C3377.32,454.58,3391.88,469.53,3406.76,484.16Z"/><path class="cls-2" d="M4086.35,517.94c-1.08-1.72-1.85-3.76-3.28-5.1-6.93-6.48-14-12.77-21.07-19.12l0,0Z"/><path class="cls-2" d="M4132.72,500.81l.89-.87L4089,452.58c-2.06.33-4.1.71-6.11,1.16Z"/><path class="cls-2" d="M4039.13,492.2c3.53,3.94,6.88,8.08,10.65,11.78,7.49,7.33,15.22,14.4,22.84,21.58-.39-1.11-.48-2.53-1.23-3.29q-13.57-13.8-27.37-27.38c-1.3-1.28-3.26-1.88-4.93-2.78l.16.2Z"/><path class="cls-2" d="M4039,392.3a97.88,97.88,0,0,0-10.32-9.7Z"/><path class="cls-2" d="M3505,457.28c13.94,13.53,28.59,26.31,42.54,39.83,9.14,8.86,17.29,18.75,26.42,27.62,5.77,5.6,11.69,11,17.64,16.44,4.17.79,8.46,1.37,12.79,1.84a64.89,64.89,0,0,0-9.92-8.9c-5-3.51-7.84-10-12.23-14.55-19.67-20.43-39.59-40.63-59.34-61-12.91-13.32-25.68-26.78-37.53-41.15l130.87,126.44c2.18.09,4.35.21,6.56.21,1.72,0,3.41-.08,5.12-.13-3.41-3.42-6.84-6.82-10.21-10.28q-23-23.6-45.89-47.3c-10.53-10.9-20.94-21.9-31.46-32.79-2.45-2.53-5.15-4.81-7.73-7.2l1.62-1.83c5.72,5.45,11.39,10.94,17.17,16.34,7.92,7.41,16.11,14.55,23.82,22.17,5.82,5.75,10.76,12.4,16.65,18.08,12.08,11.63,24.72,22.67,36.77,34.32,2.73,2.63,5.37,5.33,8.06,8,3.43-.28,6.82-.64,10.16-1.13-2.34-2.46-4.7-4.89-7-7.37-9.94-10.6-19.37-21.68-29.36-32.23-8.38-8.84-17.29-17.18-25.87-25.83a9.32,9.32,0,0,1-2.8-6.38c6.52,6.1,13.12,12.11,19.56,18.31,10,9.6,19.8,19.38,29.78,29,5.41,5.2,11.05,10.17,16.54,15.29l8.24,7.67c.17,0,.34,0,.5-.09,4.71,2.2,9.92,4.3,15.48,6.33-6.16-6.26-12.32-12.51-18.33-18.91-9.24-9.84-17.77-20.39-27.25-30-9.31-9.44-19.43-18.08-29.2-27.08l1.8-2.49c1.46.63,3.29.91,4.32,2,6.75,6.87,13.15,14.09,20,20.85,3.84,3.79,8.57,6.67,12.51,10.38,8.14,7.66,15.9,15.73,24,23.4,9.83,9.27,19.79,18.4,29.69,27.6q5.73,1.66,11.87,3.23c-2.14-2.18-4.31-4.33-6.42-6.54-11.59-12.13-22.79-24.63-34.28-36.86-10.68-11.37-21.52-22.59-32.24-33.93-.55-.57-.63-1.59.2-3.34,1.79,1.61,3.61,3.18,5.36,4.83,15.1,14.26,30.08,28.66,45.31,42.78,11.7,10.85,23.83,21.23,35.54,32.07,1.89,1.75,3.7,3.59,5.55,5.39q4.38.9,8.92,1.76c-3.79-3.6-7.59-7.18-11.37-10.8-8.45-8.1-17.41-15.72-25.29-24.34-8.36-9.12-15.64-19.23-23.54-28.79-4.11-5-8.51-9.73-12.79-14.57-.17,0-.35-.05-.52-.09h0a2.17,2.17,0,0,1,.07-.35,70.25,70.25,0,0,1-16.77-17.87c6.61,5.67,11.94,10.14,17.08,14.81.45.41-.09,1.91-.31,3.06l.15.13.28.32c1.63.28,3.51.27,4.56,1.21,14.46,12.86,28.95,25.7,43,39,6.7,6.31,12.37,13.7,18.84,20.28,5.73,5.84,12,11.16,17.87,16.83,1.3,1.25,2.53,2.56,3.76,3.86,3.68.59,7.46,1.14,11.26,1.68-13.49-13.79-27.48-27.1-40.8-41-17.22-18-34-36.47-51-54.74l1.61-1.8c4.45,3.9,9,7.68,13.32,11.7,9.66,9,19.35,17.93,28.79,27.13,11.05,10.76,21.68,22,32.82,32.63,9.86,9.45,19.9,18.72,29.89,28,3.44.41,7,.78,10.48,1.15-1.64-1.75-3.26-3.53-4.94-5.25-10.51-10.85-22-20.78-32.45-31.68-9.65-10.05-18.34-21-27.77-31.27-6.33-6.88-13.25-13.21-19.84-19.87-1.61-1.63-3-3.5-4.46-5.28-.15,0-.3-.07-.44-.12h0c0-.18-.11-.33-.15-.51l-17.25-17.33c7.67,3.92,15,8.21,17.25,17.33l.32.33.26.31c1.63.47,3.49.67,4.68,1.67,7.79,6.52,15.71,12.93,23,20,14.64,14.22,28.72,29,43.38,43.2,8.54,8.26,18,15.52,26.59,23.76,2.06,2,4.07,4,6.06,6.08,3,.26,6,.53,9.13.76-4-4.37-8.06-8.76-12.19-13-8.31-8.59-17.55-16.27-26-24.78-5.64-5.73-10.31-12.41-15.83-18.27-7.84-8.33-16.11-16.23-24.1-24.42-6.07-6.21-12-12.58-18-18.88l1.78-1.8c6.54,6.22,13,12.49,19.61,18.66,10.87,10.18,22,20.06,32.61,30.54,7,7,13,15.12,20,22.14s14.71,13.07,22,19.64c4,3.61,8,7.3,12,11,3.67.22,7.38.4,11.11.57-4.43-5.16-8.76-10.42-13.38-15.4-4-4.34-8.84-7.94-13.15-12s-8.54-8.48-12.81-12.72c-3.83-3.8-7.88-7.41-11.46-11.44-3.43-3.87-6-8.53-9.61-12.18-4.46-4.51-9.9-8-14.39-12.52a53.19,53.19,0,0,1-10.78-15.2l96.41,91.94c3.7.12,7.43.23,11.18.31-.72-.74-1.45-1.47-2.16-2.21-5.71-5.92-11.42-11.84-17.07-17.81q-12.45-13.12-24.78-26.35a16.08,16.08,0,0,1-4.27-7.76c6.12,5.28,12.29,10.49,18.32,15.86,6.29,5.6,12.53,11.26,18.65,17.06q11.19,10.63,22.3,21.35c2.71,0,5.4.08,8.13.08h2.09c-3.1-3.29-6.15-6.62-9.26-9.91-6.47-6.83-13.64-13-19.93-20-8.8-9.78-17.08-20-25.24-30.6,4.45,3.6,9,7,13.32,10.82,10.44,9.24,20.9,18.48,31,28.07,6.13,5.79,11.39,12.5,17.51,18.31,1.15,1.09,2.34,2.15,3.52,3.23,2.94-.05,5.86-.1,8.77-.17q-7.5-7.94-14.91-16c-7.06-7.65-13.55-15.83-20.61-23.48-8-8.67-16.34-17-24.54-25.5l1.39-1.61c4.94,4.21,10.09,8.2,14.78,12.67,9.56,9.11,18.58,18.79,28.35,27.66s19.85,17.14,29.74,25.75l6.56-.29c-1.82-2-3.65-3.91-5.47-5.88q-29.37-31.6-58.68-63.27c-5.31-5.71-10.86-11.18-16.3-16.76l1.61-1.62c13.94,13.39,27.17,27.64,42,39.91,14.24,11.76,26.56,25.31,40,37.82l9.7,9.09c2.08-.13,4.13-.28,6.19-.43l-83.32-88.86,1.93-2c2.42,2.37,4.77,4.81,7.28,7.08,11.78,10.67,23.78,21.11,35.37,32,12.55,11.75,24.63,24,37.13,35.82,5.29,5,10.66,9.92,16.05,14.82,1.92-.17,3.81-.36,5.71-.55q-10.64-11.39-21.42-22.63c-9.67-10.05-19.93-19.51-29.75-29.41-3.38-3.4-6.11-7.44-9.38-11-9.84-10.65-19.83-21.17-29.71-31.79-4.3-4.63-8.47-9.39-12.7-14.08l1.48-1.32,115.65,108.7,3.79-.45L3850.37,443.25l.51-1a45.37,45.37,0,0,1,5.8,4c20.52,19,41.09,37.87,61.41,57.05,10.78,10.17,21,20.94,31.69,31.22,11,10.63,22.23,21.12,33.41,31.61l3.66-.54c-.84-1.1-1.72-2.18-2.66-3.19-9.48-10.14-19.28-20-29-29.92s-19.68-19.63-29.17-29.76c-6.37-6.79-12-14.24-18.15-21.26-3.73-4.28-7.67-8.4-11.67-12.44-10.51-10.66-21.12-21.23-31.65-31.87-.44-.44-.44-1.32.79-3.42L3997,557.32l1-.94Q3936.15,490.71,3874.39,425l1.12-1.29c4.64,3.78,9.51,7.31,13.89,11.37q27.69,25.69,55.11,51.65c13.36,12.61,26.55,25.39,39.88,38,11.58,11,23.24,21.86,34.86,32.79-1.3-2-2.29-4.35-3.95-6-11.85-12-24.12-23.68-35.71-36C3965.46,500.64,3952,485,3938,470c-14.55-15.58-29.47-30.82-44.2-46.23-.47-.5-.67-1.26-.25-3.3,2.07,1.11,4.46,1.87,6.15,3.39,7.9,7.1,15.64,14.37,23.37,21.66,10.47,9.88,20.82,19.88,31.31,29.74,15,14.05,30,28,45,42,4.33,4.07,8.44,8.37,12.65,12.57-2.08-3.48-3.86-7.25-6.57-10.15-10.32-11.06-21-21.76-31.6-32.61-9.7-10-19.52-19.83-29-30q-23.74-25.32-47.16-51c-3.89-4.24-7.52-8.71-11.28-13.07l1.8-1.7L4063,558.16c-53.79-56.22-106.35-111.15-158.9-166.09l2-2c49.63,42.38,95.57,88.74,143.59,133L3927.05,393.54l1.71-2c3.53,2.59,7.24,5,10.55,7.8,11.2,9.6,22.64,19,33.26,29.2,9.2,8.85,17,19.12,26.17,28.05,8,7.85,17.06,14.64,25.54,22,5.06,4.41,9.91,9.07,14.85,13.62l-.1-.12.06,0c-5-6.05-9.82-12.29-15.1-18.1-6.6-7.27-13.66-14.13-20.41-21.26-5.71-6-11.21-12.28-16.9-18.33-9.55-10.16-19.22-20.2-28.75-30.37-7.2-7.7-14.29-15.5-21.36-23.32-.91-1-1.4-2.4-1-4.63,7.12,6.77,14.12,13.66,21.39,20.25,6.82,6.18,14.24,11.71,20.85,18.08,11.14,10.74,21.77,22,32.77,32.88,5,5,10.39,9.6,15.65,14.33q17.93,16.14,35.89,32.23l-.21-.26.12.11c-1.22-2-2.19-4.28-3.76-6q-23.52-25.61-47.26-51c-3.42-3.65-7.6-6.62-10.9-10.37-11.21-12.74-22.2-25.68-33.26-38.56l-1-.66.21-.22-.21.22c-.06-.21-.15-.38-.22-.58l-15.48-13,2.21-2.25c3.84,5.67,11,8,13.27,15.27l.43.36c.26.29.51.59.76.88,6.08,4.23,12.51,8.07,18,13,8.66,7.75,16.5,16.41,24.85,24.51,7.62,7.39,15.49,14.53,23.19,21.83,11.33,10.74,22.58,21.57,33.93,32.29q18.87,17.82,37.85,35.52c-3.59-4.23-7-8.61-10.81-12.65-15.62-16.62-31.41-33.09-47-49.7q-27-28.76-53.94-57.64c-3.49-3.72-7.05-7.37-10.58-11.05l1.87-2.13c5.08,4.08,10.41,7.88,15.17,12.3s8.66,9.38,13.11,14c6.89,7.08,13.84,14.11,21,21,2.17,2.09,5.25,3.26,7.42,5.35,7.25,7,14.42,14.06,21.61,21.11.07-1.41.12-2.82.12-4.24,0-1.79-.09-3.55-.2-5.31-2.13-2.25-4.25-4.52-6.38-6.76-9.38-9.83-19.13-19.32-28.46-29.19-9-9.52-17.65-19.38-26.5-29-4.9-5.35-9.9-10.61-14.85-15.91.44-.46.89-.92,1.33-1.39l72.93,68.89a84.54,84.54,0,0,0-5.43-16l-41.79-44.36c-1.78-1-3.59-1.94-5.44-2.83C4003,307.26,3927.24,258,3834.47,258c-89.58,0-163.3,46-172.49,105a166.6,166.6,0,0,0-39.14-4.61c-47,0-87.88,19-109.46,47.23-2.77-.16-5.57-.26-8.41-.26a131.82,131.82,0,0,0-44.62,7.53C3475.2,427.69,3490,442.64,3505,457.28Zm256.84,22.35,32.5,31.83-2.5,2.51q-16.05-16.11-32.09-32.24Z"/><path class="cls-2" d="M4159.43,465.26c2.14,2.13,4.27,4.26,6.42,6.37,5.72,5.59,12,10.57,18.07,15.83-.35-.47-.68-.95-1-1.43A80,80,0,0,0,4159.43,465.26Z"/><path class="cls-2" d="M4139.87,484.71l-31.34-33.43c-.71,0-1.4-.09-2.12-.09-1.57,0-3.12.06-4.67.13L4138.6,486Z"/><path class="cls-2" d="M4170.36,536.19c-.51.52-1,1-1.54,1.54l16.87,16.58c.37-.57.71-1.16,1.06-1.74Z"/><path class="cls-2" d="M4162.57,487.46c-1.11-1.85-1.92-4-3.38-5.5q-13.45-13.9-27-27.71-3.52-.86-7.15-1.47c3.86,3.82,7.7,7.67,11.62,11.43C4145,472.23,4153.92,479.73,4162.57,487.46Z"/><path class="cls-2" d="M4183.17,532.43l8.87,8.88c.46-1.31.91-2.62,1.28-4l-7.54-7.51Z"/></g><g class="cls-1"><path class="cls-2" d="M6928.65,436.33c13.49,13,27,25.91,40.44,39,8.62,8.4,17.06,17,25.58,25.51,7.36,7.36,14.68,14.76,22.06,22.11,3.18-.73,6.28-1.59,9.29-2.54-5-4.82-10.11-9.62-15-14.6-10.79-11-21-22.53-31.81-33.55-18.36-18.78-37-37.32-55.41-56a84.16,84.16,0,0,0-9.42,6.42Z"/><path class="cls-2" d="M6852.1,464.93c22.55,21.76,45.49,43.11,67.87,65,1.58,1.54,3.12,3.11,4.69,4.65,1.79-.28,3.6-.57,5.36-.88-15-15-30-30-44.73-45.16-16.31-16.82-32-34.23-48.17-51.17-.56-.6-1.14-1.18-1.71-1.77-4,.28-7.87.64-11.72,1C6833.22,446,6842.49,455.65,6852.1,464.93Z"/><path class="cls-2" d="M6975.35,501.72c8,7.93,16,16,23.92,24,3.17-.3,6.3-.67,9.36-1.18-1.71-1.83-3.4-3.69-5.14-5.5-22.58-23.55-45.75-46.53-68.65-69.77q-11.84-12-23.66-24a67.93,67.93,0,0,0-7.06,7.15c3.42,3.28,6.85,6.55,10.26,9.85Q6945,471.83,6975.35,501.72Z"/><path class="cls-2" d="M6808.41,442.7c13.8,13.68,27.47,27.48,41.35,41.07,10,9.77,20.24,19.23,30.29,28.92q12.64,12.21,25.23,24.47c2-.2,3.91-.44,5.86-.67l-5.18-5.44c-19.46-20.36-38.83-40.8-58.39-61.06q-15.73-16.28-31.56-32.46-5.76.72-11.3,1.6C6805.94,440.33,6807.19,441.5,6808.41,442.7Z"/><path class="cls-2" d="M6954.57,502c8.31,8,16.45,16.19,24.77,24.19,2.22.1,4.43.24,6.69.24l.93,0c-9.86-10.09-19.51-20.38-29.3-30.55-10.06-10.45-20.19-20.83-30.25-31.29-9.05-9.41-18-18.91-27-28.36-5.05-.45-10.23-.79-15.48-1.05q18.16,17.58,36.42,35.06C6932.37,480.8,6943.54,491.31,6954.57,502Z"/><path class="cls-2" d="M7553.42,451.79c-2.15.71-4.24,1.5-6.3,2.34,4.31,4.2,8.6,8.42,13,12.55,5.65,5.33,12.08,9.83,18.16,14.72l-.22-.27h0c-4.64-5.92-9-12.07-14-17.69C7560.55,459.52,7557,455.65,7553.42,451.79Z"/><path class="cls-2" d="M6959,527c1.94-.58,3.9-1.15,5.76-1.76-5.11-5.46-10.24-10.9-15.44-16.26-17.55-18.1-35.6-35.72-53.18-53.79-6.55-6.73-13.05-13.52-19.57-20.29-4-.11-7.9-.26-11.95-.26h-1.93c3.92,3.82,7.83,7.66,11.77,11.46C6902.56,473.12,6930.86,500,6959,527Z"/><path class="cls-2" d="M7495.77,525.63c-.27-.25-1.13.11-1.83.3q10.56,11.6,21.09,23.21l2.72-2.69C7510.44,539.49,7503.15,532.52,7495.77,525.63Z"/><path class="cls-2" d="M6862.34,515.21c7.86,7.51,15.17,15.59,22.71,23.44,2.48-.12,5-.22,7.43-.39-10.8-11-22.06-21.65-32.82-32.73-16.93-17.41-33.56-35.12-50.39-52.63-4-4.17-8.06-8.33-12.09-12.48q-6,1.09-11.63,2.38c6.59,6.4,13.14,12.84,19.77,19.2C6824.07,480,6843.53,497.27,6862.34,515.21Z"/><path class="cls-2" d="M6728.39,467.09q13.19,12.8,26.36,25.58c14,13.55,28.16,26.93,42,40.65,1.41.26,2.82.52,4.26.77-3.22-3.1-6.42-6.22-9.56-9.4q-29.83-30.11-59.2-60.67C6730.86,465,6729.59,466.05,6728.39,467.09Z"/><path class="cls-2" d="M6751.53,469.61c12.82,12.38,25.84,24.55,38.51,37.08q15.15,15,30.18,30.1c1.72.19,3.47.36,5.21.54-.81-.83-1.64-1.65-2.45-2.48-11.29-11.56-22-23.71-33.23-35.31-11.55-11.89-23.69-23.19-35.15-35.15-2.75-2.87-5.46-5.77-8.2-8.65-2.11,1-4.09,2.05-6,3.11C6744.12,462.44,6747.81,466,6751.53,469.61Z"/><path class="cls-2" d="M6840.22,507.94c-13.71-14.3-26.95-29.05-40.74-43.26-6.65-6.87-13.42-13.62-20.17-20.39-3.21.81-6.33,1.67-9.34,2.57,5.7,5.75,11.39,11.51,17.19,17.16,19,18.58,38.4,36.85,57.5,55.38q10.16,9.86,20.22,19.81c1.84,0,3.64-.07,5.47-.09Q6855.22,523.58,6840.22,507.94Z"/><path class="cls-2" d="M6791.2,487.94c13.63,13.25,27.48,26.28,41.05,39.6,3.74,3.68,7.43,7.41,11.14,11.13,2,.1,4,.19,6,.27q-8.55-8.76-17.09-17.51c-13.28-13.64-26.57-27.27-39.73-41q-14.94-15.6-29.8-31.26c-2.84,1-5.58,2-8.19,3Q6772.9,470.07,6791.2,487.94Z"/><path class="cls-2" d="M6989.2,475.07c9.25,9.13,18.41,18.34,27.77,27.36,8.83,8.5,17.73,16.92,26.61,25.37a152.84,152.84,0,0,0,16.7,5.6,97.78,97.78,0,0,0-8.44-11.06c-6-6.3-13.29-11.3-19.45-17.45-11.12-11.1-21.77-22.69-32.72-34-7.41-7.64-15-15.06-22.49-22.67Q6958,428.65,6938.84,409a103.9,103.9,0,0,0-11.38,5.21Q6958.36,444.59,6989.2,475.07Z"/><path class="cls-2" d="M6734.88,511.07c-2.61-2.72-6-4.68-9.09-7l.06.09c.8.81,1.61,1.61,2.41,2.41a64.27,64.27,0,0,0,7.84,5.79C6735.69,512,6735.3,511.51,6734.88,511.07Z"/><path class="cls-2" d="M6735.65,488.87c-4.67-4.76-9.44-9.41-14.22-14.07a26.47,26.47,0,0,0-2.13,3.78q22.56,21.81,44.83,43.9c1.27,1.26,2.49,2.56,3.75,3.83,1.92.6,3.88,1.17,5.88,1.73C6761.08,515,6748.42,501.87,6735.65,488.87Z"/><path class="cls-2" d="M7596.38,499.36c-4.55-7.64-10-14.35-18.33-18.22l0,0Z"/><path class="cls-2" d="M6718.69,493.68a28.88,28.88,0,0,0,6.23,9.7l.94.85-.21-.22.14.1c-2.08-3.26-3.75-6.91-6.36-9.67C6719.19,494.18,6718.94,493.93,6718.69,493.68Z"/><path class="cls-2" d="M6887.81,479.3c15.88,15.62,32.06,30.92,47.95,46.53,1.9,1.87,3.77,3.77,5.66,5.65,2.28-.5,4.5-1,6.69-1.57-15.72-16.35-31.35-32.81-47.14-49.1-14.67-15.13-29.76-29.86-44.42-45l-1.06-1.11q-6.08.12-12,.43C6858.38,449.73,6872.94,464.68,6887.81,479.3Z"/><path class="cls-2" d="M7567.41,513.09c-1.08-1.72-1.85-3.76-3.29-5.1-6.92-6.48-14-12.77-21.06-19.12v0Z"/><path class="cls-2" d="M7613.78,496l.89-.87-44.62-47.36q-3.09.5-6.11,1.15Z"/><path class="cls-2" d="M7520.19,487.34c3.53,4,6.87,8.09,10.65,11.79,7.48,7.32,15.21,14.4,22.84,21.58-.39-1.11-.48-2.53-1.23-3.29q-13.57-13.8-27.37-27.39c-1.3-1.27-3.26-1.87-4.93-2.77.05.06.1.13.16.19Z"/><path class="cls-2" d="M7520,387.45a97.92,97.92,0,0,0-10.31-9.71Z"/><path class="cls-2" d="M6986.1,452.43c13.93,13.53,28.59,26.31,42.54,39.83,9.14,8.86,17.29,18.74,26.42,27.62,5.76,5.6,11.69,11,17.63,16.44,4.18.79,8.46,1.37,12.8,1.84a64.89,64.89,0,0,0-9.92-8.9c-5-3.51-7.84-10-12.23-14.55-19.67-20.44-39.59-40.63-59.34-61-12.91-13.32-25.68-26.78-37.53-41.15L7097.34,539c2.18.08,4.35.21,6.56.21,1.72,0,3.41-.08,5.12-.14-3.42-3.41-6.84-6.81-10.21-10.27q-23-23.59-45.9-47.3c-10.52-10.9-20.93-21.9-31.46-32.79-2.44-2.53-5.14-4.81-7.72-7.21l1.62-1.83c5.72,5.45,11.39,10.95,17.16,16.35,7.93,7.41,16.12,14.55,23.83,22.17,5.82,5.75,10.76,12.4,16.65,18.07,12.08,11.63,24.72,22.68,36.77,34.33,2.72,2.62,5.37,5.33,8.05,8,3.43-.28,6.83-.65,10.17-1.13-2.34-2.46-4.7-4.9-7-7.37-9.94-10.6-19.36-21.68-29.35-32.23-8.38-8.84-17.29-17.18-25.87-25.83a9.33,9.33,0,0,1-2.81-6.38c6.53,6.1,13.13,12.11,19.56,18.3,10,9.61,19.81,19.39,29.79,29,5.41,5.21,11,10.18,16.54,15.3l8.24,7.67.5-.09c4.7,2.2,9.92,4.3,15.47,6.33-6.15-6.26-12.31-12.52-18.32-18.91-9.25-9.85-17.77-20.39-27.25-30-9.31-9.44-19.43-18.09-29.2-27.08l1.8-2.49c1.46.63,3.28.9,4.32,1.95,6.74,6.88,13.15,14.1,20,20.85,3.84,3.79,8.57,6.68,12.51,10.39,8.14,7.66,15.9,15.73,24,23.4,9.83,9.27,19.79,18.4,29.69,27.6q5.73,1.67,11.87,3.23c-2.14-2.18-4.32-4.33-6.43-6.54-11.58-12.14-22.78-24.63-34.27-36.86-10.68-11.38-21.52-22.59-32.24-33.93-.55-.58-.63-1.6.19-3.34,1.79,1.61,3.62,3.18,5.36,4.83,15.1,14.26,30.09,28.65,45.32,42.78,11.7,10.85,23.83,21.23,35.53,32.07,1.9,1.75,3.71,3.59,5.56,5.39q4.38.9,8.91,1.76c-3.78-3.6-7.59-7.19-11.36-10.8-8.45-8.1-17.41-15.73-25.3-24.34-8.35-9.13-15.63-19.23-23.53-28.8-4.11-5-8.51-9.72-12.79-14.57l-.52-.08v0c0-.1,0-.23.07-.34a70.43,70.43,0,0,1-16.77-17.87c6.62,5.67,12,10.13,17.08,14.81.46.41-.08,1.91-.31,3.06l.16.13.28.31c1.63.29,3.51.28,4.56,1.21,14.46,12.87,28.95,25.71,43,39,6.7,6.31,12.37,13.7,18.83,20.28,5.74,5.83,12,11.16,17.88,16.83,1.3,1.24,2.52,2.56,3.76,3.86,3.68.59,7.46,1.14,11.26,1.68-13.49-13.79-27.48-27.1-40.81-41.05-17.21-18-34-36.47-50.95-54.73l1.61-1.8c4.44,3.89,9,7.68,13.31,11.69,9.67,9,19.35,17.93,28.8,27.13,11.05,10.77,21.68,22,32.82,32.63,9.86,9.45,19.89,18.73,29.89,28,3.44.42,6.95.79,10.48,1.16-1.64-1.76-3.27-3.53-4.94-5.25-10.51-10.86-22-20.78-32.45-31.68-9.65-10.05-18.34-21-27.78-31.27-6.32-6.88-13.24-13.22-19.83-19.87-1.61-1.63-3-3.5-4.46-5.28-.15,0-.3-.07-.44-.12h0c0-.19-.11-.34-.16-.51l-17.25-17.33c7.68,3.92,15,8.21,17.25,17.33l.33.32c.09.11.17.22.26.32,1.63.47,3.49.67,4.68,1.67,7.78,6.52,15.71,12.93,23,20,14.65,14.21,28.72,29,43.39,43.2,8.53,8.26,18,15.52,26.59,23.76,2.06,2,4.07,4,6.06,6.08,3,.26,6.05.52,9.13.75-4-4.36-8.06-8.75-12.19-13-8.31-8.6-17.56-16.27-25.95-24.79-5.65-5.72-10.31-12.41-15.83-18.27-7.84-8.32-16.12-16.23-24.1-24.41-6.07-6.21-12-12.58-18-18.88l1.78-1.8c6.53,6.22,13,12.49,19.61,18.66,10.87,10.18,22,20.06,32.61,30.54,7.05,7,13,15.12,20,22.14s14.71,13.07,22,19.64c4,3.61,8,7.3,12,11,3.67.22,7.38.4,11.1.57-4.43-5.16-8.75-10.42-13.37-15.4-4-4.34-8.84-7.94-13.15-12s-8.54-8.48-12.81-12.72c-3.83-3.8-7.88-7.41-11.46-11.45-3.43-3.86-6-8.52-9.61-12.17-4.46-4.51-9.9-8.05-14.39-12.52a53.33,53.33,0,0,1-10.78-15.2q48.21,46,96.4,91.94c3.71.12,7.44.23,11.19.31l-2.17-2.21q-8.57-8.88-17.07-17.81-12.44-13.12-24.77-26.35a16.11,16.11,0,0,1-4.27-7.77c6.11,5.28,12.29,10.49,18.32,15.86,6.29,5.61,12.53,11.27,18.64,17.07q11.21,10.62,22.31,21.35c2.71,0,5.4.08,8.13.08l2.09,0c-3.1-3.29-6.15-6.62-9.26-9.9-6.47-6.84-13.64-13-19.93-20-8.8-9.77-17.08-20-25.24-30.59,4.45,3.6,9.05,7,13.32,10.81,10.44,9.25,20.89,18.49,31,28.07,6.12,5.8,11.39,12.51,17.51,18.32,1.15,1.09,2.34,2.15,3.52,3.22q4.41-.06,8.76-.16-7.5-7.94-14.91-16c-7.05-7.65-13.54-15.83-20.6-23.48-8-8.67-16.35-17-24.54-25.5l1.39-1.61c4.94,4.21,10.09,8.2,14.78,12.67,9.56,9.11,18.58,18.79,28.35,27.66s19.85,17.14,29.74,25.75c2.2-.09,4.38-.19,6.56-.3l-5.48-5.87q-29.37-31.61-58.67-63.28c-5.31-5.7-10.86-11.17-16.31-16.75l1.61-1.62c13.95,13.39,27.18,27.64,42,39.91,14.23,11.75,26.56,25.31,40,37.82,3.24,3,6.46,6.06,9.7,9.09,2.08-.13,4.13-.28,6.19-.43l-83.33-88.86c.65-.66,1.3-1.31,1.94-2,2.42,2.37,4.77,4.81,7.27,7.08,11.79,10.67,23.78,21.1,35.38,32,12.55,11.75,24.63,24,37.13,35.82,5.29,5,10.66,9.91,16,14.82l5.72-.55q-10.65-11.38-21.42-22.64c-9.67-10-19.93-19.51-29.75-29.4-3.38-3.4-6.12-7.44-9.38-11-9.84-10.65-19.83-21.17-29.71-31.79-4.3-4.63-8.47-9.39-12.7-14.09l1.48-1.32L7445.4,563.76l3.79-.46q-58.89-62.44-117.77-124.91c.18-.32.35-.64.52-1a46.48,46.48,0,0,1,5.8,4c20.52,18.95,41.08,37.87,61.41,57,10.78,10.18,21,20.95,31.69,31.23,11.05,10.63,22.23,21.12,33.41,31.6q1.84-.25,3.66-.54c-.84-1.1-1.72-2.17-2.66-3.18-9.48-10.15-19.28-20-29-29.92s-19.67-19.63-29.17-29.76c-6.36-6.8-12-14.24-18.14-21.26-3.74-4.28-7.67-8.4-11.67-12.45-10.52-10.65-21.12-21.22-31.65-31.86-.44-.45-.44-1.32.79-3.42L7478,552.47l1-.94L7355.44,420.18l1.13-1.29c4.64,3.77,9.51,7.31,13.89,11.37q27.68,25.69,55.11,51.65c13.36,12.61,26.55,25.39,39.88,38,11.58,11,23.24,21.87,34.86,32.8-1.3-2-2.29-4.36-4-6-11.85-12-24.12-23.69-35.72-36-14.12-15-27.55-30.57-41.59-45.61-14.55-15.59-29.47-30.82-44.2-46.23-.47-.5-.67-1.27-.25-3.3,2.07,1.11,4.46,1.87,6.15,3.39,7.9,7.1,15.64,14.37,23.36,21.66,10.47,9.88,20.83,19.88,31.32,29.74,14.95,14.05,30,28,45,42.05,4.33,4.07,8.44,8.37,12.65,12.57-2.08-3.49-3.86-7.25-6.57-10.15-10.32-11.07-21.05-21.76-31.6-32.61-9.7-10-19.52-19.84-29-30-15.84-16.88-31.5-33.93-47.16-51-3.9-4.24-7.53-8.71-11.28-13.07l1.8-1.71L7544.1,553.31c-53.79-56.22-106.35-111.15-158.9-166.09l2-2c49.63,42.38,95.57,88.74,143.59,133L7408.11,388.69l1.71-2c3.53,2.59,7.24,5,10.55,7.8,11.2,9.6,22.64,19,33.26,29.2,9.2,8.85,17,19.12,26.17,28.05,8,7.84,17.06,14.64,25.54,22,5.06,4.41,9.91,9.06,14.85,13.61l-.1-.11.06,0c-5-6.06-9.83-12.29-15.1-18.1-6.61-7.27-13.66-14.13-20.41-21.26-5.71-6-11.21-12.28-16.91-18.33-9.54-10.16-19.21-20.2-28.74-30.37-7.2-7.7-14.29-15.51-21.36-23.33-.91-1-1.4-2.39-1-4.62,7.12,6.76,14.11,13.66,21.39,20.25,6.82,6.17,14.23,11.7,20.85,18.08,11.14,10.73,21.77,22,32.77,32.87,5,5,10.39,9.6,15.64,14.34q17.92,16.14,35.9,32.23l-.21-.26.12.11c-1.22-2-2.19-4.28-3.76-6q-23.52-25.61-47.26-51c-3.42-3.66-7.6-6.62-10.9-10.37-11.21-12.74-22.2-25.69-33.26-38.56-.33-.22-.66-.44-1-.67l.21-.21-.21.21c-.06-.21-.16-.37-.22-.57l-15.48-13,2.21-2.26c3.84,5.68,11,8,13.27,15.28l.43.36c.25.29.5.59.76.88,6.08,4.23,12.5,8.07,18,13,8.66,7.74,16.5,16.4,24.85,24.51,7.62,7.39,15.48,14.53,23.19,21.83,11.33,10.74,22.58,21.56,33.93,32.28q18.87,17.82,37.85,35.52c-3.59-4.22-7-8.6-10.81-12.64-15.62-16.62-31.41-33.09-47-49.7q-27-28.75-53.95-57.64c-3.48-3.72-7-7.37-10.57-11.05l1.87-2.13c5.08,4.07,10.41,7.88,15.17,12.3s8.66,9.38,13.11,13.95c6.89,7.08,13.84,14.12,20.95,21,2.17,2.1,5.24,3.26,7.42,5.36,7.25,7,14.42,14.06,21.61,21.11.07-1.41.12-2.82.12-4.24,0-1.79-.1-3.55-.21-5.32-2.13-2.25-4.24-4.51-6.38-6.75-9.38-9.83-19.12-19.32-28.45-29.19-9-9.53-17.65-19.38-26.5-29-4.9-5.35-9.9-10.61-14.85-15.91l1.33-1.39,72.93,68.89a84.54,84.54,0,0,0-5.43-16l-41.8-44.37c-1.78-1-3.58-1.93-5.44-2.82-4.71-62-80.47-111.29-173.24-111.29-89.59,0-163.3,46-172.49,105a166.66,166.66,0,0,0-39.14-4.62c-47,0-87.88,19.05-109.46,47.24q-4.15-.26-8.41-.26a131.82,131.82,0,0,0-44.62,7.53C6956.26,422.84,6971,437.79,6986.1,452.43Zm256.83,22.35,32.51,31.82-2.51,2.52-32.08-32.24Z"/><path class="cls-2" d="M7640.49,460.41c2.14,2.13,4.26,4.26,6.42,6.36,5.72,5.59,12,10.58,18.07,15.84-.35-.47-.68-.95-1-1.43A80,80,0,0,0,7640.49,460.41Z"/><path class="cls-2" d="M7620.93,479.86l-31.34-33.43c-.71,0-1.41-.09-2.12-.09-1.57,0-3.12.06-4.67.13l36.86,34.67Z"/><path class="cls-2" d="M7651.42,531.34l-1.54,1.54,16.87,16.58c.37-.57.71-1.16,1.05-1.74Z"/><path class="cls-2" d="M7643.63,482.61c-1.11-1.85-1.92-4-3.38-5.5q-13.45-13.91-27-27.72c-2.35-.56-4.73-1.05-7.16-1.46,3.87,3.82,7.7,7.66,11.62,11.42C7626.1,467.38,7635,474.87,7643.63,482.61Z"/><path class="cls-2" d="M7664.23,527.58l8.87,8.88c.46-1.31.91-2.62,1.27-4l-7.53-7.51Z"/></g><g class="cls-1"><path class="cls-2" d="M8767.29,353.39c13.49,13,27,25.92,40.44,39,8.63,8.4,17.06,17,25.58,25.52,7.36,7.36,14.69,14.76,22.06,22.11,3.19-.74,6.28-1.6,9.3-2.55-5-4.82-10.11-9.62-15-14.6-10.78-11-21-22.53-31.8-33.54-18.37-18.79-37-37.32-55.42-56.05a86.48,86.48,0,0,0-9.42,6.42Z"/><path class="cls-2" d="M8690.75,382c22.54,21.76,45.49,43.11,67.87,65,1.57,1.54,3.11,3.11,4.68,4.66,1.8-.29,3.6-.57,5.36-.88-15-15-30-29.95-44.73-45.16-16.3-16.82-32-34.23-48.16-51.18-.57-.59-1.15-1.17-1.72-1.77q-6,.44-11.71,1C8671.86,363.09,8681.14,372.72,8690.75,382Z"/><path class="cls-2" d="M8814,418.78c8,7.93,16,16,23.92,24,3.17-.3,6.29-.68,9.35-1.18-1.71-1.84-3.39-3.7-5.13-5.51-22.59-23.54-45.75-46.53-68.66-69.76q-11.82-12-23.65-24a69,69,0,0,0-7.07,7.15c3.42,3.29,6.86,6.56,10.27,9.85Q8783.66,388.89,8814,418.78Z"/><path class="cls-2" d="M8647.06,359.77c13.79,13.67,27.46,27.48,41.34,41.07,10,9.77,20.24,19.23,30.3,28.92q12.64,12.19,25.22,24.47c2-.2,3.92-.45,5.87-.68l-5.18-5.43c-19.46-20.36-38.83-40.81-58.4-61.06q-15.72-16.28-31.55-32.47-5.78.72-11.3,1.6C8644.58,357.39,8645.84,358.56,8647.06,359.77Z"/><path class="cls-2" d="M8793.22,419c8.3,8,16.44,16.2,24.76,24.19,2.22.11,4.43.25,6.69.25.32,0,.62,0,.94,0-9.86-10.09-19.52-20.38-29.3-30.54-10.07-10.46-20.2-20.84-30.25-31.29-9-9.42-18-18.92-27-28.37-5.06-.44-10.23-.78-15.48-1q18.16,17.56,36.41,35.05C8771,397.86,8782.18,408.38,8793.22,419Z"/><path class="cls-2" d="M9392.06,368.85c-2.14.71-4.23,1.51-6.29,2.35,4.3,4.2,8.59,8.41,13,12.54,5.66,5.33,12.09,9.84,18.16,14.72l-.21-.26h0c-4.64-5.93-9-12.08-14-17.69C9399.2,376.58,9395.63,372.72,9392.06,368.85Z"/><path class="cls-2" d="M8797.65,444c1.94-.58,3.9-1.15,5.75-1.77-5.11-5.45-10.23-10.89-15.44-16.26-17.55-18.09-35.59-35.71-53.17-53.78-6.56-6.74-13.06-13.52-19.57-20.29-4-.12-7.91-.27-12-.27l-1.93,0c3.93,3.81,7.83,7.65,11.78,11.45C8741.2,390.19,8769.5,417,8797.65,444Z"/><path class="cls-2" d="M9334.42,442.7c-.28-.26-1.13.1-1.83.3q10.56,11.58,21.08,23.21l2.72-2.7C9349.09,456.56,9341.79,449.58,9334.42,442.7Z"/><path class="cls-2" d="M8701,432.28c7.87,7.5,15.18,15.59,22.71,23.44,2.49-.12,5-.22,7.44-.39-10.81-11.05-22.06-21.65-32.83-32.73-16.92-17.42-33.56-35.12-50.38-52.63q-6-6.27-12.1-12.49-6,1.09-11.63,2.38c6.59,6.4,13.15,12.84,19.78,19.21C8662.72,397.06,8682.18,414.33,8701,432.28Z"/><path class="cls-2" d="M8567,384.15q13.18,12.8,26.36,25.58c14,13.55,28.16,26.93,42,40.65,1.42.26,2.83.53,4.27.77q-4.83-4.65-9.57-9.39-29.82-30.12-59.2-60.67Q8568.83,382.59,8567,384.15Z"/><path class="cls-2" d="M8590.17,386.68c12.82,12.37,25.85,24.54,38.52,37.07q15.15,15,30.17,30.1c1.72.2,3.47.37,5.22.54-.81-.83-1.64-1.64-2.45-2.47-11.3-11.56-22-23.72-33.24-35.31-11.54-11.89-23.69-23.19-35.15-35.16-2.74-2.87-5.46-5.77-8.2-8.64-2.1,1-4.08,2.05-6,3.11Q8584.61,381.3,8590.17,386.68Z"/><path class="cls-2" d="M8678.86,425c-13.7-14.3-27-29-40.73-43.26-6.66-6.86-13.42-13.62-20.18-20.38-3.21.81-6.33,1.66-9.34,2.56,5.7,5.75,11.4,11.51,17.19,17.16,19.05,18.58,38.4,36.85,57.5,55.38q10.16,9.85,20.22,19.82c1.85,0,3.65-.07,5.48-.1Q8693.87,440.66,8678.86,425Z"/><path class="cls-2" d="M8629.85,405c13.63,13.26,27.48,26.29,41,39.61,3.75,3.67,7.43,7.41,11.14,11.12,2,.1,4,.2,6,.27q-8.55-8.75-17.09-17.51c-13.27-13.63-26.56-27.26-39.73-41q-14.94-15.6-29.8-31.26-4.26,1.45-8.18,3Q8611.54,387.13,8629.85,405Z"/><path class="cls-2" d="M8827.85,392.13c9.24,9.13,18.41,18.35,27.77,27.36q13.25,12.75,26.61,25.37a147.34,147.34,0,0,0,16.7,5.6,98.65,98.65,0,0,0-8.45-11c-6-6.3-13.29-11.31-19.44-17.45-11.13-11.11-21.77-22.69-32.72-34-7.41-7.64-15-15.06-22.49-22.66q-19.21-19.62-38.35-39.3a105.81,105.81,0,0,0-11.38,5.21Q8797,361.67,8827.85,392.13Z"/><path class="cls-2" d="M8573.53,428.14c-2.61-2.73-6-4.68-9.1-7l.06.1,2.42,2.4a63.8,63.8,0,0,0,7.84,5.8C8574.33,429,8573.94,428.57,8573.53,428.14Z"/><path class="cls-2" d="M8574.3,405.93c-4.67-4.75-9.45-9.41-14.22-14.07a26.14,26.14,0,0,0-2.13,3.79q22.54,21.8,44.82,43.9c1.27,1.25,2.5,2.55,3.75,3.83q2.88.89,5.89,1.73C8599.72,432,8587.06,418.93,8574.3,405.93Z"/><path class="cls-2" d="M9435,416.43c-4.55-7.64-10-14.35-18.32-18.22l0,0Q9425.87,407.35,9435,416.43Z"/><path class="cls-2" d="M8557.34,410.74a28.91,28.91,0,0,0,6.23,9.71l.94.84-.22-.22.14.1c-2.08-3.26-3.75-6.91-6.35-9.67C8557.83,411.24,8557.58,411,8557.34,410.74Z"/><path class="cls-2" d="M8726.46,396.37c15.88,15.61,32.06,30.92,47.94,46.52,1.91,1.87,3.78,3.77,5.67,5.65,2.28-.5,4.49-1,6.69-1.56-15.73-16.36-31.35-32.82-47.15-49.11-14.67-15.13-29.75-29.85-44.42-45l-1.06-1.11q-6.07.14-12,.44C8697,366.79,8711.59,381.74,8726.46,396.37Z"/><path class="cls-2" d="M9406.05,430.15c-1.08-1.72-1.85-3.76-3.28-5.1-6.93-6.47-14-12.76-21.07-19.12l0,0Z"/><path class="cls-2" d="M9452.42,413l.89-.88-44.62-47.36c-2.06.33-4.1.71-6.1,1.16Z"/><path class="cls-2" d="M9358.83,404.41c3.54,3.94,6.88,8.08,10.65,11.78,7.49,7.33,15.22,14.41,22.85,21.59-.4-1.12-.48-2.54-1.24-3.3q-13.56-13.8-27.36-27.38c-1.31-1.28-3.27-1.88-4.94-2.78l.16.2Z"/><path class="cls-2" d="M9358.69,304.51a97.88,97.88,0,0,0-10.32-9.7Z"/><path class="cls-2" d="M8824.75,369.49c13.93,13.53,28.58,26.31,42.53,39.83,9.14,8.86,17.29,18.75,26.42,27.62,5.77,5.6,11.69,11,17.64,16.45,4.17.79,8.46,1.36,12.79,1.83a64.31,64.31,0,0,0-9.92-8.89c-5-3.52-7.83-10-12.23-14.55-19.67-20.44-39.59-40.64-59.33-61-12.92-13.32-25.68-26.77-37.53-41.15L8936,456.08c2.18.08,4.34.2,6.55.2,1.72,0,3.42-.08,5.12-.13-3.41-3.41-6.84-6.82-10.21-10.27q-23-23.61-45.89-47.31c-10.52-10.89-20.94-21.89-31.46-32.79-2.44-2.53-5.14-4.81-7.73-7.2l1.62-1.83c5.72,5.45,11.4,10.95,17.17,16.34,7.92,7.41,16.11,14.55,23.83,22.18,5.82,5.75,10.76,12.4,16.64,18.07,12.08,11.63,24.72,22.67,36.78,34.32,2.72,2.63,5.36,5.33,8,8,3.43-.29,6.82-.65,10.16-1.14-2.34-2.46-4.7-4.89-7-7.37-9.94-10.59-19.36-21.68-29.36-32.23-8.37-8.84-17.28-17.17-25.87-25.83a9.3,9.3,0,0,1-2.8-6.37c6.52,6.09,13.13,12.11,19.56,18.3,10,9.61,19.8,19.38,29.79,29,5.41,5.2,11,10.17,16.53,15.29l8.25,7.67c.16,0,.33-.05.49-.09,4.71,2.2,9.93,4.3,15.48,6.33-6.16-6.26-12.32-12.51-18.32-18.91-9.25-9.84-17.77-20.38-27.25-30-9.32-9.44-19.44-18.08-29.2-27.07l1.8-2.5c1.45.64,3.28.91,4.31,2,6.75,6.88,13.16,14.09,20,20.85,3.85,3.79,8.58,6.67,12.51,10.38,8.14,7.66,15.9,15.73,24,23.4,9.83,9.27,19.8,18.4,29.69,27.6q5.75,1.68,11.87,3.24c-2.14-2.19-4.31-4.34-6.42-6.55-11.59-12.13-22.79-24.63-34.27-36.86-10.68-11.37-21.53-22.59-32.25-33.92-.55-.58-.63-1.6.2-3.35,1.79,1.61,3.61,3.18,5.36,4.83,15.1,14.26,30.08,28.66,45.31,42.78,11.7,10.85,23.83,21.23,35.54,32.07,1.89,1.75,3.71,3.59,5.55,5.39q4.4.92,8.92,1.77c-3.78-3.61-7.59-7.19-11.36-10.81-8.45-8.1-17.42-15.72-25.3-24.33-8.36-9.13-15.64-19.24-23.53-28.8-4.12-5-8.51-9.73-12.79-14.57-.18,0-.36-.05-.53-.09h0c0-.11,0-.23.07-.35a70,70,0,0,1-16.77-17.86c6.61,5.66,11.94,10.13,17.08,14.81.45.41-.08,1.9-.31,3.05l.15.13.29.32c1.62.28,3.51.28,4.55,1.21,14.46,12.86,29,25.7,43,39,6.7,6.31,12.37,13.7,18.84,20.28,5.73,5.84,12,11.17,17.88,16.84,1.29,1.24,2.52,2.55,3.75,3.85,3.68.6,7.47,1.14,11.27,1.68-13.5-13.79-27.49-27.1-40.81-41-17.22-18-34-36.47-51-54.74l1.62-1.79c4.44,3.89,9,7.67,13.31,11.69,9.66,9,19.35,17.93,28.79,27.13,11.06,10.76,21.68,22,32.82,32.63,9.87,9.45,19.9,18.72,29.89,28,3.45.41,7,.79,10.48,1.16-1.64-1.76-3.26-3.53-4.93-5.26-10.52-10.85-22-20.78-32.46-31.68-9.64-10.05-18.34-21-27.77-31.26-6.33-6.89-13.25-13.22-19.83-19.87-1.62-1.64-3-3.5-4.47-5.28-.14-.05-.3-.08-.44-.12l0,0c0-.18-.12-.33-.16-.51l-17.25-17.33c7.68,3.93,15,8.21,17.25,17.33l.32.33c.09.1.17.21.26.32,1.64.46,3.49.66,4.68,1.66,7.79,6.52,15.71,12.94,23,20,14.64,14.22,28.72,29,43.38,43.2,8.54,8.26,18,15.52,26.59,23.77,2.06,2,4.07,4,6.06,6.07,3,.26,6,.53,9.13.76-4-4.37-8.06-8.75-12.19-13-8.3-8.59-17.55-16.27-25.95-24.78-5.64-5.73-10.31-12.41-15.83-18.27-7.84-8.32-16.11-16.23-24.1-24.41-6.07-6.22-12-12.59-18-18.89l1.77-1.8c6.54,6.23,13,12.49,19.62,18.66,10.86,10.18,22,20.06,32.6,30.54,7.05,7,13,15.13,20,22.14s14.71,13.07,22,19.64c4,3.61,8,7.3,12,11,3.67.22,7.38.4,11.11.57-4.43-5.16-8.75-10.42-13.38-15.4-4-4.34-8.84-7.94-13.15-12s-8.54-8.47-12.81-12.71c-3.83-3.81-7.88-7.42-11.46-11.45-3.42-3.87-6-8.53-9.61-12.18-4.46-4.5-9.9-8-14.39-12.52a53,53,0,0,1-10.77-15.2l96.4,91.94q5.55.19,11.19.31l-2.17-2.21c-5.71-5.91-11.42-11.83-17.07-17.8q-12.44-13.14-24.78-26.36a16,16,0,0,1-4.26-7.76c6.11,5.28,12.28,10.49,18.32,15.86,6.29,5.6,12.53,11.27,18.64,17.06q11.19,10.63,22.31,21.36c2.71,0,5.39.07,8.13.07h2.08c-3.1-3.29-6.15-6.62-9.25-9.9-6.47-6.84-13.64-13-19.94-20-8.8-9.78-17.08-20-25.23-30.59,4.45,3.59,9,7,13.32,10.81,10.43,9.25,20.89,18.48,31,28.07,6.13,5.8,11.39,12.5,17.51,18.31,1.16,1.1,2.35,2.16,3.53,3.23q4.4-.06,8.76-.17Q9202.41,478,9195,470c-7.06-7.66-13.55-15.84-20.61-23.49-8-8.67-16.34-17-24.54-25.5.47-.53.93-1.07,1.39-1.6,5,4.2,10.1,8.19,14.79,12.66,9.55,9.11,18.58,18.79,28.34,27.66s19.86,17.14,29.75,25.75l6.56-.29c-1.83-2-3.66-3.91-5.48-5.87q-29.37-31.62-58.68-63.28c-5.31-5.7-10.86-11.18-16.3-16.76l1.61-1.62c13.94,13.39,27.18,27.64,42,39.92,14.24,11.75,26.56,25.3,40,37.82,3.24,3,6.47,6.06,9.7,9.08,2.08-.13,4.13-.28,6.19-.43l-83.32-88.85c.64-.66,1.29-1.32,1.94-2,2.42,2.36,4.76,4.81,7.27,7.07,11.78,10.67,23.78,21.11,35.38,32,12.55,11.75,24.62,24,37.12,35.82,5.3,5,10.67,9.92,16,14.82,1.92-.17,3.81-.36,5.71-.54q-10.64-11.4-21.42-22.64c-9.67-10-19.93-19.51-29.75-29.41-3.38-3.4-6.11-7.44-9.37-11-9.85-10.65-19.84-21.17-29.71-31.79-4.31-4.63-8.48-9.38-12.71-14.08l1.48-1.32,115.66,108.7c1.27-.14,2.52-.3,3.78-.45L9170.07,355.46c.17-.32.34-.64.52-1a47.94,47.94,0,0,1,5.8,4c20.52,19,41.08,37.88,61.4,57,10.79,10.17,21,20.94,31.7,31.22,11.05,10.63,22.23,21.12,33.4,31.61l3.67-.54c-.85-1.1-1.72-2.18-2.67-3.19-9.48-10.14-19.28-20-29-29.92s-19.68-19.62-29.17-29.76c-6.36-6.79-12-14.23-18.14-21.26-3.74-4.28-7.68-8.4-11.67-12.44-10.52-10.66-21.13-21.22-31.66-31.87-.44-.44-.43-1.32.8-3.42q65.79,61.8,131.6,123.58l1-1L9194.09,337.25c.37-.44.75-.87,1.13-1.3,4.64,3.78,9.5,7.31,13.88,11.37Q9236.79,373,9264.22,399c13.35,12.61,26.55,25.4,39.88,38,11.57,11,23.23,21.86,34.85,32.79-1.29-2-2.29-4.35-3.94-6-11.86-12-24.12-23.68-35.72-36-14.13-15-27.56-30.57-41.6-45.61-14.54-15.58-29.46-30.82-44.19-46.23-.48-.49-.67-1.26-.26-3.29,2.07,1.11,4.46,1.86,6.16,3.39,7.89,7.09,15.64,14.36,23.36,21.65,10.47,9.88,20.82,19.88,31.31,29.74,15,14.05,30,28,45,42.05,4.32,4.07,8.44,8.37,12.65,12.57-2.08-3.48-3.87-7.24-6.57-10.14-10.33-11.07-21.05-21.77-31.61-32.62-9.7-10-19.52-19.83-29-30-15.83-16.88-31.49-33.92-47.16-51-3.89-4.23-7.52-8.71-11.27-13.07l1.8-1.7,174.9,166.76-158.9-166.08,2-2c49.63,42.38,95.57,88.74,143.59,133L9246.75,305.75l1.71-2c3.53,2.58,7.24,4.95,10.55,7.79,11.21,9.61,22.65,19,33.27,29.2,9.2,8.86,17,19.12,26.16,28.05,8,7.85,17.06,14.64,25.54,22,5.06,4.41,9.91,9.07,14.85,13.62l-.09-.12s0,0,.05,0c-5-6.05-9.82-12.29-15.1-18.1-6.6-7.27-13.66-14.12-20.41-21.26-5.71-6-11.21-12.27-16.9-18.33-9.55-10.16-19.22-20.19-28.75-30.37-7.2-7.69-14.28-15.5-21.35-23.32a5.09,5.09,0,0,1-1-4.62c7.11,6.76,14.11,13.66,21.38,20.25,6.82,6.17,14.24,11.7,20.85,18.07,11.14,10.74,21.78,22,32.78,32.88,5,5,10.38,9.6,15.64,14.33q17.93,16.14,35.89,32.24l-.21-.27.12.11c-1.22-2-2.19-4.28-3.76-6q-23.52-25.6-47.26-51c-3.42-3.65-7.6-6.61-10.9-10.36-11.21-12.75-22.19-25.69-33.26-38.57-.32-.22-.65-.43-1-.66l.22-.22-.22.22c0-.21-.15-.38-.21-.58l-15.49-13,2.21-2.25c3.84,5.68,11,8,13.28,15.27l.43.36.75.88c6.08,4.24,12.51,8.08,18,13,8.67,7.74,16.5,16.4,24.85,24.5,7.62,7.39,15.49,14.53,23.2,21.84,11.33,10.73,22.58,21.56,33.92,32.28q18.87,17.82,37.85,35.52c-3.59-4.23-7-8.61-10.8-12.64-15.63-16.63-31.41-33.1-47.05-49.71q-27-28.75-53.94-57.64c-3.49-3.72-7.05-7.37-10.58-11.05l1.87-2.13c5.08,4.08,10.42,7.88,15.18,12.31s8.65,9.38,13.1,13.95c6.89,7.08,13.84,14.11,20.95,21,2.17,2.09,5.25,3.26,7.42,5.35,7.25,7,14.42,14.06,21.61,21.11.08-1.4.13-2.81.13-4.24,0-1.78-.1-3.55-.21-5.31-2.13-2.25-4.24-4.52-6.38-6.76-9.38-9.83-19.12-19.31-28.45-29.19-9-9.52-17.66-19.37-26.51-29-4.9-5.35-9.9-10.61-14.85-15.91l1.34-1.38,72.93,68.89a85.82,85.82,0,0,0-5.43-16q-20.91-22.17-41.8-44.36c-1.78-1-3.59-1.94-5.44-2.82-4.71-62-80.47-111.3-173.24-111.3-89.59,0-163.3,46-172.5,105a166.6,166.6,0,0,0-39.14-4.61c-47,0-87.88,19-109.46,47.23-2.77-.16-5.57-.26-8.41-.26a131.82,131.82,0,0,0-44.62,7.53C8794.9,339.9,8809.67,354.85,8824.75,369.49Zm256.83,22.36,32.5,31.82-2.5,2.52-32.08-32.25Z"/><path class="cls-2" d="M9479.13,377.48c2.14,2.12,4.27,4.25,6.42,6.36,5.72,5.59,12,10.57,18.07,15.83-.35-.46-.68-.95-1-1.42A79.71,79.71,0,0,0,9479.13,377.48Z"/><path class="cls-2" d="M9459.57,396.93q-15.65-16.71-31.34-33.44c-.71,0-1.4-.09-2.12-.09-1.57,0-3.12.06-4.67.13l36.86,34.67Z"/><path class="cls-2" d="M9490.06,448.41l-1.54,1.53,16.87,16.59c.37-.58.71-1.17,1.06-1.75Z"/><path class="cls-2" d="M9482.28,399.67c-1.12-1.85-1.92-4-3.39-5.5q-13.45-13.89-27-27.71c-2.34-.57-4.73-1.06-7.15-1.47,3.86,3.82,7.7,7.67,11.62,11.43C9464.74,384.44,9473.62,391.94,9482.28,399.67Z"/><path class="cls-2" d="M9502.88,444.64l8.86,8.88c.46-1.31.91-2.62,1.28-4l-7.54-7.51Z"/></g><g class="cls-1"><path class="cls-2" d="M1256.05,229.74q6.66,6.31,13.18,12.76C1281.15,254.31,1293,266.23,1305,278c8.61,8.44,17.48,16.61,26.17,25l.66.65c2.15-.24,4.28-.52,6.37-.88q-17.51-18.36-35.1-36.65c-19.42-20.11-39-40.06-58.49-60.14a61.71,61.71,0,0,0-4.68,8.54Q1248,222.11,1256.05,229.74Z"/><path class="cls-2" d="M2019.4,194.12a26.51,26.51,0,0,0-.37-4.18c-10.85-11.59-21.9-23-33-34.4a145.61,145.61,0,0,0-21.76-8.35Q1992,172.54,2019,198.52A27.06,27.06,0,0,0,2019.4,194.12Z"/><path class="cls-2" d="M1273.05,293.13c-5.83-6-11.69-12-17.49-18.06q-8.26-8.62-16.5-17.3C1245.05,272.38,1257.18,284.8,1273.05,293.13Z"/><path class="cls-2" d="M1314.8,304.18c1.73.08,3.47.14,5.23.14.33,0,.66,0,1,0-2.52-2.5-5.06-5-7.53-7.51-14.62-15-29-30.34-43.53-45.46-10.55-11-21.21-21.87-31.78-32.84a54.66,54.66,0,0,0-2.62,10.59q15.43,15.1,31,30.1C1282.43,274.39,1298.87,289,1314.8,304.18Z"/><path class="cls-2" d="M1278.76,233.62c9.56,9.2,18.67,18.86,28.21,28.07,13.5,13,27.12,25.94,40.67,38.91,1.35-.37,2.73-.7,4-1.12a67,67,0,0,0,20.38,19.43c-12.19-12.21-24.42-24.4-36.43-36.79-14.08-14.53-27.64-29.57-41.61-44.21-12.16-12.74-24.61-25.21-36.87-37.87-1.41-1.46-2.78-2.95-4.14-4.47a69.28,69.28,0,0,0-6.42,7.47Q1262.74,218.28,1278.76,233.62Z"/><path class="cls-2" d="M1296.52,233c14,13.52,27.45,27.5,41.3,41.12s27.69,26.71,41.42,40.19c4.73,4.65,9.41,9.36,14.1,14.06,2.81.81,5.72,1.47,8.68,2l-1.33-1.33c-17.29-17.76-34.25-35.84-51.51-53.64-12.67-13.07-25.7-25.79-38.37-38.86-11.46-11.84-22.72-23.88-33.93-36-4.27-4.59-8.16-9.54-11.9-14a11.25,11.25,0,0,1,2.69,1.62c19.56,19,39,38.22,58.62,57.15,27.09,26.1,54.44,51.93,81.54,78,2.91,2.8,5.77,5.65,8.66,8.47,1,0,1.91.08,2.88.08.66,0,1.32,0,2-.05-10.16-10.71-20.12-21.62-30.4-32.22-15.16-15.63-30.75-30.85-45.93-46.46-18.53-19-36.83-38.28-55.2-57.46-.53-.55-.76-1.39,0-3.28,5.31,4.85,10.72,9.59,15.9,14.58,8.64,8.3,17.09,16.8,25.69,25.14q17.6,17.06,35.31,34c9.56,9.17,19.21,18.26,28.74,27.46,8.39,8.09,16.54,16.43,25,24.42,4.52,4.25,9.09,8.45,13.66,12.65,1.23-.2,2.45-.4,3.66-.64l1.2.41q-7.65-7.71-15.26-15.44c-8.63-8.82-17.07-17.82-25.62-26.71s-17.45-18-26.13-27c-15.89-16.53-31.48-33.35-47.73-49.51-7.19-7.15-15.68-13-23.58-19.43l3.14-3.42a11.29,11.29,0,0,1,2.88,1.46q27.08,25.77,54,51.65,26.46,25.56,52.67,51.37c13,12.79,25.58,25.91,38.59,38.66,1.13,1.11,2.31,2.16,3.45,3.26,2.73.66,5.54,1.26,8.42,1.82-8.66-9.65-17.18-19.44-26.15-28.79-19.51-20.33-39.52-40.19-59.31-60.26-11.17-11.33-22.38-22.62-33.44-34-6.92-7.15-13.58-14.54-20.36-21.82l1.13-1.12c4.34,4.26,8.63,8.57,13,12.79q17.13,16.54,34.31,33c11.66,11.21,23.35,22.38,34.94,33.67,7.45,7.26,14.74,14.68,22.09,22,9.61,9.6,19.06,19.37,28.86,28.77,6.32,6.06,12.74,12,19.16,18,2.82.34,5.69.63,8.59.87-6.1-6.63-12.11-13.35-18.38-19.81-7.82-8-16.23-15.52-24.09-23.54-9.31-9.51-18.16-19.46-27.47-29-16.2-16.57-32.64-32.92-48.89-49.45a134.62,134.62,0,0,1-16.18-19.23c2.24,1.67,4.72,3.11,6.7,5q33.55,33,67,66.07c8,7.89,15.91,15.85,24,23.64,12.6,12.13,25.41,24.05,37.95,36.24,3.57,3.47,7,7.08,10.44,10.69,2.7.1,5.44.15,8.19.16-4.82-4.63-9.64-9.26-14.24-14.11s-7.67-11-12.22-15.78c-5.16-5.44-11.48-9.77-16.8-15.07-9.61-9.6-18.8-19.61-28.26-29.35-6.4-6.6-13-13-19.43-19.58q-21.27-21.72-42.45-43.51A11.92,11.92,0,0,1,1369,198c2.82,2.6,5.74,5.11,8.46,7.82,15.11,15,30,30.27,45.31,45.11,12,11.69,24.69,22.73,36.74,34.41,7.89,7.66,14.93,16.19,22.82,23.86,10.18,9.89,20.94,19.17,31.23,28.95,1,1,2,1.94,3,2.9,2.49-.09,5-.21,7.38-.38-1.12-1-2.25-2-3.36-3-7.13-6.47-12.38-14.71-20.49-20.4-4.33-3-6.77-8.62-10.57-12.57-17-17.66-34.2-35.1-51.25-52.69-11.16-11.51-22.18-23.13-32.42-35.55l127.64,123.33c2.84-.31,5.62-.68,8.36-1.09q-2.19-2.19-4.36-4.39c-5.76-5.83-11.61-11.57-17.33-17.43q-19.86-20.38-39.64-40.87c-9.09-9.41-18.08-18.91-27.18-28.32-2.11-2.18-4.44-4.15-6.67-6.22.47-.53.93-1.06,1.4-1.58,4.94,4.71,9.84,9.45,14.83,14.11,6.84,6.41,13.92,12.57,20.58,19.16,5,5,9.29,10.71,14.38,15.61,10.43,10.05,21.35,19.59,31.77,29.65,6.5,6.28,12.87,12.7,19.25,19.12q3.87-.72,7.59-1.56c-5.76-6-11.5-12-17.18-18-8.58-9.15-16.72-18.73-25.35-27.84-7.24-7.64-14.94-14.84-22.35-22.31a8,8,0,0,1-2.42-5.51c5.63,5.26,11.34,10.46,16.89,15.81,8.63,8.3,17.11,16.74,25.74,25,4.67,4.5,9.53,8.79,14.28,13.21q9.38,8.76,18.79,17.48c2-.55,3.91-1.12,5.78-1.72-6.52-6.66-13.1-13.28-19.48-20.08-8-8.5-15.35-17.61-23.54-25.9-8-8.16-16.79-15.62-25.22-23.39l1.55-2.16c1.26.55,2.84.79,3.73,1.69,5.83,5.94,11.36,12.18,17.29,18,3.33,3.28,7.41,5.77,10.81,9,7,6.62,13.73,13.59,20.76,20.22s14.34,13.36,21.54,20c2-.76,3.85-1.56,5.68-2.38-8.89-9.43-17.6-19-26.47-28.49-9.23-9.83-18.6-19.52-27.86-29.31-.47-.5-.54-1.38.17-2.88,1.55,1.38,3.12,2.74,4.63,4.16,13,12.33,26,24.76,39.14,37,5.82,5.39,11.74,10.66,17.66,15.94,1.38-.76,2.72-1.54,4-2.34-3.47-3.26-6.9-6.57-10.11-10.07-7.21-7.89-13.5-16.62-20.32-24.88-3.56-4.3-7.36-8.4-11-12.58l-.45-.08h0c0-.09,0-.2.06-.3a60.84,60.84,0,0,1-14.49-15.43c5.72,4.89,10.32,8.75,14.76,12.79.39.36-.08,1.65-.27,2.64l.13.11c.08.09.17.18.25.28,1.4.24,3,.24,3.93,1,12.49,11.11,25,22.2,37.17,33.67,2.58,2.43,5,5,7.35,7.71a45,45,0,0,0,4.24-4.12c-.71-.74-1.44-1.46-2.15-2.2-14.87-15.57-29.36-31.51-44-47.29l1.39-1.55c3.84,3.36,7.76,6.63,11.5,10.1,8.35,7.75,16.71,15.49,24.87,23.44,4.14,4,8.21,8.14,12.28,12.25a22.88,22.88,0,0,0,3-8.35c-2.74-3.17-5.49-6.33-8.33-9.41-5.46-5.94-11.44-11.42-17.13-17.16-1.39-1.41-2.59-3-3.85-4.56l-.38-.11h0c0-.16-.1-.29-.14-.44l-14.9-15c6.63,3.39,12.94,7.1,14.9,15l.28.28.23.28c1.41.4,3,.57,4,1.43,6.72,5.64,13.57,11.18,19.86,17.28,2.68,2.61,5.3,5.29,8,7.93q6.35.63,12.86,1.11c-4.89-4.95-9.83-9.84-14.69-14.82-5.24-5.37-10.34-10.87-15.51-16.31l1.54-1.56c5.64,5.38,11.25,10.79,16.94,16.12,6.07,5.69,12.2,11.31,18.28,17,4.67.29,9.41.51,14.2.69-.09-.1-.17-.22-.27-.32-3.86-3.89-8.55-6.94-12.43-10.81a45.81,45.81,0,0,1-9.31-13.13l25.58,24.39q7.1.21,14.35.24L1642.79,272l1.79-1.81,26.83,26.25c11,0,21.8-.36,32.26-1l-.11-.12,1.2-1.38c.53.45,1.07.88,1.6,1.32,4.9-.31,9.74-.68,14.49-1.12-1-1-1.92-2.08-2.89-3.11-4.58-4.93-9.38-9.66-14.08-14.47.46-.47.92-.94,1.39-1.4,6.39,6.13,12.62,12.46,19,18.65,4-.4,8-.83,11.88-1.31l-18.26-19.48,1.68-1.7c2.09,2,4.12,4.16,6.28,6.12,5.3,4.79,10.64,9.54,16,14.31,3.32-.45,6.6-.92,9.81-1.44-7.42-8-14.9-15.9-22.32-23.88-3.72-4-7.32-8.11-11-12.17l1.28-1.14L1758,289.28c3.07-.54,6.09-1.11,9-1.7l-46-48.81.44-.83a41.06,41.06,0,0,1,5,3.44q24.07,22.25,48,44.61c2.3-.51,4.55-1,6.77-1.59-3.55-4.18-7-8.47-10.58-12.6-3.23-3.7-6.63-7.25-10.08-10.75-9.09-9.2-18.25-18.33-27.35-27.53-.37-.38-.37-1.14.69-3l55.15,51.78c2.26-.62,4.47-1.27,6.63-1.93l-54-57.38c.32-.37.64-.75,1-1.12,4,3.26,8.21,6.32,12,9.83q23.92,22.19,47.61,44.61l1.51,1.44q2.85-1,5.55-2c-4.2-4.66-8.41-9.31-12.69-13.9-12.57-13.46-25.46-26.62-38.18-39.93-.41-.43-.58-1.09-.22-2.85,1.79,1,3.85,1.61,5.32,2.93,6.82,6.13,13.51,12.41,20.18,18.71,9,8.53,18,17.17,27,25.69l6.47,6.05c1.47-.65,2.9-1.32,4.28-2-6.4-6.53-12.8-13.05-19-19.71-13.68-14.59-27.21-29.31-40.75-44-3.36-3.65-6.49-7.52-9.73-11.29l1.55-1.47,75.79,72.27c1.44-.86,2.81-1.74,4.11-2.62q-33.16-34.65-66.07-69.06l1.75-1.75c24.52,20.94,48,43,71.37,65.22,1-1,2-1.94,2.83-2.92l-56.16-59.29,1.47-1.76c3,2.24,6.26,4.29,9.12,6.74,9.68,8.3,19.56,16.4,28.73,25.22,7.42,7.15,13.85,15.32,21.09,22.66a21,21,0,0,0,1.47-3.95c.85.19,1.75.32,2.61.49-4.36-4.67-8.61-9.43-13-14.08-8.24-8.78-16.6-17.45-24.83-26.24-6.22-6.65-12.34-13.39-18.45-20.14a4.46,4.46,0,0,1-.89-4c6.15,5.84,12.19,11.8,18.48,17.49,5.89,5.34,12.3,10.11,18,15.62,9.62,9.27,18.81,19,28.31,28.4,1.79,1.78,3.66,3.48,5.53,5.19,3,.42,6.06.84,9.19,1.16-4.79-5.16-9.54-10.35-14.35-15.49-3-3.16-6.57-5.72-9.42-9-9.68-11-19.17-22.19-28.73-33.31l-.84-.58.19-.18-.19.18c0-.18-.13-.32-.18-.49l-13.38-11.25,1.91-2c3.32,4.91,9.53,6.89,11.47,13.2l.37.31.65.76c5.25,3.65,10.8,7,15.54,11.2,7.48,6.69,14.25,14.17,21.47,21.17,6.58,6.39,13.38,12.55,20,18.86l7.85,7.47c2.29.12,4.64.13,7,.18-.92-1-1.85-1.95-2.78-2.93Q1867.33,222,1844.1,197c-3-3.22-6.09-6.37-9.14-9.55l1.61-1.84c4.39,3.52,9,6.81,13.11,10.63s7.48,8.1,11.32,12c6,6.12,12,12.19,18.1,18.12,1.88,1.81,4.53,2.81,6.41,4.62,6.45,6.22,12.83,12.51,19.24,18.79q3.7-.07,7.37-.25-6.7-7.24-13.53-14.39c-8.1-8.49-16.51-16.69-24.58-25.22-7.77-8.22-15.24-16.74-22.89-25.08-4.23-4.62-8.55-9.17-12.83-13.75l1.16-1.19,83.49,78.87q2.8-.27,5.56-.58l-68.36-72.56,1.67-1.77,77.43,72.83c1.67-.28,3.33-.57,5-.87l-75.47-80.52c1.37-.08,2.57-.54,3-.14,5.9,5.16,11.76,10.36,17.48,15.72,2.73,2.56,5,5.65,7.71,8.19,11.84,10.93,24,21.57,35.64,32.66,7.53,7.15,14.89,14.49,22.26,21.81,1.38-.34,2.74-.69,4.09-1q-10.87-11.16-21.68-22.38c-7.19-7.51-13.75-15.62-20.8-23.27-8.1-8.8-16.44-17.39-24.68-26.07q-2-2.07-3.91-4.16l1.28-1.45c3.54,3.22,7.07,6.46,10.63,9.66,7.15,6.43,14.34,12.81,21.46,19.28,11.79,10.71,23.75,21.25,35.24,32.26,4.43,4.25,8.79,8.58,13.13,12.93l3-1c-.44-.44-.89-.88-1.32-1.33-5.78-5.85-11.58-11.69-17-17.86-7.08-8.05-13.55-16.64-20.74-24.59-9.52-10.53-19.44-20.72-29.3-30.94-3.51-3.64-7.36-7-11.06-10.41.39-.47.77-.94,1.15-1.42,3.42,2.58,7.1,4.86,10.19,7.78,6.53,6.17,11.74,13.52,19.17,19,7,5.18,12.69,12.17,19.09,18.21,12.92,12.17,26,24.13,38.88,36.38l1.13,1.1q2.21-1,4.29-2c-2.18-2.26-4.34-4.55-6.54-6.8-6.5-6.67-13.48-12.88-20-19.54-4.7-4.81-8.79-10.21-13.49-15-7.65-7.86-15.65-15.37-23.32-23.22-2.18-2.23-3.69-5.11-5.51-7.69l-15.63-16.1,1.68-1.66,15.46,16.23c6.59,6.29,13.07,12.7,19.78,18.85,17.4,16,34.93,31.75,52.33,47.68,1,1,2,2,3,3,1.16-.7,2.28-1.42,3.37-2.15-.33-.35-.69-.69-1-1-14.58-15.4-28.76-31.19-43.36-46.58-7.76-8.17-16.14-15.75-24-23.79-2.09-2.13-3.45-5-6.13-9,2.51,1.24,4.17,1.62,5.18,2.63,7.75,7.74,15.25,15.73,23.07,23.39,5.64,5.53,11.71,10.61,17.48,16,10.69,10,21.27,20.08,31.94,30.08l3.52,3.28c1.3-1.11,2.51-2.26,3.65-3.41-.57-.59-1.15-1.17-1.72-1.75q-8.87-9-17.56-18.26-15.63-16.53-31.18-33.15c-4.47-4.77-9-9.5-13.34-14.39a28.63,28.63,0,0,1-2.9-4.93l1.54-1.17,70.38,67.42a36.71,36.71,0,0,0,2.57-4.35q-9.81-10.08-19.47-20.28c-10.91-11.51-21.73-23.11-32.6-34.66q-3-3.21-6-6.44a234,234,0,0,0-58.61-7.12,256.59,256.59,0,0,0-25.79,1.3c-6.64-25.07-31.35-43.72-60.89-43.72A65.6,65.6,0,0,0,1768.12,113a57.62,57.62,0,0,0,.45-7c0-28.81-21.66-53.12-51.37-60.95A77.24,77.24,0,0,0,1572,96.1c-1.13-.08-2.26-.19-3.41-.19a50.89,50.89,0,0,0-32.2,11.77,87.43,87.43,0,0,0-157.76-1.57c-.39,0-.76-.06-1.16-.06a67.15,67.15,0,0,0-67,64.06c-22.18,2-41.73,10.71-55.41,23.5C1268.93,206.68,1282.83,219.72,1296.52,233Z"/><path class="cls-2" d="M1292.05,300.57c2.65.74,5.37,1.36,8.14,1.89-1.16-1.21-2.33-2.41-3.48-3.62-11.84-12.35-23.28-25.08-35.19-37.37-8.74-9-17.61-17.87-26.47-26.76,0,.77-.14,1.52-.14,2.29a53.51,53.51,0,0,0,.74,8.71c5,5.09,10.09,10.19,15.22,15.2C1264.51,274.22,1278.32,287.36,1292.05,300.57Z"/></g><g class="cls-1"><path class="cls-2" d="M5427,1669.77q4.78,4.53,9.48,9.17c8.57,8.49,17.06,17.06,25.67,25.5,6.2,6.07,12.57,11.94,18.82,18l.47.46c1.55-.17,3.08-.37,4.58-.63q-12.58-13.2-25.23-26.35c-14-14.46-28.05-28.8-42.05-43.23a43.15,43.15,0,0,0-3.36,6.14Q5421.17,1664.28,5427,1669.77Z"/><path class="cls-2" d="M5975.75,1644.16a18.82,18.82,0,0,0-.27-3c-7.8-8.33-15.75-16.53-23.69-24.73a104.93,104.93,0,0,0-15.64-6q19.88,18.22,39.3,36.9A18.68,18.68,0,0,0,5975.75,1644.16Z"/><path class="cls-2" d="M5439.2,1715.34c-4.2-4.33-8.41-8.63-12.58-13q-5.94-6.21-11.86-12.45C5419.07,1700.42,5427.78,1709.35,5439.2,1715.34Z"/><path class="cls-2" d="M5469.21,1723.28c1.24.06,2.49.1,3.75.1.25,0,.48,0,.72,0-1.81-1.79-3.63-3.57-5.41-5.4-10.51-10.81-20.84-21.81-31.29-32.68-7.59-7.9-15.25-15.72-22.85-23.6a39.56,39.56,0,0,0-1.88,7.61q11.1,10.86,22.28,21.64C5445.93,1701.87,5457.75,1712.38,5469.21,1723.28Z"/><path class="cls-2" d="M5443.3,1672.56c6.87,6.61,13.42,13.56,20.28,20.18,9.71,9.36,19.49,18.64,29.24,28,1-.26,2-.49,2.91-.8a48.2,48.2,0,0,0,14.65,14c-8.77-8.78-17.55-17.54-26.19-26.45-10.13-10.44-19.87-21.26-29.91-31.78-8.75-9.16-17.7-18.13-26.51-27.23-1-1-2-2.12-3-3.21a50.54,50.54,0,0,0-4.61,5.37Q5431.78,1661.52,5443.3,1672.56Z"/><path class="cls-2" d="M5456.07,1672.1c10,9.72,19.73,19.77,29.69,29.56s19.9,19.21,29.77,28.9c3.41,3.34,6.77,6.72,10.14,10.1,2,.59,4.11,1.06,6.24,1.46l-.95-1c-12.44-12.77-24.63-25.77-37-38.56-9.12-9.4-18.48-18.54-27.59-27.94-8.24-8.51-16.34-17.17-24.4-25.85-3.06-3.3-5.86-6.86-8.55-10a7.7,7.7,0,0,1,1.93,1.16c14.06,13.68,28,27.47,42.15,41.08,19.48,18.77,39.13,37.34,58.62,56.1,2.09,2,4.15,4.06,6.22,6.09.69,0,1.37.06,2.07.06.48,0,.95,0,1.43,0-7.31-7.7-14.47-15.54-21.86-23.16-10.9-11.24-22.1-22.18-33-33.4-13.32-13.69-26.48-27.52-39.68-41.31-.38-.4-.55-1,0-2.36,3.82,3.49,7.71,6.9,11.43,10.48,6.21,6,12.28,12.08,18.47,18.08q12.65,12.26,25.39,24.44c6.87,6.59,13.8,13.12,20.65,19.74,6,5.82,11.9,11.81,18,17.55,3.25,3.06,6.53,6.08,9.82,9.1.88-.14,1.76-.29,2.63-.46l.86.29c-3.66-3.69-7.33-7.38-11-11.1-6.2-6.34-12.27-12.81-18.42-19.2s-12.54-12.93-18.78-19.43c-11.42-11.88-22.63-24-34.32-35.59-5.16-5.14-11.27-9.34-16.94-14l2.25-2.46a8.46,8.46,0,0,1,2.08,1q19.45,18.52,38.84,37.13,19,18.38,37.86,36.93c9.32,9.19,18.39,18.63,27.74,27.79.81.8,1.66,1.56,2.48,2.35,2,.47,4,.91,6.05,1.3-6.22-6.93-12.35-14-18.79-20.69-14-14.62-28.42-28.89-42.64-43.32-8-8.15-16.09-16.26-24-24.48-5-5.14-9.77-10.45-14.64-15.68l.82-.81c3.11,3.06,6.2,6.16,9.35,9.19q12.31,11.89,24.67,23.75c8.37,8.06,16.78,16.09,25.11,24.2,5.36,5.22,10.59,10.56,15.88,15.85,6.91,6.9,13.7,13.92,20.75,20.68,4.54,4.36,9.16,8.65,13.77,12.94,2,.25,4.09.45,6.18.63-4.39-4.77-8.71-9.6-13.22-14.25-5.62-5.79-11.67-11.15-17.31-16.92-6.7-6.83-13.06-14-19.75-20.83-11.65-11.92-23.47-23.67-35.15-35.55a97.31,97.31,0,0,1-11.63-13.82,45.33,45.33,0,0,1,4.82,3.63q24.12,23.7,48.15,47.49c5.74,5.67,11.43,11.4,17.25,17,9.05,8.72,18.26,17.29,27.27,26.06,2.57,2.49,5,5.09,7.51,7.68,1.94.08,3.91.11,5.89.12-3.47-3.33-6.93-6.66-10.24-10.14s-5.51-7.89-8.78-11.35c-3.71-3.91-8.26-7-12.08-10.83-6.91-6.9-13.52-14.1-20.32-21.1-4.6-4.75-9.34-9.36-14-14.08q-15.28-15.6-30.51-31.27a8.65,8.65,0,0,1-2.6-4.19c2,1.87,4.13,3.68,6.08,5.62,10.87,10.81,21.58,21.76,32.57,32.43,8.66,8.41,17.76,16.34,26.42,24.74,5.68,5.5,10.74,11.64,16.41,17.15,7.32,7.11,15.05,13.79,22.45,20.82.72.68,1.41,1.39,2.13,2.08,1.78-.07,3.55-.16,5.3-.27-.81-.71-1.62-1.41-2.41-2.13-5.13-4.65-8.91-10.58-14.74-14.67-3.11-2.18-4.86-6.2-7.59-9-12.22-12.69-24.59-25.23-36.85-37.88-8-8.27-15.95-16.62-23.3-25.55l91.76,88.66c2-.23,4-.49,6-.78q-1.57-1.57-3.14-3.16c-4.14-4.19-8.34-8.31-12.45-12.53q-14.29-14.65-28.5-29.38c-6.54-6.76-13-13.59-19.54-20.36-1.52-1.57-3.19-3-4.8-4.47l1-1.14c3.55,3.39,7.07,6.8,10.66,10.15,4.92,4.6,10,9,14.79,13.77,3.62,3.57,6.69,7.7,10.34,11.22,7.5,7.22,15.35,14.08,22.84,21.32,4.67,4.51,9.26,9.13,13.84,13.74,1.86-.34,3.67-.72,5.45-1.12q-6.21-6.44-12.34-12.94c-6.17-6.58-12-13.46-18.23-20-5.2-5.49-10.74-10.67-16.07-16a5.85,5.85,0,0,1-1.74-4c4.05,3.78,8.15,7.52,12.15,11.36,6.2,6,12.3,12,18.5,18,3.36,3.23,6.86,6.31,10.27,9.49q6.73,6.3,13.5,12.57c1.42-.4,2.81-.8,4.16-1.24-4.69-4.79-9.41-9.55-14-14.43-5.75-6.11-11-12.66-16.93-18.63s-12.06-11.23-18.13-16.81l1.12-1.55c.9.39,2,.56,2.68,1.22,4.19,4.27,8.17,8.75,12.43,12.94,2.39,2.36,5.33,4.15,7.77,6.45,5.06,4.76,9.87,9.77,14.92,14.53s10.31,9.61,15.49,14.39q2.11-.83,4.08-1.71c-6.39-6.78-12.65-13.69-19-20.48-6.63-7.07-13.37-14-20-21.07-.34-.36-.4-1,.12-2.08,1.11,1,2.24,2,3.33,3,9.37,8.86,18.68,17.8,28.14,26.57,4.18,3.87,8.43,7.66,12.69,11.46,1-.55,1.95-1.11,2.86-1.68-2.5-2.35-5-4.73-7.27-7.24-5.19-5.67-9.71-12-14.61-17.89-2.55-3.09-5.28-6-7.94-9l-.33,0h0a2.09,2.09,0,0,1,.05-.21,43.53,43.53,0,0,1-10.42-11.1c4.11,3.52,7.42,6.29,10.61,9.2.28.25-.05,1.18-.19,1.9l.09.08.18.19c1,.18,2.18.18,2.83.75,9,8,18,16,26.72,24.21,1.85,1.74,3.58,3.63,5.28,5.54a33.08,33.08,0,0,0,3.05-3c-.51-.53-1-1-1.54-1.59-10.7-11.19-21.11-22.64-31.65-34l1-1.11c2.76,2.41,5.58,4.77,8.27,7.26,6,5.57,12,11.13,17.88,16.85,3,2.9,5.9,5.85,8.82,8.81a16.3,16.3,0,0,0,2.15-6c-2-2.28-3.95-4.55-6-6.76-3.93-4.27-8.22-8.21-12.31-12.34-1-1-1.86-2.17-2.77-3.28l-.28-.07h0a3,3,0,0,0-.1-.32l-10.71-10.76c4.77,2.44,9.3,5.1,10.71,10.76l.21.2a1.56,1.56,0,0,0,.16.2,8.12,8.12,0,0,1,2.9,1c4.84,4.06,9.76,8,14.28,12.43,1.93,1.87,3.81,3.8,5.72,5.7,3,.29,6.11.56,9.24.79-3.51-3.55-7.06-7.07-10.56-10.65-3.77-3.86-7.43-7.82-11.15-11.73l1.11-1.12c4,3.87,8.09,7.76,12.18,11.59,4.36,4.09,8.77,8.13,13.14,12.21q5,.32,10.21.5c-.07-.07-.13-.16-.2-.23-2.77-2.79-6.15-5-8.94-7.77a33.08,33.08,0,0,1-6.69-9.44l18.39,17.54c3.4.1,6.84.15,10.32.17L5705,1700.16l1.29-1.3,19.28,18.87c7.92,0,15.68-.26,23.2-.71a.3.3,0,0,1-.08-.08l.86-1,1.15,1c3.52-.23,7-.49,10.42-.8l-2.08-2.25c-3.3-3.54-6.75-6.94-10.13-10.4.34-.33.67-.67,1-1,4.6,4.41,9.08,9,13.64,13.41q4.33-.42,8.54-.94l-13.13-14,1.21-1.22c1.5,1.47,3,3,4.51,4.39,3.81,3.45,7.65,6.87,11.48,10.29,2.39-.32,4.75-.66,7.06-1-5.34-5.73-10.71-11.43-16.05-17.17-2.67-2.87-5.26-5.83-7.89-8.75l.92-.81,27.62,26q3.32-.58,6.5-1.22-16.53-17.55-33.08-35.09l.32-.6a29.53,29.53,0,0,1,3.61,2.48c11.53,10.66,23.08,21.31,34.53,32.06,1.65-.36,3.27-.75,4.86-1.14-2.55-3-5-6.09-7.6-9.06-2.32-2.66-4.76-5.21-7.25-7.72-6.53-6.62-13.12-13.18-19.65-19.79-.28-.28-.27-.82.49-2.13l39.64,37.23q2.45-.67,4.77-1.39l-38.8-41.25.7-.81c2.88,2.35,5.9,4.55,8.62,7.07q17.19,15.94,34.23,32.07l1.08,1c1.37-.48,2.7-1,4-1.46-3-3.35-6.05-6.7-9.12-10-9-9.68-18.3-19.14-27.45-28.71-.29-.31-.41-.79-.16-2.05a18.88,18.88,0,0,1,3.83,2.11c4.9,4.41,9.71,8.92,14.5,13.44,6.51,6.14,12.94,12.35,19.45,18.47l4.66,4.36c1.05-.47,2.07-1,3.07-1.44-4.6-4.69-9.2-9.38-13.69-14.17-9.83-10.48-19.56-21.07-29.29-31.65-2.42-2.63-4.67-5.4-7-8.11l1.12-1.06,54.48,52c1-.62,2-1.24,2.95-1.88l-47.49-49.65,1.26-1.26c17.63,15.06,34.5,30.93,51.3,46.89a28.58,28.58,0,0,0,2-2.1l-40.38-42.62,1.07-1.26c2.19,1.6,4.49,3.07,6.55,4.84,7,6,14.06,11.78,20.65,18.13,5.34,5.14,10,11,15.17,16.29a15,15,0,0,0,1.05-2.84c.61.13,1.26.23,1.88.35-3.13-3.35-6.19-6.78-9.34-10.12-5.93-6.31-11.93-12.54-17.85-18.86-4.47-4.78-8.87-9.63-13.26-14.49a3.16,3.16,0,0,1-.64-2.87c4.42,4.2,8.76,8.49,13.28,12.58,4.23,3.83,8.84,7.27,12.95,11.22,6.91,6.67,13.52,13.66,20.35,20.42,1.29,1.28,2.63,2.5,4,3.73,2.18.31,4.36.61,6.61.83-3.44-3.7-6.86-7.44-10.32-11.13-2.12-2.27-4.72-4.11-6.76-6.44-7-7.92-13.79-16-20.66-24l-.6-.41.13-.13-.13.13c0-.13-.1-.23-.14-.36l-9.61-8.08c.46-.47.91-.94,1.37-1.4,2.39,3.52,6.85,5,8.24,9.48l.27.23.47.54c3.78,2.63,7.77,5,11.17,8.06,5.38,4.81,10.25,10.18,15.43,15.21,4.74,4.6,9.62,9,14.41,13.57l5.64,5.36c1.65.09,3.34.09,5,.13-.67-.7-1.34-1.4-2-2.11q-16.8-17.85-33.5-35.79c-2.17-2.31-4.38-4.58-6.57-6.86l1.16-1.33c3.16,2.53,6.47,4.9,9.42,7.64s5.38,5.83,8.14,8.67c4.28,4.4,8.6,8.76,13,13,1.35,1.3,3.26,2,4.61,3.33,4.64,4.47,9.23,9,13.83,13.5,1.78,0,3.55-.09,5.3-.18q-4.83-5.2-9.72-10.34c-5.83-6.11-11.88-12-17.67-18.13-5.59-5.91-11-12-16.46-18-3.05-3.33-6.15-6.59-9.22-9.88.27-.29.55-.58.83-.86l60,56.69c1.34-.12,2.67-.26,4-.41l-49.14-52.17,1.2-1.27,55.67,52.36c1.2-.2,2.39-.41,3.56-.63l-54.25-57.88c1-.06,1.84-.38,2.17-.1,4.25,3.71,8.46,7.45,12.57,11.3,2,1.84,3.57,4.06,5.55,5.89,8.51,7.86,17.22,15.5,25.62,23.48,5.41,5.14,10.7,10.41,16,15.68l2.94-.75q-7.81-8-15.59-16.09c-5.17-5.4-9.88-11.23-14.95-16.73-5.83-6.32-11.82-12.5-17.74-18.74-.94-1-1.88-2-2.81-3,.3-.35.61-.69.92-1,2.55,2.31,5.08,4.64,7.64,6.94,5.14,4.63,10.31,9.21,15.43,13.86,8.47,7.7,17.07,15.28,25.33,23.2,3.19,3,6.32,6.16,9.44,9.29.72-.24,1.43-.49,2.13-.74l-.95-1c-4.15-4.2-8.32-8.4-12.22-12.83-5.09-5.79-9.74-12-14.91-17.69-6.85-7.57-14-14.89-21.06-22.24-2.53-2.61-5.3-5-7.95-7.48l.82-1a85.82,85.82,0,0,1,7.33,5.59c4.69,4.43,8.43,9.72,13.77,13.66,5.05,3.72,9.13,8.74,13.73,13.08,9.29,8.75,18.72,17.35,27.95,26.16.28.26.54.53.81.79,1.06-.48,2.09-1,3.09-1.46-1.57-1.63-3.13-3.27-4.7-4.89-4.68-4.79-9.69-9.26-14.37-14.05-3.38-3.46-6.33-7.34-9.7-10.8-5.5-5.65-11.26-11-16.77-16.69a45,45,0,0,1-4-5.53L5891.76,1608l1.2-1.19,11.12,11.67c4.73,4.52,9.39,9.13,14.21,13.55,12.51,11.46,25.12,22.82,37.63,34.28.75.68,1.44,1.43,2.14,2.17.83-.51,1.64-1,2.42-1.55-.24-.25-.49-.49-.73-.75-10.48-11.07-20.67-22.42-31.17-33.48-5.58-5.88-11.61-11.33-17.29-17.11-1.51-1.53-2.48-3.58-4.41-6.43,1.81.89,3,1.16,3.73,1.89,5.57,5.56,11,11.3,16.58,16.81,4.06,4,8.42,7.63,12.57,11.5,7.68,7.18,15.29,14.43,23,21.63l2.53,2.35c.94-.8,1.8-1.62,2.62-2.45l-1.23-1.26q-6.37-6.5-12.63-13.12-11.23-11.88-22.41-23.83c-3.22-3.43-6.47-6.84-9.6-10.35a21,21,0,0,1-2.08-3.54l1.11-.84,50.59,48.47a25.27,25.27,0,0,0,1.85-3.14q-7.05-7.23-14-14.57c-7.84-8.28-15.62-16.62-23.43-24.92q-2.18-2.31-4.34-4.63a168.15,168.15,0,0,0-42.14-5.12,182.86,182.86,0,0,0-18.54.94c-4.77-18-22.53-31.44-43.77-31.44a47.16,47.16,0,0,0-32.15,12.31,41.6,41.6,0,0,0,.33-5c0-20.72-15.58-38.19-36.93-43.82a55.53,55.53,0,0,0-104.37,36.67c-.81-.06-1.62-.15-2.45-.15a36.56,36.56,0,0,0-23.15,8.47,62.86,62.86,0,0,0-113.41-1.13c-.28,0-.55,0-.83,0a48.26,48.26,0,0,0-48.2,46.05c-15.95,1.41-30,7.7-39.83,16.9C5436.23,1653.19,5446.23,1662.57,5456.07,1672.1Z"/><path class="cls-2" d="M5452.85,1720.69c1.91.52,3.86,1,5.85,1.35l-2.5-2.59c-8.51-8.88-16.74-18-25.3-26.87-6.28-6.47-12.66-12.85-19-19.24,0,.55-.1,1.09-.1,1.64a39.39,39.39,0,0,0,.52,6.27c3.63,3.66,7.26,7.32,10.95,10.92C5433.06,1701.74,5443,1711.19,5452.85,1720.69Z"/></g><g class="cls-1"><path class="cls-2" d="M1874.28,1676.31c-5-8.93-12.6-15.24-20.88-20.88Z"/><path class="cls-2" d="M1912.3,1642.69c8.64,8.49,17.16,17.1,25.72,25.66,1.09-.44,2.12-.92,3.17-1.38q-14.42-14.78-28.83-29.56c-11.47-11.78-22.95-23.55-34.33-35.43q-12.77-13.34-25.49-26.74c-2.74.47-5.44,1-8.07,1.6q16.17,15.83,32.37,31.64C1888.61,1619.93,1900.58,1631.18,1912.3,1642.69Z"/><path class="cls-2" d="M1877.45,1659.24q-24.21-25-48.6-50c-6.29-6.4-12.79-12.61-19.15-19-1.14.69-2.25,1.39-3.32,2.12,2.22,2.09,4.47,4.17,6.66,6.29q20.34,19.65,40.41,39.58c7.18,7.12,14,14.55,21.21,21.7,1.77,1.77,4.12,3,6.2,4.43C1879.74,1662.7,1878.87,1660.71,1877.45,1659.24Z"/><path class="cls-2" d="M1963.54,1671.37q-22.43-22.57-44.36-45.62c-11.84-12.35-23.28-25.08-35.19-37.37-5.49-5.65-11.06-11.22-16.63-16.8.11.59.16,1.2.28,1.79q-4,.32-8,.81c4.53,4.57,9,9.15,13.65,13.64,16.46,16,33.18,31.83,49.67,47.83,12.13,11.77,24.13,23.67,36.19,35.51,1.94.62,4,1.24,6,1.84Z"/><path class="cls-2" d="M1819.37,1638.27c-6-6.18-11.87-12.41-17.9-18.52-3.73-3.79-8.18-7.06-11.34-11.2-.57.92-1.12,1.85-1.6,2.8l29.85,27.84Z"/><path class="cls-2" d="M2435.55,1525.17c5.89,5.34,12.3,10.11,18,15.62,9.62,9.27,18.81,19,28.31,28.4,4.34,4.29,9,8.29,13.52,12.38q11.27,10.15,22.56,20.26c0-.84.08-1.68.08-2.54,0-.21,0-.42,0-.64q-17.82-19.37-35.77-38.6c-2.95-3.16-6.56-5.72-9.41-9-7.87-8.94-15.6-18-23.35-27a122.27,122.27,0,0,0-18.77-3.42C2432.32,1522.16,2433.91,1523.69,2435.55,1525.17Z"/><path class="cls-2" d="M2459.63,1529c7.49,6.69,14.26,14.17,21.47,21.17,6.58,6.39,13.38,12.55,20,18.86q7.41,7,14.79,14.07a68,68,0,0,0-3.68-10.34q-17.43-18.52-34.76-37.14a109.74,109.74,0,0,0-21.59-9.66C2457.18,1526.91,2458.44,1527.92,2459.63,1529Z"/><path class="cls-2" d="M1891.71,1569.41c11.91,11.81,23.72,23.73,35.71,35.47,8.61,8.44,17.49,16.61,26.17,25,12.14,11.71,24.2,23.5,36.31,35.23,6.29,6.09,12.61,12.13,18.9,18.2l4.29.79c-3.5-3.5-7-7-10.46-10.53-9-9.18-17.78-18.54-26.66-27.83-16.81-17.58-33.54-35.24-50.44-52.74-18.45-19.09-37-38-55.53-57.1a73.16,73.16,0,0,0-2.66,10.2c3.73,3.53,7.46,7,11.18,10.57Q1885.18,1563,1891.71,1569.41Z"/><path class="cls-2" d="M1842.57,1592.65c11.07,10.69,22.32,21.2,33.27,32,16.21,16,32.27,32.22,48.44,48.3,1-.27,2-.58,2.94-.87-7.68-7.67-15.35-15.34-22.93-23.1-9.75-10-19-20.49-28.71-30.51-10-10.27-20.46-20-30.36-30.36-2.93-3.07-5.83-6.17-8.76-9.24q-3.12.9-6.11,1.92Q1836.46,1586.75,1842.57,1592.65Z"/><path class="cls-2" d="M1877,1640.23q-26.57-26.82-52.73-54.06c-.71-.73-1.39-1.49-2.1-2.23-1.48.64-2.94,1.29-4.36,2q13.76,13.33,27.5,26.67c12.9,12.48,26,24.78,38.68,37.46,8.62,8.61,17,17.44,25.47,26.22,1.24-.21,2.47-.43,3.69-.67-2.15-2.18-4.29-4.38-6.46-6.55C1897,1659.25,1886.74,1650,1877,1640.23Z"/><path class="cls-2" d="M1958.12,1609c-14.09-14.53-27.64-29.57-41.61-44.21-12.17-12.74-24.62-25.21-36.87-37.87-1.29-1.33-2.54-2.68-3.78-4.06a77,77,0,0,0-4.48,9.24q15,14.14,29.85,28.4c9.56,9.2,18.67,18.86,28.22,28.07,19.47,18.8,39.29,37.24,58.63,56.18,14.24,14,28.31,28.08,42.39,42.2l5.35.8q-13.85-14.22-27.75-28.39C1991.45,1642.57,1974.57,1626,1958.12,1609Z"/><path class="cls-2" d="M1799.17,1598c-1,.91-2,1.84-2.92,2.79l24.15,21.72-.19-.19.12.09c-1.79-2.82-3.24-6-5.49-8.36C1809.71,1608.65,1804.45,1603.34,1799.17,1598Z"/><path class="cls-2" d="M1844,1646c-5.24-5.87-10.35-11.87-15.79-17.55-2.26-2.35-5.21-4-7.86-6a.22.22,0,0,1,.05.08Z"/><path class="cls-2" d="M1938.29,1632c8.5,8.11,16.23,17,24.57,25.32,7.07,7,14.34,13.86,21.55,20.75q3.16.77,6.45,1.49c-8.54-9-17.07-17.95-25.7-26.82-9.58-9.84-19.61-19.25-29.19-29.1-14.62-15-29-30.34-43.52-45.46-8.6-9-17.25-17.83-25.88-26.74a71.16,71.16,0,0,0-.43,7.47c0,1.74.14,3.44.27,5.15,7.53,7.34,15,14.69,22.63,22C1905.24,1601.62,1922,1616.54,1938.29,1632Z"/><path class="cls-2" d="M2077.12,1676.43c.63,1.75.82,3.93,2,5.1,4.33,4.27,8.79,8.43,13.23,12.58,1.77.15,3.54.29,5.32.42-4.32-4.33-8.64-8.66-13.07-12.88-2.15-2.05-4.87-3.49-7.35-5.19,0,0,0,.07,0,.1Z"/><path class="cls-2" d="M1919,1559.9c14,13.52,27.46,27.5,41.31,41.12s27.69,26.71,41.41,40.19c12.14,11.92,24,24.11,36.13,36,4.3,4.22,8.65,8.4,13,12.58q3.41.43,6.86.84c-11.49-11.58-23.13-23-34.51-34.7-17.29-17.76-34.26-35.84-51.51-53.64-12.68-13.07-25.71-25.79-38.37-38.86-11.47-11.84-22.73-23.88-33.94-36-4.27-4.59-8.16-9.54-11.9-14a11.06,11.06,0,0,1,2.69,1.62c19.56,19,39,38.22,58.62,57.15,27.1,26.1,54.44,51.93,81.54,78q18.77,18.06,37,36.72c1.66,1.71,3.26,3.47,4.9,5.2,1.69.17,3.37.35,5.08.51q-12.35-12.32-24.58-24.73c-13.31-13.58-26-27.77-39.24-41.42-15.17-15.63-30.75-30.85-45.94-46.46-18.52-19-36.83-38.28-55.2-57.46-.53-.55-.76-1.39,0-3.28,5.31,4.85,10.72,9.59,15.91,14.58,8.63,8.3,17.08,16.8,25.68,25.14q17.6,17.05,35.32,34c9.56,9.17,19.2,18.26,28.73,27.46,8.39,8.09,16.55,16.43,25,24.42,11.26,10.59,22.74,21,34.13,31.41l0-.07.17.1c0-1.12.4-2.65-.16-3.23-10.22-10.48-20.62-20.77-30.85-31.23-8.62-8.82-17.06-17.82-25.62-26.71s-17.44-18-26.13-27c-15.88-16.53-31.48-33.35-47.73-49.51-7.19-7.15-15.68-13-23.57-19.43l3.13-3.42a11.53,11.53,0,0,1,2.89,1.46q27.06,25.77,54,51.65,26.46,25.56,52.66,51.37c13,12.79,25.59,25.91,38.59,38.66,9.6,9.41,19.73,18.29,29.34,27.69,3,2.93,5.95,5.91,8.93,8.86l4.25.25c-6.66-6.52-13.35-13-19.72-19.78-12.58-13.37-24.37-27.48-37.08-40.73-19.51-20.33-39.52-40.19-59.3-60.26-11.17-11.33-22.39-22.62-33.45-34-6.91-7.15-13.58-14.54-20.36-21.82l1.14-1.12c4.33,4.26,8.63,8.57,13,12.79q17.13,16.55,34.32,33c11.65,11.21,23.35,22.38,34.93,33.67,7.45,7.26,14.74,14.68,22.1,22,9.6,9.6,19.05,19.37,28.85,28.76,13.55,13,27.51,25.57,41,38.6,3.3,3.18,6.54,6.44,9.8,9.66l6.35.28c-.87-.91-1.71-1.84-2.6-2.73-6.74-6.81-13.89-13.22-20.53-20.12-8.38-8.72-16.25-17.94-24.68-26.62-7.81-8-16.23-15.52-24.08-23.54-9.32-9.51-18.17-19.46-27.47-29-16.21-16.57-32.65-32.92-48.9-49.45a135.28,135.28,0,0,1-16.18-19.23,62.25,62.25,0,0,1,6.71,5q33.55,33,67,66.07c8,7.89,15.9,15.85,24,23.63,12.6,12.14,25.4,24,37.94,36.24,6.89,6.7,13.25,13.92,20.14,20.61s14.06,12.94,21,19.49l6.21.17c-5.38-5.73-10.77-11.45-16.23-17.1-8.71-9-18.12-17.34-26.74-26.42-4.56-4.8-7.67-11-12.23-15.78-5.16-5.44-11.48-9.77-16.79-15.07-9.61-9.6-18.81-19.61-28.27-29.35-6.4-6.6-13-13-19.43-19.58q-21.26-21.72-42.45-43.51a12,12,0,0,1-3.61-5.82c2.83,2.6,5.74,5.11,8.46,7.82,15.11,15,30,30.27,45.31,45.11,12,11.69,24.69,22.73,36.74,34.41,7.9,7.65,14.94,16.19,22.83,23.86,10.18,9.89,20.94,19.17,31.23,29,9.18,8.74,18,17.86,27.11,26.69,2.08,2,4.19,4,6.28,6,2.35,0,4.72.06,7.1.08-6-6.47-12-12.93-18.06-19.29-4.78-5-10.31-9.29-15.45-14-7.14-6.47-12.39-14.71-20.5-20.4-4.33-3-6.77-8.63-10.56-12.57-17-17.66-34.2-35.1-51.26-52.69-11.15-11.51-22.18-23.13-32.42-35.55l159.92,154.51c2.08,0,4.15,0,6.22,0-5.27-5.9-10.54-11.81-15.92-17.62-6-6.5-12.35-12.7-18.58-19-5.76-5.83-11.6-11.57-17.32-17.43q-19.87-20.38-39.65-40.87c-9.09-9.41-18.08-18.91-27.17-28.32-2.11-2.18-4.44-4.15-6.67-6.22l1.39-1.58c4.94,4.7,9.85,9.45,14.83,14.11,6.85,6.4,13.92,12.57,20.58,19.16,5,5,9.3,10.71,14.39,15.61,10.43,10,21.35,19.59,31.76,29.65,11.5,11.11,22.55,22.68,34,33.82,5.66,5.51,12,10.29,17.69,15.82.92.9,1.8,1.85,2.71,2.76,2.1,0,4.19-.08,6.28-.12q-9.84-10-19.65-20.08c-10.52-10.82-21-21.64-31.37-32.64-8.59-9.15-16.73-18.73-25.36-27.84-7.24-7.64-14.93-14.84-22.35-22.31a8.09,8.09,0,0,1-2.42-5.51c5.64,5.26,11.34,10.46,16.9,15.81,8.62,8.3,17.1,16.74,25.73,25,4.67,4.49,9.54,8.79,14.28,13.21,13.09,12.21,26.26,24.33,39.2,36.69,5.87,5.61,11.46,11.52,17.14,17.33l4.43-.13c-3.36-3.42-6.73-6.84-10-10.29-6.64-6.92-12.94-14.16-19.56-21.09-8.61-9-17.53-17.74-26.07-26.83-8-8.5-15.35-17.61-23.53-25.9s-16.79-15.63-25.23-23.39l1.56-2.16c1.26.55,2.83.79,3.72,1.69,5.83,5.94,11.37,12.18,17.3,18,3.32,3.28,7.4,5.77,10.81,9,7,6.62,13.73,13.59,20.75,20.22,11.19,10.54,22.62,20.83,33.78,31.4,10.06,9.54,20,19.2,30,28.84l4.63-.2c-3.58-3.85-7.17-7.7-10.83-11.48-9-9.26-18.28-18.24-27.2-27.58-10-10.48-19.68-21.28-29.6-31.84-9.23-9.83-18.59-19.52-27.85-29.31-.48-.5-.55-1.38.17-2.89,1.54,1.39,3.12,2.75,4.62,4.17,13,12.33,26,24.76,39.15,37,10.1,9.37,20.58,18.34,30.7,27.7,6.62,6.14,12.85,12.7,19.35,19,5,4.88,10.15,9.69,15.23,14.53l3.63-.23c-4.65-5.19-9.15-10.54-14-15.56-6.94-7.18-14.31-14-21.53-20.87s-15-13.58-21.85-21c-7.22-7.89-13.51-16.62-20.33-24.88-3.55-4.3-7.35-8.4-11.05-12.58l-.45-.08h0c0-.09,0-.2.06-.3a60.81,60.81,0,0,1-14.48-15.43c5.71,4.89,10.31,8.75,14.75,12.79.39.36-.07,1.65-.27,2.64l.14.11.24.28c1.4.24,3,.23,3.94,1,12.49,11.11,25,22.2,37.17,33.67,5.79,5.45,10.68,11.83,16.27,17.52,5,5,10.34,9.64,15.44,14.54,3.07,3,5.84,6.21,8.93,9.13l19.3,18.16c2.05-.15,4.05-.33,6.08-.5q-10.57-11-21.23-21.91c-11.69-11.94-23.81-23.47-35.35-35.56-14.88-15.56-29.37-31.5-44-47.28l1.39-1.55c3.84,3.36,7.76,6.63,11.5,10.1,8.35,7.75,16.72,15.49,24.88,23.44,9.54,9.29,18.72,19,28.35,28.18,13.06,12.52,26.55,24.58,39.55,37.17,2.17,2.09,4.27,4.24,6.36,6.42l5.12-.49c-6.78-7.5-13.4-15.16-20.43-22.41-9.08-9.38-19-18-28-27.37-8.33-8.68-15.84-18.14-24-27-5.47-5.94-11.45-11.42-17.13-17.16-1.4-1.41-2.59-3-3.86-4.56l-.38-.11h0c0-.16-.1-.29-.13-.44l-14.9-15c6.63,3.39,12.93,7.1,14.9,15l.28.28c.07.09.14.19.22.28,1.41.4,3,.57,4,1.43,6.73,5.64,13.57,11.18,19.86,17.28,12.65,12.28,24.81,25.06,37.48,37.32,7.37,7.14,15.58,13.41,23,20.53,6.89,6.65,13.21,13.9,19.84,20.83l6.45-.71c-7.85-8.55-15.65-17.14-23.71-25.47-7.17-7.43-15.16-14.06-22.41-21.41-4.88-5-8.9-10.72-13.67-15.78-6.77-7.19-13.92-14-20.82-21.09-5.24-5.37-10.35-10.87-15.51-16.32l1.53-1.55c5.65,5.38,11.26,10.79,16.94,16.12,9.39,8.8,19,17.33,28.17,26.38,6.09,6,11.19,13.07,17.26,19.13s12.71,11.29,19,17q7.53,6.75,14.89,13.67c2.83,2.68,5.62,5.39,8.44,8.09l6.56-.88c-1.53-1.63-3.1-3.23-4.62-4.87-5.82-6.27-11.08-13.06-16.9-19.33-3.48-3.75-7.64-6.86-11.36-10.4s-7.38-7.32-11.07-11c-3.31-3.29-6.81-6.4-9.89-9.89s-5.18-7.37-8.31-10.52c-3.85-3.89-8.55-6.94-12.43-10.81a46,46,0,0,1-9.31-13.13l92.95,88.64c2.57-.38,5.06-.79,7.56-1.19-3.14-3.23-6.31-6.43-9.44-9.68q-7.39-7.65-14.74-15.37-10.76-11.36-21.41-22.77a13.86,13.86,0,0,1-3.68-6.71c5.28,4.56,10.61,9.06,15.82,13.7,5.44,4.84,10.83,9.74,16.11,14.75,8.63,8.19,17.19,16.45,25.8,24.66,2.32-.4,4.66-.8,6.92-1.22-4.22-4.49-8.39-9-12.62-13.5-5.59-5.91-11.79-11.25-17.22-17.29-7.61-8.45-14.76-17.3-21.8-26.43,3.84,3.11,7.81,6.07,11.5,9.34,9,8,18,16,26.8,24.25,5.29,5,9.83,10.8,15.12,15.82,2.21,2.1,4.49,4.13,6.78,6.14,2-.4,4-.82,6-1.24q-7.54-8-15-16c-6.09-6.61-11.7-13.68-17.79-20.29-6.91-7.49-14.12-14.7-21.2-22l1.2-1.38c4.27,3.63,8.71,7.08,12.77,10.94,8.25,7.87,16,16.23,24.48,23.89s17.38,15,26,22.54c1.6-.38,3.22-.76,4.77-1.15l-4.17-4.47q-25.36-27.3-50.68-54.66c-4.59-4.93-9.39-9.66-14.09-14.47l1.39-1.4c12.05,11.56,23.48,23.87,36.32,34.47,12.3,10.15,22.94,21.86,34.52,32.67l9.63,9c1.92.14,3.86.23,5.82.29l-73.7-78.6c.56-.56,1.11-1.13,1.67-1.7,2.09,2,4.12,4.16,6.28,6.12,10.18,9.21,20.55,18.23,30.56,27.61,10.85,10.15,21.28,20.74,32.08,30.94,5.47,5.17,11,10.25,16.6,15.31,1.53-.12,3.05-.27,4.55-.44q-10.37-11.11-20.86-22.09c-8.35-8.68-17.21-16.86-25.7-25.4-2.92-2.94-5.28-6.43-8.1-9.48-8.5-9.2-17.13-18.29-25.66-27.46-3.72-4-7.32-8.11-11-12.17l1.28-1.14L2444,1675.86q1.41-.3,2.82-.63-51.65-54.78-103.28-109.55l.45-.83a41.85,41.85,0,0,1,5,3.44c17.72,16.38,35.49,32.72,53,49.28,9.32,8.79,18.15,18.09,27.38,27,9.54,9.18,19.2,18.24,28.86,27.3.92-.32,1.85-.64,2.75-1-.6-.77-1.22-1.53-1.89-2.24-8.19-8.77-16.65-17.27-25-25.85s-17-17-25.19-25.71c-5.5-5.86-10.39-12.29-15.68-18.36-3.22-3.7-6.63-7.26-10.08-10.75-9.08-9.2-18.25-18.33-27.34-27.53-.38-.38-.38-1.14.68-3l113.68,106.74.84-.81L2364.25,1550l1-1.12c4,3.26,8.22,6.32,12,9.83q23.91,22.18,47.61,44.61c11.54,10.89,22.93,21.94,34.44,32.86,8.09,7.67,16.24,15.28,24.37,22.91.42-.29.85-.57,1.27-.87-9.91-10-20.12-19.75-29.79-30-12.2-12.92-23.8-26.41-35.93-39.4-12.57-13.46-25.45-26.62-38.18-39.93-.41-.43-.57-1.09-.21-2.85,1.78,1,3.84,1.61,5.31,2.93,6.82,6.13,13.51,12.41,20.18,18.71,9,8.53,18,17.17,27.05,25.69,12.92,12.14,25.93,24.17,38.84,36.32,3.74,3.52,7.29,7.23,10.93,10.86-1.8-3-3.34-6.26-5.68-8.76-8.92-9.56-18.18-18.8-27.3-28.18-8.38-8.61-16.86-17.13-25.08-25.89-13.68-14.59-27.21-29.31-40.74-44-2.18-2.36-4.26-4.81-6.33-7.27-1.21.41-2.43.82-3.61,1.27.18-1.68.3-3.38.37-5.08l-.17-.21a1.54,1.54,0,0,1,.19-.17c0-.75.07-1.49.07-2.24,0-48.48-49.9-88.11-112.94-91.17-26.85-33.58-74.38-55.93-128.58-55.93-73.86,0-135.37,41.47-148.94,96.39-.94,0-1.87-.06-2.81-.06-46,0-85.66,20.91-104.22,51.17C1891.28,1533.47,1905.25,1546.57,1919,1559.9Zm348.07,37.22,28.08,27.48-2.17,2.18q-13.84-13.93-27.71-27.85Z"/><path class="cls-2" d="M1785.34,1626.33c4.79,4.22,8.27,7.27,11.75,10.32-3.18-6.11-10.13-10.56-11.44-17.33a29.46,29.46,0,0,0-.73,6.42,30.37,30.37,0,0,0,1.29,8.63C1785.94,1631.88,1785.66,1629.26,1785.34,1626.33Z"/><path class="cls-2" d="M2494.88,1650c-3.13-3-6.25-6-9.41-8.92-.24-.22-1,.09-1.58.26,3.1,3.4,6.18,6.81,9.28,10.22C2493.74,1651,2494.32,1650.49,2494.88,1650Z"/><path class="cls-2" d="M2502.62,1641.5c.33-.41.67-.81,1-1.22l-112.45-117.53q-5.25,1.13-10.27,2.69Z"/><path class="cls-2" d="M2510.4,1629.66l.21-.44-100.87-106.48,1.48-1.76c3.05,2.24,6.25,4.29,9.11,6.74,9.68,8.3,19.56,16.39,28.74,25.22,7.94,7.65,14.71,16.52,22.6,24.23,6.93,6.78,14.74,12.65,22.06,19,4.37,3.81,8.56,7.84,12.83,11.76l-.09-.09.06,0c-4.33-5.23-8.49-10.61-13.05-15.63-5.7-6.28-11.8-12.21-17.63-18.37-4.93-5.22-9.68-10.6-14.6-15.83-8.25-8.78-16.6-17.45-24.83-26.24-3.58-3.82-7.09-7.72-10.61-11.59-2.72-.17-5.46-.28-8.24-.28a126.1,126.1,0,0,0-23.16,2.13C2434.4,1556.47,2471.72,1593.73,2510.4,1629.66Z"/><path class="cls-2" d="M2506.56,1608c2.9,3.25,5.67,6.62,8.74,9.69.22-.73.45-1.46.64-2.2-1.73-1.71-3.42-3.46-5.15-5.16-1.13-1.1-2.82-1.62-4.26-2.4l.13.17Z"/></g><g class="cls-1"><path class="cls-2" d="M5877.82,1791.82c-5-8.93-12.59-15.23-20.87-20.87Q5867.39,1781.38,5877.82,1791.82Z"/><path class="cls-2" d="M5915.84,1758.2c8.65,8.49,17.16,17.1,25.73,25.66,1.09-.44,2.12-.92,3.17-1.38q-14.41-14.77-28.83-29.56c-11.47-11.78-22.95-23.55-34.33-35.43q-12.78-13.34-25.49-26.74-4.12.7-8.08,1.61,16.18,15.83,32.38,31.63C5892.16,1735.44,5904.13,1746.7,5915.84,1758.2Z"/><path class="cls-2" d="M5881,1774.76q-24.21-25.07-48.6-50c-6.29-6.41-12.79-12.62-19.15-19-1.14.69-2.25,1.4-3.32,2.12,2.22,2.1,4.47,4.18,6.66,6.29q20.34,19.65,40.41,39.58c7.18,7.12,14.05,14.56,21.21,21.7,1.77,1.77,4.12,3,6.2,4.44C5883.29,1778.22,5882.42,1776.22,5881,1774.76Z"/><path class="cls-2" d="M5967.09,1786.88q-22.42-22.58-44.36-45.61c-11.84-12.36-23.28-25.09-35.19-37.37-5.49-5.66-11.07-11.23-16.63-16.81.11.59.16,1.2.28,1.79-2.69.21-5.34.49-8,.81,4.54,4.57,9.06,9.15,13.66,13.64,16.46,16.05,33.18,31.83,49.67,47.84,12.13,11.76,24.13,23.67,36.19,35.5,1.94.63,3.95,1.24,6,1.85C5968.19,1788,5967.63,1787.43,5967.09,1786.88Z"/><path class="cls-2" d="M5822.92,1753.78c-6-6.18-11.87-12.41-17.9-18.52-3.73-3.79-8.18-7-11.34-11.2-.57.92-1.12,1.86-1.6,2.8l29.85,27.84Z"/><path class="cls-2" d="M6439.1,1640.69c5.89,5.33,12.3,10.11,18,15.61,9.62,9.28,18.81,19,28.31,28.4,4.34,4.29,9,8.29,13.51,12.38q11.28,10.15,22.57,20.27c0-.85.08-1.69.08-2.54,0-.22,0-.43,0-.65q-17.82-19.35-35.77-38.6c-2.95-3.16-6.57-5.72-9.42-9-7.86-8.94-15.6-18-23.34-27a123.48,123.48,0,0,0-18.77-3.42C6435.87,1637.67,6437.46,1639.2,6439.1,1640.69Z"/><path class="cls-2" d="M6463.18,1644.5c7.49,6.68,14.25,14.17,21.47,21.16,6.58,6.39,13.38,12.56,20,18.87q7.4,7,14.78,14.07a65.68,65.68,0,0,0-3.68-10.35q-17.41-18.52-34.75-37.14a110.33,110.33,0,0,0-21.59-9.66C6460.73,1642.42,6462,1643.43,6463.18,1644.5Z"/><path class="cls-2" d="M5895.25,1684.92c11.92,11.81,23.73,23.73,35.72,35.47,8.61,8.44,17.49,16.62,26.17,25,12.14,11.7,24.2,23.49,36.31,35.22q9.42,9.14,18.9,18.2l4.28.79c-3.49-3.5-7-7-10.45-10.53-9-9.18-17.78-18.54-26.66-27.83-16.81-17.58-33.54-35.24-50.44-52.74-18.45-19.09-37-38-55.53-57.09a72.44,72.44,0,0,0-2.66,10.2q5.59,5.28,11.18,10.57Q5888.73,1678.47,5895.25,1684.92Z"/><path class="cls-2" d="M5846.11,1708.16c11.08,10.69,22.33,21.2,33.28,32,16.21,16,32.27,32.23,48.44,48.31,1-.28,2-.59,2.94-.88-7.68-7.67-15.35-15.34-22.93-23.1-9.76-10-19-20.49-28.71-30.5-10-10.27-20.46-20-30.36-30.37-2.94-3.07-5.84-6.16-8.76-9.24q-3.12.9-6.11,1.93Q5840,1702.25,5846.11,1708.16Z"/><path class="cls-2" d="M5880.59,1755.74q-26.58-26.82-52.73-54c-.71-.74-1.39-1.5-2.1-2.24-1.49.64-2.95,1.29-4.36,2q13.76,13.32,27.5,26.66c12.9,12.48,26,24.78,38.68,37.46,8.62,8.61,17,17.44,25.46,26.22,1.25-.21,2.48-.43,3.7-.67-2.16-2.18-4.3-4.37-6.46-6.55C5900.56,1774.77,5890.29,1765.53,5880.59,1755.74Z"/><path class="cls-2" d="M5961.66,1724.54c-14.08-14.53-27.64-29.57-41.61-44.21-12.16-12.74-24.61-25.21-36.86-37.87q-1.94-2-3.78-4a76.19,76.19,0,0,0-4.48,9.23q15,14.14,29.85,28.4c9.56,9.2,18.67,18.86,28.22,28.08,19.47,18.79,39.29,37.23,58.62,56.17,14.25,14,28.32,28.08,42.39,42.2l5.36.8c-9.24-9.48-18.45-19-27.75-28.38C5995,1758.08,5978.12,1741.51,5961.66,1724.54Z"/><path class="cls-2" d="M5802.72,1713.56c-1,.91-2,1.84-2.92,2.78l24.14,21.72-.18-.19.12.09c-1.8-2.82-3.24-6-5.49-8.36C5813.26,1724.17,5808,1718.85,5802.72,1713.56Z"/><path class="cls-2" d="M5847.53,1761.52c-5.24-5.87-10.35-11.87-15.79-17.54-2.26-2.36-5.21-4-7.86-6a.56.56,0,0,0,.05.08Z"/><path class="cls-2" d="M5941.84,1747.55c8.5,8.12,16.23,17,24.57,25.33,7.06,7,14.34,13.85,21.54,20.75q3.18.75,6.45,1.49c-8.53-9-17.06-17.95-25.69-26.83-9.58-9.84-19.62-19.25-29.19-29.1-14.62-15-29-30.34-43.52-45.46-8.6-8.94-17.26-17.83-25.88-26.73a68.37,68.37,0,0,0-.43,7.46c0,1.74.14,3.44.27,5.15,7.53,7.34,15,14.7,22.62,22C5908.78,1717.13,5925.59,1732.05,5941.84,1747.55Z"/><path class="cls-2" d="M6080.67,1792c.63,1.74.82,3.92,2,5.09,4.33,4.27,8.78,8.43,13.23,12.59l5.32.42c-4.32-4.34-8.64-8.67-13.08-12.89-2.14-2-4.87-3.49-7.35-5.18v.09Z"/><path class="cls-2" d="M5922.54,1675.41c13.95,13.52,27.45,27.5,41.3,41.12s27.7,26.71,41.42,40.19c12.13,11.92,24,24.11,36.13,36,4.3,4.23,8.64,8.4,13,12.58q3.41.43,6.86.84c-11.49-11.58-23.13-23-34.51-34.7-17.3-17.76-34.26-35.84-51.51-53.64-12.68-13.07-25.71-25.79-38.38-38.86-11.46-11.84-22.72-23.88-33.93-36-4.27-4.6-8.16-9.55-11.9-14a10.65,10.65,0,0,1,2.69,1.61c19.56,19,39,38.22,58.62,57.15,27.1,26.1,54.44,51.93,81.54,78q18.76,18.08,37,36.73c1.66,1.7,3.26,3.46,4.89,5.19,1.69.17,3.38.35,5.08.51-8.22-8.21-16.44-16.43-24.57-24.73-13.31-13.58-26-27.77-39.25-41.42-15.16-15.63-30.75-30.85-45.93-46.46-18.53-19-36.83-38.28-55.2-57.46-.53-.55-.76-1.39,0-3.28,5.31,4.85,10.72,9.59,15.91,14.58,8.63,8.3,17.08,16.8,25.68,25.14q17.59,17.05,35.32,34c9.56,9.17,19.2,18.26,28.73,27.46,8.39,8.1,16.54,16.43,25,24.42,11.26,10.6,22.74,21,34.13,31.42l0-.08.16.11c0-1.13.41-2.66-.16-3.24-10.21-10.48-20.61-20.77-30.84-31.23-8.62-8.82-17.07-17.82-25.62-26.71s-17.45-18-26.13-27c-15.89-16.53-31.48-33.34-47.73-49.51-7.19-7.15-15.68-13-23.58-19.43,1.05-1.14,2.09-2.28,3.14-3.41a11.18,11.18,0,0,1,2.89,1.45q27.06,25.77,54,51.65,26.47,25.56,52.67,51.38c13,12.78,25.59,25.91,38.59,38.65,9.6,9.41,19.73,18.29,29.34,27.7,3,2.93,5.95,5.9,8.92,8.85l4.26.25c-6.66-6.51-13.35-13-19.73-19.78-12.58-13.36-24.36-27.48-37.07-40.72-19.51-20.34-39.52-40.2-59.31-60.27-11.16-11.33-22.38-22.62-33.44-34-6.91-7.15-13.58-14.53-20.36-21.81l1.13-1.13c4.34,4.26,8.64,8.57,13,12.79q17.13,16.55,34.32,33c11.65,11.22,23.35,22.39,34.93,33.67,7.45,7.26,14.74,14.69,22.09,22,9.61,9.6,19.06,19.37,28.86,28.77,13.55,13,27.51,25.57,41,38.59,3.3,3.19,6.54,6.44,9.79,9.67l6.36.27c-.87-.91-1.71-1.84-2.6-2.73-6.74-6.81-13.89-13.22-20.53-20.12-8.39-8.72-16.26-17.94-24.68-26.62-7.82-8-16.23-15.52-24.08-23.54-9.32-9.51-18.17-19.46-27.48-29-16.2-16.57-32.64-32.92-48.89-49.45a135.28,135.28,0,0,1-16.18-19.23,62.12,62.12,0,0,1,6.7,5q33.56,33,67,66.07c8,7.89,15.91,15.85,24,23.64,12.59,12.13,25.4,24,37.94,36.24,6.88,6.69,13.25,13.92,20.14,20.6s14.06,13,21,19.5l6.2.16c-5.37-5.73-10.76-11.45-16.23-17.1-8.7-9-18.11-17.33-26.74-26.41-4.56-4.81-7.67-11-12.22-15.79-5.16-5.44-11.48-9.76-16.8-15.07-9.61-9.6-18.8-19.6-28.26-29.35-6.4-6.6-13-13-19.43-19.58q-21.27-21.7-42.45-43.5a12,12,0,0,1-3.61-5.83c2.83,2.6,5.74,5.11,8.46,7.82,15.11,15,30,30.27,45.31,45.12,12,11.68,24.69,22.73,36.74,34.4,7.9,7.66,14.94,16.2,22.83,23.86,10.17,9.89,20.94,19.18,31.22,29,9.19,8.74,18,17.87,27.12,26.69,2.08,2,4.19,4,6.27,6q3.54.06,7.1.09c-6-6.48-12-12.93-18.05-19.29-4.79-5-10.31-9.29-15.45-14-7.14-6.46-12.39-14.71-20.5-20.4-4.33-3-6.77-8.62-10.57-12.57-17-17.66-34.19-35.1-51.25-52.69-11.15-11.5-22.18-23.13-32.42-35.55l159.91,154.51c2.09,0,4.15,0,6.23,0-5.28-5.9-10.55-11.8-15.92-17.62-6-6.5-12.36-12.7-18.58-19-5.76-5.83-11.61-11.56-17.32-17.43q-19.87-20.38-39.65-40.86c-9.09-9.41-18.08-18.92-27.17-28.33-2.11-2.18-4.45-4.15-6.68-6.22l1.4-1.58c4.94,4.71,9.84,9.45,14.83,14.12,6.85,6.4,13.92,12.57,20.58,19.15,5,5,9.3,10.71,14.38,15.61,10.44,10,21.35,19.59,31.77,29.65,11.5,11.11,22.55,22.68,34,33.82,5.66,5.51,12.05,10.29,17.69,15.82.92.9,1.8,1.85,2.71,2.76q3.15,0,6.28-.12-9.84-10-19.66-20.08c-10.51-10.82-21-21.63-31.36-32.64-8.59-9.15-16.73-18.73-25.36-27.84-7.24-7.64-14.93-14.84-22.35-22.31a8,8,0,0,1-2.42-5.51c5.64,5.26,11.34,10.46,16.9,15.81,8.62,8.3,17.1,16.74,25.73,25,4.67,4.5,9.54,8.79,14.28,13.21,13.09,12.21,26.26,24.33,39.19,36.69,5.88,5.61,11.46,11.52,17.14,17.33l4.43-.13c-3.36-3.42-6.72-6.83-10-10.29-6.64-6.91-12.94-14.16-19.56-21.09-8.61-9-17.53-17.74-26.07-26.82-8-8.51-15.35-17.62-23.54-25.91-8-8.16-16.78-15.62-25.22-23.39l1.55-2.15c1.26.54,2.84.78,3.73,1.69,5.83,5.94,11.37,12.17,17.29,18,3.33,3.27,7.41,5.76,10.81,9,7,6.62,13.74,13.59,20.76,20.22,11.19,10.55,22.61,20.84,33.78,31.41,10.06,9.53,20,19.2,30,28.83l4.63-.2c-3.58-3.85-7.17-7.7-10.83-11.48-9-9.26-18.28-18.24-27.2-27.58-10-10.48-19.68-21.28-29.6-31.84-9.23-9.82-18.59-19.52-27.86-29.31-.47-.5-.54-1.38.17-2.88,1.55,1.38,3.12,2.74,4.63,4.17,13,12.32,26,24.75,39.15,37,10.1,9.37,20.58,18.34,30.69,27.71,6.63,6.13,12.86,12.7,19.35,19,5.05,4.87,10.16,9.69,15.24,14.52l3.63-.23c-4.66-5.19-9.15-10.54-14-15.55-6.94-7.19-14.31-14-21.53-20.88s-15-13.58-21.85-21c-7.22-7.88-13.51-16.62-20.33-24.88-3.55-4.3-7.35-8.4-11.05-12.58-.15,0-.31,0-.45-.08h0c0-.09,0-.2.06-.3a60.3,60.3,0,0,1-14.48-15.43c5.71,4.9,10.31,8.75,14.75,12.79.39.36-.07,1.65-.27,2.64l.14.11.24.28c1.4.24,3,.24,3.94,1,12.49,11.11,25,22.21,37.17,33.67,5.78,5.45,10.68,11.84,16.27,17.52,5,5,10.34,9.64,15.44,14.54,3.07,3,5.84,6.21,8.93,9.13q9.65,9.09,19.3,18.16c2.05-.15,4.05-.33,6.08-.5q-10.57-11-21.23-21.9c-11.69-12-23.81-23.48-35.36-35.56-14.87-15.57-29.36-31.51-44-47.28l1.39-1.56c3.84,3.36,7.76,6.63,11.5,10.1,8.35,7.75,16.71,15.49,24.88,23.44,9.54,9.3,18.72,19,28.34,28.19,13.07,12.51,26.56,24.58,39.56,37.16,2.16,2.09,4.27,4.25,6.36,6.42l5.11-.49c-6.77-7.5-13.39-15.16-20.42-22.41-9.08-9.38-19-18-28-27.37-8.33-8.68-15.84-18.14-24-27-5.47-5.94-11.45-11.41-17.14-17.16-1.39-1.41-2.58-3-3.85-4.56l-.38-.1v0c0-.15-.1-.28-.14-.44l-14.9-15c6.63,3.39,12.94,7.1,14.9,15l.29.28c.07.09.14.19.22.28,1.41.4,3,.58,4,1.44,6.73,5.63,13.57,11.17,19.86,17.28,12.65,12.27,24.81,25.06,37.48,37.31,7.37,7.14,15.58,13.41,23,20.53,6.9,6.65,13.22,13.9,19.85,20.83,2.15-.24,4.33-.46,6.45-.71-7.85-8.55-15.65-17.13-23.71-25.47-7.17-7.42-15.16-14.06-22.41-21.41-4.88-4.94-8.91-10.72-13.68-15.78-6.77-7.19-13.92-14-20.82-21.09-5.24-5.37-10.34-10.87-15.5-16.31l1.53-1.55c5.64,5.37,11.25,10.78,16.94,16.11,9.39,8.8,19,17.33,28.17,26.38,6.09,6,11.19,13.07,17.26,19.13s12.71,11.29,19,17q7.53,6.75,14.88,13.67c2.84,2.68,5.63,5.4,8.45,8.09,2.21-.28,4.39-.58,6.56-.88-1.54-1.62-3.1-3.22-4.62-4.86-5.83-6.27-11.08-13.07-16.9-19.34-3.49-3.75-7.64-6.86-11.36-10.39s-7.38-7.33-11.07-11c-3.31-3.29-6.81-6.4-9.9-9.89-3-3.33-5.18-7.36-8.3-10.52-3.85-3.89-8.55-6.94-12.43-10.81a45.81,45.81,0,0,1-9.31-13.13l92.95,88.65c2.57-.39,5.06-.79,7.56-1.2-3.14-3.22-6.31-6.43-9.44-9.67q-7.4-7.66-14.75-15.38-10.74-11.34-21.4-22.77a13.87,13.87,0,0,1-3.68-6.7c5.28,4.56,10.61,9.06,15.82,13.7,5.44,4.84,10.83,9.73,16.1,14.74,8.64,8.19,17.2,16.45,25.81,24.67,2.32-.41,4.66-.81,6.92-1.23-4.22-4.48-8.39-9-12.63-13.5-5.59-5.9-11.78-11.25-17.21-17.29-7.61-8.44-14.76-17.29-21.81-26.43,3.85,3.11,7.82,6.07,11.51,9.34,9,8,18,16,26.79,24.25,5.3,5,9.84,10.8,15.13,15.82,2.21,2.1,4.48,4.13,6.77,6.15,2-.41,4-.83,6-1.25q-7.56-8-15-16c-6.09-6.61-11.7-13.68-17.8-20.29-6.9-7.49-14.12-14.69-21.2-22l1.21-1.39c4.27,3.63,8.71,7.08,12.76,10.94,8.26,7.87,16.06,16.23,24.49,23.89s17.38,15,26,22.54l4.78-1.14-4.17-4.48q-25.36-27.3-50.69-54.66c-4.58-4.93-9.38-9.65-14.08-14.47l1.39-1.4c12.05,11.56,23.48,23.87,36.32,34.48,12.3,10.15,22.94,21.86,34.52,32.66l9.63,9c1.92.14,3.86.23,5.81.29l-73.69-78.59,1.67-1.71c2.09,2,4.12,4.16,6.28,6.12,10.18,9.21,20.54,18.23,30.56,27.61,10.84,10.16,21.28,20.74,32.07,30.94,5.48,5.17,11,10.25,16.61,15.32,1.53-.12,3-.28,4.55-.45q-10.36-11.11-20.86-22.09c-8.35-8.67-17.22-16.85-25.7-25.4-2.92-2.94-5.28-6.43-8.1-9.48-8.51-9.2-17.13-18.28-25.67-27.46-3.71-4-7.31-8.11-11-12.17l1.28-1.13,101.91,95.78c.94-.2,1.88-.41,2.81-.63l-103.27-109.55.44-.82a39.9,39.9,0,0,1,5,3.43c17.73,16.38,35.49,32.72,53.05,49.28,9.32,8.79,18.14,18.1,27.38,27,9.54,9.18,19.2,18.24,28.86,27.3.92-.32,1.85-.64,2.75-1-.6-.77-1.23-1.53-1.89-2.24-8.19-8.76-16.65-17.27-25-25.85s-17-17-25.2-25.71c-5.49-5.86-10.38-12.29-15.67-18.36-3.23-3.7-6.63-7.25-10.08-10.75-9.08-9.2-18.25-18.33-27.34-27.53-.38-.38-.38-1.14.68-3l113.68,106.75.84-.82L6367.8,1665.46c.32-.37.65-.74,1-1.12,4,3.27,8.21,6.32,12,9.83q23.91,22.18,47.61,44.61c11.53,10.9,22.93,21.94,34.44,32.86q12.14,11.5,24.36,22.92l1.28-.87c-9.91-10-20.12-19.76-29.79-30-12.2-12.92-23.8-26.4-35.93-39.4-12.57-13.46-25.45-26.61-38.18-39.93-.41-.43-.58-1.09-.22-2.85,1.79,1,3.85,1.62,5.32,2.93,6.82,6.13,13.51,12.41,20.18,18.71,9,8.53,18,17.17,27.05,25.69,12.92,12.14,25.93,24.17,38.84,36.32,3.74,3.52,7.29,7.23,10.93,10.86-1.8-3-3.34-6.26-5.68-8.76-8.92-9.56-18.18-18.8-27.3-28.18-8.38-8.61-16.86-17.13-25.08-25.89-13.68-14.58-27.21-29.31-40.74-44-2.18-2.36-4.26-4.81-6.33-7.27-1.22.41-2.43.82-3.61,1.27.18-1.68.3-3.38.37-5.08l-.17-.21.18-.17c0-.75.08-1.49.08-2.24,0-48.48-49.9-88.11-112.95-91.16-26.84-33.59-74.37-55.93-128.57-55.93-73.87,0-135.37,41.46-148.94,96.38-.94,0-1.87,0-2.82,0-46,0-85.65,20.9-104.21,51.16C5894.83,1649,5908.79,1662.09,5922.54,1675.41Zm348.07,37.22,28.07,27.49-2.16,2.17-27.71-27.85Z"/><path class="cls-2" d="M5788.89,1741.84l11.75,10.33c-3.18-6.12-10.13-10.57-11.45-17.33a29.25,29.25,0,0,0,.57,15C5789.49,1747.39,5789.21,1744.78,5788.89,1741.84Z"/><path class="cls-2" d="M6498.43,1765.47c-3.13-3-6.25-6-9.41-8.92-.24-.22-1,.09-1.59.26,3.1,3.4,6.19,6.82,9.29,10.22C6497.29,1766.51,6497.87,1766,6498.43,1765.47Z"/><path class="cls-2" d="M6506.17,1757c.33-.41.67-.82,1-1.23l-112.44-117.53q-5.25,1.13-10.27,2.69Z"/><path class="cls-2" d="M6513.94,1745.17c.08-.14.15-.29.22-.43l-100.87-106.49c.49-.58,1-1.17,1.48-1.75,3,2.23,6.25,4.28,9.11,6.73,9.68,8.3,19.56,16.4,28.73,25.23,8,7.64,14.72,16.51,22.61,24.23,6.92,6.77,14.73,12.64,22.06,19,4.37,3.82,8.56,7.84,12.83,11.77l-.09-.1,0,0c-4.33-5.24-8.48-10.62-13-15.64-5.71-6.28-11.8-12.2-17.63-18.37-4.93-5.21-9.69-10.6-14.6-15.83-8.25-8.78-16.61-17.45-24.83-26.24-3.58-3.82-7.09-7.71-10.62-11.59-2.71-.17-5.45-.28-8.23-.28a126,126,0,0,0-23.16,2.14C6438,1672,6475.27,1709.25,6513.94,1745.17Z"/><path class="cls-2" d="M6510.11,1723.48c2.9,3.24,5.67,6.61,8.74,9.68.22-.73.45-1.46.64-2.2-1.73-1.71-3.42-3.46-5.16-5.16-1.12-1.1-2.81-1.62-4.26-2.39l.14.16Z"/></g><g class="cls-1"><path class="cls-2" d="M210,1385.48c13.49,13,27,25.92,40.44,39,8.63,8.4,17.06,17,25.58,25.51,7.37,7.36,14.69,14.77,22.06,22.12,3.19-.74,6.28-1.6,9.3-2.55-5.05-4.82-10.11-9.62-15-14.6-10.78-11-21-22.53-31.8-33.54-18.37-18.79-37-37.32-55.42-56.05a86.34,86.34,0,0,0-9.41,6.42Z"/><path class="cls-2" d="M133.41,1414.08c22.55,21.76,45.49,43.11,67.87,65,1.57,1.54,3.11,3.11,4.68,4.66,1.8-.29,3.6-.57,5.37-.88-15-15-30-30-44.73-45.17-16.31-16.81-32-34.22-48.17-51.17-.57-.59-1.15-1.17-1.72-1.77-4,.29-7.86.64-11.71,1C114.52,1395.18,123.8,1404.81,133.41,1414.08Z"/><path class="cls-2" d="M256.66,1450.87c8,7.93,16,16,23.92,24,3.17-.3,6.3-.68,9.35-1.18-1.71-1.84-3.39-3.7-5.13-5.51-22.59-23.54-45.75-46.53-68.66-69.76q-11.82-12-23.65-24a69,69,0,0,0-7.07,7.15c3.42,3.29,6.86,6.56,10.27,9.85Q226.32,1421,256.66,1450.87Z"/><path class="cls-2" d="M89.72,1391.86c13.79,13.67,27.47,27.47,41.34,41.07,10,9.77,20.25,19.23,30.3,28.92q12.64,12.2,25.22,24.47c2-.2,3.92-.45,5.87-.68-1.73-1.81-3.45-3.63-5.18-5.43-19.46-20.36-38.83-40.81-58.4-61.06q-15.72-16.28-31.55-32.47-5.77.72-11.3,1.6C87.25,1389.48,88.5,1390.65,89.72,1391.86Z"/><path class="cls-2" d="M235.88,1451.12c8.3,8,16.45,16.19,24.76,24.19,2.22.11,4.43.25,6.69.25.32,0,.62,0,.94,0-9.86-10.09-19.52-20.38-29.3-30.54-10.06-10.46-20.2-20.84-30.25-31.3-9.05-9.41-18-18.91-27-28.36-5.06-.44-10.23-.78-15.48-1q18.17,17.57,36.41,35C213.68,1430,224.84,1440.47,235.88,1451.12Z"/><path class="cls-2" d="M834.73,1400.94c-2.15.71-4.24,1.51-6.3,2.35,4.3,4.2,8.59,8.41,13,12.54,5.66,5.33,12.09,9.84,18.16,14.72l-.21-.26h0c-4.64-5.93-9-12.08-14-17.69C841.86,1408.67,838.29,1404.81,834.73,1400.94Z"/><path class="cls-2" d="M240.31,1476.12c1.94-.58,3.9-1.15,5.75-1.77-5.11-5.45-10.23-10.89-15.44-16.26-17.55-18.09-35.59-35.71-53.17-53.78-6.56-6.74-13.06-13.52-19.57-20.29-4-.12-7.91-.27-11.95-.27l-1.94,0c3.93,3.81,7.83,7.65,11.78,11.45C183.86,1422.28,212.16,1449.11,240.31,1476.12Z"/><path class="cls-2" d="M777.08,1474.79c-.28-.26-1.13.1-1.83.3q10.56,11.58,21.08,23.21l2.72-2.7C791.75,1488.65,784.45,1481.67,777.08,1474.79Z"/><path class="cls-2" d="M143.64,1464.37c7.87,7.5,15.18,15.59,22.72,23.44,2.48-.13,5-.22,7.43-.39-10.81-11.05-22.06-21.65-32.83-32.73-16.92-17.42-33.56-35.12-50.38-52.63q-6-6.27-12.1-12.49-6,1.1-11.63,2.38c6.59,6.4,13.15,12.84,19.78,19.2C105.38,1429.15,124.84,1446.42,143.64,1464.37Z"/><path class="cls-2" d="M9.7,1416.24q13.17,12.79,26.35,25.58c14,13.55,28.16,26.93,42,40.65,1.42.26,2.83.53,4.27.77q-4.83-4.65-9.57-9.39-29.82-30.12-59.2-60.68Q11.49,1414.69,9.7,1416.24Z"/><path class="cls-2" d="M32.83,1418.77c12.83,12.37,25.85,24.54,38.52,37.07q15.15,15,30.17,30.1,2.6.29,5.22.54c-.81-.83-1.64-1.64-2.45-2.47-11.3-11.56-22-23.72-33.24-35.31-11.54-11.89-23.69-23.19-35.15-35.16-2.74-2.87-5.46-5.77-8.19-8.64-2.11,1-4.09,2-6,3.11C25.42,1411.59,29.12,1415.19,32.83,1418.77Z"/><path class="cls-2" d="M121.52,1457.09c-13.7-14.3-26.95-29-40.73-43.26-6.66-6.86-13.42-13.62-20.18-20.38-3.2.81-6.33,1.66-9.34,2.56,5.7,5.75,11.4,11.51,17.19,17.16,19.05,18.58,38.4,36.85,57.5,55.38q10.17,9.85,20.22,19.81c1.85,0,3.65-.07,5.48-.09Q136.52,1472.75,121.52,1457.09Z"/><path class="cls-2" d="M72.51,1437.09c13.63,13.26,27.48,26.28,41,39.61,3.75,3.67,7.43,7.41,11.14,11.12,2,.1,4,.2,6,.27q-8.55-8.74-17.09-17.51c-13.27-13.63-26.56-27.26-39.73-41Q59,1414,44.09,1398.31q-4.26,1.45-8.18,3Q54.2,1419.22,72.51,1437.09Z"/><path class="cls-2" d="M270.51,1424.22c9.24,9.13,18.41,18.35,27.77,27.36q13.25,12.75,26.61,25.37a147.34,147.34,0,0,0,16.7,5.6,97.75,97.75,0,0,0-8.45-11c-6-6.3-13.29-11.31-19.44-17.45-11.13-11.11-21.77-22.69-32.72-34-7.41-7.64-15.05-15.06-22.49-22.66q-19.22-19.62-38.35-39.3a105.64,105.64,0,0,0-11.37,5.21Q239.66,1393.76,270.51,1424.22Z"/><path class="cls-2" d="M16.19,1460.23c-2.61-2.73-6-4.68-9.1-7l.06.1,2.42,2.4a64.57,64.57,0,0,0,7.84,5.8C17,1461.12,16.61,1460.66,16.19,1460.23Z"/><path class="cls-2" d="M17,1438c-4.67-4.75-9.45-9.41-14.22-14.07a26.14,26.14,0,0,0-2.13,3.79q22.55,21.79,44.82,43.9c1.27,1.25,2.5,2.55,3.75,3.83q2.88.88,5.89,1.73C42.38,1464.12,29.72,1451,17,1438Z"/><path class="cls-2" d="M877.68,1448.52c-4.55-7.64-10-14.35-18.32-18.22l0,0Z"/><path class="cls-2" d="M0,1442.83a28.91,28.91,0,0,0,6.23,9.71l.94.84-.22-.22.14.1C5,1450,3.34,1446.35.74,1443.59.5,1443.33.24,1443.09,0,1442.83Z"/><path class="cls-2" d="M169.12,1428.46c15.88,15.61,32.06,30.92,47.94,46.52,1.91,1.87,3.78,3.77,5.67,5.65,2.28-.5,4.49-1,6.69-1.56-15.73-16.36-31.35-32.82-47.15-49.11-14.67-15.13-29.75-29.85-44.42-45l-1.06-1.11q-6.07.14-12,.44C139.69,1398.88,154.25,1413.83,169.12,1428.46Z"/><path class="cls-2" d="M848.71,1462.24c-1.08-1.72-1.85-3.76-3.28-5.1-6.93-6.47-14-12.76-21.07-19.12l0,0Z"/><path class="cls-2" d="M895.09,1445.12l.88-.88-44.62-47.36c-2.06.33-4.1.71-6.1,1.16Z"/><path class="cls-2" d="M801.5,1436.5c3.53,3.94,6.87,8.08,10.65,11.78,7.48,7.33,15.21,14.41,22.84,21.59-.4-1.12-.48-2.54-1.24-3.3q-13.56-13.8-27.36-27.38c-1.3-1.28-3.27-1.88-4.93-2.78l.15.2Z"/><path class="cls-2" d="M801.35,1336.6a97.88,97.88,0,0,0-10.32-9.7Z"/><path class="cls-2" d="M267.41,1401.58c13.93,13.53,28.59,26.31,42.53,39.83,9.14,8.86,17.29,18.75,26.42,27.62,5.77,5.6,11.7,11,17.64,16.45,4.18.79,8.46,1.36,12.79,1.83a64.31,64.31,0,0,0-9.92-8.89c-5-3.52-7.83-10-12.23-14.55-19.67-20.44-39.59-40.64-59.33-61-12.91-13.32-25.68-26.77-37.53-41.15l130.87,126.45c2.18.08,4.34.2,6.55.2,1.72,0,3.42-.08,5.12-.13-3.41-3.41-6.84-6.82-10.21-10.27q-23-23.61-45.89-47.31c-10.52-10.89-20.94-21.89-31.46-32.79-2.44-2.53-5.14-4.81-7.72-7.2l1.61-1.83c5.72,5.45,11.4,11,17.17,16.34,7.92,7.41,16.11,14.55,23.83,22.18,5.82,5.75,10.76,12.4,16.64,18.07,12.08,11.63,24.72,22.67,36.78,34.32,2.72,2.63,5.37,5.33,8.05,8,3.43-.29,6.82-.65,10.16-1.14-2.34-2.46-4.7-4.89-7-7.37-9.94-10.59-19.36-21.68-29.35-32.23-8.38-8.84-17.29-17.18-25.87-25.83a9.26,9.26,0,0,1-2.81-6.37c6.53,6.09,13.13,12.11,19.56,18.3,10,9.61,19.8,19.38,29.79,29,5.41,5.2,11,10.17,16.53,15.29l8.25,7.67.5-.09c4.7,2.2,9.92,4.3,15.47,6.33-6.16-6.26-12.32-12.51-18.32-18.91-9.25-9.84-17.77-20.38-27.25-30-9.32-9.44-19.44-18.08-29.2-27.08l1.8-2.49c1.45.64,3.28.91,4.31,2,6.75,6.88,13.16,14.09,20,20.85,3.85,3.79,8.58,6.67,12.52,10.38,8.14,7.66,15.89,15.73,24,23.4,9.83,9.27,19.79,18.4,29.68,27.6,3.83,1.12,7.78,2.19,11.88,3.24-2.15-2.19-4.32-4.34-6.43-6.55-11.59-12.13-22.79-24.63-34.27-36.86-10.68-11.37-21.53-22.59-32.25-33.92-.55-.58-.63-1.6.2-3.35,1.79,1.61,3.61,3.18,5.36,4.83,15.1,14.26,30.08,28.66,45.31,42.78,11.7,10.85,23.83,21.23,35.54,32.07,1.89,1.75,3.71,3.59,5.55,5.39q4.4.91,8.92,1.77c-3.78-3.61-7.59-7.19-11.36-10.81-8.45-8.1-17.41-15.72-25.3-24.33-8.36-9.13-15.64-19.24-23.53-28.8-4.11-5-8.51-9.73-12.79-14.57-.18,0-.36-.05-.52-.09h0c0-.11.05-.23.07-.35a69.92,69.92,0,0,1-16.77-17.87c6.61,5.67,11.94,10.14,17.08,14.82.45.41-.08,1.9-.31,3l.15.13.29.32c1.62.28,3.51.27,4.56,1.21,14.45,12.86,28.94,25.7,43,39,6.7,6.31,12.37,13.7,18.84,20.28,5.73,5.84,12,11.16,17.88,16.83,1.29,1.25,2.52,2.56,3.76,3.86,3.68.59,7.46,1.14,11.26,1.68-13.5-13.79-27.49-27.1-40.81-41-17.22-18-34-36.47-50.95-54.74.53-.6,1.07-1.19,1.61-1.79,4.44,3.89,9,7.67,13.31,11.69,9.67,9,19.35,17.93,28.8,27.13,11.05,10.76,21.67,22,32.81,32.63,9.87,9.45,19.9,18.72,29.89,28,3.45.41,7,.79,10.48,1.16-1.64-1.76-3.26-3.53-4.93-5.26-10.52-10.85-22-20.78-32.46-31.68-9.64-10.05-18.34-21-27.77-31.26-6.33-6.89-13.25-13.22-19.83-19.87-1.62-1.64-3-3.5-4.47-5.28-.14,0-.3-.08-.44-.12l0,0c0-.18-.12-.33-.16-.51l-17.25-17.33c7.68,3.93,15,8.21,17.25,17.33l.33.33.25.32c1.64.46,3.49.66,4.68,1.66,7.79,6.52,15.71,12.94,23,20,14.64,14.22,28.72,29,43.38,43.2,8.54,8.26,18,15.52,26.59,23.77q3.09,3,6.06,6.07c3,.26,6,.53,9.13.76-4-4.37-8.06-8.75-12.19-13-8.3-8.59-17.55-16.27-25.94-24.78-5.65-5.73-10.31-12.41-15.84-18.27-7.83-8.32-16.11-16.23-24.1-24.42-6.06-6.21-12-12.58-17.95-18.88l1.78-1.8c6.53,6.23,13,12.49,19.61,18.66,10.86,10.18,22,20.06,32.6,30.54,7.05,7,13,15.13,20,22.14s14.71,13.07,22,19.64c4,3.61,8,7.3,11.95,11,3.67.22,7.38.4,11.11.57-4.43-5.16-8.75-10.42-13.38-15.4-4-4.34-8.84-7.94-13.15-12s-8.54-8.48-12.8-12.71c-3.84-3.81-7.89-7.42-11.46-11.45-3.43-3.87-6-8.53-9.62-12.18-4.46-4.5-9.89-8-14.39-12.52a53,53,0,0,1-10.77-15.2l96.4,91.94c3.7.12,7.43.23,11.19.31l-2.17-2.21c-5.71-5.91-11.42-11.83-17.07-17.8q-12.43-13.14-24.78-26.36a16.06,16.06,0,0,1-4.26-7.76c6.11,5.28,12.29,10.49,18.32,15.86,6.29,5.6,12.53,11.27,18.64,17.06,7.47,7.09,14.88,14.23,22.31,21.35,2.71,0,5.39.08,8.13.08h2.08c-3.1-3.29-6.15-6.62-9.25-9.9-6.47-6.84-13.64-13-19.93-20-8.81-9.78-17.09-20-25.24-30.59,4.45,3.59,9,7,13.32,10.81,10.44,9.24,20.89,18.48,31,28.07,6.13,5.8,11.39,12.5,17.51,18.31,1.16,1.1,2.35,2.16,3.53,3.23q4.4-.06,8.76-.17-7.5-7.93-14.91-15.94c-7.06-7.66-13.55-15.84-20.6-23.49-8-8.67-16.35-17-24.55-25.5l1.4-1.6c4.94,4.2,10.09,8.19,14.78,12.66,9.55,9.11,18.58,18.79,28.34,27.66s19.86,17.14,29.75,25.75l6.56-.29c-1.83-2-3.66-3.91-5.48-5.87q-29.37-31.62-58.68-63.28c-5.3-5.7-10.86-11.18-16.3-16.76l1.61-1.62c14,13.39,27.18,27.64,42,39.92,14.23,11.75,26.55,25.3,40,37.81l9.7,9.09c2.08-.13,4.13-.28,6.19-.43l-83.32-88.85c.65-.66,1.29-1.32,1.94-2,2.42,2.36,4.76,4.81,7.27,7.07,11.78,10.67,23.78,21.11,35.38,32,12.55,11.75,24.62,24,37.12,35.82,5.3,5,10.67,9.92,16.05,14.82,1.92-.17,3.81-.36,5.71-.54q-10.63-11.4-21.42-22.64c-9.67-10-19.92-19.51-29.75-29.41-3.38-3.4-6.11-7.44-9.37-11-9.85-10.65-19.84-21.17-29.71-31.79-4.31-4.63-8.48-9.38-12.71-14.08l1.48-1.32,115.66,108.7c1.27-.14,2.52-.3,3.78-.45L612.73,1387.55l.52-1a47.94,47.94,0,0,1,5.8,4c20.52,19,41.08,37.88,61.4,57,10.79,10.17,21,20.94,31.7,31.22,11.05,10.63,22.23,21.12,33.41,31.61l3.66-.54c-.85-1.1-1.72-2.18-2.67-3.19-9.48-10.14-19.27-20-29-29.92s-19.68-19.63-29.17-29.76c-6.36-6.79-12-14.24-18.14-21.26-3.74-4.28-7.68-8.4-11.67-12.44-10.52-10.66-21.13-21.22-31.66-31.87-.44-.44-.43-1.32.8-3.42l131.6,123.58,1-1L636.75,1369.34l1.13-1.3c4.64,3.78,9.51,7.31,13.88,11.37q27.69,25.69,55.12,51.65c13.35,12.61,26.55,25.4,39.88,38,11.57,11,23.23,21.86,34.86,32.79-1.3-2-2.3-4.35-4-6-11.86-12-24.12-23.68-35.72-36-14.13-15-27.56-30.57-41.6-45.61-14.54-15.58-29.46-30.82-44.19-46.23-.48-.49-.67-1.26-.25-3.29,2.06,1.11,4.45,1.86,6.15,3.39,7.89,7.09,15.64,14.36,23.36,21.65,10.47,9.88,20.82,19.88,31.31,29.74,15,14,30,28,45,42,4.32,4.07,8.44,8.37,12.65,12.57-2.08-3.48-3.87-7.24-6.57-10.14-10.33-11.07-21-21.77-31.61-32.62-9.7-10-19.52-19.83-29-30-15.83-16.88-31.49-33.92-47.16-51-3.89-4.23-7.52-8.71-11.27-13.07l1.8-1.7,174.9,166.76L666.5,1336.38l2-2c49.64,42.38,95.57,88.74,143.59,133L689.41,1337.84l1.71-2c3.53,2.59,7.24,5,10.56,7.8,11.2,9.6,22.64,19,33.26,29.2,9.2,8.86,17,19.12,26.16,28,8,7.85,17.06,14.64,25.54,22,5.06,4.41,9.91,9.07,14.86,13.62l-.1-.12.06,0c-5-6.05-9.83-12.29-15.11-18.1-6.6-7.27-13.65-14.12-20.41-21.26-5.71-6-11.21-12.27-16.9-18.33-9.55-10.16-19.22-20.2-28.74-30.37-7.21-7.7-14.29-15.5-21.36-23.32-.91-1-1.4-2.39-1-4.62,7.11,6.76,14.11,13.66,21.39,20.24,6.81,6.18,14.23,11.71,20.84,18.08,11.14,10.74,21.78,22,32.78,32.88,5,5,10.38,9.6,15.64,14.33q17.93,16.14,35.89,32.24l-.2-.27.11.11c-1.22-2-2.19-4.28-3.76-6q-23.52-25.6-47.26-51c-3.42-3.65-7.6-6.61-10.9-10.36-11.21-12.75-22.19-25.69-33.26-38.57-.32-.22-.65-.43-1-.66l.22-.22-.22.22c-.05-.21-.15-.38-.21-.58l-15.49-13,2.21-2.25c3.84,5.68,11,8,13.28,15.27l.43.36.75.88c6.08,4.23,12.51,8.08,18,13,8.67,7.74,16.5,16.4,24.85,24.5,7.62,7.39,15.49,14.53,23.2,21.84,11.33,10.73,22.58,21.56,33.92,32.28Q848,1441.51,867,1459.21c-3.6-4.23-7-8.61-10.81-12.64-15.63-16.63-31.41-33.1-47.05-49.71q-27-28.75-53.94-57.64c-3.49-3.72-7.05-7.37-10.58-11l1.87-2.13c5.09,4.08,10.42,7.88,15.18,12.3s8.65,9.39,13.1,14c6.89,7.08,13.84,14.11,21,21,2.18,2.09,5.25,3.26,7.42,5.35,7.25,7,14.42,14.06,21.62,21.11.07-1.4.12-2.81.12-4.24,0-1.78-.1-3.55-.21-5.31-2.13-2.25-4.24-4.52-6.38-6.76-9.38-9.83-19.12-19.31-28.45-29.19-9-9.52-17.66-19.37-26.51-29-4.9-5.35-9.89-10.61-14.85-15.91l1.34-1.38,72.93,68.88a86,86,0,0,0-5.43-16l-41.8-44.36c-1.78-1-3.59-1.94-5.44-2.83-4.71-62-80.47-111.29-173.24-111.29-89.59,0-163.3,46-172.5,105a166.6,166.6,0,0,0-39.14-4.61c-47,0-87.88,19-109.46,47.23-2.77-.16-5.57-.26-8.41-.26a131.82,131.82,0,0,0-44.62,7.53C237.56,1372,252.33,1386.94,267.41,1401.58Zm256.83,22.36,32.5,31.82-2.5,2.52L522.16,1426Z"/><path class="cls-2" d="M921.8,1409.57c2.13,2.12,4.26,4.25,6.42,6.36,5.71,5.59,12,10.57,18.06,15.83-.35-.46-.68-1-1-1.42A79.79,79.79,0,0,0,921.8,1409.57Z"/><path class="cls-2" d="M902.24,1429l-31.35-33.43c-.71,0-1.4-.09-2.12-.09-1.57,0-3.12.06-4.67.13L901,1430.29Z"/><path class="cls-2" d="M932.72,1480.5l-1.53,1.53,16.87,16.59c.36-.58.7-1.17,1.05-1.75Z"/><path class="cls-2" d="M924.94,1431.76c-1.11-1.85-1.92-4-3.38-5.5q-13.45-13.89-27-27.71c-2.34-.57-4.73-1.06-7.15-1.47,3.86,3.82,7.7,7.67,11.62,11.43C907.4,1416.53,916.28,1424,924.94,1431.76Z"/><path class="cls-2" d="M945.54,1476.73l8.86,8.88c.46-1.31.91-2.62,1.28-4l-7.54-7.51Z"/></g></g></g></svg>