<svg xmlns="http://www.w3.org/2000/svg" viewBox="0 0 270.19 186.26"><defs><style>.cls-1{fill:#a445e0;}.cls-2{fill:#707377;}.cls-3{fill:#e6e7e8;}.cls-4{font-size:11.93px;letter-spacing:0.16em;}.cls-13,.cls-4{fill:#fff;font-family:MyriadPro-Regular, Myriad Pro;}.cls-5{fill:#6a10a2;opacity:0.3;}.cls-6{fill:#47cb00;}.cls-7{fill:#d1d3d4;}.cls-8{fill:#e2bb3f;}.cls-9{fill:#b69431;}.cls-10,.cls-11{fill:#a7a9ac;}.cls-11{opacity:0.4;}.cls-12{fill:#66708a;opacity:0.53;}.cls-13{font-size:27px;letter-spacing:0.16em;}</style></defs><title>secretFile</title><g id="Capa_2" data-name="Capa 2"><g id="Layer_1" data-name="Layer 1"><path class="cls-1" d="M246.41,18.77V140.44A11.53,11.53,0,0,1,234.88,152H11.53A11.53,11.53,0,0,1,0,140.44V18.77Z"/><path class="cls-2" d="M246.41,11.53v7.24H0V11.53A11.53,11.53,0,0,1,11.53,0H234.88A11.53,11.53,0,0,1,246.41,11.53Z"/><rect class="cls-3" x="24.77" y="6.77" width="135.06" height="6.09"/><text class="cls-4" transform="translate(8.32 12.86)">x</text><rect class="cls-3" x="169.64" y="6.34" width="46.26" height="6.09"/><path class="cls-5" d="M246.41,29.79h-216A11.53,11.53,0,0,0,18.85,41.32V151.79H246.41Z"/><path class="cls-3" d="M270.19,53.06V174.73a11.53,11.53,0,0,1-11.53,11.53H35.31a11.54,11.54,0,0,1-11.54-11.53V53.06Z"/><path class="cls-2" d="M270.19,45.82v7.24H23.77V45.82A11.54,11.54,0,0,1,35.31,34.29H258.66A11.53,11.53,0,0,1,270.19,45.82Z"/><circle class="cls-6" cx="34.19" cy="61.32" r="2.21"/><circle class="cls-6" cx="41.09" cy="61.32" r="2.21"/><circle class="cls-6" cx="48" cy="61.32" r="2.21"/><rect class="cls-3" x="48.54" y="41.06" width="135.06" height="6.09"/><rect class="cls-3" x="192.77" y="41.06" width="46.26" height="6.09"/><text class="cls-4" transform="translate(32.1 47.15)">x</text><path class="cls-7" d="M166,116.4h-3.7v-13a23.29,23.29,0,1,0-46.57,0v13h-3.7v37.36h54V116.4Zm-41.44-13a14.46,14.46,0,1,1,28.91,0v13H124.6Z"/><rect class="cls-8" x="117.36" y="110.52" width="53.97" height="37.36"/><path class="cls-9" d="M129.06,129.2c0,9-2.24,16.58-8.32,18.68h-3.39V110.52h3.39C126.82,112.61,129.06,120.17,129.06,129.2Z"/><path class="cls-9" d="M171.33,110.52v37.36h-3.39c-6.08-2.1-7.18-9.66-7.18-18.68s1.1-16.59,7.18-18.68Z"/><path class="cls-10" d="M167.62,110.52H158.8v-13a14.46,14.46,0,0,0-28.92,0v13h-8.82v-13a23.28,23.28,0,1,1,46.56,0Z"/><rect class="cls-11" x="90.56" y="99.58" width="109.68" height="38.07"/><rect class="cls-12" x="125.69" y="120.69" width="39.28" height="9.61"/><text class="cls-13" transform="translate(117.35 135.64)">****</text></g></g></svg>