<?xml version="1.0" encoding="utf-8"?>
<!-- Generator: Adobe Illustrator 22.1.0, SVG Export Plug-In . SVG Version: 6.00 Build 0)  -->
<svg version="1.1" id="Capa_1" xmlns="http://www.w3.org/2000/svg" xmlns:xlink="http://www.w3.org/1999/xlink" x="0px" y="0px"
	 viewBox="0 0 53.9 53.6" style="enable-background:new 0 0 53.9 53.6;" xml:space="preserve">
<style type="text/css">
	.st0{fill:#FFFFFF;}
	.st1{fill:#231F20;}
</style>
<title>skills-center0</title>
<circle class="st0" cx="26.9" cy="26.9" r="26.2"/>
<g id="_Grupo_">
	<path id="_Trazado_" class="st1" d="M26.3,19.5c-2.5-0.4-3.1,3.4-1.3,4.4C28,25.5,29.8,20.1,26.3,19.5
		C24.8,19.2,27.4,19.6,26.3,19.5z"/>
	<path id="_Trazado_2" class="st1" d="M39.9,19.4c4-0.3,2.1-5.3-0.5-4.5C37.4,15.5,37.3,19.7,39.9,19.4z"/>
	<path id="_Trazado_3" class="st1" d="M41.9,29.7c-4.4,5.1-10.9,8.6-17.8,7.6c-8.4-1.2-9.3-8.5-7.4-15.3c1.4-5,6.5-10.3,11.5-5.5
		c1.9,1.8,4.8,7.2,5.2,8.4c-1,0.7-4.6,1.2-5.3,2.5c-0.2,1,0.1,2,0.9,2.6c1.2,1.2,6.7-1.2,8.9-2.3c3.1-1.1-1-6.4-2.3-8.9
		c-2.9-5.5-6.7-11-13.7-9.7C7.2,11.9,6.1,31.4,15.8,40c5.9,5.3,12.9,4.6,19.7,1.3c2.7-1.2,5.1-3,7-5.3c0.8-1.1,1.9-2.7,1.9-4.2
		C44.4,31,43.6,27.8,41.9,29.7C39.2,32.8,42.8,28.7,41.9,29.7z"/>
</g>
</svg>
