<svg xmlns="http://www.w3.org/2000/svg" viewBox="0 0 40 40"><defs><style>.cls-1{fill:none;}.cls-2{fill:#5e549f;}</style></defs><title>iconos-1</title><g id="RS-twi.svg"><rect class="cls-1" width="40" height="40"/><path id="_Path_" data-name="&lt;Path&gt;" class="cls-2" d="M37.04821,9.42543a13.98368,13.98368,0,0,1-4.01774,1.1015,7.01555,7.01555,0,0,0,3.07579-3.87014,14.00551,14.00551,0,0,1-4.44208,1.69758,7.00187,7.00187,0,0,0-11.92037,6.38019A19.85945,19.85945,0,0,1,5.32543,7.42568,7.003,7.003,0,0,0,7.49032,16.765a6.96675,6.96675,0,0,1-3.16848-.875c-.00048.02924-.0006.05847-.0006.08794a6.9995,6.9995,0,0,0,5.61142,6.85928,7.0126,7.0126,0,0,1-3.1591.11984A7.00253,7.00253,0,0,0,13.3082,27.8152a14.036,14.036,0,0,1-8.68771,2.99444,14.23812,14.23812,0,0,1-1.6687-.09768,19.79993,19.79993,0,0,0,10.72313,3.14278c12.86695,0,19.903-10.65919,19.903-19.9032q0-.4549-.02022-.90493A14.21666,14.21666,0,0,0,37.04821,9.42543Z"/></g></svg>