<svg xmlns="http://www.w3.org/2000/svg" viewBox="0 0 40 40"><defs><style>.cls-1{fill:none;}.cls-2,.cls-3{fill:#5e549f;}.cls-2{fill-rule:evenodd;opacity:0.12;}</style></defs><title>iconos-1</title><g id="RS-youtube.svg"><rect class="cls-1" width="40" height="40"/><g id="_Group_" data-name="&lt;Group&gt;"><path id="The_Sharpness" data-name="The Sharpness" class="cls-2" d="M16.47839,14.84247l8.07947,5.39512,1.13353-.58833Z"/><g id="Lozenge"><path class="cls-3" d="M36.70773,13.18285a7.37675,7.37675,0,0,0-1.35547-3.38433,4.87656,4.87656,0,0,0-3.41632-1.44428c-4.77136-.34491-11.92853-.34491-11.92853-.34491h-.01483s-7.157,0-11.92853.34491A4.87721,4.87721,0,0,0,4.64773,9.79852a7.37392,7.37392,0,0,0-1.355,3.38433,51.57121,51.57121,0,0,0-.34094,5.51838V21.288a51.57115,51.57115,0,0,0,.34094,5.51837,7.374,7.374,0,0,0,1.355,3.38434,5.78191,5.78191,0,0,0,3.75958,1.45746C11.1351,31.90966,20,31.99065,20,31.99065s7.16455-.0108,11.93591-.35571a4.87686,4.87686,0,0,0,3.41632-1.44427,7.37682,7.37682,0,0,0,1.35547-3.38434,51.63527,51.63527,0,0,0,.34051-5.51837V18.70123A51.63533,51.63533,0,0,0,36.70773,13.18285ZM16.48,24.42266l-.00159-9.5802,9.213,4.80676Z"/></g></g></g></svg>