<svg xmlns="http://www.w3.org/2000/svg" viewBox="0 0 20 20"><defs><style>.cls-1{fill:#fff;}.cls-2{fill:#be9abc;}</style></defs><title>info</title><g id="Capa_2" data-name="Capa 2"><g id="Layer_1" data-name="Layer 1"><circle class="cls-1" cx="10" cy="10" r="10"/><rect class="cls-2" x="8.77" y="7.98" width="2.45" height="8.46"/><path class="cls-2" d="M11.05,3.91A1.45,1.45,0,0,0,10,3.56a1.44,1.44,0,0,0-1.06.35,1.21,1.21,0,0,0-.33.87v.31A1.23,1.23,0,0,0,8.94,6,1.44,1.44,0,0,0,10,6.32,1.45,1.45,0,0,0,11.05,6a1.2,1.2,0,0,0,.34-.88V4.78A1.18,1.18,0,0,0,11.05,3.91Z"/></g></g></svg>